<?xml version="1.0" standalone="yes"?>

<svg version="1.1" viewBox="0.0 0.0 945.0971128608924 658.3307086614174" fill="none" stroke="none" stroke-linecap="square" stroke-miterlimit="10" xmlns="http://www.w3.org/2000/svg" xmlns:xlink="http://www.w3.org/1999/xlink"><clipPath id="p.0"><path d="m0 0l945.0971 0l0 658.3307l-945.0971 0l0 -658.3307z" clip-rule="nonzero"></path></clipPath><g clip-path="url(#p.0)"><path fill="#000000" fill-opacity="0.0" d="m0 0l945.0971 0l0 658.3307l-945.0971 0z" fill-rule="evenodd"></path><path fill="#e6b8af" d="m24.16273 37.259842l304.44095 0l0 146.58267l-304.44095 0z" fill-rule="evenodd"></path><path stroke="#000000" stroke-width="1.0" stroke-linejoin="round" stroke-linecap="butt" d="m24.16273 37.259842l304.44095 0l0 146.58267l-304.44095 0z" fill-rule="evenodd"></path><path fill="#000000" d="m68.145454 121.49118l0 -22.1875l14.96875 0l0 2.609375l-12.03125 0l0 6.875l10.40625 0l0 2.625l-10.40625 0l0 10.078125l-2.9375 0zm28.757309 0l0 -2.359375q-1.875 2.71875 -5.09375 2.71875q-1.421875 0 -2.65625 -0.546875q-1.234375 -0.546875 -1.84375 -1.359375q-0.59375 -0.828125 -0.828125 -2.03125q-0.171875 -0.796875 -0.171875 -2.53125l0 -9.96875l2.71875 0l0 8.921875q0 2.125 0.171875 2.875q0.25 1.078125 1.078125 1.6875q0.84375 0.609375 2.0625 0.609375q1.234375 0 2.296875 -0.625q1.078125 -0.625 1.53125 -1.703125q0.453125 -1.09375 0.453125 -3.15625l0 -8.609375l2.71875 0l0 16.078125l-2.4375 0zm17.518295 -5.171875l2.8125 0.34375q-0.65625 2.46875 -2.46875 3.828125q-1.796875 1.359375 -4.59375 1.359375q-3.53125 0 -5.59375 -2.171875q-2.0625 -2.171875 -2.0625 -6.09375q0 -4.046875 2.078125 -6.28125q2.09375 -2.25 5.421875 -2.25q3.234375 0 5.265625 2.203125q2.046875 2.1875 2.046875 6.171875q0 0.234375 -0.015625 0.71875l-11.984375 0q0.15625 2.65625 1.5 4.0625q1.34375 1.40625 3.359375 1.40625q1.5 0 2.546875 -0.78125q1.0625 -0.796875 1.6875 -2.515625zm-8.9375 -4.40625l8.96875 0q-0.1875 -2.03125 -1.03125 -3.046875q-1.296875 -1.578125 -3.375 -1.578125q-1.875 0 -3.15625 1.265625q-1.28125 1.25 -1.40625 3.359375zm14.987045 9.578125l0 -16.078125l2.453125 0l0 2.28125q1.765625 -2.640625 5.1093826 -2.640625q1.453125 0 2.671875 0.53125q1.21875 0.515625 1.828125 1.359375q0.609375 0.84375 0.84375 2.015625q0.15625 0.75 0.15625 2.640625l0 9.890625l-2.734375 0l0 -9.78125q0 -1.65625 -0.3125 -2.484375q-0.3125 -0.828125 -1.125 -1.3125q-0.8125 -0.5 -1.9062576 -0.5q-1.734375 0 -3.0 1.109375q-1.265625 1.09375 -1.265625 4.1875l0 8.78125l-2.71875 0zm23.002678 -2.4375l0.390625 2.40625q-1.15625 0.25 -2.0625 0.25q-1.484375 0 -2.3125 -0.46875q-0.8125 -0.484375 -1.140625 -1.234375q-0.328125 -0.765625 -0.328125 -3.21875l0 -9.25l-2.0 0l0 -2.125l2.0 0l0 -3.984375l2.703125 -1.625l0 5.609375l2.75 0l0 2.125l-2.75 0l0 9.390625q0 1.171875 0.140625 1.515625q0.15625 0.328125 0.46875 0.53125q0.328125 0.1875 0.9375 0.1875q0.453125 0 1.203125 -0.109375zm13.564163 -2.734375l2.8125 0.34375q-0.65625 2.46875 -2.46875 3.828125q-1.796875 1.359375 -4.59375 1.359375q-3.53125 0 -5.59375 -2.171875q-2.0625 -2.171875 -2.0625 -6.09375q0 -4.046875 2.078125 -6.28125q2.09375 -2.25 5.421875 -2.25q3.234375 0 5.265625 2.203125q2.046875 2.1875 2.046875 6.171875q0 0.234375 -0.015625 0.71875l-11.984375 0q0.15625 2.65625 1.5 4.0625q1.34375 1.40625 3.359375 1.40625q1.5 0 2.546875 -0.78125q1.0625 -0.796875 1.6875 -2.515625zm-8.9375 -4.40625l8.96875 0q-0.1875 -2.03125 -1.03125 -3.046875q-1.296875 -1.578125 -3.375 -1.578125q-1.875 0 -3.15625 1.265625q-1.28125 1.25 -1.40625 3.359375zm33.92621 9.578125l0 -2.03125q-1.53125 2.390625 -4.484375 2.390625q-1.921875 0 -3.546875 -1.046875q-1.609375 -1.0625 -2.5 -2.96875q-0.875 -1.90625 -0.875 -4.359375q0 -2.40625 0.796875 -4.359375q0.8125 -1.96875 2.40625 -3.015625q1.609375 -1.046875 3.59375 -1.046875q1.453125 0 2.578125 0.609375q1.140625 0.609375 1.859375 1.59375l0 -7.953125l2.703125 0l0 22.1875l-2.53125 0zm-8.609375 -8.015625q0 3.078125 1.296875 4.609375q1.3125 1.53125 3.078125 1.53125q1.78125 0 3.03125 -1.453125q1.25 -1.46875 1.25 -4.46875q0 -3.296875 -1.28125 -4.84375q-1.265625 -1.546875 -3.125 -1.546875q-1.8125 0 -3.03125 1.484375q-1.21875 1.484375 -1.21875 4.6875zm26.237045 2.84375l2.8125 0.34375q-0.65625 2.46875 -2.46875 3.828125q-1.796875 1.359375 -4.59375 1.359375q-3.53125 0 -5.59375 -2.171875q-2.0625 -2.171875 -2.0625 -6.09375q0 -4.046875 2.078125 -6.28125q2.09375 -2.25 5.421875 -2.25q3.234375 0 5.265625 2.203125q2.046875 2.1875 2.046875 6.171875q0 0.234375 -0.015625 0.71875l-11.984375 0q0.15625 2.65625 1.5 4.0625q1.34375 1.40625 3.359375 1.40625q1.5 0 2.546875 -0.78125q1.0625 -0.796875 1.6875 -2.515625zm-8.9375 -4.40625l8.96875 0q-0.1875 -2.03125 -1.03125 -3.046875q-1.296875 -1.578125 -3.375 -1.578125q-1.875 0 -3.15625 1.265625q-1.28125 1.25 -1.40625 3.359375zm33.92621 9.578125l0 -2.03125q-1.53125 2.390625 -4.484375 2.390625q-1.921875 0 -3.546875 -1.046875q-1.609375 -1.0625 -2.5 -2.96875q-0.875 -1.90625 -0.875 -4.359375q0 -2.40625 0.796875 -4.359375q0.8125 -1.96875 2.40625 -3.015625q1.609375 -1.046875 3.59375 -1.046875q1.453125 0 2.578125 0.609375q1.140625 0.609375 1.859375 1.59375l0 -7.953125l2.703125 0l0 22.1875l-2.53125 0zm-8.609375 -8.015625q0 3.078125 1.296875 4.609375q1.3125 1.53125 3.078125 1.53125q1.78125 0 3.03125 -1.453125q1.25 -1.46875 1.25 -4.46875q0 -3.296875 -1.28125 -4.84375q-1.265625 -1.546875 -3.125 -1.546875q-1.8125 0 -3.03125 1.484375q-1.21875 1.484375 -1.21875 4.6875zm25.72142 6.03125q-1.515625 1.28125 -2.921875 1.8125q-1.390625 0.53125 -3.0 0.53125q-2.640625 0 -4.0625 -1.28125q-1.421875 -1.296875 -1.421875 -3.3125q0 -1.1875 0.53125 -2.15625q0.53125 -0.984375 1.40625 -1.5625q0.875 -0.59375 1.96875 -0.90625q0.796875 -0.203125 2.421875 -0.40625q3.296875 -0.390625 4.859375 -0.9375q0.015625 -0.5625 0.015625 -0.703125q0 -1.671875 -0.78125 -2.359375q-1.046875 -0.921875 -3.09375 -0.921875q-1.921875 0 -2.84375 0.671875q-0.921875 0.671875 -1.359375 2.390625l-2.65625 -0.359375q0.359375 -1.71875 1.1875 -2.765625q0.84375 -1.046875 2.40625 -1.609375q1.578125 -0.578125 3.65625 -0.578125q2.0625 0 3.34375 0.484375q1.28125 0.484375 1.890625 1.21875q0.609375 0.734375 0.84375 1.859375q0.140625 0.6875 0.140625 2.5l0 3.640625q0 3.796875 0.171875 4.8125q0.171875 1.0 0.6875 1.921875l-2.84375 0q-0.421875 -0.84375 -0.546875 -1.984375zm-0.21875 -6.078125q-1.484375 0.59375 -4.453125 1.03125q-1.6875 0.234375 -2.390625 0.546875q-0.6875 0.296875 -1.0625 0.875q-0.375 0.578125 -0.375 1.296875q0 1.09375 0.8125 1.828125q0.828125 0.71875 2.421875 0.71875q1.578125 0 2.796875 -0.6875q1.234375 -0.703125 1.8125 -1.890625q0.4375 -0.921875 0.4375 -2.71875l0 -1.0zm12.737045 5.625l0.390625 2.40625q-1.15625 0.25 -2.0625 0.25q-1.484375 0 -2.3125 -0.46875q-0.8125 -0.484375 -1.140625 -1.234375q-0.328125 -0.765625 -0.328125 -3.21875l0 -9.25l-2.0 0l0 -2.125l2.0 0l0 -3.984375l2.703125 -1.625l0 5.609375l2.75 0l0 2.125l-2.75 0l0 9.390625q0 1.171875 0.140625 1.515625q0.15625 0.328125 0.46875 0.53125q0.328125 0.1875 0.9375 0.1875q0.453125 0 1.203125 -0.109375zm1.5485382 -5.59375q0 -4.46875 2.484375 -6.625q2.0625 -1.78125 5.046875 -1.78125q3.3125 0 5.421875 2.171875q2.109375 2.171875 2.109375 6.0q0 3.109375 -0.9375 4.890625q-0.921875 1.765625 -2.703125 2.75q-1.78125 0.984375 -3.890625 0.984375q-3.375 0 -5.453125 -2.15625q-2.078125 -2.171875 -2.078125 -6.234375zm2.796875 0q0 3.078125 1.34375 4.625q1.359375 1.53125 3.390625 1.53125q2.03125 0 3.375 -1.546875q1.359375 -1.546875 1.359375 -4.703125q0 -2.984375 -1.359375 -4.515625q-1.359375 -1.546875 -3.375 -1.546875q-2.03125 0 -3.390625 1.53125q-1.34375 1.53125 -1.34375 4.625zm14.17453 3.234375l2.6875 -0.421875q0.234375 1.609375 1.265625 2.484375q1.046875 0.859375 2.90625 0.859375q1.875 0 2.78125 -0.765625q0.90625 -0.765625 0.90625 -1.796875q0 -0.921875 -0.796875 -1.453125q-0.5625 -0.359375 -2.78125 -0.921875q-3.0 -0.75 -4.15625 -1.296875q-1.15625 -0.5625 -1.765625 -1.53125q-0.59375 -0.984375 -0.59375 -2.171875q0 -1.0625 0.484375 -1.984375q0.5 -0.921875 1.34375 -1.515625q0.640625 -0.46875 1.734375 -0.796875q1.09375 -0.328125 2.359375 -0.328125q1.890625 0 3.3125 0.546875q1.4375 0.546875 2.109375 1.484375q0.6875 0.921875 0.953125 2.484375l-2.671875 0.359375q-0.171875 -1.25 -1.046875 -1.9375q-0.875 -0.703125 -2.46875 -0.703125q-1.875 0 -2.671875 0.625q-0.796875 0.625 -0.796875 1.453125q0 0.53125 0.328125 0.953125q0.328125 0.4375 1.046875 0.734375q0.40625 0.140625 2.40625 0.6875q2.890625 0.78125 4.03125 1.265625q1.140625 0.484375 1.78125 1.4375q0.65625 0.9375 0.65625 2.328125q0 1.359375 -0.796875 2.5625q-0.78125 1.203125 -2.28125 1.859375q-1.5 0.65625 -3.390625 0.65625q-3.140625 0 -4.78125 -1.296875q-1.640625 -1.296875 -2.09375 -3.859375z" fill-rule="nonzero"></path><path fill="#f4cccc" d="m120.0 143.62204l304.44095 0l0 146.58267l-304.44095 0z" fill-rule="evenodd"></path><path stroke="#000000" stroke-width="1.0" stroke-linejoin="round" stroke-linecap="butt" d="m120.0 143.62204l304.44095 0l0 146.58267l-304.44095 0z" fill-rule="evenodd"></path><path fill="#000000" d="m182.58997 209.35338l0 -22.1875l7.640625 0q2.59375 0 3.953125 0.3125q1.90625 0.4375 3.25 1.59375q1.765625 1.484375 2.625 3.796875q0.875 2.296875 0.875 5.265625q0 2.53125 -0.59375 4.484375q-0.578125 1.953125 -1.515625 3.234375q-0.921875 1.28125 -2.015625 2.015625q-1.09375 0.734375 -2.65625 1.109375q-1.546875 0.375 -3.546875 0.375l-8.015625 0zm2.9375 -2.625l4.734375 0q2.203125 0 3.453125 -0.40625q1.25 -0.40625 1.984375 -1.140625q1.046875 -1.046875 1.625 -2.8125q0.578125 -1.765625 0.578125 -4.28125q0 -3.484375 -1.140625 -5.34375q-1.140625 -1.875 -2.765625 -2.515625q-1.1875 -0.453125 -3.8125 -0.453125l-4.65625 0l0 16.953125zm29.857697 -2.546875l2.8125 0.34375q-0.65625 2.46875 -2.46875 3.828125q-1.796875 1.359375 -4.59375 1.359375q-3.53125 0 -5.59375 -2.171875q-2.0625 -2.171875 -2.0625 -6.09375q0 -4.046875 2.078125 -6.28125q2.09375 -2.25 5.421875 -2.25q3.234375 0 5.265625 2.203125q2.046875 2.1875 2.046875 6.171875q0 0.234375 -0.015625 0.71875l-11.984375 0q0.15625 2.65625 1.5 4.0625q1.34375 1.40625 3.359375 1.40625q1.5 0 2.546875 -0.78125q1.0625 -0.796875 1.6875 -2.515625zm-8.9375 -4.40625l8.96875 0q-0.1875 -2.03125 -1.03125 -3.046875q-1.296875 -1.578125 -3.375 -1.578125q-1.875 0 -3.15625 1.265625q-1.28125 1.25 -1.40625 3.359375zm15.627686 9.578125l0 -13.953125l-2.40625 0l0 -2.125l2.40625 0l0 -1.703125q0 -1.625 0.296875 -2.40625q0.390625 -1.0625 1.375 -1.71875q1.0 -0.65625 2.78125 -0.65625q1.15625 0 2.546875 0.265625l-0.40625 2.375q-0.84375 -0.15625 -1.609375 -0.15625q-1.234375 0 -1.75 0.53125q-0.515625 0.53125 -0.515625 1.984375l0 1.484375l3.125 0l0 2.125l-3.125 0l0 13.953125l-2.71875 0zm7.892273 -19.0625l0 -3.125l2.71875 0l0 3.125l-2.71875 0zm0 19.0625l0 -16.078125l2.71875 0l0 16.078125l-2.71875 0zm6.795227 0l0 -16.078125l2.453125 0l0 2.28125q1.765625 -2.640625 5.109375 -2.640625q1.453125 0 2.671875 0.53125q1.21875 0.515625 1.828125 1.359375q0.609375 0.84375 0.84375 2.015625q0.15625 0.75 0.15625 2.640625l0 9.890625l-2.734375 0l0 -9.78125q0 -1.65625 -0.3125 -2.484375q-0.3125 -0.828125 -1.125 -1.3125q-0.8125 -0.5 -1.90625 -0.5q-1.734375 0 -3.0 1.109375q-1.265625 1.09375 -1.265625 4.1875l0 8.78125l-2.71875 0zm17.065155 -19.0625l0 -3.125l2.71875 0l0 3.125l-2.71875 0zm0 19.0625l0 -16.078125l2.71875 0l0 16.078125l-2.71875 0zm17.279602 -5.890625l2.6875 0.34375q-0.4375 2.78125 -2.25 4.34375q-1.8125 1.5625 -4.453125 1.5625q-3.296875 0 -5.296875 -2.15625q-2.0 -2.15625 -2.0 -6.1875q0 -2.59375 0.859375 -4.546875q0.859375 -1.953125 2.625 -2.921875q1.765625 -0.984375 3.828125 -0.984375q2.625 0 4.28125 1.328125q1.671875 1.3125 2.140625 3.75l-2.640625 0.421875q-0.390625 -1.625 -1.359375 -2.4375q-0.953125 -0.828125 -2.3125 -0.828125q-2.0625 0 -3.34375 1.484375q-1.28125 1.46875 -1.28125 4.671875q0 3.234375 1.234375 4.703125q1.25 1.46875 3.234375 1.46875q1.609375 0 2.6875 -0.984375q1.078125 -0.984375 1.359375 -3.03125zm4.859375 -13.171875l0 -3.125l2.71875 0l0 3.125l-2.71875 0zm0 19.0625l0 -16.078125l2.71875 0l0 16.078125l-2.71875 0zm5.7795715 -8.03125q0 -4.46875 2.484375 -6.625q2.0625 -1.78125 5.046875 -1.78125q3.3125 0 5.421875 2.171875q2.109375 2.171875 2.109375 6.0q0 3.109375 -0.9375 4.890625q-0.921875 1.765625 -2.703125 2.75q-1.78125 0.984375 -3.890625 0.984375q-3.375 0 -5.453125 -2.15625q-2.078125 -2.171875 -2.078125 -6.234375zm2.796875 0q0 3.078125 1.34375 4.625q1.359375 1.53125 3.390625 1.53125q2.03125 0 3.375 -1.546875q1.359375 -1.546875 1.359375 -4.703125q0 -2.984375 -1.359375 -4.515625q-1.359375 -1.546875 -3.375 -1.546875q-2.03125 0 -3.390625 1.53125q-1.34375 1.53125 -1.34375 4.625zm3.53125 -10.046875l2.015625 -4.234375l3.578125 0l-3.34375 4.234375l-2.25 0zm11.737061 18.078125l0 -16.078125l2.453125 0l0 2.28125q1.765625 -2.640625 5.109375 -2.640625q1.453125 0 2.671875 0.53125q1.21875 0.515625 1.828125 1.359375q0.609375 0.84375 0.84375 2.015625q0.15625 0.75 0.15625 2.640625l0 9.890625l-2.734375 0l0 -9.78125q0 -1.65625 -0.3125 -2.484375q-0.3125 -0.828125 -1.125 -1.3125q-0.8125 -0.5 -1.90625 -0.5q-1.734375 0 -3.0 1.109375q-1.265625 1.09375 -1.265625 4.1875l0 8.78125l-2.71875 0zm35.98871 0l0 -2.03125q-1.53125 2.390625 -4.484375 2.390625q-1.921875 0 -3.546875 -1.046875q-1.609375 -1.0625 -2.5 -2.96875q-0.875 -1.90625 -0.875 -4.359375q0 -2.40625 0.796875 -4.359375q0.8125 -1.96875 2.40625 -3.015625q1.609375 -1.046875 3.59375 -1.046875q1.453125 0 2.578125 0.609375q1.140625 0.609375 1.859375 1.59375l0 -7.953125l2.703125 0l0 22.1875l-2.53125 0zm-8.609375 -8.015625q0 3.078125 1.296875 4.609375q1.3125 1.53125 3.078125 1.53125q1.78125 0 3.03125 -1.453125q1.25 -1.46875 1.25 -4.46875q0 -3.296875 -1.28125 -4.84375q-1.265625 -1.546875 -3.125 -1.546875q-1.8125 0 -3.03125 1.484375q-1.21875 1.484375 -1.21875 4.6875zm26.23703 2.84375l2.8125 0.34375q-0.65625 2.46875 -2.46875 3.828125q-1.796875 1.359375 -4.59375 1.359375q-3.53125 0 -5.59375 -2.171875q-2.0625 -2.171875 -2.0625 -6.09375q0 -4.046875 2.078125 -6.28125q2.09375 -2.25 5.421875 -2.25q3.234375 0 5.265625 2.203125q2.046875 2.1875 2.046875 6.171875q0 0.234375 -0.015625 0.71875l-11.984375 0q0.15625 2.65625 1.5 4.0625q1.34375 1.40625 3.359375 1.40625q1.5 0 2.546875 -0.78125q1.0625 -0.796875 1.6875 -2.515625zm-8.9375 -4.40625l8.96875 0q-0.1875 -2.03125 -1.03125 -3.046875q-1.296875 -1.578125 -3.375 -1.578125q-1.875 0 -3.15625 1.265625q-1.28125 1.25 -1.40625 3.359375zm14.924561 9.578125l0 -22.1875l2.71875 0l0 22.1875l-2.71875 0z" fill-rule="nonzero"></path><path fill="#000000" d="m220.4191 238.32213q0 -4.46875 2.484375 -6.625q2.0625 -1.78125 5.046875 -1.78125q3.3125 0 5.421875 2.171875q2.109375 2.171875 2.109375 6.0q0 3.109375 -0.9375 4.890625q-0.921875 1.765625 -2.703125 2.75q-1.78125 0.984375 -3.890625 0.984375q-3.375 0 -5.453125 -2.15625q-2.078125 -2.171875 -2.078125 -6.234375zm2.796875 0q0 3.078125 1.34375 4.625q1.359375 1.53125 3.390625 1.53125q2.03125 0 3.375 -1.546875q1.359375 -1.546875 1.359375 -4.703125q0 -2.984375 -1.359375 -4.515625q-1.359375 -1.546875 -3.375 -1.546875q-2.03125 0 -3.390625 1.53125q-1.34375 1.53125 -1.34375 4.625zm17.783905 8.03125l-2.53125 0l0 -22.1875l2.71875 0l0 7.90625q1.734375 -2.15625 4.40625 -2.15625q1.484375 0 2.8125 0.59375q1.328125 0.59375 2.171875 1.6875q0.859375 1.078125 1.34375 2.609375q0.484375 1.53125 0.484375 3.265625q0 4.140625 -2.046875 6.390625q-2.046875 2.25 -4.90625 2.25q-2.84375 0 -4.453125 -2.375l0 2.015625zm-0.03125 -8.15625q0 2.890625 0.78125 4.171875q1.28125 2.109375 3.484375 2.109375q1.78125 0 3.078125 -1.546875q1.3125 -1.5625 1.3125 -4.625q0 -3.15625 -1.25 -4.65625q-1.25 -1.5 -3.015625 -1.5q-1.796875 0 -3.09375 1.5625q-1.296875 1.546875 -1.296875 4.484375zm14.549561 -10.875l0 -3.15625l2.71875 0l0 3.15625l-2.71875 0zm-3.453125 25.265625l0.515625 -2.3125q0.8125 0.203125 1.28125 0.203125q0.84375 0 1.25 -0.546875q0.40625 -0.546875 0.40625 -2.765625l0 -16.890625l2.71875 0l0 16.953125q0 2.96875 -0.765625 4.140625q-0.984375 1.515625 -3.265625 1.515625q-1.109375 0 -2.140625 -0.296875zm21.279572 -11.40625l2.8125 0.34375q-0.65625 2.46875 -2.46875 3.828125q-1.796875 1.359375 -4.59375 1.359375q-3.53125 0 -5.59375 -2.171875q-2.0625 -2.171875 -2.0625 -6.09375q0 -4.046875 2.078125 -6.28125q2.09375 -2.25 5.421875 -2.25q3.234375 0 5.265625 2.203125q2.046875 2.1875 2.046875 6.171875q0 0.234375 -0.015625 0.71875l-11.984375 0q0.15625 2.65625 1.5 4.0625q1.34375 1.40625 3.359375 1.40625q1.5 0 2.546875 -0.78125q1.0625 -0.796875 1.6875 -2.515625zm-8.9375 -4.40625l8.96875 0q-0.1875 -2.03125 -1.03125 -3.046875q-1.296875 -1.578125 -3.375 -1.578125q-1.875 0 -3.15625 1.265625q-1.28125 1.25 -1.40625 3.359375zm20.940186 7.140625l0.390625 2.40625q-1.15625 0.25 -2.0625 0.25q-1.484375 0 -2.3125 -0.46875q-0.8125 -0.484375 -1.140625 -1.234375q-0.328125 -0.765625 -0.328125 -3.21875l0 -9.25l-2.0 0l0 -2.125l2.0 0l0 -3.984375l2.703125 -1.625l0 5.609375l2.75 0l0 2.125l-2.75 0l0 9.390625q0 1.171875 0.140625 1.515625q0.15625 0.328125 0.46875 0.53125q0.328125 0.1875 0.9375 0.1875q0.453125 0 1.203125 -0.109375zm2.579773 -16.625l0 -3.125l2.71875 0l0 3.125l-2.71875 0zm0 19.0625l0 -16.078125l2.71875 0l0 16.078125l-2.71875 0zm11.263977 0l-6.125 -16.078125l2.875 0l3.453125 9.625q0.5625 1.5625 1.03125 3.25q0.359375 -1.28125 1.015625 -3.0625l3.578125 -9.8125l2.796875 0l-6.09375 16.078125l-2.53125 0zm9.84375 -8.03125q0 -4.46875 2.484375 -6.625q2.0625 -1.78125 5.046875 -1.78125q3.3125 0 5.421875 2.171875q2.109375 2.171875 2.109375 6.0q0 3.109375 -0.9375 4.890625q-0.921875 1.765625 -2.703125 2.75q-1.78125 0.984375 -3.890625 0.984375q-3.375 0 -5.453125 -2.15625q-2.078125 -2.171875 -2.078125 -6.234375zm2.796875 0q0 3.078125 1.34375 4.625q1.359375 1.53125 3.390625 1.53125q2.03125 0 3.375 -1.546875q1.359375 -1.546875 1.359375 -4.703125q0 -2.984375 -1.359375 -4.515625q-1.359375 -1.546875 -3.375 -1.546875q-2.03125 0 -3.390625 1.53125q-1.34375 1.53125 -1.34375 4.625z" fill-rule="nonzero"></path><path fill="#fce5cd" d="m359.30185 239.72704l304.44095 0l0 146.58269l-304.44095 0z" fill-rule="evenodd"></path><path stroke="#000000" stroke-width="1.0" stroke-linejoin="round" stroke-linecap="butt" d="m359.30185 239.72704l304.44095 0l0 146.58269l-304.44095 0z" fill-rule="evenodd"></path><path fill="#000000" d="m458.65778 305.45837l8.53125 -22.1875l3.15625 0l9.078125 22.1875l-3.34375 0l-2.59375 -6.71875l-9.265625 0l-2.4375 6.71875l-3.125 0zm6.40625 -9.109375l7.515625 0l-2.3125 -6.15625q-1.0625 -2.796875 -1.578125 -4.59375q-0.421875 2.140625 -1.1875 4.234375l-2.4375 6.515625zm16.13498 9.109375l0 -16.078125l2.453125 0l0 2.28125q1.765625 -2.640625 5.109375 -2.640625q1.453125 0 2.671875 0.53125q1.21875 0.515625 1.828125 1.359375q0.609375 0.84375 0.84375 2.015625q0.15625 0.75 0.15625 2.640625l0 9.890625l-2.734375 0l0 -9.78125q0 -1.65625 -0.3125 -2.484375q-0.3125 -0.828125 -1.125 -1.3125q-0.8125 -0.5 -1.90625 -0.5q-1.734375 0 -3.0 1.109375q-1.265625 1.09375 -1.265625 4.1875l0 8.78125l-2.71875 0zm27.533936 -1.984375q-1.515625 1.28125 -2.921875 1.8125q-1.390625 0.53125 -3.0 0.53125q-2.640625 0 -4.0625 -1.28125q-1.421875 -1.296875 -1.421875 -3.3125q0 -1.1875 0.53125 -2.15625q0.53125 -0.984375 1.40625 -1.5625q0.875 -0.59375 1.96875 -0.90625q0.796875 -0.203125 2.421875 -0.40625q3.296875 -0.390625 4.859375 -0.9375q0.015625 -0.5625 0.015625 -0.703125q0 -1.671875 -0.78125 -2.359375q-1.046875 -0.921875 -3.09375 -0.921875q-1.921875 0 -2.84375 0.671875q-0.921875 0.671875 -1.359375 2.390625l-2.65625 -0.359375q0.359375 -1.71875 1.1875 -2.765625q0.84375 -1.046875 2.40625 -1.609375q1.578125 -0.578125 3.65625 -0.578125q2.0625 0 3.34375 0.484375q1.28125 0.484375 1.890625 1.21875q0.609375 0.734375 0.84375 1.859375q0.140625 0.6875 0.140625 2.5l0 3.640625q0 3.796875 0.171875 4.8125q0.171875 1.0 0.6874695 1.921875l-2.8437195 0q-0.421875 -0.84375 -0.546875 -1.984375zm-0.21875 -6.078125q-1.484375 0.59375 -4.453125 1.03125q-1.6875 0.234375 -2.390625 0.546875q-0.6875 0.296875 -1.0625 0.875q-0.375 0.578125 -0.375 1.296875q0 1.09375 0.8125 1.828125q0.828125 0.71875 2.421875 0.71875q1.578125 0 2.796875 -0.6875q1.234375 -0.703125 1.8125 -1.890625q0.4375 -0.921875 0.4375 -2.71875l0 -1.0zm-4.953125 -10.015625l2.015625 -4.234375l3.578125 0l-3.34375 4.234375l-2.25 0zm11.67453 18.078125l0 -22.1875l2.71875 0l0 22.1875l-2.71875 0zm6.888977 -19.0625l0 -3.125l2.71875 0l0 3.125l-2.71875 0zm0 19.0625l0 -16.078125l2.71875 0l0 16.078125l-2.71875 0zm5.701416 -4.796875l2.6875 -0.421875q0.234375 1.609375 1.265625 2.484375q1.046875 0.859375 2.90625 0.859375q1.875 0 2.78125 -0.765625q0.90625 -0.765625 0.90625 -1.796875q0 -0.921875 -0.796875 -1.453125q-0.5625 -0.359375 -2.78125 -0.921875q-3.0 -0.75 -4.15625 -1.296875q-1.15625 -0.5625 -1.765625 -1.53125q-0.59375 -0.984375 -0.59375 -2.171875q0 -1.0625 0.484375 -1.984375q0.5 -0.921875 1.34375 -1.515625q0.640625 -0.46875 1.734375 -0.796875q1.09375 -0.328125 2.359375 -0.328125q1.890625 0 3.3125 0.546875q1.4375 0.546875 2.109375 1.484375q0.6875 0.921875 0.953125 2.484375l-2.671875 0.359375q-0.171875 -1.25 -1.046875 -1.9375q-0.875 -0.703125 -2.46875 -0.703125q-1.875 0 -2.671875 0.625q-0.796875 0.625 -0.796875 1.453125q0 0.53125 0.328125 0.953125q0.328125 0.4375 1.046875 0.734375q0.40625 0.140625 2.40625 0.6875q2.890625 0.78125 4.03125 1.265625q1.140625 0.484375 1.78125 1.4375q0.65625 0.9375 0.65625 2.328125q0 1.359375 -0.796875 2.5625q-0.78125 1.203125 -2.28125 1.859375q-1.5 0.65625 -3.390625 0.65625q-3.140625 0 -4.78125 -1.296875q-1.640625 -1.296875 -2.09375 -3.859375zm16.4375 -14.265625l0 -3.125l2.71875 0l0 3.125l-2.71875 0zm0 19.0625l0 -16.078125l2.71875 0l0 16.078125l-2.71875 0zm5.701477 -4.796875l2.6875 -0.421875q0.234375 1.609375 1.265625 2.484375q1.046875 0.859375 2.90625 0.859375q1.875 0 2.78125 -0.765625q0.90625 -0.765625 0.90625 -1.796875q0 -0.921875 -0.796875 -1.453125q-0.5625 -0.359375 -2.78125 -0.921875q-3.0 -0.75 -4.15625 -1.296875q-1.15625 -0.5625 -1.765625 -1.53125q-0.59375 -0.984375 -0.59375 -2.171875q0 -1.0625 0.484375 -1.984375q0.5 -0.921875 1.34375 -1.515625q0.640625 -0.46875 1.734375 -0.796875q1.09375 -0.328125 2.359375 -0.328125q1.890625 0 3.3125 0.546875q1.4375 0.546875 2.109375 1.484375q0.6875 0.921875 0.953125 2.484375l-2.671875 0.359375q-0.171875 -1.25 -1.046875 -1.9375q-0.875 -0.703125 -2.46875 -0.703125q-1.875 0 -2.671875 0.625q-0.796875 0.625 -0.796875 1.453125q0 0.53125 0.328125 0.953125q0.328125 0.4375 1.046875 0.734375q0.40625 0.140625 2.40625 0.6875q2.890625 0.78125 4.03125 1.265625q1.140625 0.484375 1.78125 1.4375q0.65625 0.9375 0.65625 2.328125q0 1.359375 -0.796875 2.5625q-0.78125 1.203125 -2.28125 1.859375q-1.5 0.65625 -3.390625 0.65625q-3.140625 0 -4.78125 -1.296875q-1.640625 -1.296875 -2.09375 -3.859375z" fill-rule="nonzero"></path><path fill="#000000" d="m444.47824 337.2865l2.8125 0.34375q-0.65625 2.46875 -2.46875 3.828125q-1.796875 1.359375 -4.59375 1.359375q-3.53125 0 -5.59375 -2.171875q-2.0625 -2.171875 -2.0625 -6.09375q0 -4.046875 2.078125 -6.28125q2.09375 -2.25 5.421875 -2.25q3.234375 0 5.265625 2.203125q2.046875 2.1875 2.046875 6.171875q0 0.234375 -0.015625 0.71875l-11.984375 0q0.15625 2.65625 1.5 4.0625q1.34375 1.40625 3.359375 1.40625q1.5 0 2.546875 -0.78125q1.0625 -0.796875 1.6875 -2.515625zm-8.9375 -4.40625l8.96875 0q-0.1875 -2.03125 -1.03125 -3.046875q-1.296875 -1.578125 -3.375 -1.578125q-1.875 0 -3.15625 1.265625q-1.28125 1.25 -1.40625 3.359375zm13.17453 9.578125l5.859375 -8.359375l-5.421875 -7.71875l3.40625 0l2.46875 3.765625q0.6875 1.078125 1.109375 1.8125q0.671875 -1.0 1.234375 -1.78125l2.703125 -3.796875l3.25 0l-5.546875 7.578125l5.96875 8.5l-3.34375 0l-3.296875 -5.0l-0.875 -1.34375l-4.21875 6.34375l-3.296875 0zm17.140625 6.15625l0 -22.234375l2.484375 0l0 2.09375q0.875 -1.234375 1.96875 -1.84375q1.109375 -0.609375 2.6875 -0.609375q2.0625 0 3.625 1.0625q1.578125 1.0625 2.375 3.0q0.8125 1.921875 0.8125 4.21875q0 2.46875 -0.890625 4.453125q-0.875 1.96875 -2.5625 3.015625q-1.6875 1.046875 -3.5625 1.046875q-1.359375 0 -2.4375 -0.5625q-1.078125 -0.578125 -1.78125 -1.46875l0 7.828125l-2.71875 0zm2.46875 -14.109375q0 3.109375 1.25 4.59375q1.265625 1.484375 3.046875 1.484375q1.8125 0 3.109375 -1.53125q1.296875 -1.546875 1.296875 -4.765625q0 -3.078125 -1.265625 -4.59375q-1.265625 -1.53125 -3.015625 -1.53125q-1.75 0 -3.09375 1.625q-1.328125 1.625 -1.328125 4.71875zm14.518311 7.953125l0 -22.1875l2.71875 0l0 22.1875l-2.71875 0zm5.857727 -8.03125q0 -4.46875 2.484375 -6.625q2.0625 -1.78125 5.046875 -1.78125q3.3125 0 5.421875 2.171875q2.109375 2.171875 2.109375 6.0q0 3.109375 -0.9375 4.890625q-0.921875 1.765625 -2.703125 2.75q-1.78125 0.984375 -3.890625 0.984375q-3.375 0 -5.453125 -2.15625q-2.078125 -2.171875 -2.078125 -6.234375zm2.796875 0q0 3.078125 1.34375 4.625q1.359375 1.53125 3.390625 1.53125q2.03125 0 3.375 -1.546875q1.359375 -1.546875 1.359375 -4.703125q0 -2.984375 -1.359375 -4.515625q-1.359375 -1.546875 -3.375 -1.546875q-2.03125 0 -3.390625 1.53125q-1.34375 1.53125 -1.34375 4.625zm15.23703 8.03125l0 -16.078125l2.453125 0l0 2.4375q0.9375 -1.703125 1.734375 -2.25q0.796875 -0.546875 1.7499695 -0.546875q1.375 0 2.796875 0.875l-0.9375 2.53125q-1.0 -0.59375 -2.0 -0.59375q-0.8905945 0 -1.6093445 0.546875q-0.703125 0.53125 -1.015625 1.484375q-0.453125 1.453125 -0.453125 3.171875l0 8.421875l-2.71875 0zm20.724396 -1.984375q-1.515625 1.28125 -2.921875 1.8125q-1.390625 0.53125 -3.0 0.53125q-2.640625 0 -4.0625 -1.28125q-1.421875 -1.296875 -1.421875 -3.3125q0 -1.1875 0.53125 -2.15625q0.53125 -0.984375 1.40625 -1.5625q0.875 -0.59375 1.96875 -0.90625q0.796875 -0.203125 2.421875 -0.40625q3.296875 -0.390625 4.859375 -0.9375q0.015625 -0.5625 0.015625 -0.703125q0 -1.671875 -0.78125 -2.359375q-1.046875 -0.921875 -3.09375 -0.921875q-1.921875 0 -2.84375 0.671875q-0.921875 0.671875 -1.359375 2.390625l-2.65625 -0.359375q0.359375 -1.71875 1.1875 -2.765625q0.84375 -1.046875 2.40625 -1.609375q1.578125 -0.578125 3.65625 -0.578125q2.0625 0 3.34375 0.484375q1.28125 0.484375 1.890625 1.21875q0.609375 0.734375 0.84375 1.859375q0.140625 0.6875 0.140625 2.5l0 3.640625q0 3.796875 0.171875 4.8125q0.171875 1.0 0.6875 1.921875l-2.84375 0q-0.421875 -0.84375 -0.546875 -1.984375zm-0.21875 -6.078125q-1.484375 0.59375 -4.453125 1.03125q-1.6875 0.234375 -2.390625 0.546875q-0.6875 0.296875 -1.0625 0.875q-0.375 0.578125 -0.375 1.296875q0 1.09375 0.8125 1.828125q0.828125 0.71875 2.421875 0.71875q1.578125 0 2.796875 -0.6875q1.234375 -0.703125 1.8125 -1.890625q0.4375 -0.921875 0.4375 -2.71875l0 -1.0zm12.737061 5.625l0.390625 2.40625q-1.15625 0.25 -2.0625 0.25q-1.484375 0 -2.3125 -0.46875q-0.8125 -0.484375 -1.140625 -1.234375q-0.328125 -0.765625 -0.328125 -3.21875l0 -9.25l-2.0 0l0 -2.125l2.0 0l0 -3.984375l2.703125 -1.625l0 5.609375l2.75 0l0 2.125l-2.75 0l0 9.390625q0 1.171875 0.140625 1.515625q0.15625 0.328125 0.46875 0.53125q0.328125 0.1875 0.9375 0.1875q0.453125 0 1.203125 -0.109375zm1.548523 -5.59375q0 -4.46875 2.484375 -6.625q2.0625 -1.78125 5.046875 -1.78125q3.3125 0 5.421875 2.171875q2.109375 2.171875 2.109375 6.0q0 3.109375 -0.9375 4.890625q-0.921875 1.765625 -2.703125 2.75q-1.78125 0.984375 -3.890625 0.984375q-3.375 0 -5.453125 -2.15625q-2.078125 -2.171875 -2.078125 -6.234375zm2.796875 0q0 3.078125 1.34375 4.625q1.359375 1.53125 3.390625 1.53125q2.03125 0 3.375 -1.546875q1.359375 -1.546875 1.359375 -4.703125q0 -2.984375 -1.359375 -4.515625q-1.359375 -1.546875 -3.375 -1.546875q-2.03125 0 -3.390625 1.53125q-1.34375 1.53125 -1.34375 4.625zm15.237061 8.03125l0 -16.078125l2.453125 0l0 2.4375q0.9375 -1.703125 1.734375 -2.25q0.796875 -0.546875 1.75 -0.546875q1.375 0 2.796875 0.875l-0.9375 2.53125q-1.0 -0.59375 -2.0 -0.59375q-0.890625 0 -1.609375 0.546875q-0.703125 0.53125 -1.015625 1.484375q-0.453125 1.453125 -0.453125 3.171875l0 8.421875l-2.71875 0zm10.255615 -19.0625l0 -3.125l2.71875 0l0 3.125l-2.71875 0zm0 19.0625l0 -16.078125l2.71875 0l0 16.078125l-2.71875 0zm5.779602 -8.03125q0 -4.46875 2.484375 -6.625q2.0625 -1.78125 5.046875 -1.78125q3.3125 0 5.421875 2.171875q2.109375 2.171875 2.109375 6.0q0 3.109375 -0.9375 4.890625q-0.921875 1.765625 -2.703125 2.75q-1.78125 0.984375 -3.890625 0.984375q-3.375 0 -5.453125 -2.15625q-2.078125 -2.171875 -2.078125 -6.234375zm2.796875 0q0 3.078125 1.34375 4.625q1.359375 1.53125 3.390625 1.53125q2.03125 0 3.375 -1.546875q1.359375 -1.546875 1.359375 -4.703125q0 -2.984375 -1.359375 -4.515625q-1.359375 -1.546875 -3.375 -1.546875q-2.03125 0 -3.390625 1.53125q-1.34375 1.53125 -1.34375 4.625z" fill-rule="nonzero"></path><path fill="#fff2cc" d="m616.7008 280.04987l304.44092 0l0 146.58267l-304.44092 0z" fill-rule="evenodd"></path><path stroke="#000000" stroke-width="1.0" stroke-linejoin="round" stroke-linecap="butt" d="m616.7008 280.04987l304.44092 0l0 146.58267l-304.44092 0z" fill-rule="evenodd"></path><path fill="#000000" d="m688.19415 364.28122l-8.59375 -22.1875l3.171875 0l5.765625 16.125q0.703125 1.9375 1.171875 3.625q0.515625 -1.8125 1.1875 -3.625l6.0 -16.125l3.0 0l-8.6875 22.1875l-3.015625 0zm13.775635 -19.0625l0 -3.125l2.71875 0l0 3.125l-2.71875 0zm0 19.0625l0 -16.078125l2.71875 0l0 16.078125l-2.71875 0zm5.701477 -4.796875l2.6875 -0.421875q0.234375 1.609375 1.265625 2.484375q1.046875 0.859375 2.90625 0.859375q1.875 0 2.78125 -0.765625q0.90625 -0.765625 0.90625 -1.796875q0 -0.921875 -0.796875 -1.453125q-0.5625 -0.359375 -2.78125 -0.921875q-3.0 -0.75 -4.15625 -1.296875q-1.15625 -0.5625 -1.765625 -1.53125q-0.59375 -0.984375 -0.59375 -2.171875q0 -1.0625 0.484375 -1.984375q0.5 -0.921875 1.34375 -1.515625q0.640625 -0.46875 1.734375 -0.796875q1.09375 -0.328125 2.359375 -0.328125q1.890625 0 3.3125 0.546875q1.4375 0.546875 2.109375 1.484375q0.6875 0.921875 0.953125 2.484375l-2.671875 0.359375q-0.171875 -1.25 -1.046875 -1.9375q-0.875 -0.703125 -2.46875 -0.703125q-1.875 0 -2.671875 0.625q-0.796875 0.625 -0.796875 1.453125q0 0.53125 0.328125 0.953125q0.328125 0.4375 1.046875 0.734375q0.40625 0.140625 2.40625 0.6875q2.890625 0.78125 4.03125 1.265625q1.140625 0.484375 1.78125 1.4375q0.65625 0.9375 0.65625 2.328125q0 1.359375 -0.796875 2.5625q-0.78125 1.203125 -2.28125 1.859375q-1.5 0.65625 -3.390625 0.65625q-3.140625 0 -4.78125 -1.296875q-1.640625 -1.296875 -2.09375 -3.859375zm26.953125 4.796875l0 -2.359375q-1.875 2.71875 -5.09375 2.71875q-1.421875 0 -2.65625 -0.546875q-1.234375 -0.546875 -1.84375 -1.359375q-0.59375 -0.828125 -0.828125 -2.03125q-0.171875 -0.796875 -0.171875 -2.53125l0 -9.96875l2.71875 0l0 8.921875q0 2.125 0.171875 2.875q0.25 1.078125 1.078125 1.6875q0.84375 0.609375 2.0625 0.609375q1.234375 0 2.296875 -0.625q1.078125 -0.625 1.53125 -1.703125q0.453125 -1.09375 0.453125 -3.15625l0 -8.609375l2.71875 0l0 16.078125l-2.4375 0zm17.002625 -1.984375q-1.515625 1.28125 -2.921875 1.8125q-1.390625 0.53125 -3.0 0.53125q-2.640625 0 -4.0625 -1.28125q-1.421875 -1.296875 -1.421875 -3.3125q0 -1.1875 0.53125 -2.15625q0.53125 -0.984375 1.40625 -1.5625q0.875 -0.59375 1.96875 -0.90625q0.796875 -0.203125 2.421875 -0.40625q3.296875 -0.390625 4.859375 -0.9375q0.015625 -0.5625 0.015625 -0.703125q0 -1.671875 -0.78125 -2.359375q-1.046875 -0.921875 -3.09375 -0.921875q-1.921875 0 -2.84375 0.671875q-0.921875 0.671875 -1.359375 2.390625l-2.65625 -0.359375q0.359375 -1.71875 1.1875 -2.765625q0.84375 -1.046875 2.40625 -1.609375q1.578125 -0.578125 3.65625 -0.578125q2.0625 0 3.34375 0.484375q1.28125 0.484375 1.890625 1.21875q0.609375 0.734375 0.84375 1.859375q0.140625 0.6875 0.140625 2.5l0 3.640625q0 3.796875 0.171875 4.8125q0.171875 1.0 0.6875 1.921875l-2.84375 0q-0.421875 -0.84375 -0.546875 -1.984375zm-0.21875 -6.078125q-1.484375 0.59375 -4.453125 1.03125q-1.6875 0.234375 -2.390625 0.546875q-0.6875 0.296875 -1.0625 0.875q-0.375 0.578125 -0.375 1.296875q0 1.09375 0.8125 1.828125q0.828125 0.71875 2.421875 0.71875q1.578125 0 2.796875 -0.6875q1.234375 -0.703125 1.8125 -1.890625q0.4375 -0.921875 0.4375 -2.71875l0 -1.0zm6.7214355 8.0625l0 -22.1875l2.71875 0l0 22.1875l-2.71875 0zm6.888977 -19.0625l0 -3.125l2.71875 0l0 3.125l-2.71875 0zm0 19.0625l0 -16.078125l2.71875 0l0 16.078125l-2.71875 0zm5.357727 0l0 -2.203125l10.234375 -11.75q-1.75 0.09375 -3.078125 0.09375l-6.546875 0l0 -2.21875l13.125 0l0 1.796875l-8.703125 10.203125l-1.671875 1.875q1.828125 -0.140625 3.4375 -0.140625l7.421875 0l0 2.34375l-14.21875 0zm27.25 -1.984375q-1.515625 1.28125 -2.921875 1.8125q-1.390625 0.53125 -3.0 0.53125q-2.640625 0 -4.0625 -1.28125q-1.421875 -1.296875 -1.421875 -3.3125q0 -1.1875 0.53125 -2.15625q0.53125 -0.984375 1.40625 -1.5625q0.875 -0.59375 1.96875 -0.90625q0.796875 -0.203125 2.421875 -0.40625q3.296875 -0.390625 4.859375 -0.9375q0.015625 -0.5625 0.015625 -0.703125q0 -1.671875 -0.78125 -2.359375q-1.046875 -0.921875 -3.09375 -0.921875q-1.921875 0 -2.84375 0.671875q-0.921875 0.671875 -1.359375 2.390625l-2.65625 -0.359375q0.359375 -1.71875 1.1875 -2.765625q0.84375 -1.046875 2.40625 -1.609375q1.578125 -0.578125 3.65625 -0.578125q2.0625 0 3.34375 0.484375q1.28125 0.484375 1.890625 1.21875q0.609375 0.734375 0.84375 1.859375q0.140625 0.6875 0.140625 2.5l0 3.640625q0 3.796875 0.171875 4.8125q0.171875 1.0 0.6875 1.921875l-2.84375 0q-0.421875 -0.84375 -0.546875 -1.984375zm-0.21875 -6.078125q-1.484375 0.59375 -4.453125 1.03125q-1.6875 0.234375 -2.390625 0.546875q-0.6875 0.296875 -1.0625 0.875q-0.375 0.578125 -0.375 1.296875q0 1.09375 0.8125 1.828125q0.828125 0.71875 2.421875 0.71875q1.578125 0 2.796875 -0.6875q1.234375 -0.703125 1.8125 -1.890625q0.4375 -0.921875 0.4375 -2.71875l0 -1.0zm17.26825 2.171875l2.6875 0.34375q-0.4375 2.78125 -2.25 4.34375q-1.8125 1.5625 -4.453125 1.5625q-3.296875 0 -5.296875 -2.15625q-2.0 -2.15625 -2.0 -6.1875q0 -2.59375 0.859375 -4.546875q0.859375 -1.953125 2.625 -2.921875q1.765625 -0.984375 3.828125 -0.984375q2.625 0 4.28125 1.328125q1.671875 1.3125 2.140625 3.75l-2.640625 0.421875q-0.390625 -1.625 -1.359375 -2.4375q-0.953125 -0.828125 -2.3125 -0.828125q-2.0625 0 -3.34375 1.484375q-1.28125 1.46875 -1.28125 4.671875q0 3.234375 1.234375 4.703125q1.25 1.46875 3.234375 1.46875q1.609375 0 2.6875 -0.984375q1.078125 -0.984375 1.359375 -3.03125zm4.859375 -13.171875l0 -3.125l2.71875 0l0 3.125l-2.71875 0zm0 19.0625l0 -16.078125l2.71875 0l0 16.078125l-2.71875 0zm5.779602 -8.03125q0 -4.46875 2.484375 -6.625q2.0625 -1.78125 5.046875 -1.78125q3.3125 0 5.421875 2.171875q2.109375 2.171875 2.109375 6.0q0 3.109375 -0.9375 4.890625q-0.921875 1.765625 -2.703125 2.75q-1.78125 0.984375 -3.890625 0.984375q-3.375 0 -5.453125 -2.15625q-2.078125 -2.171875 -2.078125 -6.234375zm2.796875 0q0 3.078125 1.34375 4.625q1.359375 1.53125 3.390625 1.53125q2.03125 0 3.375 -1.546875q1.359375 -1.546875 1.359375 -4.703125q0 -2.984375 -1.359375 -4.515625q-1.359375 -1.546875 -3.375 -1.546875q-2.03125 0 -3.390625 1.53125q-1.34375 1.53125 -1.34375 4.625zm3.53125 -10.046875l2.015625 -4.234375l3.578125 0l-3.34375 4.234375l-2.25 0zm11.737061 18.078125l0 -16.078125l2.453125 0l0 2.28125q1.765625 -2.640625 5.109375 -2.640625q1.453125 0 2.671875 0.53125q1.21875 0.515625 1.828125 1.359375q0.609375 0.84375 0.84375 2.015625q0.15625 0.75 0.15625 2.640625l0 9.890625l-2.734375 0l0 -9.78125q0 -1.65625 -0.3125 -2.484375q-0.3125 -0.828125 -1.125 -1.3125q-0.8125 -0.5 -1.90625 -0.5q-1.734375 0 -3.0 1.109375q-1.265625 1.09375 -1.265625 4.1875l0 8.78125l-2.71875 0z" fill-rule="nonzero"></path><path fill="#d9ead3" d="m563.5486 405.47507l304.44092 0l0 146.58267l-304.44092 0z" fill-rule="evenodd"></path><path stroke="#000000" stroke-width="1.0" stroke-linejoin="round" stroke-linecap="butt" d="m563.5486 405.47507l304.44092 0l0 146.58267l-304.44092 0z" fill-rule="evenodd"></path><path fill="#000000" d="m621.78613 452.7064l0 -22.1875l4.421875 0l5.25 15.703125q0.734375 2.203125 1.0625 3.296875q0.375 -1.21875 1.1875 -3.5625l5.3125 -15.4375l3.953125 0l0 22.1875l-2.84375 0l0 -18.578125l-6.4375 18.578125l-2.65625 0l-6.421875 -18.890625l0 18.890625l-2.828125 0zm24.27124 -8.03125q0 -4.46875 2.484375 -6.625q2.0625 -1.78125 5.046875 -1.78125q3.3125 0 5.421875 2.171875q2.109375 2.171875 2.109375 6.0q0 3.109375 -0.9375 4.890625q-0.921875 1.765625 -2.703125 2.75q-1.78125 0.984375 -3.890625 0.984375q-3.375 0 -5.453125 -2.15625q-2.078125 -2.171875 -2.078125 -6.234375zm2.796875 0q0 3.078125 1.34375 4.625q1.359375 1.53125 3.390625 1.53125q2.03125 0 3.375 -1.546875q1.359375 -1.546875 1.359375 -4.703125q0 -2.984375 -1.359375 -4.515625q-1.359375 -1.546875 -3.375 -1.546875q-2.03125 0 -3.390625 1.53125q-1.34375 1.53125 -1.34375 4.625zm25.690186 8.03125l0 -2.03125q-1.53125 2.390625 -4.484375 2.390625q-1.921875 0 -3.546875 -1.046875q-1.609375 -1.0625 -2.5 -2.96875q-0.875 -1.90625 -0.875 -4.359375q0 -2.40625 0.796875 -4.359375q0.8125 -1.96875 2.40625 -3.015625q1.609375 -1.046875 3.59375 -1.046875q1.453125 0 2.578125 0.609375q1.140625 0.609375 1.859375 1.59375l0 -7.953125l2.703125 0l0 22.1875l-2.53125 0zm-8.609375 -8.015625q0 3.078125 1.296875 4.609375q1.3125 1.53125 3.078125 1.53125q1.78125 0 3.03125 -1.453125q1.25 -1.46875 1.25 -4.46875q0 -3.296875 -1.28125 -4.84375q-1.265625 -1.546875 -3.125 -1.546875q-1.8125 0 -3.03125 1.484375q-1.21875 1.484375 -1.21875 4.6875zm26.23706 2.84375l2.8125 0.34375q-0.65625 2.46875 -2.46875 3.828125q-1.796875 1.359375 -4.59375 1.359375q-3.53125 0 -5.59375 -2.171875q-2.0625 -2.171875 -2.0625 -6.09375q0 -4.046875 2.078125 -6.28125q2.09375 -2.25 5.421875 -2.25q3.234375 0 5.265625 2.203125q2.046875 2.1875 2.046875 6.171875q0 0.234375 -0.015625 0.71875l-11.984375 0q0.15625 2.65625 1.5 4.0625q1.34375 1.40625 3.359375 1.40625q1.5 0 2.546875 -0.78125q1.0625 -0.796875 1.6875 -2.515625zm-8.9375 -4.40625l8.96875 0q-0.1875 -2.03125 -1.03125 -3.046875q-1.296875 -1.578125 -3.375 -1.578125q-1.875 0 -3.15625 1.265625q-1.28125 1.25 -1.40625 3.359375zm14.924561 9.578125l0 -22.1875l2.71875 0l0 22.1875l-2.71875 0zm17.357666 -1.984375q-1.515625 1.28125 -2.921875 1.8125q-1.390625 0.53125 -3.0 0.53125q-2.640625 0 -4.0625 -1.28125q-1.421875 -1.296875 -1.421875 -3.3125q0 -1.1875 0.53125 -2.15625q0.53125 -0.984375 1.40625 -1.5625q0.875 -0.59375 1.96875 -0.90625q0.796875 -0.203125 2.421875 -0.40625q3.296875 -0.390625 4.859375 -0.9375q0.015625 -0.5625 0.015625 -0.703125q0 -1.671875 -0.78125 -2.359375q-1.046875 -0.921875 -3.09375 -0.921875q-1.921875 0 -2.84375 0.671875q-0.921875 0.671875 -1.359375 2.390625l-2.65625 -0.359375q0.359375 -1.71875 1.1875 -2.765625q0.84375 -1.046875 2.40625 -1.609375q1.578125 -0.578125 3.65625 -0.578125q2.0625 0 3.34375 0.484375q1.28125 0.484375 1.890625 1.21875q0.609375 0.734375 0.84375 1.859375q0.140625 0.6875 0.140625 2.5l0 3.640625q0 3.796875 0.171875 4.8125q0.171875 1.0 0.6875 1.921875l-2.84375 0q-0.421875 -0.84375 -0.546875 -1.984375zm-0.21875 -6.078125q-1.484375 0.59375 -4.453125 1.03125q-1.6875 0.234375 -2.390625 0.546875q-0.6875 0.296875 -1.0625 0.875q-0.375 0.578125 -0.375 1.296875q0 1.09375 0.8125 1.828125q0.828125 0.71875 2.421875 0.71875q1.578125 0 2.796875 -0.6875q1.234375 -0.703125 1.8125 -1.890625q0.4375 -0.921875 0.4375 -2.71875l0 -1.0zm6.7839355 8.0625l0 -16.078125l2.4375 0l0 2.265625q0.75 -1.1875 2.0 -1.90625q1.265625 -0.71875 2.875 -0.71875q1.78125 0 2.921875 0.75q1.140625 0.734375 1.609375 2.0625q1.90625 -2.8125 4.96875 -2.8125q2.390625 0 3.671875 1.328125q1.296875 1.3125 1.296875 4.078125l0 11.03125l-2.71875 0l0 -10.125q0 -1.640625 -0.265625 -2.359375q-0.25 -0.71875 -0.953125 -1.15625q-0.703125 -0.4375 -1.640625 -0.4375q-1.6875 0 -2.8125 1.125q-1.125 1.125 -1.125 3.609375l0 9.34375l-2.71875 0l0 -10.4375q0 -1.828125 -0.671875 -2.734375q-0.65625 -0.90625 -2.171875 -0.90625q-1.15625 0 -2.140625 0.609375q-0.96875 0.609375 -1.40625 1.78125q-0.4375 1.15625 -0.4375 3.34375l0 8.34375l-2.71875 0zm25.552551 -19.0625l0 -3.125l2.71875 0l0 3.125l-2.71875 0zm0 19.0625l0 -16.078125l2.71875 0l0 16.078125l-2.71875 0zm17.795166 -5.171875l2.8125 0.34375q-0.65625 2.46875 -2.46875 3.828125q-1.796875 1.359375 -4.59375 1.359375q-3.53125 0 -5.59375 -2.171875q-2.0625 -2.171875 -2.0625 -6.09375q0 -4.046875 2.078125 -6.28125q2.09375 -2.25 5.421875 -2.25q3.234375 0 5.265625 2.203125q2.046875 2.1875 2.046875 6.171875q0 0.234375 -0.015625 0.71875l-11.984375 0q0.15625 2.65625 1.5 4.0625q1.34375 1.40625 3.359375 1.40625q1.5 0 2.546875 -0.78125q1.0625 -0.796875 1.6875 -2.515625zm-8.9375 -4.40625l8.96875 0q-0.1875 -2.03125 -1.03125 -3.046875q-1.296875 -1.578125 -3.375 -1.578125q-1.875 0 -3.15625 1.265625q-1.28125 1.25 -1.40625 3.359375zm14.987061 9.578125l0 -16.078125l2.453125 0l0 2.28125q1.765625 -2.640625 5.109375 -2.640625q1.453125 0 2.671875 0.53125q1.21875 0.515625 1.828125 1.359375q0.609375 0.84375 0.84375 2.015625q0.15625 0.75 0.15625 2.640625l0 9.890625l-2.734375 0l0 -9.78125q0 -1.65625 -0.3125 -2.484375q-0.3125 -0.828125 -1.125 -1.3125q-0.8125 -0.5 -1.90625 -0.5q-1.734375 0 -3.0 1.109375q-1.265625 1.09375 -1.265625 4.1875l0 8.78125l-2.71875 0zm23.002686 -2.4375l0.390625 2.40625q-1.15625 0.25 -2.0625 0.25q-1.484375 0 -2.3125 -0.46875q-0.8125 -0.484375 -1.140625 -1.234375q-0.328125 -0.765625 -0.328125 -3.21875l0 -9.25l-2.0 0l0 -2.125l2.0 0l0 -3.984375l2.703125 -1.625l0 5.609375l2.75 0l0 2.125l-2.75 0l0 9.390625q0 1.171875 0.140625 1.515625q0.15625 0.328125 0.46875 0.53125q0.328125 0.1875 0.9375 0.1875q0.453125 0 1.203125 -0.109375zm1.548523 -5.59375q0 -4.46875 2.484375 -6.625q2.0625 -1.78125 5.046875 -1.78125q3.3125 0 5.421875 2.171875q2.109375 2.171875 2.109375 6.0q0 3.109375 -0.9375 4.890625q-0.921875 1.765625 -2.703125 2.75q-1.78125 0.984375 -3.890625 0.984375q-3.375 0 -5.453125 -2.15625q-2.078125 -2.171875 -2.078125 -6.234375zm2.796875 0q0 3.078125 1.34375 4.625q1.359375 1.53125 3.390625 1.53125q2.03125 0 3.375 -1.546875q1.359375 -1.546875 1.359375 -4.703125q0 -2.984375 -1.359375 -4.515625q-1.359375 -1.546875 -3.375 -1.546875q-2.03125 0 -3.390625 1.53125q-1.34375 1.53125 -1.34375 4.625z" fill-rule="nonzero"></path><path fill="#000000" d="m652.21484 495.86264l0 -22.234375l2.484375 0l0 2.09375q0.875 -1.234375 1.96875 -1.84375q1.109375 -0.609375 2.6875 -0.609375q2.0625 0 3.625 1.0625q1.578125 1.0625 2.375 3.0q0.8125 1.921875 0.8125 4.21875q0 2.46875 -0.890625 4.453125q-0.875 1.96875 -2.5625 3.015625q-1.6875 1.046875 -3.5625 1.046875q-1.359375 0 -2.4375 -0.5625q-1.078125 -0.578125 -1.78125 -1.46875l0 7.828125l-2.71875 0zm2.46875 -14.109375q0 3.109375 1.25 4.59375q1.265625 1.484375 3.046875 1.484375q1.8125 0 3.109375 -1.53125q1.296875 -1.546875 1.296875 -4.765625q0 -3.078125 -1.265625 -4.59375q-1.265625 -1.53125 -3.015625 -1.53125q-1.75 0 -3.09375 1.625q-1.328125 1.625 -1.328125 4.71875zm14.5494995 7.953125l0 -16.078125l2.453125 0l0 2.4375q0.9375 -1.703125 1.734375 -2.25q0.796875 -0.546875 1.75 -0.546875q1.375 0 2.796875 0.875l-0.9375 2.53125q-1.0 -0.59375 -2.0 -0.59375q-0.890625 0 -1.609375 0.546875q-0.703125 0.53125 -1.015625 1.484375q-0.453125 1.453125 -0.453125 3.171875l0 8.421875l-2.71875 0zm21.240051 -5.171875l2.8125 0.34375q-0.65625 2.46875 -2.46875 3.828125q-1.796875 1.359375 -4.59375 1.359375q-3.53125 0 -5.59375 -2.171875q-2.0625 -2.171875 -2.0625 -6.09375q0 -4.046875 2.078125 -6.28125q2.09375 -2.25 5.421875 -2.25q3.234375 0 5.265625 2.203125q2.046875 2.1875 2.046875 6.171875q0 0.234375 -0.015625 0.71875l-11.984375 0q0.15625 2.65625 1.5 4.0625q1.34375 1.40625 3.359375 1.40625q1.5 0 2.546875 -0.78125q1.0625 -0.796875 1.6875 -2.515625zm-8.9375 -4.40625l8.96875 0q-0.1875 -2.03125 -1.03125 -3.046875q-1.296875 -1.578125 -3.375 -1.578125q-1.875 0 -3.15625 1.265625q-1.28125 1.25 -1.40625 3.359375zm25.408936 9.578125l0 -2.03125q-1.53125 2.390625 -4.484375 2.390625q-1.921875 0 -3.546875 -1.046875q-1.609375 -1.0625 -2.5 -2.96875q-0.875 -1.90625 -0.875 -4.359375q0 -2.40625 0.796875 -4.359375q0.8125 -1.96875 2.40625 -3.015625q1.609375 -1.046875 3.59375 -1.046875q1.453125 0 2.578125 0.609375q1.140625 0.609375 1.859375 1.59375l0 -7.953125l2.703125 0l0 22.1875l-2.53125 0zm-8.609375 -8.015625q0 3.078125 1.296875 4.609375q1.3125 1.53125 3.078125 1.53125q1.78125 0 3.03125 -1.453125q1.25 -1.46875 1.25 -4.46875q0 -3.296875 -1.28125 -4.84375q-1.265625 -1.546875 -3.125 -1.546875q-1.8125 0 -3.03125 1.484375q-1.21875 1.484375 -1.21875 4.6875zm15.252686 -11.046875l0 -3.125l2.71875 0l0 3.125l-2.71875 0zm0 19.0625l0 -16.078125l2.71875 0l0 16.078125l-2.71875 0zm17.279541 -5.890625l2.6875 0.34375q-0.4375 2.78125 -2.25 4.34375q-1.8125 1.5625 -4.453125 1.5625q-3.296875 0 -5.296875 -2.15625q-2.0 -2.15625 -2.0 -6.1875q0 -2.59375 0.859375 -4.546875q0.859375 -1.953125 2.625 -2.921875q1.765625 -0.984375 3.828125 -0.984375q2.625 0 4.28125 1.328125q1.671875 1.3125 2.140625 3.75l-2.640625 0.421875q-0.390625 -1.625 -1.359375 -2.4375q-0.953125 -0.828125 -2.3125 -0.828125q-2.0625 0 -3.34375 1.484375q-1.28125 1.46875 -1.28125 4.671875q0 3.234375 1.234375 4.703125q1.25 1.46875 3.234375 1.46875q1.609375 0 2.6875 -0.984375q1.078125 -0.984375 1.359375 -3.03125zm10.796875 3.453125l0.390625 2.40625q-1.15625 0.25 -2.0625 0.25q-1.484375 0 -2.3125 -0.46875q-0.8125 -0.484375 -1.140625 -1.234375q-0.328125 -0.765625 -0.328125 -3.21875l0 -9.25l-2.0 0l0 -2.125l2.0 0l0 -3.984375l2.703125 -1.625l0 5.609375l2.75 0l0 2.125l-2.75 0l0 9.390625q0 1.171875 0.140625 1.515625q0.15625 0.328125 0.46875 0.53125q0.328125 0.1875 0.9375 0.1875q0.453125 0 1.203125 -0.109375zm2.579834 -16.625l0 -3.125l2.71875 0l0 3.125l-2.71875 0zm0 19.0625l0 -16.078125l2.71875 0l0 16.078125l-2.71875 0zm11.263916 0l-6.125 -16.078125l2.875 0l3.453125 9.625q0.5625 1.5625 1.03125 3.25q0.359375 -1.28125 1.015625 -3.0625l3.578125 -9.8125l2.796875 0l-6.09375 16.078125l-2.53125 0zm9.84375 -8.03125q0 -4.46875 2.484375 -6.625q2.0625 -1.78125 5.046875 -1.78125q3.3125 0 5.421875 2.171875q2.109375 2.171875 2.109375 6.0q0 3.109375 -0.9375 4.890625q-0.921875 1.765625 -2.703125 2.75q-1.78125 0.984375 -3.890625 0.984375q-3.375 0 -5.453125 -2.15625q-2.078125 -2.171875 -2.078125 -6.234375zm2.796875 0q0 3.078125 1.34375 4.625q1.359375 1.53125 3.390625 1.53125q2.03125 0 3.375 -1.546875q1.359375 -1.546875 1.359375 -4.703125q0 -2.984375 -1.359375 -4.515625q-1.359375 -1.546875 -3.375 -1.546875q-2.03125 0 -3.390625 1.53125q-1.34375 1.53125 -1.34375 4.625z" fill-rule="nonzero"></path><path fill="#000000" d="m642.67444 518.6752q0 -4.46875 2.484375 -6.625q2.0625 -1.7812805 5.046875 -1.7812805q3.3125 0 5.421875 2.1719055q2.109375 2.171875 2.109375 6.0q0 3.109375 -0.9375 4.890625q-0.921875 1.765625 -2.703125 2.75q-1.78125 0.984375 -3.890625 0.984375q-3.375 0 -5.453125 -2.15625q-2.078125 -2.171875 -2.078125 -6.234375zm2.796875 0q0 3.078125 1.34375 4.625q1.359375 1.53125 3.390625 1.53125q2.03125 0 3.375 -1.546875q1.359375 -1.546875 1.359375 -4.703125q0 -2.984375 -1.359375 -4.515625q-1.359375 -1.546875 -3.375 -1.546875q-2.03125 0 -3.390625 1.53125q-1.34375 1.53125 -1.34375 4.625zm15.268311 14.1875l0 -22.234406l2.484375 0l0 2.0937805q0.875 -1.2344055 1.96875 -1.8437805q1.109375 -0.609375 2.6875 -0.609375q2.0625 0 3.625 1.0625q1.578125 1.0625305 2.375 3.0000305q0.8125 1.921875 0.8125 4.21875q0 2.46875 -0.890625 4.453125q-0.875 1.96875 -2.5625 3.015625q-1.6875 1.046875 -3.5625 1.046875q-1.359375 0 -2.4375 -0.5625q-1.078125 -0.578125 -1.78125 -1.46875l0 7.828125l-2.71875 0zm2.46875 -14.109375q0 3.109375 1.25 4.59375q1.265625 1.484375 3.046875 1.484375q1.8125 0 3.109375 -1.53125q1.296875 -1.546875 1.296875 -4.765625q0 -3.078125 -1.265625 -4.59375q-1.265625 -1.53125 -3.015625 -1.53125q-1.75 0 -3.09375 1.625q-1.328125 1.625 -1.328125 4.71875zm20.533875 5.515625l0.390625 2.40625q-1.15625 0.25 -2.0625 0.25q-1.484375 0 -2.3125 -0.46875q-0.8125 -0.484375 -1.140625 -1.234375q-0.328125 -0.765625 -0.328125 -3.21875l0 -9.25l-2.0 0l0 -2.1250305l2.0 0l0 -3.984375l2.703125 -1.625l0 5.609375l2.75 0l0 2.1250305l-2.75 0l0 9.390625q0 1.171875 0.140625 1.515625q0.15625 0.328125 0.46875 0.53125q0.328125 0.1875 0.9375 0.1875q0.453125 0 1.203125 -0.109375zm2.579834 -16.62503l0 -3.125l2.71875 0l0 3.125l-2.71875 0zm0 19.06253l0 -16.078156l2.71875 0l0 16.078156l-2.71875 0zm6.795166 0l0 -16.078156l2.4375 0l0 2.2656555q0.75 -1.1875305 2.0 -1.9062805q1.265625 -0.71875 2.875 -0.71875q1.78125 0 2.921875 0.75q1.140625 0.734375 1.609375 2.0625305q1.90625 -2.8125305 4.96875 -2.8125305q2.390625 0 3.671875 1.328125q1.296875 1.3125305 1.296875 4.0781555l0 11.03125l-2.71875 0l0 -10.125q0 -1.640625 -0.265625 -2.359375q-0.25 -0.71875 -0.953125 -1.15625q-0.703125 -0.4375 -1.640625 -0.4375q-1.6875 0 -2.8125 1.125q-1.125 1.125 -1.125 3.609375l0 9.34375l-2.71875 0l0 -10.4375q0 -1.828125 -0.671875 -2.734375q-0.65625 -0.90625 -2.171875 -0.90625q-1.15625 0 -2.140625 0.609375q-0.96875 0.609375 -1.40625 1.78125q-0.4375 1.15625 -0.4375 3.34375l0 8.34375l-2.71875 0zm25.552551 -19.06253l0 -3.125l2.71875 0l0 3.125l-2.71875 0zm0 19.06253l0 -16.078156l2.71875 0l0 16.078156l-2.71875 0zm5.357727 0l0 -2.203125l10.234375 -11.75q-1.75 0.09375 -3.078125 0.09375l-6.546875 0l0 -2.2187805l13.125 0l0 1.7969055l-8.703125 10.203125l-1.671875 1.875q1.828125 -0.140625 3.4375 -0.140625l7.421875 0l0 2.34375l-14.21875 0zm27.25 -1.984375q-1.515625 1.28125 -2.921875 1.8125q-1.390625 0.53125 -3.0 0.53125q-2.640625 0 -4.0625 -1.28125q-1.421875 -1.296875 -1.421875 -3.3125q0 -1.1875 0.53125 -2.15625q0.53125 -0.984375 1.40625 -1.5625q0.875 -0.59375 1.96875 -0.90625q0.796875 -0.203125 2.421875 -0.40625q3.296875 -0.390625 4.859375 -0.9375q0.015625 -0.5625 0.015625 -0.703125q0 -1.671875 -0.78125 -2.359375q-1.046875 -0.921875 -3.09375 -0.921875q-1.921875 0 -2.84375 0.671875q-0.921875 0.671875 -1.359375 2.390625l-2.65625 -0.359375q0.359375 -1.71875 1.1875 -2.765625q0.84375 -1.0469055 2.40625 -1.6094055q1.578125 -0.578125 3.65625 -0.578125q2.0625 0 3.34375 0.484375q1.28125 0.484375 1.890625 1.21875q0.609375 0.7344055 0.84375 1.8594055q0.140625 0.6875 0.140625 2.5l0 3.640625q0 3.796875 0.171875 4.8125q0.171875 1.0 0.6875 1.921875l-2.84375 0q-0.421875 -0.84375 -0.546875 -1.984375zm-0.21875 -6.078125q-1.484375 0.59375 -4.453125 1.03125q-1.6875 0.234375 -2.390625 0.546875q-0.6875 0.296875 -1.0625 0.875q-0.375 0.578125 -0.375 1.296875q0 1.09375 0.8125 1.828125q0.828125 0.71875 2.421875 0.71875q1.578125 0 2.796875 -0.6875q1.234375 -0.703125 1.8125 -1.890625q0.4375 -0.921875 0.4375 -2.71875l0 -1.0zm17.20575 8.0625l0 -2.03125q-1.53125 2.390625 -4.484375 2.390625q-1.921875 0 -3.546875 -1.046875q-1.609375 -1.0625 -2.5 -2.96875q-0.875 -1.90625 -0.875 -4.359375q0 -2.40625 0.796875 -4.359375q0.8125 -1.96875 2.40625 -3.0156555q1.609375 -1.046875 3.59375 -1.046875q1.453125 0 2.578125 0.609375q1.140625 0.609375 1.859375 1.5937805l0 -7.9531555l2.703125 0l0 22.18753l-2.53125 0zm-8.609375 -8.015625q0 3.078125 1.296875 4.609375q1.3125 1.53125 3.078125 1.53125q1.78125 0 3.03125 -1.453125q1.25 -1.46875 1.25 -4.46875q0 -3.296875 -1.28125 -4.84375q-1.265625 -1.546875 -3.125 -1.546875q-1.8125 0 -3.03125 1.484375q-1.21875 1.484375 -1.21875 4.6875zm14.221436 -0.015625q0 -4.46875 2.484375 -6.625q2.0625 -1.7812805 5.046875 -1.7812805q3.3125 0 5.421875 2.1719055q2.109375 2.171875 2.109375 6.0q0 3.109375 -0.9375 4.890625q-0.921875 1.765625 -2.703125 2.75q-1.78125 0.984375 -3.890625 0.984375q-3.375 0 -5.453125 -2.15625q-2.078125 -2.171875 -2.078125 -6.234375zm2.796875 0q0 3.078125 1.34375 4.625q1.359375 1.53125 3.390625 1.53125q2.03125 0 3.375 -1.546875q1.359375 -1.546875 1.359375 -4.703125q0 -2.984375 -1.359375 -4.515625q-1.359375 -1.546875 -3.375 -1.546875q-2.03125 0 -3.390625 1.53125q-1.34375 1.53125 -1.34375 4.625z" fill-rule="nonzero"></path><path fill="#d0e0e3" d="m304.53543 489.17584l304.44095 0l0 146.5827l-304.44095 0z" fill-rule="evenodd"></path><path stroke="#000000" stroke-width="1.0" stroke-linejoin="round" stroke-linecap="butt" d="m304.53543 489.17584l304.44095 0l0 146.5827l-304.44095 0z" fill-rule="evenodd"></path><path fill="#000000" d="m316.04608 554.90717l0 -22.1875l9.84375 0q2.96875 0 4.5 0.59375q1.546875 0.59375 2.46875 2.109375q0.921875 1.515625 0.921875 3.34375q0 2.359375 -1.53125 3.984375q-1.515625 1.625 -4.71875 2.0625q1.171875 0.5625 1.78125 1.109375q1.28125 1.171875 2.4375 2.9375l3.859375 6.046875l-3.703125 0l-2.9375 -4.609375q-1.28125 -2.0 -2.125 -3.0625q-0.828125 -1.0625 -1.484375 -1.484375q-0.65625 -0.421875 -1.328125 -0.59375q-0.5 -0.109375 -1.640625 -0.109375l-3.40625 0l0 9.859375l-2.9375 0zm2.9375 -12.390625l6.3125 0q2.015625 0 3.140625 -0.421875q1.140625 -0.421875 1.734375 -1.328125q0.59375 -0.921875 0.59375 -2.0q0 -1.5625 -1.15625 -2.578125q-1.140625 -1.015625 -3.609375 -1.015625l-7.015625 0l0 7.34375zm29.295227 10.40625q-1.515625 1.28125 -2.921875 1.8125q-1.390625 0.53125 -3.0 0.53125q-2.640625 0 -4.0625 -1.28125q-1.421875 -1.296875 -1.421875 -3.3125q0 -1.1875 0.53125 -2.15625q0.53125 -0.984375 1.40625 -1.5625q0.875 -0.59375 1.96875 -0.90625q0.796875 -0.203125 2.421875 -0.40625q3.296875 -0.390625 4.859375 -0.9375q0.015625 -0.5625 0.015625 -0.703125q0 -1.671875 -0.78125 -2.359375q-1.046875 -0.921875 -3.09375 -0.921875q-1.921875 0 -2.84375 0.671875q-0.921875 0.671875 -1.359375 2.390625l-2.65625 -0.359375q0.359375 -1.71875 1.1875 -2.765625q0.84375 -1.046875 2.40625 -1.609375q1.578125 -0.578125 3.65625 -0.578125q2.0625 0 3.34375 0.484375q1.28125 0.484375 1.890625 1.21875q0.609375 0.734375 0.84375 1.859375q0.140625 0.6875 0.140625 2.5l0 3.640625q0 3.796875 0.171875 4.8125q0.171875 1.0 0.6875 1.921875l-2.84375 0q-0.421875 -0.84375 -0.546875 -1.984375zm-0.21875 -6.078125q-1.484375 0.59375 -4.453125 1.03125q-1.6875 0.234375 -2.390625 0.546875q-0.6875 0.296875 -1.0625 0.875q-0.375 0.578125 -0.375 1.296875q0 1.09375 0.8125 1.828125q0.828125 0.71875 2.421875 0.71875q1.578125 0 2.796875 -0.6875q1.234375 -0.703125 1.8125 -1.890625q0.4375 -0.921875 0.4375 -2.71875l0 -1.0zm6.783905 8.0625l0 -16.078125l2.453125 0l0 2.28125q1.765625 -2.640625 5.109375 -2.640625q1.453125 0 2.671875 0.53125q1.21875 0.515625 1.828125 1.359375q0.609375 0.84375 0.84375 2.015625q0.15625 0.75 0.15625 2.640625l0 9.890625l-2.734375 0l0 -9.78125q0 -1.65625 -0.3125 -2.484375q-0.3125 -0.828125 -1.125 -1.3125q-0.8125 -0.5 -1.90625 -0.5q-1.734375 0 -3.0 1.109375q-1.265625 1.09375 -1.265625 4.1875l0 8.78125l-2.71875 0zm17.065186 0l0 -22.1875l2.71875 0l0 12.65625l6.453125 -6.546875l3.53125 0l-6.15625 5.96875l6.765625 10.109375l-3.359375 0l-5.3125 -8.21875l-1.921875 1.84375l0 6.375l-2.71875 0zm15.328125 -19.0625l0 -3.125l2.71875 0l0 3.125l-2.71875 0zm0 19.0625l0 -16.078125l2.71875 0l0 16.078125l-2.71875 0zm6.7951965 0l0 -16.078125l2.453125 0l0 2.28125q1.765625 -2.640625 5.109375 -2.640625q1.453125 0 2.671875 0.53125q1.21875 0.515625 1.828125 1.359375q0.609375 0.84375 0.84375 2.015625q0.15625 0.75 0.15625 2.640625l0 9.890625l-2.734375 0l0 -9.78125q0 -1.65625 -0.3125 -2.484375q-0.3125 -0.828125 -1.125 -1.3125q-0.8125 -0.5 -1.90625 -0.5q-1.734375 0 -3.0 1.109375q-1.265625 1.09375 -1.265625 4.1875l0 8.78125l-2.71875 0zm16.54956 1.328125l2.640625 0.390625q0.171875 1.234375 0.921875 1.796875q1.015625 0.75 2.78125 0.75q1.890625 0 2.921875 -0.765625q1.03125 -0.75 1.390625 -2.109375q0.203125 -0.828125 0.1875 -3.5q-1.78125 2.109375 -4.4375 2.109375q-3.328125 0 -5.140625 -2.390625q-1.8125 -2.390625 -1.8125 -5.734375q0 -2.296875 0.828125 -4.234375q0.84375 -1.953125 2.421875 -3.015625q1.578125 -1.0625 3.71875 -1.0625q2.84375 0 4.6875 2.296875l0 -1.9375l2.515625 0l0 13.890625q0 3.765625 -0.765625 5.328125q-0.765625 1.5625 -2.421875 2.46875q-1.65625 0.921875 -4.078125 0.921875q-2.875 0 -4.65625 -1.296875q-1.765625 -1.296875 -1.703125 -3.90625zm2.25 -9.65625q0 3.171875 1.25 4.625q1.265625 1.453125 3.15625 1.453125q1.875 0 3.140625 -1.4375q1.28125 -1.453125 1.28125 -4.546875q0 -2.953125 -1.3125 -4.453125q-1.3125 -1.5 -3.15625 -1.5q-1.8125 0 -3.09375 1.484375q-1.265625 1.46875 -1.265625 4.375zm34.23871 8.328125l0 -2.03125q-1.53125 2.390625 -4.484375 2.390625q-1.921875 0 -3.546875 -1.046875q-1.609375 -1.0625 -2.5 -2.96875q-0.875 -1.90625 -0.875 -4.359375q0 -2.40625 0.796875 -4.359375q0.8125 -1.96875 2.40625 -3.015625q1.609375 -1.046875 3.59375 -1.046875q1.453125 0 2.578125 0.609375q1.140625 0.609375 1.859375 1.59375l0 -7.953125l2.703125 0l0 22.1875l-2.53125 0zm-8.609375 -8.015625q0 3.078125 1.296875 4.609375q1.3125 1.53125 3.078125 1.53125q1.78125 0 3.03125 -1.453125q1.25 -1.46875 1.25 -4.46875q0 -3.296875 -1.28125 -4.84375q-1.265625 -1.546875 -3.125 -1.546875q-1.8125 0 -3.03125 1.484375q-1.21875 1.484375 -1.21875 4.6875zm26.23703 2.84375l2.8125 0.34375q-0.65625 2.46875 -2.46875 3.828125q-1.796875 1.359375 -4.59375 1.359375q-3.53125 0 -5.59375 -2.171875q-2.0625 -2.171875 -2.0625 -6.09375q0 -4.046875 2.078125 -6.28125q2.09375 -2.25 5.421875 -2.25q3.234375 0 5.265625 2.203125q2.046875 2.1875 2.046875 6.171875q0 0.234375 -0.015625 0.71875l-11.984375 0q0.15625 2.65625 1.5 4.0625q1.34375 1.40625 3.359375 1.40625q1.5 0 2.546875 -0.78125q1.0625 -0.796875 1.6875 -2.515625zm-8.9375 -4.40625l8.96875 0q-0.1875 -2.03125 -1.03125 -3.046875q-1.296875 -1.578125 -3.375 -1.578125q-1.875 0 -3.15625 1.265625q-1.28125 1.25 -1.40625 3.359375zm27.973083 9.578125l-6.125 -16.078125l2.875 0l3.453125 9.625q0.5625 1.5625 1.03125 3.25q0.359375 -1.28125 1.015625 -3.0625l3.578125 -9.8125l2.796875 0l-6.09375 16.078125l-2.53125 0zm21.34375 -1.984375q-1.515625 1.28125 -2.921875 1.8125q-1.390625 0.53125 -3.0 0.53125q-2.640625 0 -4.0625 -1.28125q-1.421875 -1.296875 -1.421875 -3.3125q0 -1.1875 0.53125 -2.15625q0.53125 -0.984375 1.40625 -1.5625q0.875 -0.59375 1.96875 -0.90625q0.796875 -0.203125 2.421875 -0.40625q3.296875 -0.390625 4.859375 -0.9375q0.015625 -0.5625 0.015625 -0.703125q0 -1.671875 -0.78125 -2.359375q-1.046875 -0.921875 -3.09375 -0.921875q-1.921875 0 -2.84375 0.671875q-0.921875 0.671875 -1.359375 2.390625l-2.65625 -0.359375q0.359375 -1.71875 1.1875 -2.765625q0.84375 -1.046875 2.40625 -1.609375q1.578125 -0.578125 3.65625 -0.578125q2.0625 0 3.34375 0.484375q1.28125 0.484375 1.890625 1.21875q0.609375 0.734375 0.84375 1.859375q0.140625 0.6875 0.140625 2.5l0 3.640625q0 3.796875 0.171875 4.8125q0.171875 1.0 0.6875 1.921875l-2.84375 0q-0.421875 -0.84375 -0.546875 -1.984375zm-0.21875 -6.078125q-1.484375 0.59375 -4.453125 1.03125q-1.6875 0.234375 -2.390625 0.546875q-0.6875 0.296875 -1.0625 0.875q-0.375 0.578125 -0.375 1.296875q0 1.09375 0.8125 1.828125q0.828125 0.71875 2.421875 0.71875q1.578125 0 2.796875 -0.6875q1.234375 -0.703125 1.8125 -1.890625q0.4375 -0.921875 0.4375 -2.71875l0 -1.0zm6.7526855 8.0625l0 -16.078125l2.4530945 0l0 2.4375q0.9375 -1.703125 1.734375 -2.25q0.796875 -0.546875 1.75 -0.546875q1.375 0 2.796875 0.875l-0.9375 2.53125q-1.0 -0.59375 -2.0 -0.59375q-0.890625 0 -1.609375 0.546875q-0.703125 0.53125 -1.015625 1.484375q-0.453125 1.453125 -0.453125 3.171875l0 8.421875l-2.7187195 0zm10.255646 -19.0625l0 -3.125l2.71875 0l0 3.125l-2.71875 0zm0 19.0625l0 -16.078125l2.71875 0l0 16.078125l-2.71875 0zm17.279602 -1.984375q-1.515625 1.28125 -2.921875 1.8125q-1.390625 0.53125 -3.0 0.53125q-2.640625 0 -4.0625 -1.28125q-1.421875 -1.296875 -1.421875 -3.3125q0 -1.1875 0.53125 -2.15625q0.53125 -0.984375 1.40625 -1.5625q0.875 -0.59375 1.96875 -0.90625q0.796875 -0.203125 2.421875 -0.40625q3.296875 -0.390625 4.859375 -0.9375q0.015625 -0.5625 0.015625 -0.703125q0 -1.671875 -0.78125 -2.359375q-1.046875 -0.921875 -3.09375 -0.921875q-1.921875 0 -2.84375 0.671875q-0.921875 0.671875 -1.359375 2.390625l-2.65625 -0.359375q0.359375 -1.71875 1.1875 -2.765625q0.84375 -1.046875 2.40625 -1.609375q1.578125 -0.578125 3.65625 -0.578125q2.0625 0 3.34375 0.484375q1.28125 0.484375 1.890625 1.21875q0.609375 0.734375 0.84375 1.859375q0.140625 0.6875 0.140625 2.5l0 3.640625q0 3.796875 0.171875 4.8125q0.171875 1.0 0.6875 1.921875l-2.84375 0q-0.421875 -0.84375 -0.546875 -1.984375zm-0.21875 -6.078125q-1.484375 0.59375 -4.453125 1.03125q-1.6875 0.234375 -2.390625 0.546875q-0.6875 0.296875 -1.0625 0.875q-0.375 0.578125 -0.375 1.296875q0 1.09375 0.8125 1.828125q0.828125 0.71875 2.421875 0.71875q1.578125 0 2.796875 -0.6875q1.234375 -0.703125 1.8125 -1.890625q0.4375 -0.921875 0.4375 -2.71875l0 -1.0zm9.2994995 8.0625l-2.53125 0l0 -22.1875l2.71875 0l0 7.90625q1.734375 -2.15625 4.40625 -2.15625q1.484375 0 2.8125 0.59375q1.328125 0.59375 2.171875 1.6875q0.859375 1.078125 1.34375 2.609375q0.484375 1.53125 0.484375 3.265625q0 4.140625 -2.046875 6.390625q-2.046875 2.25 -4.90625 2.25q-2.84375 0 -4.453125 -2.375l0 2.015625zm-0.03125 -8.15625q0 2.890625 0.78125 4.171875q1.28125 2.109375 3.484375 2.109375q1.78125 0 3.078125 -1.546875q1.3125 -1.5625 1.3125 -4.625q0 -3.15625 -1.25 -4.65625q-1.25 -1.5 -3.015625 -1.5q-1.796875 0 -3.09375 1.5625q-1.296875 1.546875 -1.296875 4.484375zm14.502686 8.15625l0 -22.1875l2.71875 0l0 22.1875l-2.71875 0zm17.873352 -5.171875l2.8125 0.34375q-0.65625 2.46875 -2.46875 3.828125q-1.796875 1.359375 -4.59375 1.359375q-3.53125 0 -5.59375 -2.171875q-2.0625 -2.171875 -2.0625 -6.09375q0 -4.046875 2.078125 -6.28125q2.09375 -2.25 5.421875 -2.25q3.234375 0 5.265625 2.203125q2.046875 2.1875 2.046875 6.171875q0 0.234375 -0.015625 0.71875l-11.984375 0q0.15625 2.65625 1.5 4.0625q1.34375 1.40625 3.359375 1.40625q1.5 0 2.546875 -0.78125q1.0625 -0.796875 1.6875 -2.515625zm-8.9375 -4.40625l8.96875 0q-0.1875 -2.03125 -1.03125 -3.046875q-1.296875 -1.578125 -3.375 -1.578125q-1.875 0 -3.15625 1.265625q-1.28125 1.25 -1.40625 3.359375zm13.893311 4.78125l2.6875 -0.421875q0.234375 1.609375 1.265625 2.484375q1.046875 0.859375 2.90625 0.859375q1.875 0 2.78125 -0.765625q0.90625 -0.765625 0.90625 -1.796875q0 -0.921875 -0.796875 -1.453125q-0.5625 -0.359375 -2.78125 -0.921875q-3.0 -0.75 -4.15625 -1.296875q-1.15625 -0.5625 -1.765625 -1.53125q-0.59375 -0.984375 -0.59375 -2.171875q0 -1.0625 0.484375 -1.984375q0.5 -0.921875 1.34375 -1.515625q0.640625 -0.46875 1.734375 -0.796875q1.09375 -0.328125 2.359375 -0.328125q1.890625 0 3.3125 0.546875q1.4375 0.546875 2.109375 1.484375q0.6875 0.921875 0.953125 2.484375l-2.671875 0.359375q-0.171875 -1.25 -1.046875 -1.9375q-0.875 -0.703125 -2.46875 -0.703125q-1.875 0 -2.671875 0.625q-0.796875 0.625 -0.796875 1.453125q0 0.53125 0.328125 0.953125q0.328125 0.4375 1.046875 0.734375q0.40625 0.140625 2.40625 0.6875q2.890625 0.78125 4.03125 1.265625q1.140625 0.484375 1.78125 1.4375q0.65625 0.9375 0.65625 2.328125q0 1.359375 -0.796875 2.5625q-0.78125 1.203125 -2.28125 1.859375q-1.5 0.65625 -3.390625 0.65625q-3.140625 0 -4.78125 -1.296875q-1.640625 -1.296875 -2.09375 -3.859375z" fill-rule="nonzero"></path><path fill="#000000" d="m325.7617 598.09467l-0.296875 -2.546875q0.890625 0.234375 1.546875 0.234375q0.921875 0 1.453125 -0.3125q0.546875 -0.296875 0.90625 -0.84375q0.25 -0.40625 0.828125 -2.015625q0.078125 -0.234375 0.234375 -0.671875l-6.09375 -16.109375l2.9375 0l3.34375 9.3125q0.65625 1.765625 1.171875 3.71875q0.46875 -1.875 1.109375 -3.65625l3.4375 -9.375l2.734375 0l-6.125 16.34375q-0.984375 2.65625 -1.53125 3.65625q-0.71875 1.34375 -1.65625 1.96875q-0.9375 0.640625 -2.25 0.640625q-0.78125 0 -1.75 -0.34375zm23.939148 -6.1875l0 -16.078125l2.453125 0l0 2.4375q0.9375 -1.703125 1.734375 -2.25q0.796875 -0.546875 1.75 -0.546875q1.375 0 2.796875 0.875l-0.9375 2.53125q-1.0 -0.59375 -2.0 -0.59375q-0.890625 0 -1.609375 0.546875q-0.703125 0.53125 -1.015625 1.484375q-0.453125 1.453125 -0.453125 3.171875l0 8.421875l-2.71875 0zm21.24002 -5.171875l2.8125 0.34375q-0.65625 2.46875 -2.46875 3.828125q-1.796875 1.359375 -4.59375 1.359375q-3.53125 0 -5.59375 -2.171875q-2.0625 -2.171875 -2.0625 -6.09375q0 -4.046875 2.078125 -6.28125q2.09375 -2.25 5.421875 -2.25q3.234375 0 5.265625 2.203125q2.046875 2.1875 2.046875 6.171875q0 0.234375 -0.015625 0.71875l-11.984375 0q0.15625 2.65625 1.5 4.0625q1.34375 1.40625 3.359375 1.40625q1.5 0 2.546875 -0.78125q1.0625 -0.796875 1.6875 -2.515625zm-8.9375 -4.40625l8.96875 0q-0.1875 -2.03125 -1.03125 -3.046875q-1.296875 -1.578125 -3.375 -1.578125q-1.875 0 -3.15625 1.265625q-1.28125 1.25 -1.40625 3.359375zm25.471436 3.6875l2.6875 0.34375q-0.4375 2.78125 -2.25 4.34375q-1.8125 1.5625 -4.453125 1.5625q-3.296875 0 -5.296875 -2.15625q-2.0 -2.15625 -2.0 -6.1875q0 -2.59375 0.859375 -4.546875q0.859375 -1.953125 2.625 -2.921875q1.765625 -0.984375 3.828125 -0.984375q2.625 0 4.28125 1.328125q1.671875 1.3125 2.140625 3.75l-2.640625 0.421875q-0.390625 -1.625 -1.359375 -2.4375q-0.953125 -0.828125 -2.3125 -0.828125q-2.0625 0 -3.34375 1.484375q-1.28125 1.46875 -1.28125 4.671875q0 3.234375 1.234375 4.703125q1.25 1.46875 3.234375 1.46875q1.609375 0 2.6875 -0.984375q1.078125 -0.984375 1.359375 -3.03125zm3.828125 -2.140625q0 -4.46875 2.484375 -6.625q2.0625 -1.78125 5.046875 -1.78125q3.3125 0 5.421875 2.171875q2.109375 2.171875 2.109375 6.0q0 3.109375 -0.9375 4.890625q-0.921875 1.765625 -2.703125 2.75q-1.78125 0.984375 -3.890625 0.984375q-3.375 0 -5.453125 -2.15625q-2.078125 -2.171875 -2.078125 -6.234375zm2.796875 0q0 3.078125 1.34375 4.625q1.359375 1.53125 3.390625 1.53125q2.03125 0 3.375 -1.546875q1.359375 -1.546875 1.359375 -4.703125q0 -2.984375 -1.359375 -4.515625q-1.359375 -1.546875 -3.375 -1.546875q-2.03125 0 -3.390625 1.53125q-1.34375 1.53125 -1.34375 4.625zm15.26828 8.03125l0 -16.078125l2.4375 0l0 2.265625q0.75 -1.1875 2.0 -1.90625q1.265625 -0.71875 2.875 -0.71875q1.78125 0 2.921875 0.75q1.140625 0.734375 1.609375 2.0625q1.90625 -2.8125 4.96875 -2.8125q2.390625 0 3.671875 1.328125q1.296875 1.3125 1.296875 4.078125l0 11.03125l-2.71875 0l0 -10.125q0 -1.640625 -0.265625 -2.359375q-0.25 -0.71875 -0.953125 -1.15625q-0.703125 -0.4375 -1.640625 -0.4375q-1.6875 0 -2.8125 1.125q-1.125 1.125 -1.125 3.609375l0 9.34375l-2.71875 0l0 -10.4375q0 -1.828125 -0.671875 -2.734375q-0.65625 -0.90625 -2.171875 -0.90625q-1.15625 0 -2.140625 0.609375q-0.96875 0.609375 -1.40625 1.78125q-0.4375 1.15625 -0.4375 3.34375l0 8.34375l-2.71875 0zm36.536896 -5.171875l2.8125 0.34375q-0.65625 2.46875 -2.46875 3.828125q-1.796875 1.359375 -4.59375 1.359375q-3.53125 0 -5.59375 -2.171875q-2.0625 -2.171875 -2.0625 -6.09375q0 -4.046875 2.078125 -6.28125q2.09375 -2.25 5.421875 -2.25q3.234375 0 5.265625 2.203125q2.046875 2.1875 2.046875 6.171875q0 0.234375 -0.015625 0.71875l-11.984375 0q0.15625 2.65625 1.5 4.0625q1.34375 1.40625 3.359375 1.40625q1.5 0 2.546875 -0.78125q1.0625 -0.796875 1.6875 -2.515625zm-8.9375 -4.40625l8.96875 0q-0.1875 -2.03125 -1.03125 -3.046875q-1.296875 -1.578125 -3.375 -1.578125q-1.875 0 -3.15625 1.265625q-1.28125 1.25 -1.40625 3.359375zm14.987061 9.578125l0 -16.078125l2.453125 0l0 2.28125q1.765625 -2.640625 5.109375 -2.640625q1.453125 0 2.671875 0.53125q1.21875 0.515625 1.828125 1.359375q0.609375 0.84375 0.84375 2.015625q0.15625 0.75 0.15625 2.640625l0 9.890625l-2.734375 0l0 -9.78125q0 -1.65625 -0.3125 -2.484375q-0.3125 -0.828125 -1.125 -1.3125q-0.8125 -0.5 -1.90625 -0.5q-1.734375 0 -3.0 1.109375q-1.265625 1.09375 -1.265625 4.1875l0 8.78125l-2.71875 0zm27.471405 0l0 -2.03125q-1.53125 2.390625 -4.484375 2.390625q-1.921875 0 -3.546875 -1.046875q-1.609375 -1.0625 -2.5 -2.96875q-0.875 -1.90625 -0.875 -4.359375q0 -2.40625 0.796875 -4.359375q0.8125 -1.96875 2.40625 -3.015625q1.609375 -1.046875 3.59375 -1.046875q1.453125 0 2.578125 0.609375q1.140625 0.609375 1.859375 1.59375l0 -7.953125l2.703125 0l0 22.1875l-2.53125 0zm-8.609375 -8.015625q0 3.078125 1.296875 4.609375q1.3125 1.53125 3.078125 1.53125q1.78125 0 3.03125 -1.453125q1.25 -1.46875 1.25 -4.46875q0 -3.296875 -1.28125 -4.84375q-1.265625 -1.546875 -3.125 -1.546875q-1.8125 0 -3.03125 1.484375q-1.21875 1.484375 -1.21875 4.6875zm25.721436 6.03125q-1.515625 1.28125 -2.921875 1.8125q-1.390625 0.53125 -3.0 0.53125q-2.640625 0 -4.0625 -1.28125q-1.421875 -1.296875 -1.421875 -3.3125q0 -1.1875 0.53125 -2.15625q0.53125 -0.984375 1.40625 -1.5625q0.875 -0.59375 1.96875 -0.90625q0.796875 -0.203125 2.421875 -0.40625q3.296875 -0.390625 4.859375 -0.9375q0.015625 -0.5625 0.015625 -0.703125q0 -1.671875 -0.78125 -2.359375q-1.046875 -0.921875 -3.09375 -0.921875q-1.921875 0 -2.84375 0.671875q-0.921875 0.671875 -1.359375 2.390625l-2.65625 -0.359375q0.359375 -1.71875 1.1875 -2.765625q0.84375 -1.046875 2.40625 -1.609375q1.578125 -0.578125 3.65625 -0.578125q2.0625 0 3.34375 0.484375q1.28125 0.484375 1.890625 1.21875q0.609375 0.734375 0.84375 1.859375q0.140625 0.6875 0.140625 2.5l0 3.640625q0 3.796875 0.171875 4.8125q0.171875 1.0 0.6875 1.921875l-2.84375 0q-0.421875 -0.84375 -0.546875 -1.984375zm-0.21875 -6.078125q-1.484375 0.59375 -4.453125 1.03125q-1.6875 0.234375 -2.390625 0.546875q-0.6875 0.296875 -1.0625 0.875q-0.375 0.578125 -0.375 1.296875q0 1.09375 0.8125 1.828125q0.828125 0.71875 2.421875 0.71875q1.578125 0 2.796875 -0.6875q1.234375 -0.703125 1.8125 -1.890625q0.4375 -0.921875 0.4375 -2.71875l0 -1.0zm17.26828 2.171875l2.6875 0.34375q-0.4375 2.78125 -2.25 4.34375q-1.8125 1.5625 -4.453125 1.5625q-3.296875 0 -5.296875 -2.15625q-2.0 -2.15625 -2.0 -6.1875q0 -2.59375 0.859375 -4.546875q0.859375 -1.953125 2.625 -2.921875q1.765625 -0.984375 3.828125 -0.984375q2.625 0 4.28125 1.328125q1.671875 1.3125 2.140625 3.75l-2.640625 0.421875q-0.390625 -1.625 -1.359375 -2.4375q-0.953125 -0.828125 -2.3125 -0.828125q-2.0625 0 -3.34375 1.484375q-1.28125 1.46875 -1.28125 4.671875q0 3.234375 1.234375 4.703125q1.25 1.46875 3.234375 1.46875q1.609375 0 2.6875 -0.984375q1.078125 -0.984375 1.359375 -3.03125zm4.859375 -13.171875l0 -3.125l2.71875 0l0 3.125l-2.71875 0zm0 19.0625l0 -16.078125l2.71875 0l0 16.078125l-2.71875 0zm5.779602 -8.03125q0 -4.46875 2.484375 -6.625q2.0625 -1.78125 5.046875 -1.78125q3.3125 0 5.421875 2.171875q2.109375 2.171875 2.109375 6.0q0 3.109375 -0.9375 4.890625q-0.921875 1.765625 -2.703125 2.75q-1.78125 0.984375 -3.890625 0.984375q-3.375 0 -5.453125 -2.15625q-2.078125 -2.171875 -2.078125 -6.234375zm2.796875 0q0 3.078125 1.34375 4.625q1.359375 1.53125 3.390625 1.53125q2.03125 0 3.375 -1.546875q1.359375 -1.546875 1.359375 -4.703125q0 -2.984375 -1.359375 -4.515625q-1.359375 -1.546875 -3.375 -1.546875q-2.03125 0 -3.390625 1.53125q-1.34375 1.53125 -1.34375 4.625zm15.268311 8.03125l0 -16.078125l2.453125 0l0 2.28125q1.765625 -2.640625 5.109375 -2.640625q1.453125 0 2.671875 0.53125q1.21875 0.515625 1.828125 1.359375q0.609375 0.84375 0.84375 2.015625q0.15625 0.75 0.15625 2.640625l0 9.890625l-2.734375 0l0 -9.78125q0 -1.65625 -0.3125 -2.484375q-0.3125 -0.828125 -1.125 -1.3125q-0.8125 -0.5 -1.90625 -0.5q-1.734375 0 -3.0 1.109375q-1.265625 1.09375 -1.265625 4.1875l0 8.78125l-2.71875 0zm28.04956 -5.171875l2.8125 0.34375q-0.65625 2.46875 -2.46875 3.828125q-1.796875 1.359375 -4.59375 1.359375q-3.53125 0 -5.593811 -2.171875q-2.0625 -2.171875 -2.0625 -6.09375q0 -4.046875 2.078125 -6.28125q2.093811 -2.25 5.421936 -2.25q3.234375 0 5.265625 2.203125q2.046875 2.1875 2.046875 6.171875q0 0.234375 -0.015625 0.71875l-11.984375 0q0.15625 2.65625 1.5 4.0625q1.34375 1.40625 3.359375 1.40625q1.5 0 2.546875 -0.78125q1.0625 -0.796875 1.6875 -2.515625zm-8.9375 -4.40625l8.96875 0q-0.1875 -2.03125 -1.03125 -3.046875q-1.296875 -1.578125 -3.375 -1.578125q-1.875 0 -3.15625 1.265625q-1.28125 1.25 -1.40625 3.359375zm13.8932495 4.78125l2.6875 -0.421875q0.234375 1.609375 1.265625 2.484375q1.046875 0.859375 2.90625 0.859375q1.875 0 2.78125 -0.765625q0.90625 -0.765625 0.90625 -1.796875q0 -0.921875 -0.796875 -1.453125q-0.5625 -0.359375 -2.78125 -0.921875q-3.0 -0.75 -4.15625 -1.296875q-1.15625 -0.5625 -1.765625 -1.53125q-0.59375 -0.984375 -0.59375 -2.171875q0 -1.0625 0.484375 -1.984375q0.5 -0.921875 1.34375 -1.515625q0.640625 -0.46875 1.734375 -0.796875q1.09375 -0.328125 2.359375 -0.328125q1.890625 0 3.3125 0.546875q1.4375 0.546875 2.109375 1.484375q0.6875 0.921875 0.953125 2.484375l-2.671875 0.359375q-0.171875 -1.25 -1.046875 -1.9375q-0.875 -0.703125 -2.46875 -0.703125q-1.875 0 -2.671875 0.625q-0.796875 0.625 -0.796875 1.453125q0 0.53125 0.328125 0.953125q0.328125 0.4375 1.046875 0.734375q0.40625 0.140625 2.40625 0.6875q2.890625 0.78125 4.03125 1.265625q1.140625 0.484375 1.78125 1.4375q0.65625 0.9375 0.65625 2.328125q0 1.359375 -0.796875 2.5625q-0.78125 1.203125 -2.28125 1.859375q-1.5 0.65625 -3.390625 0.65625q-3.140625 0 -4.78125 -1.296875q-1.640625 -1.296875 -2.09375 -3.859375z" fill-rule="nonzero"></path><path fill="#d9d2e9" d="m43.27559 365.47507l304.44092 0l0 146.58267l-304.44092 0z" fill-rule="evenodd"></path><path stroke="#000000" stroke-width="1.0" stroke-linejoin="round" stroke-linecap="butt" d="m43.27559 365.47507l304.44092 0l0 146.58267l-304.44092 0z" fill-rule="evenodd"></path><path fill="#000000" d="m97.25451 449.7064l0 -22.1875l4.421875 0l5.25 15.703125q0.734375 2.203125 1.0625 3.296875q0.375 -1.21875 1.1875 -3.5625l5.3125 -15.4375l3.953125 0l0 22.1875l-2.84375 0l0 -18.578125l-6.4375 18.578125l-2.65625 0l-6.421875 -18.890625l0 18.890625l-2.828125 0zm24.27127 -8.03125q0 -4.46875 2.484375 -6.625q2.0625 -1.78125 5.0468826 -1.78125q3.3125 0 5.421875 2.171875q2.109375 2.171875 2.109375 6.0q0 3.109375 -0.9375 4.890625q-0.921875 1.765625 -2.703125 2.75q-1.78125 0.984375 -3.890625 0.984375q-3.3750076 0 -5.4531326 -2.15625q-2.078125 -2.171875 -2.078125 -6.234375zm2.796875 0q0 3.078125 1.34375 4.625q1.359375 1.53125 3.3906326 1.53125q2.03125 0 3.375 -1.546875q1.359375 -1.546875 1.359375 -4.703125q0 -2.984375 -1.359375 -4.515625q-1.359375 -1.546875 -3.375 -1.546875q-2.0312576 0 -3.3906326 1.53125q-1.34375 1.53125 -1.34375 4.625zm25.690178 8.03125l0 -2.03125q-1.53125 2.390625 -4.484375 2.390625q-1.921875 0 -3.546875 -1.046875q-1.609375 -1.0625 -2.5 -2.96875q-0.875 -1.90625 -0.875 -4.359375q0 -2.40625 0.796875 -4.359375q0.8125 -1.96875 2.40625 -3.015625q1.609375 -1.046875 3.59375 -1.046875q1.453125 0 2.578125 0.609375q1.140625 0.609375 1.859375 1.59375l0 -7.953125l2.703125 0l0 22.1875l-2.53125 0zm-8.609375 -8.015625q0 3.078125 1.296875 4.609375q1.3125 1.53125 3.078125 1.53125q1.78125 0 3.03125 -1.453125q1.25 -1.46875 1.25 -4.46875q0 -3.296875 -1.28125 -4.84375q-1.265625 -1.546875 -3.125 -1.546875q-1.8125 0 -3.03125 1.484375q-1.21875 1.484375 -1.21875 4.6875zm26.237045 2.84375l2.8125 0.34375q-0.65625 2.46875 -2.46875 3.828125q-1.796875 1.359375 -4.59375 1.359375q-3.53125 0 -5.59375 -2.171875q-2.0625 -2.171875 -2.0625 -6.09375q0 -4.046875 2.078125 -6.28125q2.09375 -2.25 5.421875 -2.25q3.234375 0 5.265625 2.203125q2.046875 2.1875 2.046875 6.171875q0 0.234375 -0.015625 0.71875l-11.984375 0q0.15625 2.65625 1.5 4.0625q1.34375 1.40625 3.359375 1.40625q1.5 0 2.546875 -0.78125q1.0625 -0.796875 1.6875 -2.515625zm-8.9375 -4.40625l8.96875 0q-0.1875 -2.03125 -1.03125 -3.046875q-1.296875 -1.578125 -3.375 -1.578125q-1.875 0 -3.15625 1.265625q-1.28125 1.25 -1.40625 3.359375zm14.924545 9.578125l0 -22.1875l2.71875 0l0 22.1875l-2.71875 0zm5.8576965 -8.03125q0 -4.46875 2.484375 -6.625q2.0625 -1.78125 5.046875 -1.78125q3.3125 0 5.421875 2.171875q2.109375 2.171875 2.109375 6.0q0 3.109375 -0.9375 4.890625q-0.921875 1.765625 -2.703125 2.75q-1.78125 0.984375 -3.890625 0.984375q-3.375 0 -5.453125 -2.15625q-2.078125 -2.171875 -2.078125 -6.234375zm2.796875 0q0 3.078125 1.34375 4.625q1.359375 1.53125 3.390625 1.53125q2.03125 0 3.375 -1.546875q1.359375 -1.546875 1.359375 -4.703125q0 -2.984375 -1.359375 -4.515625q-1.359375 -1.546875 -3.375 -1.546875q-2.03125 0 -3.390625 1.53125q-1.34375 1.53125 -1.34375 4.625zm22.769958 0q0 -4.46875 2.484375 -6.625q2.0625 -1.78125 5.046875 -1.78125q3.3125 0 5.421875 2.171875q2.109375 2.171875 2.109375 6.0q0 3.109375 -0.9375 4.890625q-0.921875 1.765625 -2.703125 2.75q-1.78125 0.984375 -3.890625 0.984375q-3.375 0 -5.453125 -2.15625q-2.078125 -2.171875 -2.078125 -6.234375zm2.796875 0q0 3.078125 1.34375 4.625q1.359375 1.53125 3.390625 1.53125q2.03125 0 3.375 -1.546875q1.359375 -1.546875 1.359375 -4.703125q0 -2.984375 -1.359375 -4.515625q-1.359375 -1.546875 -3.375 -1.546875q-2.03125 0 -3.390625 1.53125q-1.34375 1.53125 -1.34375 4.625zm3.53125 -10.046875l2.015625 -4.234375l3.578125 0l-3.34375 4.234375l-2.25 0zm11.737061 24.234375l0 -22.234375l2.484375 0l0 2.09375q0.875 -1.234375 1.96875 -1.84375q1.109375 -0.609375 2.6875 -0.609375q2.0625 0 3.625 1.0625q1.578125 1.0625 2.375 3.0q0.8125 1.921875 0.8125 4.21875q0 2.46875 -0.890625 4.453125q-0.875 1.96875 -2.5625 3.015625q-1.6875 1.046875 -3.5625 1.046875q-1.359375 0 -2.4375 -0.5625q-1.078125 -0.578125 -1.78125 -1.46875l0 7.828125l-2.71875 0zm2.46875 -14.109375q0 3.109375 1.25 4.59375q1.265625 1.484375 3.046875 1.484375q1.8125 0 3.109375 -1.53125q1.296875 -1.546875 1.296875 -4.765625q0 -3.078125 -1.265625 -4.59375q-1.265625 -1.53125 -3.015625 -1.53125q-1.75 0 -3.09375 1.625q-1.328125 1.625 -1.328125 4.71875zm20.533905 5.515625l0.390625 2.40625q-1.15625 0.25 -2.0625 0.25q-1.484375 0 -2.3125 -0.46875q-0.8125 -0.484375 -1.140625 -1.234375q-0.328125 -0.765625 -0.328125 -3.21875l0 -9.25l-2.0 0l0 -2.125l2.0 0l0 -3.984375l2.703125 -1.625l0 5.609375l2.75 0l0 2.125l-2.75 0l0 9.390625q0 1.171875 0.140625 1.515625q0.15625 0.328125 0.46875 0.53125q0.328125 0.1875 0.9375 0.1875q0.453125 0 1.203125 -0.109375zm2.5798035 -16.625l0 -3.125l2.71875 0l0 3.125l-2.71875 0zm0 19.0625l0 -16.078125l2.71875 0l0 16.078125l-2.71875 0zm6.7951965 0l0 -16.078125l2.4375153 0l0 2.265625q0.75 -1.1875 2.0 -1.90625q1.265625 -0.71875 2.875 -0.71875q1.78125 0 2.921875 0.75q1.140625 0.734375 1.609375 2.0625q1.90625 -2.8125 4.96875 -2.8125q2.390625 0 3.671875 1.328125q1.296875 1.3125 1.296875 4.078125l0 11.03125l-2.71875 0l0 -10.125q0 -1.640625 -0.265625 -2.359375q-0.25 -0.71875 -0.953125 -1.15625q-0.703125 -0.4375 -1.640625 -0.4375q-1.6875 0 -2.8125 1.125q-1.125 1.125 -1.125 3.609375l0 9.34375l-2.71875 0l0 -10.4375q0 -1.828125 -0.671875 -2.734375q-0.65625 -0.90625 -2.171875 -0.90625q-1.15625 0 -2.140625 0.609375q-0.96875 0.609375 -1.40625 1.78125q-0.4375 1.15625 -0.4375 3.34375l0 8.34375l-2.7187653 0zm24.521286 -8.03125q0 -4.46875 2.484375 -6.625q2.0625 -1.78125 5.046875 -1.78125q3.3125 0 5.421875 2.171875q2.109375 2.171875 2.109375 6.0q0 3.109375 -0.9375 4.890625q-0.921875 1.765625 -2.703125 2.75q-1.78125 0.984375 -3.890625 0.984375q-3.375 0 -5.453125 -2.15625q-2.078125 -2.171875 -2.078125 -6.234375zm2.796875 0q0 3.078125 1.34375 4.625q1.359375 1.53125 3.390625 1.53125q2.03125 0 3.375 -1.546875q1.359375 -1.546875 1.359375 -4.703125q0 -2.984375 -1.359375 -4.515625q-1.359375 -1.546875 -3.375 -1.546875q-2.03125 0 -3.390625 1.53125q-1.34375 1.53125 -1.34375 4.625z" fill-rule="nonzero"></path></g></svg>

