<?xml version="1.0" standalone="yes"?>

<svg version="1.1" viewBox="0.0 0.0 413.13385826771656 225.498687664042" fill="none" stroke="none" stroke-linecap="square" stroke-miterlimit="10" xmlns="http://www.w3.org/2000/svg" xmlns:xlink="http://www.w3.org/1999/xlink"><clipPath id="p.0"><path d="m0 0l413.13385 0l0 225.49869l-413.13385 0l0 -225.49869z" clip-rule="nonzero"></path></clipPath><g clip-path="url(#p.0)"><path fill="#000000" fill-opacity="0.0" d="m0 0l413.13385 0l0 225.49869l-413.13385 0z" fill-rule="evenodd"></path><path shape-rendering="crispEdges" fill="#b4a7d6" d="m59.093174 91.85302l52.459316 0l0 124.78741l-52.459316 0l0 -124.78741z" fill-rule="nonzero"></path><path shape-rendering="crispEdges" fill="#d9d2e9" d="m111.55249 91.85302l52.45932 0l0 41.595802l-52.45932 0l0 -41.595802z" fill-rule="nonzero"></path><path shape-rendering="crispEdges" fill="#d9d2e9" d="m111.55249 133.44882l52.45932 0l0 41.595795l-52.45932 0l0 -41.595795z" fill-rule="nonzero"></path><path shape-rendering="crispEdges" fill="#d9d2e9" d="m111.55249 175.04462l52.45932 0l0 41.59581l-52.45932 0l0 -41.59581z" fill-rule="nonzero"></path><path stroke="#9e9e9e" stroke-width="1.0" stroke-linecap="butt" d="m59.093174 91.35433l0 125.78478" fill-rule="nonzero"></path><path stroke="#9e9e9e" stroke-width="1.0" stroke-linecap="butt" d="m111.55249 91.35433l0 125.78478" fill-rule="nonzero"></path><path stroke="#9e9e9e" stroke-width="1.0" stroke-linecap="butt" d="m164.01181 91.35433l0 125.78478" fill-rule="nonzero"></path><path stroke="#9e9e9e" stroke-width="1.0" stroke-linecap="butt" d="m58.59449 91.85302l105.91601 0" fill-rule="nonzero"></path><path stroke="#9e9e9e" stroke-width="1.0" stroke-linecap="butt" d="m111.0538 133.44882l53.456696 0" fill-rule="nonzero"></path><path stroke="#9e9e9e" stroke-width="1.0" stroke-linecap="butt" d="m111.0538 175.04462l53.456696 0" fill-rule="nonzero"></path><path stroke="#9e9e9e" stroke-width="1.0" stroke-linecap="butt" d="m58.59449 216.64043l105.91601 0" fill-rule="nonzero"></path><path fill="#000000" d="m131.52911 118.77302l5.234375 -13.59375l1.9375 0l5.5625 13.59375l-2.046875 0l-1.59375 -4.125l-5.6875 0l-1.484375 4.125l-1.921875 0zm3.921875 -5.578125l4.609375 0l-1.40625 -3.78125q-0.65625 -1.703125 -0.96875 -2.8125q-0.265625 1.3125 -0.734375 2.59375l-1.5 4.0z" fill-rule="nonzero"></path><path fill="#000000" d="m132.95099 160.36882l0 -13.59375l5.109375 0q1.546875 0 2.484375 0.40625q0.953125 0.40625 1.484375 1.265625q0.53125 0.859375 0.53125 1.796875q0 0.875 -0.46875 1.65625q-0.46875 0.765625 -1.4375 1.234375q1.234375 0.359375 1.890625 1.234375q0.671875 0.875 0.671875 2.0625q0 0.953125 -0.40625 1.78125q-0.390625 0.8125 -0.984375 1.265625q-0.59375 0.4375 -1.5 0.671875q-0.890625 0.21875 -2.1875 0.21875l-5.1875 0zm1.796875 -7.890625l2.9375 0q1.203125 0 1.71875 -0.15625q0.6875 -0.203125 1.03125 -0.671875q0.359375 -0.46875 0.359375 -1.1875q0 -0.671875 -0.328125 -1.1875q-0.328125 -0.515625 -0.9375 -0.703125q-0.59375 -0.203125 -2.0625 -0.203125l-2.71875 0l0 4.109375zm0 6.28125l3.390625 0q0.875 0 1.21875 -0.0625q0.625 -0.109375 1.046875 -0.359375q0.421875 -0.265625 0.6875 -0.765625q0.265625 -0.5 0.265625 -1.140625q0 -0.765625 -0.390625 -1.328125q-0.390625 -0.5625 -1.078125 -0.78125q-0.6875 -0.234375 -1.984375 -0.234375l-3.15625 0l0 4.671875z" fill-rule="nonzero"></path><path fill="#000000" d="m142.21756 197.19899l1.796875 0.453125q-0.5625 2.21875 -2.03125 3.390625q-1.46875 1.15625 -3.59375 1.15625q-2.203125 0 -3.578125 -0.890625q-1.375 -0.90625 -2.09375 -2.59375q-0.71875 -1.703125 -0.71875 -3.65625q0 -2.125 0.796875 -3.703125q0.8125 -1.578125 2.3125 -2.390625q1.5 -0.828125 3.296875 -0.828125q2.046875 0 3.4375 1.046875q1.390625 1.03125 1.9375 2.90625l-1.765625 0.421875q-0.46875 -1.484375 -1.375 -2.15625q-0.90625 -0.6875 -2.265625 -0.6875q-1.5625 0 -2.625 0.75q-1.046875 0.75 -1.484375 2.03125q-0.421875 1.265625 -0.421875 2.609375q0 1.734375 0.5 3.03125q0.515625 1.28125 1.578125 1.921875q1.078125 0.640625 2.3125 0.640625q1.515625 0 2.5625 -0.859375q1.046875 -0.875 1.421875 -2.59375z" fill-rule="nonzero"></path><path shape-rendering="crispEdges" fill="#d5a6bd" d="m164.01181 8.661417l157.37796 0l0 41.595802l-157.37796 0l0 -41.595802z" fill-rule="nonzero"></path><path shape-rendering="crispEdges" fill="#ead1dc" d="m164.01181 50.257217l52.45932 0l0 41.595802l-52.45932 0l0 -41.595802z" fill-rule="nonzero"></path><path shape-rendering="crispEdges" fill="#ead1dc" d="m216.47113 50.257217l52.45932 0l0 41.595802l-52.45932 0l0 -41.595802z" fill-rule="nonzero"></path><path shape-rendering="crispEdges" fill="#ead1dc" d="m268.93045 50.257217l52.45932 0l0 41.595802l-52.45932 0l0 -41.595802z" fill-rule="nonzero"></path><path shape-rendering="crispEdges" fill="#b6d7a8" d="m268.93045 91.85302l52.45932 0l0 41.595802l-52.45932 0l0 -41.595802z" fill-rule="nonzero"></path><path shape-rendering="crispEdges" fill="#b6d7a8" d="m268.93045 133.44882l52.45932 0l0 41.595795l-52.45932 0l0 -41.595795z" fill-rule="nonzero"></path><path shape-rendering="crispEdges" fill="#9fc5e8" d="m164.01181 175.04462l52.45932 0l0 41.59581l-52.45932 0l0 -41.59581z" fill-rule="nonzero"></path><path shape-rendering="crispEdges" fill="#9fc5e8" d="m216.47113 175.04462l52.45932 0l0 41.59581l-52.45932 0l0 -41.59581z" fill-rule="nonzero"></path><path shape-rendering="crispEdges" fill="#999999" d="m268.93045 175.04462l52.45932 0l0 41.59581l-52.45932 0l0 -41.59581z" fill-rule="nonzero"></path><path stroke="#9e9e9e" stroke-width="1.0" stroke-linecap="butt" d="m164.01181 8.162729l0 208.97638" fill-rule="nonzero"></path><path stroke="#9e9e9e" stroke-width="1.0" stroke-linecap="butt" d="m216.47113 49.75853l0 167.38058" fill-rule="nonzero"></path><path stroke="#9e9e9e" stroke-width="1.0" stroke-linecap="butt" d="m268.93045 49.75853l0 167.38058" fill-rule="nonzero"></path><path stroke="#9e9e9e" stroke-width="1.0" stroke-linecap="butt" d="m321.38977 8.162729l0 208.97638" fill-rule="nonzero"></path><path stroke="#9e9e9e" stroke-width="1.0" stroke-linecap="butt" d="m163.51312 8.661417l158.37534 0" fill-rule="nonzero"></path><path stroke="#9e9e9e" stroke-width="1.0" stroke-linecap="butt" d="m163.51312 50.257217l158.37534 0" fill-rule="nonzero"></path><path stroke="#9e9e9e" stroke-width="1.0" stroke-linecap="butt" d="m163.51312 91.85302l158.37534 0" fill-rule="nonzero"></path><path stroke="#9e9e9e" stroke-width="1.0" stroke-linecap="butt" d="m163.51312 133.44882l158.37534 0" fill-rule="nonzero"></path><path stroke="#9e9e9e" stroke-width="1.0" stroke-linecap="butt" d="m163.51312 175.04462l158.37534 0" fill-rule="nonzero"></path><path stroke="#9e9e9e" stroke-width="1.0" stroke-linecap="butt" d="m163.51312 216.64043l158.37534 0" fill-rule="nonzero"></path><path fill="#000000" d="m214.93457 31.741417l0 -10.734375l4.046875 0q1.078125 0 1.640625 0.09375q0.78125 0.140625 1.3125 0.515625q0.546875 0.359375 0.875 1.03125q0.328125 0.65625 0.328125 1.46875q0 1.359375 -0.875 2.3125q-0.875 0.953125 -3.15625 0.953125l-2.75 0l0 4.359375l-1.421875 0zm1.421875 -5.625l2.78125 0q1.375 0 1.953125 -0.515625q0.578125 -0.515625 0.578125 -1.453125q0 -0.671875 -0.34375 -1.140625q-0.34375 -0.484375 -0.890625 -0.640625q-0.359375 -0.09375 -1.328125 -0.09375l-2.75 0l0 3.84375zm8.166229 5.625l0 -7.78125l1.1875 0l0 1.1875q0.453125 -0.828125 0.84375 -1.09375q0.390625 -0.265625 0.84375 -0.265625q0.671875 0 1.359375 0.421875l-0.453125 1.21875q-0.484375 -0.28125 -0.96875 -0.28125q-0.4375 0 -0.78125 0.265625q-0.34375 0.25 -0.484375 0.71875q-0.21875 0.703125 -0.21875 1.53125l0 4.078125l-1.328125 0zm10.224396 -2.5l1.359375 0.15625q-0.3125 1.203125 -1.1875 1.859375q-0.875 0.65625 -2.234375 0.65625q-1.703125 0 -2.703125 -1.046875q-1.0 -1.046875 -1.0 -2.953125q0 -1.953125 1.015625 -3.03125q1.015625 -1.09375 2.625 -1.09375q1.5625 0 2.546875 1.0625q0.984375 1.0625 0.984375 2.984375q0 0.125 0 0.359375l-5.8125 0q0.078125 1.28125 0.71875 1.96875q0.65625 0.671875 1.640625 0.671875q0.71875 0 1.234375 -0.375q0.515625 -0.390625 0.8125 -1.21875zm-4.328125 -2.140625l4.34375 0q-0.09375 -0.984375 -0.5 -1.46875q-0.625 -0.765625 -1.625 -0.765625q-0.921875 0 -1.546875 0.609375q-0.609375 0.609375 -0.671875 1.625zm12.197983 4.640625l0 -0.984375q-0.734375 1.15625 -2.171875 1.15625q-0.921875 0 -1.703125 -0.5q-0.78125 -0.515625 -1.21875 -1.4375q-0.421875 -0.921875 -0.421875 -2.109375q0 -1.171875 0.390625 -2.109375q0.390625 -0.953125 1.15625 -1.453125q0.78125 -0.515625 1.734375 -0.515625q0.703125 0 1.25 0.296875q0.5625 0.296875 0.90625 0.765625l0 -3.84375l1.3125 0l0 10.734375l-1.234375 0zm-4.15625 -3.875q0 1.484375 0.625 2.234375q0.625 0.734375 1.484375 0.734375q0.859375 0 1.46875 -0.703125q0.609375 -0.71875 0.609375 -2.15625q0 -1.609375 -0.625 -2.34375q-0.609375 -0.75 -1.515625 -0.75q-0.875 0 -1.46875 0.71875q-0.578125 0.71875 -0.578125 2.265625zm7.276108 -5.34375l0 -1.515625l1.3125 0l0 1.515625l-1.3125 0zm0 9.21875l0 -7.78125l1.3125 0l0 7.78125l-1.3125 0zm8.318649 -2.84375l1.296875 0.15625q-0.203125 1.34375 -1.09375 2.109375q-0.875 0.75 -2.140625 0.75q-1.59375 0 -2.5625 -1.03125q-0.96875 -1.046875 -0.96875 -3.0q0 -1.265625 0.40625 -2.203125q0.421875 -0.953125 1.265625 -1.421875q0.859375 -0.46875 1.859375 -0.46875q1.265625 0 2.078125 0.640625q0.8125 0.640625 1.03125 1.8125l-1.28125 0.203125q-0.1875 -0.78125 -0.65625 -1.171875q-0.453125 -0.40625 -1.109375 -0.40625q-1.0 0 -1.625 0.71875q-0.625 0.71875 -0.625 2.265625q0 1.5625 0.59375 2.28125q0.609375 0.703125 1.578125 0.703125q0.78125 0 1.296875 -0.46875q0.515625 -0.484375 0.65625 -1.46875zm2.2499847 2.84375l0 -10.734375l1.328125 0l0 3.84375q0.921875 -1.0625 2.328125 -1.0625q0.859375 0 1.5 0.34375q0.640625 0.34375 0.90625 0.9375q0.28125 0.59375 0.28125 1.75l0 4.921875l-1.328125 0l0 -4.921875q0 -1.0 -0.421875 -1.4375q-0.421875 -0.453125 -1.21875 -0.453125q-0.578125 0 -1.09375 0.296875q-0.515625 0.296875 -0.734375 0.828125q-0.21875 0.515625 -0.21875 1.4375l0 4.25l-1.328125 0zm7.666748 -3.890625q0 -2.15625 1.203125 -3.203125q1.0 -0.859375 2.4375 -0.859375q1.609375 0 2.625 1.046875q1.015625 1.046875 1.015625 2.90625q0 1.5 -0.453125 2.359375q-0.4375 0.859375 -1.3125 1.34375q-0.859375 0.46875 -1.875 0.46875q-1.625 0 -2.640625 -1.046875q-1.0 -1.046875 -1.0 -3.015625zm1.359375 0q0 1.5 0.640625 2.25q0.65625 0.734375 1.640625 0.734375q0.984375 0 1.640625 -0.75q0.65625 -0.75 0.65625 -2.28125q0 -1.4375 -0.65625 -2.171875q-0.65625 -0.75 -1.640625 -0.75q-0.984375 0 -1.640625 0.734375q-0.640625 0.734375 -0.640625 2.234375z" fill-rule="nonzero"></path><path fill="#000000" d="m185.33804 73.33722l4.125 -10.734375l1.515625 0l4.40625 10.734375l-1.625 0l-1.25 -3.25l-4.484375 0l-1.1875 3.25l-1.5 0zm3.09375 -4.40625l3.640625 0l-1.125 -2.984375q-0.515625 -1.34375 -0.765625 -2.21875q-0.203125 1.03125 -0.578125 2.046875l-1.171875 3.15625z" fill-rule="nonzero"></path><path fill="#000000" d="m238.90674 73.33722l0 -10.734375l4.03125 0q1.234375 0 1.96875 0.328125q0.75 0.328125 1.171875 1.0q0.421875 0.671875 0.421875 1.421875q0 0.6875 -0.375 1.296875q-0.375 0.59375 -1.125 0.96875q0.96875 0.296875 1.484375 0.984375q0.53125 0.6875 0.53125 1.625q0 0.75 -0.328125 1.40625q-0.3125 0.640625 -0.78125 1.0q-0.46875 0.34375 -1.171875 0.53125q-0.703125 0.171875 -1.734375 0.171875l-4.09375 0zm1.421875 -6.21875l2.328125 0q0.9375 0 1.359375 -0.125q0.53125 -0.171875 0.796875 -0.546875q0.28125 -0.375 0.28125 -0.9375q0 -0.53125 -0.25 -0.9375q-0.25 -0.40625 -0.734375 -0.546875q-0.46875 -0.15625 -1.625 -0.15625l-2.15625 0l0 3.25zm0 4.953125l2.671875 0q0.6875 0 0.96875 -0.046875q0.5 -0.09375 0.828125 -0.296875q0.328125 -0.203125 0.53125 -0.59375q0.21875 -0.390625 0.21875 -0.90625q0 -0.609375 -0.3125 -1.046875q-0.296875 -0.4375 -0.84375 -0.609375q-0.546875 -0.1875 -1.578125 -0.1875l-2.484375 0l0 3.6875z" fill-rule="nonzero"></path><path fill="#000000" d="m298.68048 69.571594l1.421875 0.359375q-0.4375 1.75 -1.609375 2.671875q-1.15625 0.921875 -2.828125 0.921875q-1.734375 0 -2.828125 -0.703125q-1.09375 -0.71875 -1.65625 -2.046875q-0.5625 -1.34375 -0.5625 -2.890625q0 -1.671875 0.640625 -2.921875q0.640625 -1.25 1.8125 -1.890625q1.1875 -0.65625 2.609375 -0.65625q1.609375 0 2.703125 0.828125q1.109375 0.8125 1.546875 2.296875l-1.40625 0.328125q-0.375 -1.171875 -1.09375 -1.703125q-0.703125 -0.53125 -1.78125 -0.53125q-1.234375 0 -2.0625 0.59375q-0.828125 0.59375 -1.171875 1.59375q-0.328125 1.0 -0.328125 2.0625q0 1.359375 0.390625 2.390625q0.40625 1.015625 1.234375 1.53125q0.84375 0.5 1.828125 0.5q1.203125 0 2.03125 -0.6875q0.828125 -0.6875 1.109375 -2.046875z" fill-rule="nonzero"></path><path fill="#000000" d="m186.79091 112.12052l1.375 -0.125q0.15625 1.015625 0.71875 1.53125q0.5625 0.5 1.359375 0.5q0.953125 0 1.609375 -0.71875q0.65625 -0.71875 0.65625 -1.890625q0 -1.140625 -0.640625 -1.78125q-0.625 -0.65625 -1.65625 -0.65625q-0.640625 0 -1.15625 0.296875q-0.5 0.28125 -0.796875 0.734375l-1.234375 -0.15625l1.03125 -5.515625l5.34375 0l0 1.265625l-4.28125 0l-0.578125 2.875q0.96875 -0.671875 2.03125 -0.671875q1.40625 0 2.359375 0.984375q0.96875 0.96875 0.96875 2.5q0 1.453125 -0.84375 2.515625q-1.03125 1.3125 -2.8125 1.3125q-1.46875 0 -2.40625 -0.8125q-0.921875 -0.828125 -1.046875 -2.1875z" fill-rule="nonzero"></path><path fill="#000000" d="m246.1721 113.6674l0 1.265625l-7.09375 0q-0.015625 -0.46875 0.15625 -0.921875q0.265625 -0.71875 0.859375 -1.421875q0.609375 -0.703125 1.734375 -1.625q1.75 -1.4375 2.359375 -2.265625q0.625 -0.84375 0.625 -1.59375q0 -0.78125 -0.5625 -1.3125q-0.5625 -0.546875 -1.46875 -0.546875q-0.953125 0 -1.53125 0.578125q-0.5625 0.5625 -0.5625 1.578125l-1.359375 -0.140625q0.140625 -1.515625 1.046875 -2.3125q0.90625 -0.796875 2.4375 -0.796875q1.546875 0 2.4375 0.859375q0.90625 0.859375 0.90625 2.125q0 0.640625 -0.265625 1.265625q-0.25 0.625 -0.875 1.3125q-0.609375 0.6875 -2.03125 1.890625q-1.1875 0.984375 -1.53125 1.34375q-0.328125 0.359375 -0.546875 0.71875l5.265625 0z" fill-rule="nonzero"></path><path fill="#000000" d="m296.6783 114.93302l-1.328125 0l0 -8.40625q-0.46875 0.453125 -1.25 0.921875q-0.765625 0.453125 -1.375 0.671875l0 -1.28125q1.09375 -0.515625 1.921875 -1.25q0.828125 -0.734375 1.171875 -1.4375l0.859375 0l0 10.78125z" fill-rule="nonzero"></path><path fill="#000000" d="m186.86903 147.2007l0 -1.265625l6.953125 0l0 1.015625q-1.015625 1.09375 -2.03125 2.90625q-1.0 1.8125 -1.546875 3.71875q-0.40625 1.34375 -0.515625 2.953125l-1.34375 0q0.015625 -1.265625 0.484375 -3.0625q0.484375 -1.796875 1.375 -3.453125q0.890625 -1.671875 1.890625 -2.8125l-5.265625 0z" fill-rule="nonzero"></path><path fill="#000000" d="m239.25023 153.71632l1.375 -0.125q0.15625 1.015625 0.71875 1.53125q0.5625 0.5 1.359375 0.5q0.953125 0 1.609375 -0.71875q0.65625 -0.71875 0.65625 -1.890625q0 -1.140625 -0.640625 -1.78125q-0.625 -0.65625 -1.65625 -0.65625q-0.640625 0 -1.15625 0.296875q-0.5 0.28125 -0.796875 0.734375l-1.234375 -0.15625l1.03125 -5.515625l5.34375 0l0 1.265625l-4.28125 0l-0.578125 2.875q0.96875 -0.671875 2.03125 -0.671875q1.40625 0 2.359375 0.984375q0.96875 0.96875 0.96875 2.5q0 1.453125 -0.84375 2.515625q-1.03125 1.3125 -2.8125 1.3125q-1.46875 0 -2.40625 -0.8125q-0.921875 -0.828125 -1.046875 -2.1875z" fill-rule="nonzero"></path><path fill="#000000" d="m291.70956 153.7007l1.328125 -0.1875q0.21875 1.125 0.765625 1.625q0.546875 0.484375 1.328125 0.484375q0.9375 0 1.578125 -0.640625q0.640625 -0.640625 0.640625 -1.59375q0 -0.90625 -0.59375 -1.5q-0.59375 -0.59375 -1.515625 -0.59375q-0.375 0 -0.921875 0.15625l0.140625 -1.15625q0.140625 0.015625 0.21875 0.015625q0.84375 0 1.515625 -0.4375q0.671875 -0.453125 0.671875 -1.359375q0 -0.734375 -0.5 -1.203125q-0.484375 -0.484375 -1.265625 -0.484375q-0.765625 0 -1.28125 0.484375q-0.5 0.484375 -0.65625 1.453125l-1.3125 -0.234375q0.234375 -1.328125 1.09375 -2.046875q0.859375 -0.734375 2.125 -0.734375q0.890625 0 1.625 0.375q0.734375 0.375 1.125 1.03125q0.40625 0.65625 0.40625 1.390625q0 0.6875 -0.375 1.265625q-0.375 0.5625 -1.109375 0.90625q0.953125 0.21875 1.46875 0.90625q0.53125 0.6875 0.53125 1.734375q0 1.40625 -1.03125 2.390625q-1.015625 0.96875 -2.578125 0.96875q-1.421875 0 -2.359375 -0.84375q-0.921875 -0.84375 -1.0625 -2.171875z" fill-rule="nonzero"></path><path fill="#000000" d="m186.79091 192.82774q0 -1.90625 0.390625 -3.0625q0.390625 -1.15625 1.15625 -1.78125q0.78125 -0.640625 1.953125 -0.640625q0.859375 0 1.515625 0.359375q0.65625 0.34375 1.078125 1.0q0.421875 0.640625 0.65625 1.59375q0.25 0.9375 0.25 2.53125q0 1.890625 -0.390625 3.0625q-0.390625 1.15625 -1.171875 1.796875q-0.765625 0.625 -1.9375 0.625q-1.546875 0 -2.4375 -1.125q-1.0625 -1.328125 -1.0625 -4.359375zm1.359375 0q0 2.640625 0.609375 3.515625q0.625 0.875 1.53125 0.875q0.90625 0 1.515625 -0.875q0.625 -0.875 0.625 -3.515625q0 -2.65625 -0.625 -3.515625q-0.609375 -0.875 -1.53125 -0.875q-0.90625 0 -1.453125 0.765625q-0.671875 0.984375 -0.671875 3.625z" fill-rule="nonzero"></path><path fill="#000000" d="m244.21898 198.12462l-1.328125 0l0 -8.40625q-0.46875 0.453125 -1.25 0.921875q-0.765625 0.453125 -1.375 0.671875l0 -1.28125q1.09375 -0.515625 1.921875 -1.25q0.828125 -0.734375 1.171875 -1.4375l0.859375 0l0 10.78125z" fill-rule="nonzero"></path><path fill="#000000" d="m292.60275 198.12462l-1.328125 0l0 -8.40625q-0.46875 0.453125 -1.25 0.921875q-0.765625 0.453125 -1.375 0.671875l0 -1.28125q1.09375 -0.515625 1.921875 -1.25q0.828125 -0.734375 1.171875 -1.4375l0.859375 0l0 10.78125zm8.151093 0l-1.328125 0l0 -8.40625q-0.46875 0.453125 -1.25 0.921875q-0.765625 0.453125 -1.375 0.671875l0 -1.28125q1.09375 -0.515625 1.921875 -1.25q0.828125 -0.734375 1.171875 -1.4375l0.859375 0l0 10.78125z" fill-rule="nonzero"></path><path fill="#000000" fill-opacity="0.0" d="m59.09449 215.56955l0 -122.64567l51.338577 0l0 122.64567z" fill-rule="evenodd"></path><path fill="#000000" d="m89.84378 168.14616l-10.734375 0l0 -4.765625q0 -1.4375 0.296875 -2.1875q0.28125 -0.75 1.015625 -1.1875q0.734375 -0.453125 1.609375 -0.453125q1.140625 0 1.9375 0.75q0.78125 0.734375 0.984375 2.28125q0.28125 -0.5625 0.546875 -0.859375q0.5625 -0.625 1.421875 -1.1875l2.921875 -1.859375l0 1.78125l-2.234375 1.421875q-0.96875 0.625 -1.46875 1.03125q-0.515625 0.40625 -0.71875 0.71875q-0.21875 0.3125 -0.296875 0.640625q-0.046875 0.25 -0.046875 0.796875l0 1.65625l4.765625 0l0 1.421875zm-6.0 -1.421875l0 -3.0625q0 -0.96875 -0.203125 -1.515625q-0.203125 -0.5625 -0.640625 -0.84375q-0.4375 -0.28125 -0.96875 -0.28125q-0.75 0 -1.234375 0.5625q-0.5 0.546875 -0.5 1.734375l0 3.40625l3.546875 0zm3.5 -14.303024l0.15625 -1.359375q1.203125 0.3125 1.859375 1.1875q0.65625 0.875 0.65625 2.234375q0 1.703125 -1.046875 2.703125q-1.046875 1.0 -2.953125 1.0q-1.953125 0 -3.03125 -1.015625q-1.09375 -1.015625 -1.09375 -2.625q0 -1.5625 1.0625 -2.546875q1.0625 -0.984375 2.984375 -0.984375q0.125 0 0.359375 0l0 5.8125q1.28125 -0.078125 1.96875 -0.71875q0.671875 -0.65625 0.671875 -1.640625q0 -0.71875 -0.375 -1.234375q-0.390625 -0.515625 -1.21875 -0.8125zm-2.140625 4.328125l0 -4.34375q-0.984375 0.09375 -1.46875 0.5q-0.765625 0.625 -0.765625 1.625q0 0.921875 0.609375 1.546875q0.609375 0.609375 1.625 0.671875zm3.6875 -12.229233q0.609375 0.734375 0.875 1.40625q0.25 0.671875 0.25 1.453125q0 1.28125 -0.625 1.96875q-0.625 0.6875 -1.59375 0.6875q-0.578125 0 -1.046875 -0.25q-0.46875 -0.265625 -0.75 -0.6875q-0.296875 -0.421875 -0.4375 -0.953125q-0.109375 -0.375 -0.203125 -1.171875q-0.1875 -1.59375 -0.453125 -2.34375q-0.265625 -0.015625 -0.34375 -0.015625q-0.8125 0 -1.140625 0.375q-0.4375 0.515625 -0.4375 1.5q0 0.9375 0.328125 1.390625q0.3125 0.4375 1.140625 0.640625l-0.171875 1.296875q-0.828125 -0.171875 -1.328125 -0.578125q-0.515625 -0.40625 -0.78125 -1.171875q-0.28125 -0.765625 -0.28125 -1.765625q0 -1.0 0.234375 -1.609375q0.234375 -0.625 0.59375 -0.921875q0.34375 -0.296875 0.890625 -0.40625q0.34375 -0.0625 1.21875 -0.0625l1.75 0q1.84375 0 2.328125 -0.078125q0.484375 -0.09375 0.9375 -0.34375l0 1.375q-0.40625 0.203125 -0.953125 0.265625zm-2.953125 0.109375q0.296875 0.71875 0.5 2.15625q0.125 0.8125 0.265625 1.15625q0.140625 0.328125 0.421875 0.515625q0.28125 0.171875 0.625 0.171875q0.53125 0 0.890625 -0.390625q0.34375 -0.40625 0.34375 -1.171875q0 -0.765625 -0.328125 -1.359375q-0.34375 -0.59375 -0.921875 -0.875q-0.4375 -0.203125 -1.3125 -0.203125l-0.484375 0zm3.90625 -3.1511078l-10.734375 0l0 -1.328125l10.734375 0l0 1.328125z" fill-rule="nonzero"></path></g></svg>

