<?xml version="1.0" standalone="yes"?>

<svg version="1.1" viewBox="0.0 0.0 338.1102362204724 196.4698162729659" fill="none" stroke="none" stroke-linecap="square" stroke-miterlimit="10" xmlns="http://www.w3.org/2000/svg" xmlns:xlink="http://www.w3.org/1999/xlink"><clipPath id="p.0"><path d="m0 0l338.11023 0l0 196.46982l-338.11023 0l0 -196.46982z" clip-rule="nonzero"></path></clipPath><g clip-path="url(#p.0)"><path fill="#000000" fill-opacity="0.0" d="m0 0l338.11023 0l0 196.46982l-338.11023 0z" fill-rule="evenodd"></path><path shape-rendering="crispEdges" fill="#d9d2e9" d="m10.875328 18.33071l51.737534 0l0 41.196846l-51.737534 0l0 -41.196846z" fill-rule="nonzero"></path><path stroke="#9e9e9e" stroke-width="1.0" stroke-linecap="butt" d="m10.875328 17.832022l0 165.78477" fill-rule="nonzero"></path><path stroke="#9e9e9e" stroke-width="1.0" stroke-linecap="butt" d="m62.61286 17.832022l0 165.78477" fill-rule="nonzero"></path><path stroke="#9e9e9e" stroke-width="1.0" stroke-linecap="butt" d="m10.37664 18.33071l52.73491 0" fill-rule="nonzero"></path><path stroke="#9e9e9e" stroke-width="1.0" stroke-linecap="butt" d="m10.37664 59.527557l52.73491 0" fill-rule="nonzero"></path><path stroke="#9e9e9e" stroke-width="1.0" stroke-linecap="butt" d="m10.37664 100.72441l52.73491 0" fill-rule="nonzero"></path><path stroke="#9e9e9e" stroke-width="1.0" stroke-linecap="butt" d="m10.37664 141.92126l52.73491 0" fill-rule="nonzero"></path><path stroke="#9e9e9e" stroke-width="1.0" stroke-linecap="butt" d="m10.37664 183.1181l52.73491 0" fill-rule="nonzero"></path><path fill="#000000" d="m35.650703 36.86008q0.3125 0.53125 0.421875 1.0q0.125 0.46875 0.25 1.84375l0.40625 4.5625q0.5625 -0.671875 1.609375 -2.109375q0.515625 -0.703125 1.265625 -1.921875q0.453125 -0.75 0.5625 -1.046875q0.046875 -0.140625 0.046875 -0.296875q0 -0.109375 -0.0625 -0.171875q-0.0625 -0.0625 -0.34375 -0.140625q-0.265625 -0.09375 -0.453125 -0.328125q-0.171875 -0.25 -0.171875 -0.546875q0 -0.390625 0.21875 -0.609375q0.21875 -0.234375 0.5625 -0.234375q0.40625 0 0.6875 0.34375q0.296875 0.328125 0.296875 0.921875q0 0.734375 -0.515625 1.671875q-0.5 0.9375 -1.921875 2.890625q-1.421875 1.953125 -3.453125 4.25q-1.40625 1.59375 -2.09375 2.0q-0.671875 0.40625 -1.15625 0.40625q-0.28125 0 -0.5 -0.21875q-0.21875 -0.203125 -0.21875 -0.5q0 -0.359375 0.3125 -0.65625q0.296875 -0.296875 0.640625 -0.296875q0.1875 0 0.3125 0.078125q0.0625 0.046875 0.15625 0.265625q0.09375 0.21875 0.171875 0.296875q0.046875 0.046875 0.109375 0.046875q0.046875 0 0.1875 -0.09375q0.515625 -0.3125 1.1875 -1.0q0.890625 -0.90625 1.3125 -1.484375l-0.515625 -5.890625q-0.125 -1.453125 -0.390625 -1.765625q-0.25 -0.3125 -0.875 -0.3125q-0.1875 0 -0.6875 0.046875l-0.078125 -0.34375l2.71875 -0.65625z" fill-rule="nonzero"></path><path fill="#000000" d="m38.63436 86.447556l-1.671875 0l0 -10.640625q-0.59375 0.578125 -1.578125 1.15625q-0.984375 0.5625 -1.765625 0.859375l0 -1.625q1.40625 -0.65625 2.453125 -1.59375q1.046875 -0.9375 1.484375 -1.8125l1.078125 0l0 13.65625z" fill-rule="nonzero"></path><path fill="#000000" d="m32.337486 120.941284q0 -2.421875 0.5 -3.890625q0.5 -1.46875 1.46875 -2.265625q0.984375 -0.796875 2.46875 -0.796875q1.09375 0 1.921875 0.4375q0.828125 0.4375 1.359375 1.28125q0.546875 0.828125 0.84375 2.015625q0.3125 1.1875 0.3125 3.21875q0 2.390625 -0.5 3.859375q-0.484375 1.46875 -1.46875 2.28125q-0.96875 0.796875 -2.46875 0.796875q-1.96875 0 -3.078125 -1.40625q-1.359375 -1.703125 -1.359375 -5.53125zm1.71875 0q0 3.34375 0.78125 4.453125q0.796875 1.109375 1.9375 1.109375q1.15625 0 1.9375 -1.109375q0.78125 -1.125 0.78125 -4.453125q0 -3.359375 -0.78125 -4.46875q-0.78125 -1.109375 -1.953125 -1.109375q-1.15625 0 -1.828125 0.984375q-0.875 1.234375 -0.875 4.59375z" fill-rule="nonzero"></path><path fill="#000000" d="m38.63436 168.84126l-1.671875 0l0 -10.640625q-0.59375 0.578125 -1.578125 1.15625q-0.984375 0.5625 -1.765625 0.859375l0 -1.625q1.40625 -0.65625 2.453125 -1.59375q1.046875 -0.9375 1.484375 -1.8125l1.078125 0l0 13.65625z" fill-rule="nonzero"></path><path shape-rendering="crispEdges" fill="#ead1dc" d="m208.7231 18.33071l51.737534 0l0 41.196846l-51.737534 0l0 -41.196846z" fill-rule="nonzero"></path><path stroke="#9e9e9e" stroke-width="1.0" stroke-linecap="butt" d="m208.7231 17.832022l0 165.78477" fill-rule="nonzero"></path><path stroke="#9e9e9e" stroke-width="1.0" stroke-linecap="butt" d="m260.46063 17.832022l0 165.78477" fill-rule="nonzero"></path><path stroke="#9e9e9e" stroke-width="1.0" stroke-linecap="butt" d="m208.22441 18.33071l52.73491 0" fill-rule="nonzero"></path><path stroke="#9e9e9e" stroke-width="1.0" stroke-linecap="butt" d="m208.22441 59.527557l52.73491 0" fill-rule="nonzero"></path><path stroke="#9e9e9e" stroke-width="1.0" stroke-linecap="butt" d="m208.22441 100.72441l52.73491 0" fill-rule="nonzero"></path><path stroke="#9e9e9e" stroke-width="1.0" stroke-linecap="butt" d="m208.22441 141.92126l52.73491 0" fill-rule="nonzero"></path><path stroke="#9e9e9e" stroke-width="1.0" stroke-linecap="butt" d="m208.22441 183.1181l52.73491 0" fill-rule="nonzero"></path><path fill="#000000" d="m233.47223 36.65758q0.296875 0.515625 0.40625 0.953125q0.125 0.4375 0.234375 1.75l0.390625 4.3125q0.53125 -0.625 1.53125 -2.0q0.484375 -0.671875 1.1875 -1.8125q0.4375 -0.703125 0.53125 -0.984375q0.0625 -0.140625 0.0625 -0.296875q0 -0.09375 -0.0625 -0.15625q-0.0625 -0.0625 -0.328125 -0.140625q-0.265625 -0.09375 -0.4375 -0.3125q-0.15625 -0.21875 -0.15625 -0.515625q0 -0.359375 0.203125 -0.578125q0.21875 -0.21875 0.53125 -0.21875q0.390625 0 0.65625 0.328125q0.265625 0.3125 0.265625 0.875q0 0.6875 -0.46875 1.59375q-0.46875 0.890625 -1.828125 2.734375q-1.359375 1.84375 -3.28125 4.015625q-1.328125 1.515625 -1.96875 1.90625q-0.640625 0.390625 -1.09375 0.390625q-0.28125 0 -0.484375 -0.21875q-0.203125 -0.203125 -0.203125 -0.46875q0 -0.34375 0.296875 -0.625q0.28125 -0.28125 0.609375 -0.28125q0.171875 0 0.28125 0.078125q0.078125 0.046875 0.171875 0.25q0.078125 0.203125 0.140625 0.28125q0.046875 0.03125 0.109375 0.03125q0.046875 0 0.1875 -0.078125q0.484375 -0.296875 1.125 -0.953125q0.84375 -0.859375 1.25 -1.40625l-0.5 -5.578125q-0.125 -1.375 -0.375 -1.671875q-0.234375 -0.296875 -0.8125 -0.296875q-0.1875 0 -0.671875 0.046875l-0.078125 -0.328125l2.578125 -0.625zm4.375 -4.234375l0.65625 2.78125l-0.171875 0l-1.484375 -1.78125l-2.8125 1.78125l-0.234375 0l2.734375 -2.78125l1.3125 0z" fill-rule="nonzero"></path><path fill="#000000" d="m236.48213 86.447556l-1.671875 0l0 -10.640625q-0.59375 0.578125 -1.578125 1.15625q-0.984375 0.5625 -1.765625 0.859375l0 -1.625q1.40625 -0.65625 2.453125 -1.59375q1.046875 -0.9375 1.484375 -1.8125l1.078125 0l0 13.65625z" fill-rule="nonzero"></path><path fill="#000000" d="m230.18526 120.941284q0 -2.421875 0.5 -3.890625q0.5 -1.46875 1.46875 -2.265625q0.984375 -0.796875 2.46875 -0.796875q1.09375 0 1.921875 0.4375q0.828125 0.4375 1.359375 1.28125q0.546875 0.828125 0.84375 2.015625q0.3125 1.1875 0.3125 3.21875q0 2.390625 -0.5 3.859375q-0.484375 1.46875 -1.46875 2.28125q-0.96875 0.796875 -2.46875 0.796875q-1.96875 0 -3.078125 -1.40625q-1.359375 -1.703125 -1.359375 -5.53125zm1.71875 0q0 3.34375 0.78125 4.453125q0.796875 1.109375 1.9375 1.109375q1.15625 0 1.9375 -1.109375q0.78125 -1.125 0.78125 -4.453125q0 -3.359375 -0.78125 -4.46875q-0.78125 -1.109375 -1.953125 -1.109375q-1.15625 0 -1.828125 0.984375q-0.875 1.234375 -0.875 4.59375z" fill-rule="nonzero"></path><path fill="#000000" d="m236.48213 168.84126l-1.671875 0l0 -10.640625q-0.59375 0.578125 -1.578125 1.15625q-0.984375 0.5625 -1.765625 0.859375l0 -1.625q1.40625 -0.65625 2.453125 -1.59375q1.046875 -0.9375 1.484375 -1.8125l1.078125 0l0 13.65625z" fill-rule="nonzero"></path><path shape-rendering="crispEdges" fill="#ead1dc" d="m272.72308 18.33071l51.73755 0l0 41.196846l-51.73755 0l0 -41.196846z" fill-rule="nonzero"></path><path stroke="#9e9e9e" stroke-width="1.0" stroke-linecap="butt" d="m272.72308 17.832022l0 165.78477" fill-rule="nonzero"></path><path stroke="#9e9e9e" stroke-width="1.0" stroke-linecap="butt" d="m324.46063 17.832022l0 165.78477" fill-rule="nonzero"></path><path stroke="#9e9e9e" stroke-width="1.0" stroke-linecap="butt" d="m272.2244 18.33071l52.734924 0" fill-rule="nonzero"></path><path stroke="#9e9e9e" stroke-width="1.0" stroke-linecap="butt" d="m272.2244 59.527557l52.734924 0" fill-rule="nonzero"></path><path stroke="#9e9e9e" stroke-width="1.0" stroke-linecap="butt" d="m272.2244 100.72441l52.734924 0" fill-rule="nonzero"></path><path stroke="#9e9e9e" stroke-width="1.0" stroke-linecap="butt" d="m272.2244 141.92126l52.734924 0" fill-rule="nonzero"></path><path stroke="#9e9e9e" stroke-width="1.0" stroke-linecap="butt" d="m272.2244 183.1181l52.734924 0" fill-rule="nonzero"></path><path fill="#000000" d="m297.47223 36.65758q0.296875 0.515625 0.40625 0.953125q0.125 0.4375 0.234375 1.75l0.390625 4.3125q0.53125 -0.625 1.53125 -2.0q0.484375 -0.671875 1.1875 -1.8125q0.4375 -0.703125 0.53125 -0.984375q0.0625 -0.140625 0.0625 -0.296875q0 -0.09375 -0.0625 -0.15625q-0.0625 -0.0625 -0.328125 -0.140625q-0.265625 -0.09375 -0.4375 -0.3125q-0.15625 -0.21875 -0.15625 -0.515625q0 -0.359375 0.203125 -0.578125q0.21875 -0.21875 0.53125 -0.21875q0.390625 0 0.65625 0.328125q0.265625 0.3125 0.265625 0.875q0 0.6875 -0.46875 1.59375q-0.46875 0.890625 -1.828125 2.734375q-1.359375 1.84375 -3.28125 4.015625q-1.328125 1.515625 -1.96875 1.90625q-0.640625 0.390625 -1.09375 0.390625q-0.28125 0 -0.484375 -0.21875q-0.203125 -0.203125 -0.203125 -0.46875q0 -0.34375 0.296875 -0.625q0.28125 -0.28125 0.609375 -0.28125q0.171875 0 0.28125 0.078125q0.078125 0.046875 0.171875 0.25q0.078125 0.203125 0.140625 0.28125q0.046875 0.03125 0.109375 0.03125q0.046875 0 0.1875 -0.078125q0.484375 -0.296875 1.125 -0.953125q0.84375 -0.859375 1.25 -1.40625l-0.5 -5.578125q-0.125 -1.375 -0.375 -1.671875q-0.234375 -0.296875 -0.8125 -0.296875q-0.1875 0 -0.671875 0.046875l-0.078125 -0.328125l2.578125 -0.625zm4.375 -4.234375l0.65625 2.78125l-0.171875 0l-1.484375 -1.78125l-2.8125 1.78125l-0.234375 0l2.734375 -2.78125l1.3125 0z" fill-rule="nonzero"></path><path fill="#000000" d="m286.40573 79.74443q0 -2.421875 0.5 -3.890625q0.5 -1.46875 1.46875 -2.265625q0.984375 -0.796875 2.46875 -0.796875q1.09375 0 1.921875 0.4375q0.828125 0.4375 1.359375 1.28125q0.546875 0.828125 0.84375 2.015625q0.3125 1.1875 0.3125 3.21875q0 2.390625 -0.5 3.859375q-0.484375 1.46875 -1.46875 2.28125q-0.96875 0.796875 -2.46875 0.796875q-1.96875 0 -3.078125 -1.40625q-1.359375 -1.703125 -1.359375 -5.53125zm1.71875 0q0 3.34375 0.78125 4.453125q0.796875 1.109375 1.9375 1.109375q1.15625 0 1.9375 -1.109375q0.78125 -1.125 0.78125 -4.453125q0 -3.359375 -0.78125 -4.46875q-0.78125 -1.109375 -1.953125 -1.109375q-1.15625 0 -1.828125 0.984375q-0.875 1.234375 -0.875 4.59375zm9.594482 6.703125l0 -1.90625l1.90625 0l0 1.90625l-1.90625 0zm4.5114136 -3.140625l1.59375 -0.15625q0.203125 1.140625 0.78125 1.65625q0.578125 0.5 1.484375 0.5q0.765625 0 1.34375 -0.34375q0.578125 -0.359375 0.953125 -0.953125q0.375 -0.59375 0.625 -1.59375q0.25 -1.0 0.25 -2.03125q0 -0.109375 -0.015625 -0.34375q-0.5 0.796875 -1.375 1.296875q-0.859375 0.5 -1.875 0.5q-1.6875 0 -2.859375 -1.21875q-1.171875 -1.234375 -1.171875 -3.234375q0 -2.078125 1.21875 -3.328125q1.234375 -1.265625 3.0625 -1.265625q1.328125 0 2.421875 0.71875q1.109375 0.703125 1.671875 2.03125q0.578125 1.328125 0.578125 3.828125q0 2.609375 -0.578125 4.15625q-0.5625 1.546875 -1.6875 2.359375q-1.109375 0.796875 -2.609375 0.796875q-1.59375 0 -2.609375 -0.890625q-1.0 -0.890625 -1.203125 -2.484375zm6.828125 -6.0q0 -1.4375 -0.765625 -2.28125q-0.765625 -0.859375 -1.84375 -0.859375q-1.109375 0 -1.9375 0.921875q-0.828125 0.90625 -0.828125 2.34375q0 1.3125 0.78125 2.125q0.796875 0.796875 1.9375 0.796875q1.171875 0 1.90625 -0.796875q0.75 -0.8125 0.75 -2.25z" fill-rule="nonzero"></path><path fill="#000000" d="m286.40573 120.941284q0 -2.421875 0.5 -3.890625q0.5 -1.46875 1.46875 -2.265625q0.984375 -0.796875 2.46875 -0.796875q1.09375 0 1.921875 0.4375q0.828125 0.4375 1.359375 1.28125q0.546875 0.828125 0.84375 2.015625q0.3125 1.1875 0.3125 3.21875q0 2.390625 -0.5 3.859375q-0.484375 1.46875 -1.46875 2.28125q-0.96875 0.796875 -2.46875 0.796875q-1.96875 0 -3.078125 -1.40625q-1.359375 -1.703125 -1.359375 -5.53125zm1.71875 0q0 3.34375 0.78125 4.453125q0.796875 1.109375 1.9375 1.109375q1.15625 0 1.9375 -1.109375q0.78125 -1.125 0.78125 -4.453125q0 -3.359375 -0.78125 -4.46875q-0.78125 -1.109375 -1.953125 -1.109375q-1.15625 0 -1.828125 0.984375q-0.875 1.234375 -0.875 4.59375zm9.594482 6.703125l0 -1.90625l1.90625 0l0 1.90625l-1.90625 0zm13.027039 -1.609375l0 1.609375l-8.984375 0q-0.015625 -0.609375 0.1875 -1.15625q0.34375 -0.921875 1.09375 -1.8125q0.765625 -0.890625 2.1875 -2.0625q2.21875 -1.8125 3.0 -2.875q0.78125 -1.0625 0.78125 -2.015625q0 -0.984375 -0.71875 -1.671875q-0.703125 -0.6875 -1.84375 -0.6875q-1.203125 0 -1.9375 0.734375q-0.71875 0.71875 -0.71875 2.0l-1.71875 -0.171875q0.171875 -1.921875 1.328125 -2.921875q1.15625 -1.015625 3.09375 -1.015625q1.953125 0 3.09375 1.09375q1.140625 1.078125 1.140625 2.6875q0 0.8125 -0.34375 1.609375q-0.328125 0.78125 -1.109375 1.65625q-0.765625 0.859375 -2.5625 2.390625q-1.5 1.265625 -1.9375 1.71875q-0.421875 0.4375 -0.703125 0.890625l6.671875 0z" fill-rule="nonzero"></path><path fill="#000000" d="m286.40573 162.13814q0 -2.421875 0.5 -3.890625q0.5 -1.46875 1.46875 -2.265625q0.984375 -0.796875 2.46875 -0.796875q1.09375 0 1.921875 0.4375q0.828125 0.4375 1.359375 1.28125q0.546875 0.828125 0.84375 2.015625q0.3125 1.1875 0.3125 3.21875q0 2.390625 -0.5 3.859375q-0.484375 1.46875 -1.46875 2.28125q-0.96875 0.796875 -2.46875 0.796875q-1.96875 0 -3.078125 -1.40625q-1.359375 -1.703125 -1.359375 -5.53125zm1.71875 0q0 3.34375 0.78125 4.453125q0.796875 1.109375 1.9375 1.109375q1.15625 0 1.9375 -1.109375q0.78125 -1.125 0.78125 -4.453125q0 -3.359375 -0.78125 -4.46875q-0.78125 -1.109375 -1.953125 -1.109375q-1.15625 0 -1.828125 0.984375q-0.875 1.234375 -0.875 4.59375zm9.594482 6.703125l0 -1.90625l1.90625 0l0 1.90625l-1.90625 0zm12.917664 -10.265625l-1.65625 0.125q-0.21875 -0.984375 -0.640625 -1.421875q-0.671875 -0.71875 -1.65625 -0.71875q-0.8125 0 -1.40625 0.4375q-0.796875 0.578125 -1.25 1.6875q-0.453125 1.09375 -0.46875 3.140625q0.609375 -0.921875 1.46875 -1.359375q0.875 -0.453125 1.828125 -0.453125q1.671875 0 2.84375 1.234375q1.171875 1.234375 1.171875 3.171875q0 1.28125 -0.546875 2.390625q-0.546875 1.09375 -1.515625 1.6875q-0.96875 0.578125 -2.1875 0.578125q-2.09375 0 -3.40625 -1.53125q-1.3125 -1.546875 -1.3125 -5.0625q0 -3.953125 1.453125 -5.734375q1.265625 -1.5625 3.421875 -1.5625q1.609375 0 2.625 0.90625q1.03125 0.890625 1.234375 2.484375zm-6.8125 5.859375q0 0.859375 0.359375 1.65625q0.375 0.78125 1.03125 1.203125q0.65625 0.40625 1.375 0.40625q1.0625 0 1.8125 -0.84375q0.765625 -0.859375 0.765625 -2.328125q0 -1.40625 -0.75 -2.21875q-0.75 -0.8125 -1.890625 -0.8125q-1.125 0 -1.921875 0.8125q-0.78125 0.8125 -0.78125 2.125z" fill-rule="nonzero"></path></g></svg>

