<?xml version="1.0" standalone="yes"?>

<svg version="1.1" viewBox="0.0 0.0 565.8346456692914 622.1417322834645" fill="none" stroke="none" stroke-linecap="square" stroke-miterlimit="10" xmlns="http://www.w3.org/2000/svg" xmlns:xlink="http://www.w3.org/1999/xlink"><clipPath id="p.0"><path d="m0 0l565.83466 0l0 622.1417l-565.83466 0l0 -622.1417z" clip-rule="nonzero"></path></clipPath><g clip-path="url(#p.0)"><path fill="#000000" fill-opacity="0.0" d="m0 0l565.83466 0l0 622.1417l-565.83466 0z" fill-rule="evenodd"></path><path fill="#cfe2f3" d="m53.254593 151.91864l0 0c0 -50.71453 41.112244 -91.82678 91.82677 -91.82678l0 0c24.353973 0 47.71048 9.67458 64.931335 26.895443c17.220856 17.220856 26.895447 40.577354 26.895447 64.931335l0 0c0 50.714523 -41.11226 91.82677 -91.82678 91.82677l0 0c-50.714523 0 -91.82677 -41.112244 -91.82677 -91.82677z" fill-rule="evenodd"></path><path stroke="#000000" stroke-width="1.0" stroke-linejoin="round" stroke-linecap="butt" d="m53.254593 151.91864l0 0c0 -50.71453 41.112244 -91.82678 91.82677 -91.82678l0 0c24.353973 0 47.71048 9.67458 64.931335 26.895443c17.220856 17.220856 26.895447 40.577354 26.895447 64.931335l0 0c0 50.714523 -41.11226 91.82677 -91.82678 91.82677l0 0c-50.714523 0 -91.82677 -41.112244 -91.82677 -91.82677z" fill-rule="evenodd"></path><path fill="#d9d2e9" d="m139.13387 387.13385l0 0c0 -104.30789 84.55824 -188.86613 188.86613 -188.86613l0 0c50.090424 0 98.12927 19.898346 133.54852 55.31761c35.41928 35.41928 55.317627 83.45813 55.317627 133.54852l0 0c0 104.30789 -84.55826 188.86615 -188.86615 188.86615l0 0c-104.30789 0 -188.86613 -84.55826 -188.86613 -188.86615z" fill-rule="evenodd"></path><path stroke="#000000" stroke-width="1.0" stroke-linejoin="round" stroke-linecap="butt" d="m139.13387 387.13385l0 0c0 -104.30789 84.55824 -188.86613 188.86613 -188.86613l0 0c50.090424 0 98.12927 19.898346 133.54852 55.31761c35.41928 35.41928 55.317627 83.45813 55.317627 133.54852l0 0c0 104.30789 -84.55826 188.86615 -188.86615 188.86615l0 0c-104.30789 0 -188.86613 -84.55826 -188.86613 -188.86615z" fill-rule="evenodd"></path><path fill="#000000" d="m239.74391 310.29385l0 -20.765625l7.828125 0q2.078125 0 3.15625 0.203125q1.53125 0.25 2.5625 0.96875q1.046875 0.71875 1.671875 2.015625q0.625 1.28125 0.625 2.828125q0 2.640625 -1.6875 4.484375q-1.671875 1.828125 -6.078125 1.828125l-5.328125 0l0 8.4375l-2.75 0zm2.75 -10.890625l5.359375 0q2.671875 0 3.78125 -0.984375q1.125 -1.0 1.125 -2.796875q0 -1.296875 -0.65625 -2.21875q-0.65625 -0.9375 -1.734375 -1.234375q-0.703125 -0.1875 -2.5625 -0.1875l-5.3125 0l0 7.421875zm26.78038 6.046875l2.640625 0.328125q-0.625 2.3125 -2.3125 3.59375q-1.6875 1.265625 -4.296875 1.265625q-3.3125 0 -5.25 -2.03125q-1.921875 -2.03125 -1.921875 -5.703125q0 -3.796875 1.953125 -5.890625q1.953125 -2.09375 5.0625 -2.09375q3.03125 0 4.9375 2.0625q1.90625 2.046875 1.90625 5.765625q0 0.21875 -0.015625 0.671875l-11.203125 0q0.140625 2.484375 1.390625 3.8125q1.265625 1.3125 3.140625 1.3125q1.40625 0 2.390625 -0.734375q1.0 -0.75 1.578125 -2.359375zm-8.359375 -4.125l8.390625 0q-0.171875 -1.890625 -0.96875 -2.84375q-1.21875 -1.46875 -3.15625 -1.46875q-1.75 0 -2.953125 1.171875q-1.1875 1.171875 -1.3125 3.140625zm14.357788 8.96875l0 -15.03125l2.28125 0l0 2.265625q0.890625 -1.59375 1.625 -2.09375q0.75 -0.515625 1.640625 -0.515625q1.28125 0 2.609375 0.8125l-0.875 2.375q-0.9375 -0.5625 -1.859375 -0.5625q-0.84375 0 -1.515625 0.515625q-0.65625 0.5 -0.9375 1.390625q-0.421875 1.359375 -0.421875 2.96875l0 7.875l-2.546875 0zm8.7664795 -4.484375l2.515625 -0.40625q0.21875 1.515625 1.1875 2.328125q0.96875 0.8125 2.71875 0.8125q1.75 0 2.59375 -0.71875q0.859375 -0.71875 0.859375 -1.6875q0 -0.859375 -0.75 -1.359375q-0.53125 -0.328125 -2.609375 -0.859375q-2.796875 -0.703125 -3.890625 -1.21875q-1.078125 -0.515625 -1.640625 -1.421875q-0.5625 -0.921875 -0.5625 -2.03125q0 -1.0 0.453125 -1.859375q0.46875 -0.859375 1.265625 -1.421875q0.59375 -0.4375 1.609375 -0.734375q1.03125 -0.3125 2.21875 -0.3125q1.765625 0 3.09375 0.515625q1.34375 0.5 1.984375 1.375q0.640625 0.875 0.875 2.328125l-2.484375 0.34375q-0.171875 -1.171875 -0.984375 -1.8125q-0.8125 -0.65625 -2.3125 -0.65625q-1.75 0 -2.5 0.578125q-0.75 0.578125 -0.75 1.359375q0 0.5 0.3125 0.890625q0.3125 0.40625 0.96875 0.6875q0.390625 0.140625 2.265625 0.640625q2.703125 0.734375 3.765625 1.1875q1.0625 0.453125 1.671875 1.34375q0.609375 0.875 0.609375 2.171875q0 1.28125 -0.75 2.40625q-0.734375 1.125 -2.140625 1.75q-1.390625 0.609375 -3.15625 0.609375q-2.9375 0 -4.484375 -1.21875q-1.53125 -1.21875 -1.953125 -3.609375zm14.7421875 -3.03125q0 -4.1875 2.3125 -6.1875q1.9375 -1.671875 4.734375 -1.671875q3.09375 0 5.0625 2.03125q1.96875 2.03125 1.96875 5.609375q0 2.90625 -0.875 4.578125q-0.859375 1.65625 -2.53125 2.578125q-1.65625 0.921875 -3.625 0.921875q-3.15625 0 -5.109375 -2.015625q-1.9375 -2.03125 -1.9375 -5.84375zm2.609375 0q0 2.890625 1.265625 4.328125q1.265625 1.4375 3.171875 1.4375q1.890625 0 3.15625 -1.4375q1.265625 -1.453125 1.265625 -4.421875q0 -2.78125 -1.28125 -4.21875q-1.265625 -1.4375 -3.140625 -1.4375q-1.90625 0 -3.171875 1.4375q-1.265625 1.421875 -1.265625 4.3125zm14.639038 7.515625l0 -15.03125l2.296875 0l0 2.125q1.65625 -2.46875 4.78125 -2.46875q1.359375 0 2.5 0.484375q1.140625 0.484375 1.703125 1.28125q0.578125 0.796875 0.796875 1.890625q0.140625 0.703125 0.140625 2.46875l0 9.25l-2.546875 0l0 -9.140625q0 -1.5625 -0.296875 -2.328125q-0.296875 -0.78125 -1.0625 -1.234375q-0.75 -0.46875 -1.765625 -0.46875q-1.625 0 -2.8125 1.03125q-1.1875 1.03125 -1.1875 3.921875l0 8.21875l-2.546875 0zm26.123413 -1.859375q-1.40625 1.203125 -2.71875 1.703125q-1.3125 0.5 -2.8125 0.5q-2.484375 0 -3.8125 -1.203125q-1.328125 -1.21875 -1.328125 -3.109375q0 -1.09375 0.5 -2.0q0.5 -0.921875 1.3125 -1.46875q0.828125 -0.5625 1.84375 -0.84375q0.75 -0.203125 2.265625 -0.390625q3.078125 -0.359375 4.546875 -0.875q0.015625 -0.515625 0.015625 -0.65625q0 -1.5625 -0.734375 -2.203125q-0.96875 -0.859375 -2.890625 -0.859375q-1.796875 0 -2.65625 0.625q-0.859375 0.625 -1.265625 2.234375l-2.5 -0.34375q0.34375 -1.59375 1.125 -2.578125q0.78125 -0.984375 2.25 -1.515625q1.46875 -0.53125 3.40625 -0.53125q1.9375 0 3.140625 0.453125q1.203125 0.453125 1.765625 1.140625q0.5625 0.6875 0.796875 1.734375q0.125 0.640625 0.125 2.34375l0 3.40625q0 3.546875 0.15625 4.5q0.171875 0.9375 0.640625 1.796875l-2.65625 0q-0.390625 -0.796875 -0.515625 -1.859375zm-0.203125 -5.6875q-1.390625 0.5625 -4.171875 0.96875q-1.5625 0.21875 -2.21875 0.5q-0.65625 0.28125 -1.015625 0.828125q-0.34375 0.546875 -0.34375 1.21875q0 1.015625 0.765625 1.703125q0.78125 0.671875 2.265625 0.671875q1.46875 0 2.609375 -0.640625q1.15625 -0.65625 1.703125 -1.765625q0.40625 -0.859375 0.40625 -2.546875l0 -0.9375zm5.685913 3.0625l2.515625 -0.40625q0.21875 1.515625 1.1875 2.328125q0.96875 0.8125 2.71875 0.8125q1.75 0 2.59375 -0.71875q0.859375 -0.71875 0.859375 -1.6875q0 -0.859375 -0.75 -1.359375q-0.53125 -0.328125 -2.609375 -0.859375q-2.796875 -0.703125 -3.890625 -1.21875q-1.078125 -0.515625 -1.640625 -1.421875q-0.5625 -0.921875 -0.5625 -2.03125q0 -1.0 0.453125 -1.859375q0.46875 -0.859375 1.265625 -1.421875q0.59375 -0.4375 1.609375 -0.734375q1.03125 -0.3125 2.21875 -0.3125q1.765625 0 3.09375 0.515625q1.34375 0.5 1.984375 1.375q0.640625 0.875 0.875 2.328125l-2.484375 0.34375q-0.171875 -1.171875 -0.984375 -1.8125q-0.8125 -0.65625 -2.3125 -0.65625q-1.75 0 -2.5 0.578125q-0.75 0.578125 -0.75 1.359375q0 0.5 0.3125 0.890625q0.3125 0.40625 0.96875 0.6875q0.390625 0.140625 2.265625 0.640625q2.703125 0.734375 3.765625 1.1875q1.0625 0.453125 1.671875 1.34375q0.609375 0.875 0.609375 2.171875q0 1.28125 -0.75 2.40625q-0.734375 1.125 -2.140625 1.75q-1.390625 0.609375 -3.15625 0.609375q-2.9375 0 -4.484375 -1.21875q-1.53125 -1.21875 -1.953125 -3.609375zm33.421753 10.25l0 -7.359375q-0.59375 0.828125 -1.671875 1.390625q-1.0625 0.546875 -2.265625 0.546875q-2.671875 0 -4.609375 -2.140625q-1.9375 -2.140625 -1.9375 -5.859375q0 -2.265625 0.78125 -4.0625q0.796875 -1.796875 2.28125 -2.71875q1.5 -0.9375 3.28125 -0.9375q2.796875 0 4.390625 2.34375l0 -2.0l2.296875 0l0 20.796875l-2.546875 0zm-7.859375 -13.328125q0 2.90625 1.21875 4.359375q1.21875 1.453125 2.921875 1.453125q1.625 0 2.796875 -1.375q1.171875 -1.390625 1.171875 -4.203125q0 -3.015625 -1.234375 -4.53125q-1.234375 -1.515625 -2.90625 -1.515625q-1.65625 0 -2.8125 1.421875q-1.15625 1.40625 -1.15625 4.390625zm24.435913 7.5625l0 -2.203125q-1.75 2.546875 -4.765625 2.546875q-1.328125 0 -2.484375 -0.515625q-1.15625 -0.515625 -1.71875 -1.28125q-0.5625 -0.765625 -0.78125 -1.890625q-0.15625 -0.75 -0.15625 -2.375l0 -9.3125l2.546875 0l0 8.328125q0 2.0 0.15625 2.703125q0.234375 1.0 1.015625 1.578125q0.78125 0.5625 1.921875 0.5625q1.15625 0 2.15625 -0.578125q1.0 -0.59375 1.421875 -1.609375q0.421875 -1.015625 0.421875 -2.9375l0 -8.046875l2.546875 0l0 15.03125l-2.28125 0zm16.748413 -4.84375l2.640625 0.328125q-0.625 2.3125 -2.3125 3.59375q-1.6875 1.265625 -4.296875 1.265625q-3.3125 0 -5.25 -2.03125q-1.921875 -2.03125 -1.921875 -5.703125q0 -3.796875 1.953125 -5.890625q1.953125 -2.09375 5.0625 -2.09375q3.03125 0 4.9375 2.0625q1.90625 2.046875 1.90625 5.765625q0 0.21875 -0.015625 0.671875l-11.203125 0q0.140625 2.484375 1.390625 3.8125q1.265625 1.3125 3.140625 1.3125q1.40625 0 2.390625 -0.734375q1.0 -0.75 1.578125 -2.359375zm-8.359375 -4.125l8.390625 0q-0.171875 -1.890625 -0.96875 -2.84375q-1.21875 -1.46875 -3.15625 -1.46875q-1.75 0 -2.953125 1.171875q-1.1875 1.171875 -1.3125 3.140625z" fill-rule="nonzero"></path><path fill="#000000" d="m209.14297 337.77823q0 -4.1875 2.3125 -6.1875q1.9375 -1.671875 4.734375 -1.671875q3.09375 0 5.0625 2.03125q1.96875 2.03125 1.96875 5.609375q0 2.90625 -0.875 4.578125q-0.859375 1.65625 -2.53125 2.578125q-1.65625 0.921875 -3.625 0.921875q-3.15625 0 -5.109375 -2.015625q-1.9375 -2.03125 -1.9375 -5.84375zm2.609375 0q0 2.890625 1.265625 4.328125q1.265625 1.4375 3.171875 1.4375q1.890625 0 3.15625 -1.4375q1.265625 -1.453125 1.265625 -4.421875q0 -2.78125 -1.28125 -4.21875q-1.265625 -1.4375 -3.140625 -1.4375q-1.90625 0 -3.171875 1.4375q-1.265625 1.421875 -1.265625 4.3125zm16.998413 7.515625l-2.375 0l0 -20.765625l2.5625 0l0 7.40625q1.609375 -2.015625 4.109375 -2.015625q1.390625 0 2.625 0.5625q1.25 0.546875 2.046875 1.5625q0.796875 1.015625 1.25 2.453125q0.453125 1.421875 0.453125 3.046875q0 3.875 -1.921875 5.984375q-1.90625 2.109375 -4.578125 2.109375q-2.65625 0 -4.171875 -2.234375l0 1.890625zm-0.03125 -7.625q0 2.703125 0.734375 3.90625q1.203125 1.96875 3.265625 1.96875q1.65625 0 2.875 -1.453125q1.21875 -1.453125 1.21875 -4.328125q0 -2.953125 -1.171875 -4.34375q-1.15625 -1.40625 -2.8125 -1.40625q-1.671875 0 -2.890625 1.453125q-1.21875 1.453125 -1.21875 4.203125zm19.560913 5.34375l0.359375 2.25q-1.078125 0.234375 -1.921875 0.234375q-1.390625 0 -2.15625 -0.4375q-0.765625 -0.453125 -1.078125 -1.15625q-0.3125 -0.71875 -0.3125 -3.015625l0 -8.65625l-1.859375 0l0 -1.96875l1.859375 0l0 -3.734375l2.53125 -1.53125l0 5.265625l2.578125 0l0 1.96875l-2.578125 0l0 8.796875q0 1.09375 0.140625 1.40625q0.140625 0.3125 0.4375 0.5q0.3125 0.171875 0.875 0.171875q0.421875 0 1.125 -0.09375zm12.429565 2.28125l0 -2.203125q-1.75 2.546875 -4.7656403 2.546875q-1.328125 0 -2.484375 -0.515625q-1.15625 -0.515625 -1.71875 -1.28125q-0.5625 -0.765625 -0.78125 -1.890625q-0.15625 -0.75 -0.15625 -2.375l0 -9.3125l2.546875 0l0 8.328125q0 2.0 0.15625 2.703125q0.234375 1.0 1.015625 1.578125q0.78125 0.5625 1.9218903 0.5625q1.15625 0 2.15625 -0.578125q1.0 -0.59375 1.421875 -1.609375q0.421875 -1.015625 0.421875 -2.9375l0 -8.046875l2.546875 0l0 15.03125l-2.28125 0zm10.639038 0l-5.71875 -15.03125l2.6875 0l3.21875 9.0q0.53125 1.453125 0.96875 3.03125q0.34375 -1.1875 0.953125 -2.859375l3.34375 -9.171875l2.609375 0l-5.6875 15.03125l-2.375 0zm10.4921875 -17.828125l0 -2.9375l2.546875 0l0 2.9375l-2.546875 0zm0 17.828125l0 -15.03125l2.546875 0l0 15.03125l-2.546875 0zm16.797028 -4.84375l2.640625 0.328125q-0.625 2.3125 -2.3125 3.59375q-1.6875 1.265625 -4.296875 1.265625q-3.3125 0 -5.25 -2.03125q-1.921875 -2.03125 -1.921875 -5.703125q0 -3.796875 1.953125 -5.890625q1.953125 -2.09375 5.0625 -2.09375q3.03125 0 4.9375 2.0625q1.90625 2.046875 1.90625 5.765625q0 0.21875 -0.015625 0.671875l-11.203125 0q0.140625 2.484375 1.390625 3.8125q1.265625 1.3125 3.140625 1.3125q1.40625 0 2.390625 -0.734375q1.0 -0.75 1.578125 -2.359375zm-8.359375 -4.125l8.390625 0q-0.171875 -1.890625 -0.96875 -2.84375q-1.21875 -1.46875 -3.15625 -1.46875q-1.75 0 -2.953125 1.171875q-1.1875 1.171875 -1.3125 3.140625zm14.357788 8.96875l0 -15.03125l2.28125 0l0 2.265625q0.890625 -1.59375 1.625 -2.09375q0.75 -0.515625 1.640625 -0.515625q1.28125 0 2.609375 0.8125l-0.875 2.375q-0.9375 -0.5625 -1.859375 -0.5625q-0.84375 0 -1.515625 0.515625q-0.65625 0.5 -0.9375 1.390625q-0.421875 1.359375 -0.421875 2.96875l0 7.875l-2.546875 0zm8.8446045 -7.515625q0 -4.1875 2.3125 -6.1875q1.9375 -1.671875 4.734375 -1.671875q3.09375 0 5.0625 2.03125q1.96875 2.03125 1.96875 5.609375q0 2.90625 -0.875 4.578125q-0.859375 1.65625 -2.53125 2.578125q-1.65625 0.921875 -3.625 0.921875q-3.15625 0 -5.109375 -2.015625q-1.9375 -2.03125 -1.9375 -5.84375zm2.609375 0q0 2.890625 1.265625 4.328125q1.265625 1.4375 3.171875 1.4375q1.890625 0 3.15625 -1.4375q1.265625 -1.453125 1.265625 -4.421875q0 -2.78125 -1.28125 -4.21875q-1.265625 -1.4375 -3.140625 -1.4375q-1.90625 0 -3.171875 1.4375q-1.265625 1.421875 -1.265625 4.3125zm14.639038 7.515625l0 -15.03125l2.296875 0l0 2.125q1.65625 -2.46875 4.78125 -2.46875q1.359375 0 2.5 0.484375q1.140625 0.484375 1.703125 1.28125q0.578125 0.796875 0.796875 1.890625q0.140625 0.703125 0.140625 2.46875l0 9.25l-2.546875 0l0 -9.140625q0 -1.5625 -0.296875 -2.328125q-0.296875 -0.78125 -1.0625 -1.234375q-0.75 -0.46875 -1.765625 -0.46875q-1.625 0 -2.8125 1.03125q-1.1875 1.03125 -1.1875 3.921875l0 8.21875l-2.546875 0zm28.646729 0l-5.71875 -15.03125l2.6875 0l3.21875 9.0q0.53125 1.453125 0.96875 3.03125q0.34375 -1.1875 0.953125 -2.859375l3.34375 -9.171875l2.609375 0l-5.6875 15.03125l-2.375 0zm20.289062 -1.859375q-1.40625 1.203125 -2.71875 1.703125q-1.3125 0.5 -2.8125 0.5q-2.484375 0 -3.8125 -1.203125q-1.328125 -1.21875 -1.328125 -3.109375q0 -1.09375 0.5 -2.0q0.5 -0.921875 1.3125 -1.46875q0.828125 -0.5625 1.84375 -0.84375q0.75 -0.203125 2.265625 -0.390625q3.078125 -0.359375 4.546875 -0.875q0.015625 -0.515625 0.015625 -0.65625q0 -1.5625 -0.734375 -2.203125q-0.96875 -0.859375 -2.890625 -0.859375q-1.796875 0 -2.65625 0.625q-0.859375 0.625 -1.265625 2.234375l-2.5 -0.34375q0.34375 -1.59375 1.125 -2.578125q0.78125 -0.984375 2.25 -1.515625q1.46875 -0.53125 3.40625 -0.53125q1.9375 0 3.140625 0.453125q1.203125 0.453125 1.765625 1.140625q0.5625 0.6875 0.796875 1.734375q0.125 0.640625 0.125 2.34375l0 3.40625q0 3.546875 0.15625 4.5q0.171875 0.9375 0.640625 1.796875l-2.65625 0q-0.390625 -0.796875 -0.515625 -1.859375zm-0.203125 -5.6875q-1.390625 0.5625 -4.171875 0.96875q-1.5625 0.21875 -2.21875 0.5q-0.65625 0.28125 -1.015625 0.828125q-0.34375 0.546875 -0.34375 1.21875q0 1.015625 0.765625 1.703125q0.78125 0.671875 2.265625 0.671875q1.46875 0 2.609375 -0.640625q1.15625 -0.65625 1.703125 -1.765625q0.40625 -0.859375 0.40625 -2.546875l0 -0.9375zm6.654663 7.546875l0 -20.765625l2.546875 0l0 20.765625l-2.546875 0zm5.6251526 -7.515625q0 -4.1875 2.3125 -6.1875q1.9375 -1.671875 4.734375 -1.671875q3.09375 0 5.0625 2.03125q1.96875 2.03125 1.96875 5.609375q0 2.90625 -0.875 4.578125q-0.859375 1.65625 -2.53125 2.578125q-1.65625 0.921875 -3.625 0.921875q-3.15625 0 -5.109375 -2.015625q-1.9375 -2.03125 -1.9375 -5.84375zm2.609375 0q0 2.890625 1.265625 4.328125q1.265625 1.4375 3.171875 1.4375q1.890625 0 3.15625 -1.4375q1.265625 -1.453125 1.265625 -4.421875q0 -2.78125 -1.28125 -4.21875q-1.265625 -1.4375 -3.140625 -1.4375q-1.90625 0 -3.171875 1.4375q-1.265625 1.421875 -1.265625 4.3125zm14.623413 7.515625l0 -15.03125l2.28125 0l0 2.265625q0.890625 -1.59375 1.625 -2.09375q0.75 -0.515625 1.640625 -0.515625q1.28125 0 2.609375 0.8125l-0.875 2.375q-0.9375 -0.5625 -1.859375 -0.5625q-0.84375 0 -1.515625 0.515625q-0.65625 0.5 -0.9375 1.390625q-0.421875 1.359375 -0.421875 2.96875l0 7.875l-2.546875 0zm20.07898 -4.84375l2.640625 0.328125q-0.625 2.3125 -2.3125 3.59375q-1.6875 1.265625 -4.296875 1.265625q-3.3125 0 -5.25 -2.03125q-1.921875 -2.03125 -1.921875 -5.703125q0 -3.796875 1.953125 -5.890625q1.953125 -2.09375 5.0625 -2.09375q3.03125 0 4.9375 2.0625q1.90625 2.046875 1.90625 5.765625q0 0.21875 -0.015625 0.671875l-11.203125 0q0.140625 2.484375 1.390625 3.8125q1.265625 1.3125 3.140625 1.3125q1.40625 0 2.390625 -0.734375q1.0 -0.75 1.578125 -2.359375zm-8.359375 -4.125l8.390625 0q-0.171875 -1.890625 -0.96875 -2.84375q-1.21875 -1.46875 -3.15625 -1.46875q-1.75 0 -2.953125 1.171875q-1.1875 1.171875 -1.3125 3.140625zm13.357788 4.484375l2.515625 -0.40625q0.21875 1.515625 1.1875 2.328125q0.96875 0.8125 2.71875 0.8125q1.75 0 2.59375 -0.71875q0.859375 -0.71875 0.859375 -1.6875q0 -0.859375 -0.75 -1.359375q-0.53125 -0.328125 -2.609375 -0.859375q-2.796875 -0.703125 -3.890625 -1.21875q-1.078125 -0.515625 -1.640625 -1.421875q-0.5625 -0.921875 -0.5625 -2.03125q0 -1.0 0.453125 -1.859375q0.46875 -0.859375 1.265625 -1.421875q0.59375 -0.4375 1.609375 -0.734375q1.03125 -0.3125 2.21875 -0.3125q1.765625 0 3.09375 0.515625q1.34375 0.5 1.984375 1.375q0.640625 0.875 0.875 2.328125l-2.484375 0.34375q-0.171875 -1.171875 -0.984375 -1.8125q-0.8125 -0.65625 -2.3125 -0.65625q-1.75 0 -2.5 0.578125q-0.75 0.578125 -0.75 1.359375q0 0.5 0.3125 0.890625q0.3125 0.40625 0.96875 0.6875q0.390625 0.140625 2.265625 0.640625q2.703125 0.734375 3.765625 1.1875q1.0625 0.453125 1.671875 1.34375q0.609375 0.875 0.609375 2.171875q0 1.28125 -0.75 2.40625q-0.734375 1.125 -2.140625 1.75q-1.390625 0.609375 -3.15625 0.609375q-2.9375 0 -4.484375 -1.21875q-1.53125 -1.21875 -1.953125 -3.609375z" fill-rule="nonzero"></path><path fill="#000000" d="m219.86845 380.29385l0 -15.03125l2.28125 0l0 2.109375q0.71875 -1.109375 1.890625 -1.78125q1.171875 -0.671875 2.671875 -0.671875q1.671875 0 2.734375 0.703125q1.078125 0.6875 1.515625 1.921875q1.78125 -2.625 4.640625 -2.625q2.234375 0 3.4375 1.234375q1.203125 1.234375 1.203125 3.8125l0 10.328125l-2.53125 0l0 -9.46875q0 -1.53125 -0.25 -2.203125q-0.234375 -0.671875 -0.890625 -1.078125q-0.65625 -0.421875 -1.53125 -0.421875q-1.59375 0 -2.640625 1.0625q-1.046875 1.046875 -1.046875 3.375l0 8.734375l-2.546875 0l0 -9.765625q0 -1.703125 -0.625 -2.546875q-0.625 -0.859375 -2.03125 -0.859375q-1.078125 0 -2.0 0.578125q-0.90625 0.5625 -1.328125 1.65625q-0.40625 1.078125 -0.40625 3.140625l0 7.796875l-2.546875 0zm34.289932 0l0 -2.203125q-1.75 2.546875 -4.765625 2.546875q-1.328125 0 -2.484375 -0.515625q-1.15625 -0.515625 -1.71875 -1.28125q-0.5625 -0.765625 -0.78125 -1.890625q-0.15625 -0.75 -0.15625 -2.375l0 -9.3125l2.546875 0l0 8.328125q0 2.0 0.15625 2.703125q0.234375 1.0 1.015625 1.578125q0.78125 0.5625 1.921875 0.5625q1.15625 0 2.15625 -0.578125q1.0 -0.59375 1.421875 -1.609375q0.421875 -1.015625 0.421875 -2.9375l0 -8.046875l2.546875 0l0 15.03125l-2.28125 0zm6.342163 5.796875l-0.28125 -2.390625q0.828125 0.21875 1.453125 0.21875q0.859375 0 1.359375 -0.28125q0.515625 -0.28125 0.84375 -0.796875q0.234375 -0.375 0.78125 -1.890625q0.0625 -0.21875 0.21875 -0.625l-5.703125 -15.0625l2.75 0l3.125 8.703125q0.609375 1.65625 1.09375 3.484375q0.4375 -1.765625 1.046875 -3.421875l3.21875 -8.765625l2.546875 0l-5.71875 15.28125q-0.921875 2.484375 -1.4375 3.421875q-0.671875 1.25 -1.5625 1.84375q-0.875 0.59375 -2.09375 0.59375q-0.734375 0 -1.640625 -0.3125zm25.281128 -5.796875l-2.375 0l0 -20.765625l2.5625 0l0 7.40625q1.609375 -2.015625 4.109375 -2.015625q1.390625 0 2.625 0.5625q1.25 0.546875 2.046875 1.5625q0.796875 1.015625 1.25 2.453125q0.453125 1.421875 0.453125 3.046875q0 3.875 -1.921875 5.984375q-1.90625 2.109375 -4.578125 2.109375q-2.65625 0 -4.171875 -2.234375l0 1.890625zm-0.03125 -7.625q0 2.703125 0.734375 3.90625q1.203125 1.96875 3.265625 1.96875q1.65625 0 2.875 -1.453125q1.21875 -1.453125 1.21875 -4.328125q0 -2.953125 -1.171875 -4.34375q-1.15625 -1.40625 -2.8125 -1.40625q-1.671875 0 -2.890625 1.453125q-1.21875 1.453125 -1.21875 4.203125zm23.795288 5.765625q-1.40625 1.203125 -2.71875 1.703125q-1.3125 0.5 -2.8125 0.5q-2.484375 0 -3.8125 -1.203125q-1.328125 -1.21875 -1.328125 -3.109375q0 -1.09375 0.5 -2.0q0.5 -0.921875 1.3125 -1.46875q0.828125 -0.5625 1.84375 -0.84375q0.75 -0.203125 2.265625 -0.390625q3.078125 -0.359375 4.546875 -0.875q0.015625 -0.515625 0.015625 -0.65625q0 -1.5625 -0.734375 -2.203125q-0.96875 -0.859375 -2.890625 -0.859375q-1.796875 0 -2.65625 0.625q-0.859375 0.625 -1.265625 2.234375l-2.5 -0.34375q0.34375 -1.59375 1.125 -2.578125q0.78125 -0.984375 2.25 -1.515625q1.46875 -0.53125 3.40625 -0.53125q1.9375 0 3.140625 0.453125q1.203125 0.453125 1.765625 1.140625q0.5625 0.6875 0.796875 1.734375q0.125 0.640625 0.125 2.34375l0 3.40625q0 3.546875 0.15625 4.5q0.171875 0.9375 0.640625 1.796875l-2.65625 0q-0.390625 -0.796875 -0.515625 -1.859375zm-0.203125 -5.6875q-1.390625 0.5625 -4.171875 0.96875q-1.5625 0.21875 -2.21875 0.5q-0.65625 0.28125 -1.015625 0.828125q-0.34375 0.546875 -0.34375 1.21875q0 1.015625 0.765625 1.703125q0.78125 0.671875 2.265625 0.671875q1.46875 0 2.609375 -0.640625q1.15625 -0.65625 1.703125 -1.765625q0.40625 -0.859375 0.40625 -2.546875l0 -0.9375zm6.685913 -10.25l0 -2.96875l2.5625 0l0 2.96875l-2.5625 0zm-3.21875 23.625l0.484375 -2.15625q0.765625 0.1875 1.203125 0.1875q0.78125 0 1.15625 -0.515625q0.375 -0.515625 0.375 -2.578125l0 -15.796875l2.5625 0l0 15.859375q0 2.765625 -0.734375 3.859375q-0.921875 1.421875 -3.046875 1.421875q-1.046875 0 -2.0 -0.28125zm8.812653 -13.34375q0 -4.1875 2.3125 -6.1875q1.9375 -1.671875 4.734375 -1.671875q3.09375 0 5.0625 2.03125q1.96875 2.03125 1.96875 5.609375q0 2.90625 -0.875 4.578125q-0.859375 1.65625 -2.53125 2.578125q-1.65625 0.921875 -3.625 0.921875q-3.15625 0 -5.109375 -2.015625q-1.9375 -2.03125 -1.9375 -5.84375zm2.609375 0q0 2.890625 1.265625 4.328125q1.265625 1.4375 3.171875 1.4375q1.890625 0 3.15625 -1.4375q1.265625 -1.453125 1.265625 -4.421875q0 -2.78125 -1.28125 -4.21875q-1.265625 -1.4375 -3.140625 -1.4375q-1.90625 0 -3.171875 1.4375q-1.265625 1.421875 -1.265625 4.3125zm13.623413 3.03125l2.515625 -0.40625q0.21875 1.515625 1.1875 2.328125q0.96875 0.8125 2.71875 0.8125q1.75 0 2.59375 -0.71875q0.859375 -0.71875 0.859375 -1.6875q0 -0.859375 -0.75 -1.359375q-0.53125 -0.328125 -2.609375 -0.859375q-2.796875 -0.703125 -3.890625 -1.21875q-1.078125 -0.515625 -1.640625 -1.421875q-0.5625 -0.921875 -0.5625 -2.03125q0 -1.0 0.453125 -1.859375q0.46875 -0.859375 1.265625 -1.421875q0.59375 -0.4375 1.609375 -0.734375q1.03125 -0.3125 2.21875 -0.3125q1.765625 0 3.09375 0.515625q1.34375 0.5 1.984375 1.375q0.640625 0.875 0.875 2.328125l-2.484375 0.34375q-0.171875 -1.171875 -0.984375 -1.8125q-0.8125 -0.65625 -2.3125 -0.65625q-1.75 0 -2.5 0.578125q-0.75 0.578125 -0.75 1.359375q0 0.5 0.3125 0.890625q0.3125 0.40625 0.96875 0.6875q0.390625 0.140625 2.265625 0.640625q2.703125 0.734375 3.765625 1.1875q1.0625 0.453125 1.671875 1.34375q0.609375 0.875 0.609375 2.171875q0 1.28125 -0.75 2.40625q-0.734375 1.125 -2.140625 1.75q-1.390625 0.609375 -3.15625 0.609375q-2.9375 0 -4.484375 -1.21875q-1.53125 -1.21875 -1.953125 -3.609375zm34.124847 -0.359375l2.640625 0.328125q-0.625 2.3125 -2.3125 3.59375q-1.6875 1.265625 -4.296875 1.265625q-3.3125 0 -5.25 -2.03125q-1.921875 -2.03125 -1.921875 -5.703125q0 -3.796875 1.953125 -5.890625q1.953125 -2.09375 5.0625 -2.09375q3.03125 0 4.9375 2.0625q1.90625 2.046875 1.90625 5.765625q0 0.21875 -0.015625 0.671875l-11.203125 0q0.140625 2.484375 1.390625 3.8125q1.265625 1.3125 3.140625 1.3125q1.40625 0 2.390625 -0.734375q1.0 -0.75 1.578125 -2.359375zm-8.359375 -4.125l8.390625 0q-0.171875 -1.890625 -0.96875 -2.84375q-1.21875 -1.46875 -3.15625 -1.46875q-1.75 0 -2.953125 1.171875q-1.1875 1.171875 -1.3125 3.140625zm14.373413 8.96875l0 -15.03125l2.296875 0l0 2.125q1.65625 -2.46875 4.78125 -2.46875q1.359375 0 2.5 0.484375q1.140625 0.484375 1.703125 1.28125q0.578125 0.796875 0.796875 1.890625q0.140625 0.703125 0.140625 2.46875l0 9.25l-2.546875 0l0 -9.140625q0 -1.5625 -0.296875 -2.328125q-0.296875 -0.78125 -1.0625 -1.234375q-0.75 -0.46875 -1.765625 -0.46875q-1.625 0 -2.8125 1.03125q-1.1875 1.03125 -1.1875 3.921875l0 8.21875l-2.546875 0zm24.412354 0l0 -20.765625l2.546875 0l0 20.765625l-2.546875 0zm16.375153 -1.859375q-1.40625 1.203125 -2.71875 1.703125q-1.3125 0.5 -2.8125 0.5q-2.484375 0 -3.8125 -1.203125q-1.328125 -1.21875 -1.328125 -3.109375q0 -1.09375 0.5 -2.0q0.5 -0.921875 1.3125 -1.46875q0.828125 -0.5625 1.84375 -0.84375q0.75 -0.203125 2.265625 -0.390625q3.078125 -0.359375 4.546875 -0.875q0.015625 -0.515625 0.015625 -0.65625q0 -1.5625 -0.734375 -2.203125q-0.96875 -0.859375 -2.890625 -0.859375q-1.796875 0 -2.65625 0.625q-0.859375 0.625 -1.265625 2.234375l-2.5 -0.34375q0.34375 -1.59375 1.125 -2.578125q0.78125 -0.984375 2.25 -1.515625q1.46875 -0.53125 3.40625 -0.53125q1.9375 0 3.140625 0.453125q1.203125 0.453125 1.765625 1.140625q0.5625 0.6875 0.796875 1.734375q0.125 0.640625 0.125 2.34375l0 3.40625q0 3.546875 0.15625 4.5q0.171875 0.9375 0.640625 1.796875l-2.65625 0q-0.390625 -0.796875 -0.515625 -1.859375zm-0.203125 -5.6875q-1.390625 0.5625 -4.171875 0.96875q-1.5625 0.21875 -2.21875 0.5q-0.65625 0.28125 -1.015625 0.828125q-0.34375 0.546875 -0.34375 1.21875q0 1.015625 0.765625 1.703125q0.78125 0.671875 2.265625 0.671875q1.46875 0 2.609375 -0.640625q1.15625 -0.65625 1.703125 -1.765625q0.40625 -0.859375 0.40625 -2.546875l0 -0.9375zm5.685913 3.0625l2.515625 -0.40625q0.21875 1.515625 1.1875 2.328125q0.96875 0.8125 2.71875 0.8125q1.75 0 2.59375 -0.71875q0.859375 -0.71875 0.859375 -1.6875q0 -0.859375 -0.75 -1.359375q-0.53125 -0.328125 -2.609375 -0.859375q-2.796875 -0.703125 -3.890625 -1.21875q-1.078125 -0.515625 -1.640625 -1.421875q-0.5625 -0.921875 -0.5625 -2.03125q0 -1.0 0.453125 -1.859375q0.46875 -0.859375 1.265625 -1.421875q0.59375 -0.4375 1.609375 -0.734375q1.03125 -0.3125 2.21875 -0.3125q1.765625 0 3.09375 0.515625q1.34375 0.5 1.984375 1.375q0.640625 0.875 0.875 2.328125l-2.484375 0.34375q-0.171875 -1.171875 -0.984375 -1.8125q-0.8125 -0.65625 -2.3125 -0.65625q-1.75 0 -2.5 0.578125q-0.75 0.578125 -0.75 1.359375q0 0.5 0.3125 0.890625q0.3125 0.40625 0.96875 0.6875q0.390625 0.140625 2.265625 0.640625q2.703125 0.734375 3.765625 1.1875q1.0625 0.453125 1.671875 1.34375q0.609375 0.875 0.609375 2.171875q0 1.28125 -0.75 2.40625q-0.734375 1.125 -2.140625 1.75q-1.390625 0.609375 -3.15625 0.609375q-2.9375 0 -4.484375 -1.21875q-1.53125 -1.21875 -1.953125 -3.609375z" fill-rule="nonzero"></path><path fill="#000000" d="m209.25705 421.05948l0 -20.796875l2.328125 0l0 1.953125q0.828125 -1.15625 1.859375 -1.71875q1.03125 -0.578125 2.5 -0.578125q1.921875 0 3.390625 1.0q1.484375 0.984375 2.234375 2.796875q0.75 1.796875 0.75 3.953125q0 2.296875 -0.828125 4.15625q-0.828125 1.84375 -2.40625 2.828125q-1.578125 0.984375 -3.328125 0.984375q-1.265625 0 -2.28125 -0.53125q-1.015625 -0.546875 -1.671875 -1.375l0 7.328125l-2.546875 0zm2.3125 -13.203125q0 2.90625 1.171875 4.296875q1.1875 1.390625 2.84375 1.390625q1.703125 0 2.90625 -1.4375q1.21875 -1.4375 1.21875 -4.453125q0 -2.875 -1.1875 -4.296875q-1.171875 -1.4375 -2.8125 -1.4375q-1.640625 0 -2.890625 1.515625q-1.25 1.515625 -1.25 4.421875zm13.982788 7.4375l0 -15.03125l2.28125 0l0 2.265625q0.890625 -1.59375 1.625 -2.09375q0.75 -0.515625 1.640625 -0.515625q1.28125 0 2.609375 0.8125l-0.875 2.375q-0.9375 -0.5625 -1.859375 -0.5625q-0.84375 0 -1.515625 0.515625q-0.65625 0.5 -0.9375 1.390625q-0.421875 1.359375 -0.421875 2.96875l0 7.875l-2.546875 0zm20.078995 -4.84375l2.640625 0.328125q-0.625 2.3125 -2.3125 3.59375q-1.6875 1.265625 -4.296875 1.265625q-3.3125 0 -5.25 -2.03125q-1.921875 -2.03125 -1.921875 -5.703125q0 -3.796875 1.953125 -5.890625q1.953125 -2.09375 5.0625 -2.09375q3.03125 0 4.9375 2.0625q1.90625 2.046875 1.90625 5.765625q0 0.21875 -0.015625 0.671875l-11.203125 0q0.140625 2.484375 1.390625 3.8125q1.265625 1.3125 3.140625 1.3125q1.40625 0 2.390625 -0.734375q1.0 -0.75 1.578125 -2.359375zm-8.359375 -4.125l8.390625 0q-0.171875 -1.890625 -0.96875 -2.84375q-1.21875 -1.46875 -3.15625 -1.46875q-1.75 0 -2.953125 1.171875q-1.1875 1.171875 -1.3125 3.140625zm13.904663 10.21875l2.484375 0.359375q0.15625 1.15625 0.859375 1.671875q0.953125 0.71875 2.5937653 0.71875q1.765625 0 2.734375 -0.71875q0.96875 -0.703125 1.296875 -1.984375q0.203125 -0.765625 0.1875 -3.265625q-1.671875 1.96875 -4.15625 1.96875q-3.1093903 0 -4.8125153 -2.234375q-1.6875 -2.234375 -1.6875 -5.375q0 -2.140625 0.78125 -3.953125q0.78125 -1.828125 2.25 -2.8125q1.484375 -1.0 3.4843903 -1.0q2.65625 0 4.390625 2.15625l0 -1.8125l2.34375 0l0 12.984375q0 3.515625 -0.71875 4.984375q-0.703125 1.46875 -2.265625 2.3125q-1.546875 0.859375 -3.8125 0.859375q-2.6875153 0 -4.3437653 -1.21875q-1.65625 -1.203125 -1.609375 -3.640625zm2.109375 -9.03125q0 2.953125 1.171875 4.3125q1.1875 1.359375 2.9531403 1.359375q1.765625 0 2.953125 -1.34375q1.1875 -1.359375 1.1875 -4.25q0 -2.765625 -1.234375 -4.15625q-1.21875 -1.40625 -2.953125 -1.40625q-1.6875153 0 -2.8906403 1.390625q-1.1875 1.375 -1.1875 4.09375zm24.529678 7.78125l0 -2.203125q-1.75 2.546875 -4.765625 2.546875q-1.328125 0 -2.484375 -0.515625q-1.15625 -0.515625 -1.71875 -1.28125q-0.5625 -0.765625 -0.78125 -1.890625q-0.15625 -0.75 -0.15625 -2.375l0 -9.3125l2.546875 0l0 8.328125q0 2.0 0.15625 2.703125q0.234375 1.0 1.015625 1.578125q0.78125 0.5625 1.921875 0.5625q1.15625 0 2.15625 -0.578125q1.0 -0.59375 1.421875 -1.609375q0.421875 -1.015625 0.421875 -2.9375l0 -8.046875l2.546875 0l0 15.03125l-2.28125 0zm6.451538 0l0 -15.03125l2.296875 0l0 2.125q1.65625 -2.46875 4.78125 -2.46875q1.359375 0 2.5 0.484375q1.140625 0.484375 1.703125 1.28125q0.578125 0.796875 0.796875 1.890625q0.140625 0.703125 0.140625 2.46875l0 9.25l-2.546875 0l0 -9.140625q0 -1.5625 -0.296875 -2.328125q-0.296875 -0.78125 -1.0625 -1.234375q-0.75 -0.46875 -1.765625 -0.46875q-1.625 0 -2.8125 1.03125q-1.1875 1.03125 -1.1875 3.921875l0 8.21875l-2.546875 0zm21.889038 -2.28125l0.359375 2.25q-1.078125 0.234375 -1.921875 0.234375q-1.390625 0 -2.15625 -0.4375q-0.765625 -0.453125 -1.078125 -1.15625q-0.3125 -0.71875 -0.3125 -3.015625l0 -8.65625l-1.859375 0l0 -1.96875l1.859375 0l0 -3.734375l2.53125 -1.53125l0 5.265625l2.578125 0l0 1.96875l-2.578125 0l0 8.796875q0 1.09375 0.140625 1.40625q0.140625 0.3125 0.4375 0.5q0.3125 0.171875 0.875 0.171875q0.421875 0 1.125 -0.09375zm12.38266 0.421875q-1.40625 1.203125 -2.71875 1.703125q-1.3125 0.5 -2.8125 0.5q-2.484375 0 -3.8125 -1.203125q-1.328125 -1.21875 -1.328125 -3.109375q0 -1.09375 0.5 -2.0q0.5 -0.921875 1.3125 -1.46875q0.828125 -0.5625 1.84375 -0.84375q0.75 -0.203125 2.265625 -0.390625q3.078125 -0.359375 4.546875 -0.875q0.015625 -0.515625 0.015625 -0.65625q0 -1.5625 -0.734375 -2.203125q-0.96875 -0.859375 -2.890625 -0.859375q-1.796875 0 -2.65625 0.625q-0.859375 0.625 -1.265625 2.234375l-2.5 -0.34375q0.34375 -1.59375 1.125 -2.578125q0.78125 -0.984375 2.25 -1.515625q1.46875 -0.53125 3.40625 -0.53125q1.9375 0 3.140625 0.453125q1.203125 0.453125 1.765625 1.140625q0.5625 0.6875 0.796875 1.734375q0.125 0.640625 0.125 2.34375l0 3.40625q0 3.546875 0.15625 4.5q0.171875 0.9375 0.640625 1.796875l-2.65625 0q-0.390625 -0.796875 -0.515625 -1.859375zm-0.203125 -5.6875q-1.390625 0.5625 -4.171875 0.96875q-1.5625 0.21875 -2.21875 0.5q-0.65625 0.28125 -1.015625 0.828125q-0.34375 0.546875 -0.34375 1.21875q0 1.015625 0.765625 1.703125q0.78125 0.671875 2.265625 0.671875q1.46875 0 2.609375 -0.640625q1.15625 -0.65625 1.703125 -1.765625q0.40625 -0.859375 0.40625 -2.546875l0 -0.9375zm5.685913 3.0625l2.515625 -0.40625q0.21875 1.515625 1.1875 2.328125q0.96875 0.8125 2.71875 0.8125q1.75 0 2.59375 -0.71875q0.859375 -0.71875 0.859375 -1.6875q0 -0.859375 -0.75 -1.359375q-0.53125 -0.328125 -2.609375 -0.859375q-2.796875 -0.703125 -3.890625 -1.21875q-1.078125 -0.515625 -1.640625 -1.421875q-0.5625 -0.921875 -0.5625 -2.03125q0 -1.0 0.453125 -1.859375q0.46875 -0.859375 1.265625 -1.421875q0.59375 -0.4375 1.609375 -0.734375q1.03125 -0.3125 2.21875 -0.3125q1.765625 0 3.09375 0.515625q1.34375 0.5 1.984375 1.375q0.640625 0.875 0.875 2.328125l-2.484375 0.34375q-0.171875 -1.171875 -0.984375 -1.8125q-0.8125 -0.65625 -2.3125 -0.65625q-1.75 0 -2.5 0.578125q-0.75 0.578125 -0.75 1.359375q0 0.5 0.3125 0.890625q0.3125 0.40625 0.96875 0.6875q0.390625 0.140625 2.265625 0.640625q2.703125 0.734375 3.765625 1.1875q1.0625 0.453125 1.671875 1.34375q0.609375 0.875 0.609375 2.171875q0 1.28125 -0.75 2.40625q-0.734375 1.125 -2.140625 1.75q-1.390625 0.609375 -3.15625 0.609375q-2.9375 0 -4.484375 -1.21875q-1.53125 -1.21875 -1.953125 -3.609375zm32.718628 4.484375l-2.546875 0l0 -16.234375q-0.921875 0.875 -2.421875 1.75q-1.484375 0.875 -2.671875 1.3125l0 -2.46875q2.140625 -1.0 3.734375 -2.421875q1.609375 -1.4375 2.265625 -2.78125l1.640625 0l0 20.84375zm6.732788 -5.484375l2.546875 -0.328125q0.4375 2.15625 1.484375 3.125q1.0625 0.953125 2.578125 0.953125q1.796875 0 3.03125 -1.25q1.25 -1.25 1.25 -3.09375q0 -1.75 -1.15625 -2.890625q-1.140625 -1.140625 -2.90625 -1.140625q-0.71875 0 -1.796875 0.28125l0.28125 -2.234375q0.25 0.03125 0.40625 0.03125q1.625 0 2.921875 -0.84375q1.3125 -0.859375 1.3125 -2.625q0 -1.40625 -0.953125 -2.328125q-0.9375 -0.921875 -2.4375 -0.921875q-1.5 0 -2.484375 0.9375q-0.984375 0.9375 -1.28125 2.796875l-2.546875 -0.453125q0.46875 -2.5625 2.125 -3.96875q1.65625 -1.40625 4.125 -1.40625q1.703125 0 3.125 0.734375q1.4375 0.71875 2.1875 1.984375q0.765625 1.265625 0.765625 2.671875q0 1.34375 -0.734375 2.453125q-0.71875 1.109375 -2.125 1.75q1.828125 0.4375 2.84375 1.78125q1.03125 1.328125 1.03125 3.34375q0 2.71875 -1.984375 4.609375q-1.984375 1.890625 -5.015625 1.890625q-2.734375 0 -4.546875 -1.625q-1.796875 -1.640625 -2.046875 -4.234375zm25.037323 11.28125l-0.28125 -2.390625q0.828125 0.21875 1.453125 0.21875q0.859375 0 1.359375 -0.28125q0.515625 -0.28125 0.84375 -0.796875q0.234375 -0.375 0.78125 -1.890625q0.0625 -0.21875 0.21875 -0.625l-5.703125 -15.0625l2.75 0l3.125 8.703125q0.609375 1.65625 1.09375 3.484375q0.4375 -1.765625 1.046875 -3.421875l3.21875 -8.765625l2.546875 0l-5.71875 15.28125q-0.921875 2.484375 -1.4375 3.421875q-0.671875 1.25 -1.5625 1.84375q-0.875 0.59375 -2.09375 0.59375q-0.734375 0 -1.640625 -0.3125zm22.234253 -11.28125l2.546875 -0.328125q0.4375 2.15625 1.484375 3.125q1.0625 0.953125 2.578125 0.953125q1.796875 0 3.03125 -1.25q1.25 -1.25 1.25 -3.09375q0 -1.75 -1.15625 -2.890625q-1.140625 -1.140625 -2.90625 -1.140625q-0.71875 0 -1.796875 0.28125l0.28125 -2.234375q0.25 0.03125 0.40625 0.03125q1.625 0 2.921875 -0.84375q1.3125 -0.859375 1.3125 -2.625q0 -1.40625 -0.953125 -2.328125q-0.9375 -0.921875 -2.4375 -0.921875q-1.5 0 -2.484375 0.9375q-0.984375 0.9375 -1.28125 2.796875l-2.546875 -0.453125q0.46875 -2.5625 2.125 -3.96875q1.65625 -1.40625 4.125 -1.40625q1.703125 0 3.125 0.734375q1.4375 0.71875 2.1875 1.984375q0.765625 1.265625 0.765625 2.671875q0 1.34375 -0.734375 2.453125q-0.71875 1.109375 -2.125 1.75q1.828125 0.4375 2.84375 1.78125q1.03125 1.328125 1.03125 3.34375q0 2.71875 -1.984375 4.609375q-1.984375 1.890625 -5.015625 1.890625q-2.734375 0 -4.546875 -1.625q-1.796875 -1.640625 -2.046875 -4.234375zm25.037323 11.28125l-0.28125 -2.390625q0.828125 0.21875 1.453125 0.21875q0.859375 0 1.359375 -0.28125q0.515625 -0.28125 0.84375 -0.796875q0.234375 -0.375 0.78125 -1.890625q0.0625 -0.21875 0.21875 -0.625l-5.703125 -15.0625l2.75 0l3.125 8.703125q0.609375 1.65625 1.09375 3.484375q0.4375 -1.765625 1.046875 -3.421875l3.21875 -8.765625l2.546875 0l-5.71875 15.28125q-0.921875 2.484375 -1.4375 3.421875q-0.671875 1.25 -1.5625 1.84375q-0.875 0.59375 -2.09375 0.59375q-0.734375 0 -1.640625 -0.3125z" fill-rule="nonzero"></path><path fill="#000000" d="m272.87122 448.43448q-1.40625 1.203125 -2.71875 1.703125q-1.3125 0.5 -2.8125 0.5q-2.484375 0 -3.8125 -1.203125q-1.328125 -1.21875 -1.328125 -3.109375q0 -1.09375 0.5 -2.0q0.5 -0.921875 1.3125 -1.46875q0.828125 -0.5625 1.84375 -0.84375q0.75 -0.203125 2.265625 -0.390625q3.078125 -0.359375 4.546875 -0.875q0.015625 -0.515625 0.015625 -0.65625q0 -1.5625 -0.734375 -2.203125q-0.96875 -0.859375 -2.890625 -0.859375q-1.796875 0 -2.65625 0.625q-0.859375 0.625 -1.265625 2.234375l-2.5 -0.34375q0.34375 -1.59375 1.125 -2.578125q0.78125 -0.984375 2.25 -1.515625q1.46875 -0.53125 3.40625 -0.53125q1.9375 0 3.140625 0.453125q1.203125 0.453125 1.765625 1.140625q0.5625 0.6875 0.796875 1.734375q0.125 0.640625 0.125 2.34375l0 3.40625q0 3.546875 0.15625 4.5q0.171875 0.9375 0.640625 1.796875l-2.65625 0q-0.390625 -0.796875 -0.515625 -1.859375zm-0.203125 -5.6875q-1.390625 0.5625 -4.171875 0.96875q-1.5625 0.21875 -2.21875 0.5q-0.65625 0.28125 -1.015625 0.828125q-0.34375 0.546875 -0.34375 1.21875q0 1.015625 0.765625 1.703125q0.78125 0.671875 2.265625 0.671875q1.46875 0 2.609375 -0.640625q1.15625 -0.65625 1.703125 -1.765625q0.40625 -0.859375 0.40625 -2.546875l0 -0.9375zm6.654663 7.546875l0 -20.765625l2.546875 0l0 20.765625l-2.546875 0zm12.140778 -2.28125l0.359375 2.25q-1.078125 0.234375 -1.921875 0.234375q-1.390625 0 -2.15625 -0.4375q-0.765625 -0.453125 -1.078125 -1.15625q-0.3125 -0.71875 -0.3125 -3.015625l0 -8.65625l-1.859375 0l0 -1.96875l1.859375 0l0 -3.734375l2.53125 -1.53125l0 5.265625l2.578125 0l0 1.96875l-2.578125 0l0 8.796875q0 1.09375 0.140625 1.40625q0.140625 0.3125 0.4375 0.5q0.3125 0.171875 0.875 0.171875q0.421875 0 1.125 -0.09375zm1.6326599 -5.234375q0 -4.1875 2.3125 -6.1875q1.9375 -1.671875 4.734375 -1.671875q3.09375 0 5.0625 2.03125q1.96875 2.03125 1.96875 5.609375q0 2.90625 -0.875 4.578125q-0.859375 1.65625 -2.53125 2.578125q-1.65625 0.921875 -3.625 0.921875q-3.15625 0 -5.109375 -2.015625q-1.9375 -2.03125 -1.9375 -5.84375zm2.609375 0q0 2.890625 1.265625 4.328125q1.265625 1.4375 3.171875 1.4375q1.890625 0 3.15625 -1.4375q1.265625 -1.453125 1.265625 -4.421875q0 -2.78125 -1.28125 -4.21875q-1.265625 -1.4375 -3.140625 -1.4375q-1.90625 0 -3.171875 1.4375q-1.265625 1.421875 -1.265625 4.3125zm13.623413 3.03125l2.515625 -0.40625q0.21875 1.515625 1.1875 2.328125q0.96875 0.8125 2.71875 0.8125q1.75 0 2.59375 -0.71875q0.859375 -0.71875 0.859375 -1.6875q0 -0.859375 -0.75 -1.359375q-0.53125 -0.328125 -2.609375 -0.859375q-2.796875 -0.703125 -3.890625 -1.21875q-1.078125 -0.515625 -1.640625 -1.421875q-0.5625 -0.921875 -0.5625 -2.03125q0 -1.0 0.453125 -1.859375q0.46875 -0.859375 1.265625 -1.421875q0.59375 -0.4375 1.609375 -0.734375q1.03125 -0.3125 2.21875 -0.3125q1.765625 0 3.09375 0.515625q1.34375 0.5 1.984375 1.375q0.640625 0.875 0.875 2.328125l-2.484375 0.34375q-0.171875 -1.171875 -0.984375 -1.8125q-0.8125 -0.65625 -2.3125 -0.65625q-1.75 0 -2.5 0.578125q-0.75 0.578125 -0.75 1.359375q0 0.5 0.3125 0.890625q0.3125 0.40625 0.96875 0.6875q0.390625 0.140625 2.265625 0.640625q2.703125 0.734375 3.765625 1.1875q1.0625 0.453125 1.671875 1.34375q0.609375 0.875 0.609375 2.171875q0 1.28125 -0.75 2.40625q-0.734375 1.125 -2.140625 1.75q-1.390625 0.609375 -3.15625 0.609375q-2.9375 0 -4.484375 -1.21875q-1.53125 -1.21875 -1.953125 -3.609375zm34.124878 -0.359375l2.640625 0.328125q-0.625 2.3125 -2.3125 3.59375q-1.6875 1.265625 -4.296875 1.265625q-3.3125 0 -5.25 -2.03125q-1.921875 -2.03125 -1.921875 -5.703125q0 -3.796875 1.953125 -5.890625q1.953125 -2.09375 5.0625 -2.09375q3.03125 0 4.9375 2.0625q1.90625 2.046875 1.90625 5.765625q0 0.21875 -0.015625 0.671875l-11.203125 0q0.140625 2.484375 1.390625 3.8125q1.265625 1.3125 3.140625 1.3125q1.40625 0 2.390625 -0.734375q1.0 -0.75 1.578125 -2.359375zm-8.359375 -4.125l8.390625 0q-0.171875 -1.890625 -0.96875 -2.84375q-1.21875 -1.46875 -3.15625 -1.46875q-1.75 0 -2.953125 1.171875q-1.1875 1.171875 -1.3125 3.140625zm14.373413 8.96875l0 -15.03125l2.296875 0l0 2.125q1.65625 -2.46875 4.78125 -2.46875q1.359375 0 2.5 0.484375q1.140625 0.484375 1.703125 1.28125q0.578125 0.796875 0.796875 1.890625q0.140625 0.703125 0.140625 2.46875l0 9.25l-2.546875 0l0 -9.140625q0 -1.5625 -0.296875 -2.328125q-0.296875 -0.78125 -1.0625 -1.234375q-0.75 -0.46875 -1.765625 -0.46875q-1.625 0 -2.8125 1.03125q-1.1875 1.03125 -1.1875 3.921875l0 8.21875l-2.546875 0zm24.412323 0l0 -20.765625l2.546875 0l0 20.765625l-2.546875 0zm16.375153 -1.859375q-1.40625 1.203125 -2.71875 1.703125q-1.3125 0.5 -2.8125 0.5q-2.484375 0 -3.8125 -1.203125q-1.328125 -1.21875 -1.328125 -3.109375q0 -1.09375 0.5 -2.0q0.5 -0.921875 1.3125 -1.46875q0.828125 -0.5625 1.84375 -0.84375q0.75 -0.203125 2.265625 -0.390625q3.078125 -0.359375 4.546875 -0.875q0.015625 -0.515625 0.015625 -0.65625q0 -1.5625 -0.734375 -2.203125q-0.96875 -0.859375 -2.890625 -0.859375q-1.796875 0 -2.65625 0.625q-0.859375 0.625 -1.265625 2.234375l-2.5 -0.34375q0.34375 -1.59375 1.125 -2.578125q0.78125 -0.984375 2.25 -1.515625q1.46875 -0.53125 3.40625 -0.53125q1.9375 0 3.140625 0.453125q1.203125 0.453125 1.765625 1.140625q0.5625 0.6875 0.796875 1.734375q0.125 0.640625 0.125 2.34375l0 3.40625q0 3.546875 0.15625 4.5q0.171875 0.9375 0.640625 1.796875l-2.65625 0q-0.390625 -0.796875 -0.515625 -1.859375zm-0.203125 -5.6875q-1.390625 0.5625 -4.171875 0.96875q-1.5625 0.21875 -2.21875 0.5q-0.65625 0.28125 -1.015625 0.828125q-0.34375 0.546875 -0.34375 1.21875q0 1.015625 0.765625 1.703125q0.78125 0.671875 2.265625 0.671875q1.46875 0 2.609375 -0.640625q1.15625 -0.65625 1.703125 -1.765625q0.40625 -0.859375 0.40625 -2.546875l0 -0.9375z" fill-rule="nonzero"></path><path fill="#000000" d="m251.63106 491.05948l0 -20.796875l2.328125 0l0 1.953125q0.828125 -1.15625 1.859375 -1.71875q1.0312347 -0.578125 2.4999847 -0.578125q1.921875 0 3.390625 1.0q1.484375 0.984375 2.234375 2.796875q0.75 1.796875 0.75 3.953125q0 2.296875 -0.828125 4.15625q-0.828125 1.84375 -2.40625 2.828125q-1.578125 0.984375 -3.328125 0.984375q-1.265625 0 -2.2812347 -0.53125q-1.015625 -0.546875 -1.671875 -1.375l0 7.328125l-2.546875 0zm2.3125 -13.203125q0 2.90625 1.171875 4.296875q1.1874847 1.390625 2.8437347 1.390625q1.703125 0 2.90625 -1.4375q1.21875 -1.4375 1.21875 -4.453125q0 -2.875 -1.1875 -4.296875q-1.171875 -1.4375 -2.8125 -1.4375q-1.640625 0 -2.8906097 1.515625q-1.25 1.515625 -1.25 4.421875zm13.982773 7.4375l0 -15.03125l2.28125 0l0 2.265625q0.890625 -1.59375 1.625 -2.09375q0.75 -0.515625 1.640625 -0.515625q1.28125 0 2.609375 0.8125l-0.875 2.375q-0.9375 -0.5625 -1.859375 -0.5625q-0.84375 0 -1.515625 0.515625q-0.65625 0.5 -0.9375 1.390625q-0.421875 1.359375 -0.421875 2.96875l0 7.875l-2.546875 0zm20.07901 -4.84375l2.640625 0.328125q-0.625 2.3125 -2.3125 3.59375q-1.6875 1.265625 -4.296875 1.265625q-3.3125 0 -5.25 -2.03125q-1.921875 -2.03125 -1.921875 -5.703125q0 -3.796875 1.953125 -5.890625q1.953125 -2.09375 5.0625 -2.09375q3.03125 0 4.9375 2.0625q1.90625 2.046875 1.90625 5.765625q0 0.21875 -0.015625 0.671875l-11.203125 0q0.140625 2.484375 1.390625 3.8125q1.265625 1.3125 3.140625 1.3125q1.40625 0 2.390625 -0.734375q1.0 -0.75 1.578125 -2.359375zm-8.359375 -4.125l8.390625 0q-0.171875 -1.890625 -0.96875 -2.84375q-1.21875 -1.46875 -3.15625 -1.46875q-1.75 0 -2.953125 1.171875q-1.1875 1.171875 -1.3125 3.140625zm13.904663 10.21875l2.484375 0.359375q0.15625 1.15625 0.859375 1.671875q0.953125 0.71875 2.59375 0.71875q1.765625 0 2.734375 -0.71875q0.96875 -0.703125 1.296875 -1.984375q0.203125 -0.765625 0.1875 -3.265625q-1.671875 1.96875 -4.15625 1.96875q-3.109375 0 -4.8125 -2.234375q-1.6875 -2.234375 -1.6875 -5.375q0 -2.140625 0.78125 -3.953125q0.78125 -1.828125 2.25 -2.8125q1.484375 -1.0 3.484375 -1.0q2.65625 0 4.390625 2.15625l0 -1.8125l2.34375 0l0 12.984375q0 3.515625 -0.71875 4.984375q-0.703125 1.46875 -2.265625 2.3125q-1.546875 0.859375 -3.8125 0.859375q-2.6875 0 -4.34375 -1.21875q-1.65625 -1.203125 -1.609375 -3.640625zm2.109375 -9.03125q0 2.953125 1.171875 4.3125q1.1875 1.359375 2.953125 1.359375q1.765625 0 2.953125 -1.34375q1.1875 -1.359375 1.1875 -4.25q0 -2.765625 -1.234375 -4.15625q-1.21875 -1.40625 -2.953125 -1.40625q-1.6875 0 -2.890625 1.390625q-1.1875 1.375 -1.1875 4.09375zm24.529663 7.78125l0 -2.203125q-1.75 2.546875 -4.765625 2.546875q-1.328125 0 -2.484375 -0.515625q-1.15625 -0.515625 -1.71875 -1.28125q-0.5625 -0.765625 -0.78125 -1.890625q-0.15625 -0.75 -0.15625 -2.375l0 -9.3125l2.546875 0l0 8.328125q0 2.0 0.15625 2.703125q0.234375 1.0 1.015625 1.578125q0.78125 0.5625 1.921875 0.5625q1.15625 0 2.15625 -0.578125q1.0 -0.59375 1.421875 -1.609375q0.421875 -1.015625 0.421875 -2.9375l0 -8.046875l2.546875 0l0 15.03125l-2.28125 0zm6.451538 0l0 -15.03125l2.296875 0l0 2.125q1.65625 -2.46875 4.78125 -2.46875q1.359375 0 2.5 0.484375q1.140625 0.484375 1.703125 1.28125q0.578125 0.796875 0.796875 1.890625q0.140625 0.703125 0.140625 2.46875l0 9.25l-2.546875 0l0 -9.140625q0 -1.5625 -0.296875 -2.328125q-0.296875 -0.78125 -1.0625 -1.234375q-0.75 -0.46875 -1.765625 -0.46875q-1.625 0 -2.8125 1.03125q-1.1875 1.03125 -1.1875 3.921875l0 8.21875l-2.546875 0zm21.889038 -2.28125l0.359375 2.25q-1.078125 0.234375 -1.921875 0.234375q-1.390625 0 -2.15625 -0.4375q-0.765625 -0.453125 -1.078125 -1.15625q-0.3125 -0.71875 -0.3125 -3.015625l0 -8.65625l-1.859375 0l0 -1.96875l1.859375 0l0 -3.734375l2.53125 -1.53125l0 5.265625l2.578125 0l0 1.96875l-2.578125 0l0 8.796875q0 1.09375 0.140625 1.40625q0.140625 0.3125 0.4375 0.5q0.3125 0.171875 0.875 0.171875q0.421875 0 1.125 -0.09375zm12.38266 0.421875q-1.40625 1.203125 -2.71875 1.703125q-1.3125 0.5 -2.8125 0.5q-2.484375 0 -3.8125 -1.203125q-1.328125 -1.21875 -1.328125 -3.109375q0 -1.09375 0.5 -2.0q0.5 -0.921875 1.3125 -1.46875q0.828125 -0.5625 1.84375 -0.84375q0.75 -0.203125 2.265625 -0.390625q3.078125 -0.359375 4.546875 -0.875q0.015625 -0.515625 0.015625 -0.65625q0 -1.5625 -0.734375 -2.203125q-0.96875 -0.859375 -2.890625 -0.859375q-1.796875 0 -2.65625 0.625q-0.859375 0.625 -1.265625 2.234375l-2.5 -0.34375q0.34375 -1.59375 1.125 -2.578125q0.78125 -0.984375 2.25 -1.515625q1.46875 -0.53125 3.40625 -0.53125q1.9375 0 3.140625 0.453125q1.203125 0.453125 1.765625 1.140625q0.5625 0.6875 0.796875 1.734375q0.125 0.640625 0.125 2.34375l0 3.40625q0 3.546875 0.15625 4.5q0.171875 0.9375 0.640625 1.796875l-2.65625 0q-0.390625 -0.796875 -0.515625 -1.859375zm-0.203125 -5.6875q-1.390625 0.5625 -4.171875 0.96875q-1.5625 0.21875 -2.21875 0.5q-0.65625 0.28125 -1.015625 0.828125q-0.34375 0.546875 -0.34375 1.21875q0 1.015625 0.765625 1.703125q0.78125 0.671875 2.265625 0.671875q1.46875 0 2.609375 -0.640625q1.15625 -0.65625 1.703125 -1.765625q0.40625 -0.859375 0.40625 -2.546875l0 -0.9375zm27.537354 5.09375l0 2.453125l-13.71875 0q-0.03125 -0.921875 0.296875 -1.765625q0.53125 -1.40625 1.671875 -2.765625q1.15625 -1.359375 3.34375 -3.140625q3.390625 -2.78125 4.578125 -4.390625q1.1875 -1.625 1.1875 -3.078125q0 -1.515625 -1.09375 -2.546875q-1.078125 -1.046875 -2.8125 -1.046875q-1.84375 0 -2.953125 1.109375q-1.09375 1.09375 -1.109375 3.046875l-2.625 -0.265625q0.265625 -2.921875 2.015625 -4.453125q1.765625 -1.546875 4.71875 -1.546875q3.0 0 4.734375 1.65625q1.75 1.65625 1.75 4.109375q0 1.25 -0.515625 2.453125q-0.515625 1.203125 -1.703125 2.53125q-1.171875 1.328125 -3.921875 3.65625q-2.296875 1.921875 -2.953125 2.609375q-0.640625 0.6875 -1.0625 1.375l10.171875 0zm2.935913 -3.03125l2.546875 -0.328125q0.4375 2.15625 1.484375 3.125q1.0625 0.953125 2.578125 0.953125q1.796875 0 3.03125 -1.25q1.25 -1.25 1.25 -3.09375q0 -1.75 -1.15625 -2.890625q-1.140625 -1.140625 -2.90625 -1.140625q-0.71875 0 -1.796875 0.28125l0.28125 -2.234375q0.25 0.03125 0.40625 0.03125q1.625 0 2.921875 -0.84375q1.3125 -0.859375 1.3125 -2.625q0 -1.40625 -0.953125 -2.328125q-0.9375 -0.921875 -2.4375 -0.921875q-1.5 0 -2.484375 0.9375q-0.984375 0.9375 -1.28125 2.796875l-2.546875 -0.453125q0.46875 -2.5625 2.125 -3.96875q1.65625 -1.40625 4.125 -1.40625q1.703125 0 3.125 0.734375q1.4375 0.71875 2.1875 1.984375q0.765625 1.265625 0.765625 2.671875q0 1.34375 -0.734375 2.453125q-0.71875 1.109375 -2.125 1.75q1.828125 0.4375 2.84375 1.78125q1.03125 1.328125 1.03125 3.34375q0 2.71875 -1.984375 4.609375q-1.984375 1.890625 -5.015625 1.890625q-2.734375 0 -4.546875 -1.625q-1.796875 -1.640625 -2.046875 -4.234375z" fill-rule="nonzero"></path></g></svg>

