<?xml version="1.0" standalone="yes"?>

<svg version="1.1" viewBox="0.0 0.0 565.8346456692914 622.1417322834645" fill="none" stroke="none" stroke-linecap="square" stroke-miterlimit="10" xmlns="http://www.w3.org/2000/svg" xmlns:xlink="http://www.w3.org/1999/xlink"><clipPath id="p.0"><path d="m0 0l565.83466 0l0 622.1417l-565.83466 0l0 -622.1417z" clip-rule="nonzero"></path></clipPath><g clip-path="url(#p.0)"><path fill="#000000" fill-opacity="0.0" d="m0 0l565.83466 0l0 622.1417l-565.83466 0z" fill-rule="evenodd"></path><path fill="#cfe2f3" d="m14.853019 144.71391l0 0c0 -72.36235 58.66127 -131.02362 131.02364 -131.02362l0 0c34.74962 0 68.07599 13.804235 92.64769 38.37593c24.571701 24.571697 38.37593 57.898067 38.37593 92.64769l0 0c0 72.36235 -58.661285 131.0236 -131.02362 131.0236l0 0c-72.36236 0 -131.02364 -58.661255 -131.02364 -131.0236z" fill-rule="evenodd"></path><path stroke="#000000" stroke-width="1.0" stroke-linejoin="round" stroke-linecap="butt" d="m14.853019 144.71391l0 0c0 -72.36235 58.66127 -131.02362 131.02364 -131.02362l0 0c34.74962 0 68.07599 13.804235 92.64769 38.37593c24.571701 24.571697 38.37593 57.898067 38.37593 92.64769l0 0c0 72.36235 -58.661285 131.0236 -131.02362 131.0236l0 0c-72.36236 0 -131.02364 -58.661255 -131.02364 -131.0236z" fill-rule="evenodd"></path><path fill="#000000" d="m78.24239 90.3139l0 -19.328125l3.859375 0l4.5625 13.6875q0.640625 1.90625 0.921875 2.859375q0.34375 -1.0625 1.03125 -3.09375l4.625 -13.453125l3.453125 0l0 19.328125l-2.46875 0l0 -16.171875l-5.625 16.171875l-2.296875 0l-5.59375 -16.453125l0 16.453125l-2.46875 0zm31.12674 -1.734375q-1.328125 1.125 -2.546875 1.59375q-1.21875 0.453125 -2.609375 0.453125q-2.3125 0 -3.5625 -1.125q-1.234375 -1.125 -1.234375 -2.875q0 -1.03125 0.46875 -1.875q0.46875 -0.859375 1.21875 -1.375q0.765625 -0.515625 1.71875 -0.78125q0.703125 -0.171875 2.109375 -0.34375q2.875 -0.34375 4.234375 -0.828125q0.015625 -0.484375 0.015625 -0.609375q0 -1.453125 -0.671875 -2.046875q-0.90625 -0.8125 -2.703125 -0.8125q-1.671875 0 -2.46875 0.59375q-0.796875 0.578125 -1.1875 2.078125l-2.3125 -0.3125q0.3125 -1.5 1.03125 -2.40625q0.734375 -0.921875 2.09375 -1.40625q1.375 -0.5 3.1875 -0.5q1.796875 0 2.90625 0.421875q1.125 0.421875 1.640625 1.0625q0.53125 0.640625 0.75 1.609375q0.125 0.609375 0.125 2.1875l0 3.171875q0 3.296875 0.140625 4.1875q0.15625 0.875 0.609375 1.671875l-2.484375 0q-0.375 -0.734375 -0.46875 -1.734375zm-0.203125 -5.296875q-1.296875 0.53125 -3.875 0.90625q-1.46875 0.203125 -2.078125 0.46875q-0.59375 0.265625 -0.9375 0.78125q-0.328125 0.5 -0.328125 1.125q0 0.9375 0.71875 1.578125q0.71875 0.625 2.109375 0.625q1.375 0 2.4375 -0.59375q1.0625 -0.609375 1.578125 -1.640625q0.375 -0.8125 0.375 -2.375l0 -0.875zm5.778061 12.421875l-0.265625 -2.21875q0.78125 0.203125 1.359375 0.203125q0.796875 0 1.265625 -0.265625q0.484375 -0.265625 0.78125 -0.734375q0.21875 -0.359375 0.71875 -1.765625q0.078125 -0.203125 0.21875 -0.578125l-5.3125 -14.03125l2.5625 0l2.90625 8.109375q0.5625 1.546875 1.015625 3.234375q0.40625 -1.625 0.96875 -3.1875l3.0 -8.15625l2.375 0l-5.328125 14.234375q-0.859375 2.3125 -1.328125 3.1875q-0.640625 1.171875 -1.453125 1.71875q-0.8125 0.546875 -1.953125 0.546875q-0.6875 0 -1.53125 -0.296875zm12.546875 -12.390625q0 -3.890625 2.1718674 -5.765625q1.796875 -1.546875 4.40625 -1.546875q2.875 0 4.703125 1.890625q1.84375 1.890625 1.84375 5.21875q0 2.703125 -0.8125 4.265625q-0.8125 1.546875 -2.359375 2.40625q-1.546875 0.84375 -3.375 0.84375q-2.953125 0 -4.765625 -1.875q-1.8124924 -1.890625 -1.8124924 -5.4375zm2.4374924 0q0 2.6875 1.171875 4.03125q1.1875 1.328125 2.96875 1.328125q1.765625 0 2.9375 -1.34375q1.171875 -1.34375 1.171875 -4.09375q0 -2.59375 -1.1875 -3.9375q-1.171875 -1.34375 -2.921875 -1.34375q-1.78125 0 -2.96875 1.34375q-1.171875 1.328125 -1.171875 4.015625zm13.246811 7.0l0 -14.0l2.140625 0l0 2.125q0.8125 -1.5 1.5 -1.96875q0.703125 -0.46875 1.53125 -0.46875q1.203125 0 2.4375 0.765625l-0.8125 2.203125q-0.875 -0.515625 -1.75 -0.515625q-0.765625 0 -1.390625 0.46875q-0.625 0.46875 -0.890625 1.296875q-0.390625 1.265625 -0.390625 2.765625l0 7.328125l-2.375 0zm18.486115 -4.515625l2.453125 0.3125q-0.578125 2.140625 -2.15625 3.328125q-1.5625 1.1875 -4.0 1.1875q-3.0625 0 -4.875 -1.890625q-1.796875 -1.890625 -1.796875 -5.296875q0 -3.546875 1.8125 -5.484375q1.828125 -1.953125 4.734375 -1.953125q2.8125 0 4.578125 1.90625q1.78125 1.90625 1.78125 5.375q0 0.21875 -0.015625 0.640625l-10.4375 0q0.140625 2.296875 1.3125 3.53125q1.171875 1.21875 2.921875 1.21875q1.3125 0 2.234375 -0.671875q0.921875 -0.6875 1.453125 -2.203125zm-7.78125 -3.828125l7.8125 0q-0.15625 -1.765625 -0.890625 -2.65625q-1.140625 -1.359375 -2.953125 -1.359375q-1.625 0 -2.75 1.09375q-1.109375 1.09375 -1.21875 2.921875zm12.074936 4.171875l2.34375 -0.375q0.203125 1.40625 1.109375 2.15625q0.90625 0.75 2.515625 0.75q1.640625 0 2.421875 -0.65625q0.796875 -0.671875 0.796875 -1.5625q0 -0.8125 -0.6875 -1.265625q-0.5 -0.3125 -2.4375 -0.8125q-2.609375 -0.65625 -3.625 -1.125q-1.0 -0.484375 -1.53125 -1.328125q-0.515625 -0.859375 -0.515625 -1.890625q0 -0.9375 0.421875 -1.734375q0.4375 -0.796875 1.1875 -1.328125q0.546875 -0.40625 1.5 -0.6875q0.953125 -0.28125 2.046875 -0.28125q1.65625 0 2.890625 0.46875q1.25 0.46875 1.84375 1.28125q0.59375 0.8125 0.828125 2.171875l-2.328125 0.3125q-0.15625 -1.078125 -0.921875 -1.671875q-0.75 -0.609375 -2.140625 -0.609375q-1.625 0 -2.328125 0.546875q-0.703125 0.53125 -0.703125 1.25q0 0.46875 0.296875 0.828125q0.28125 0.390625 0.90625 0.640625q0.359375 0.125 2.09375 0.609375q2.515625 0.671875 3.515625 1.09375q1.0 0.421875 1.5625 1.25q0.5625 0.8125 0.5625 2.03125q0 1.1875 -0.6875 2.234375q-0.6875 1.046875 -2.0 1.625q-1.296875 0.5625 -2.953125 0.5625q-2.71875 0 -4.15625 -1.125q-1.4375 -1.140625 -1.828125 -3.359375zm30.765335 4.171875l0 -1.765625q-1.328125 2.078125 -3.90625 2.078125q-1.671875 0 -3.078125 -0.921875q-1.40625 -0.921875 -2.1875 -2.578125q-0.765625 -1.65625 -0.765625 -3.796875q0 -2.09375 0.703125 -3.796875q0.703125 -1.71875 2.09375 -2.625q1.390625 -0.90625 3.125 -0.90625q1.265625 0 2.25 0.53125q0.984375 0.53125 1.609375 1.390625l0 -6.9375l2.359375 0l0 19.328125l-2.203125 0zm-7.5 -6.984375q0 2.6875 1.125 4.015625q1.140625 1.328125 2.6875 1.328125q1.5625 0 2.640625 -1.265625q1.09375 -1.265625 1.09375 -3.890625q0 -2.859375 -1.109375 -4.203125q-1.109375 -1.359375 -2.734375 -1.359375q-1.578125 0 -2.640625 1.296875q-1.0625 1.296875 -1.0625 4.078125zm22.824936 2.46875l2.453125 0.3125q-0.578125 2.140625 -2.15625 3.328125q-1.5625 1.1875 -4.0 1.1875q-3.0625 0 -4.875 -1.890625q-1.796875 -1.890625 -1.796875 -5.296875q0 -3.546875 1.8125 -5.484375q1.828125 -1.953125 4.734375 -1.953125q2.8125 0 4.578125 1.90625q1.78125 1.90625 1.78125 5.375q0 0.21875 -0.015625 0.640625l-10.4375 0q0.140625 2.296875 1.3125 3.53125q1.171875 1.21875 2.921875 1.21875q1.3125 0 2.234375 -0.671875q0.921875 -0.6875 1.453125 -2.203125zm-7.78125 -3.828125l7.8125 0q-0.15625 -1.765625 -0.890625 -2.65625q-1.140625 -1.359375 -2.953125 -1.359375q-1.625 0 -2.75 1.09375q-1.109375 1.09375 -1.21875 2.921875z" fill-rule="nonzero"></path><path fill="#000000" d="m81.989655 122.3139l0 -4.625l-8.390625 0l0 -2.171875l8.8125 -12.53125l1.9375 0l0 12.53125l2.625 0l0 2.171875l-2.625 0l0 4.625l-2.359375 0zm0 -6.796875l0 -8.71875l-6.0625 8.71875l6.0625 0zm10.856186 -3.6875q-1.46875 -0.53125 -2.1875 -1.53125q-0.703125 -1.015625 -0.703125 -2.40625q0 -2.109375 1.515625 -3.546875q1.515625 -1.4375 4.03125 -1.4375q2.53125 0 4.0625 1.46875q1.546875 1.46875 1.546875 3.578125q0 1.34375 -0.703125 2.34375q-0.703125 1.0 -2.140625 1.53125q1.78125 0.578125 2.703125 1.875q0.9375 1.296875 0.9375 3.078125q0 2.484375 -1.75 4.171875q-1.75 1.6875 -4.609375 1.6875q-2.875 0 -4.625 -1.6875q-1.75 -1.703125 -1.75 -4.234375q0 -1.875 0.953125 -3.140625q0.953125 -1.28125 2.71875 -1.75zm-0.46875 -4.015625q0 1.375 0.875 2.25q0.890625 0.859375 2.296875 0.859375q1.375 0 2.25 -0.859375q0.875 -0.875 0.875 -2.125q0 -1.296875 -0.90625 -2.1875q-0.890625 -0.890625 -2.234375 -0.890625q-1.359375 0 -2.265625 0.875q-0.890625 0.859375 -0.890625 2.078125zm-0.765625 8.921875q0 1.015625 0.484375 1.96875q0.484375 0.953125 1.421875 1.46875q0.953125 0.515625 2.046875 0.515625q1.703125 0 2.8125 -1.09375q1.109375 -1.09375 1.109375 -2.78125q0 -1.71875 -1.140625 -2.828125q-1.140625 -1.125 -2.859375 -1.125q-1.671875 0 -2.78125 1.109375q-1.09375 1.109375 -1.09375 2.765625zm29.621521 3.84375q-1.328125 1.125 -2.546875 1.59375q-1.21875 0.453125 -2.609375 0.453125q-2.3125 0 -3.5625 -1.125q-1.234375 -1.125 -1.234375 -2.875q0 -1.03125 0.46875 -1.875q0.46875 -0.859375 1.21875 -1.375q0.765625 -0.515625 1.71875 -0.78125q0.703125 -0.171875 2.109375 -0.34375q2.875 -0.34375 4.234375 -0.828125q0.015625 -0.484375 0.015625 -0.609375q0 -1.453125 -0.671875 -2.046875q-0.90625 -0.8125 -2.703125 -0.8125q-1.671875 0 -2.46875 0.59375q-0.796875 0.578125 -1.1875 2.078125l-2.3125 -0.3125q0.3125 -1.5 1.03125 -2.40625q0.734375 -0.921875 2.09375 -1.40625q1.375 -0.5 3.1875 -0.5q1.796875 0 2.90625 0.421875q1.125 0.421875 1.640625 1.0625q0.53125 0.640625 0.75 1.609375q0.125 0.609375 0.125 2.1875l0 3.171875q0 3.296875 0.140625 4.1875q0.15625 0.875 0.609375 1.671875l-2.484375 0q-0.375 -0.734375 -0.46875 -1.734375zm-0.203125 -5.296875q-1.296875 0.53125 -3.875 0.90625q-1.46875 0.203125 -2.078125 0.46875q-0.59375 0.265625 -0.9375 0.78125q-0.328125 0.5 -0.328125 1.125q0 0.9375 0.71875 1.578125q0.71875 0.625 2.109375 0.625q1.375 0 2.4375 -0.59375q1.0625 -0.609375 1.578125 -1.640625q0.375 -0.8125 0.375 -2.375l0 -0.875zm5.887436 7.03125l0 -14.0l2.140625 0l0 1.984375q1.53125 -2.296875 4.453125 -2.296875q1.265625 0 2.328125 0.453125q1.0625 0.453125 1.578125 1.1875q0.53125 0.734375 0.75 1.75q0.125 0.671875 0.125 2.3125l0 8.609375l-2.375 0l0 -8.515625q0 -1.453125 -0.28125 -2.171875q-0.265625 -0.71875 -0.984375 -1.140625q-0.703125 -0.4375 -1.640625 -0.4375q-1.515625 0 -2.625 0.96875q-1.09375 0.953125 -1.09375 3.65625l0 7.640625l-2.375 0zm1.3125 -16.078125q-0.015625 -1.359375 0.75 -2.1875q0.75 -0.8125 1.921875 -0.8125q0.828125 0 2.234375 0.71875q0.78125 0.390625 1.234375 0.390625q0.421875 0 0.640625 -0.234375q0.234375 -0.234375 0.328125 -0.90625l1.703125 0q-0.03125 1.5 -0.75 2.25q-0.71875 0.75 -1.828125 0.75q-0.828125 0 -2.1875 -0.734375q-0.890625 -0.484375 -1.296875 -0.484375q-0.4375 0 -0.71875 0.328125q-0.296875 0.3125 -0.28125 0.921875l-1.75 0zm12.621811 9.078125q0 -3.890625 2.171875 -5.765625q1.796875 -1.546875 4.40625 -1.546875q2.875 0 4.703125 1.890625q1.84375 1.890625 1.84375 5.21875q0 2.703125 -0.8125 4.265625q-0.8125 1.546875 -2.359375 2.40625q-1.546875 0.84375 -3.375 0.84375q-2.953125 0 -4.765625 -1.875q-1.8125 -1.890625 -1.8125 -5.4375zm2.4375 0q0 2.6875 1.171875 4.03125q1.1875 1.328125 2.96875 1.328125q1.765625 0 2.9375 -1.34375q1.171875 -1.34375 1.171875 -4.09375q0 -2.59375 -1.1875 -3.9375q-1.171875 -1.34375 -2.921875 -1.34375q-1.78125 0 -2.96875 1.34375q-1.171875 1.328125 -1.171875 4.015625zm12.324936 2.828125l2.34375 -0.375q0.203125 1.40625 1.109375 2.15625q0.90625 0.75 2.515625 0.75q1.640625 0 2.421875 -0.65625q0.796875 -0.671875 0.796875 -1.5625q0 -0.8125 -0.6875 -1.265625q-0.5 -0.3125 -2.4375 -0.8125q-2.609375 -0.65625 -3.625 -1.125q-1.0 -0.484375 -1.53125 -1.328125q-0.515625 -0.859375 -0.515625 -1.890625q0 -0.9375 0.421875 -1.734375q0.4375 -0.796875 1.1875 -1.328125q0.546875 -0.40625 1.5 -0.6875q0.953125 -0.28125 2.046875 -0.28125q1.65625 0 2.890625 0.46875q1.25 0.46875 1.84375 1.28125q0.59375 0.8125 0.828125 2.171875l-2.328125 0.3125q-0.15625 -1.078125 -0.921875 -1.671875q-0.75 -0.609375 -2.140625 -0.609375q-1.625 0 -2.328125 0.546875q-0.703125 0.53125 -0.703125 1.25q0 0.46875 0.296875 0.828125q0.28125 0.390625 0.90625 0.640625q0.359375 0.125 2.09375 0.609375q2.515625 0.671875 3.515625 1.09375q1.0 0.421875 1.5625 1.25q0.5625 0.8125 0.5625 2.03125q0 1.1875 -0.6875 2.234375q-0.6875 1.046875 -2.0 1.625q-1.296875 0.5625 -2.953125 0.5625q-2.71875 0 -4.15625 -1.125q-1.4375 -1.140625 -1.828125 -3.359375zm30.82782 -0.953125l2.328125 0.296875q-0.375 2.421875 -1.953125 3.78125q-1.578125 1.359375 -3.875 1.359375q-2.8749847 0 -4.6249847 -1.875q-1.734375 -1.875 -1.734375 -5.390625q0 -2.265625 0.75 -3.953125q0.75 -1.703125 2.28125 -2.546875q1.53125 -0.859375 3.3437347 -0.859375q2.28125 0 3.71875 1.15625q1.453125 1.140625 1.875 3.265625l-2.3125 0.359375q-0.328125 -1.40625 -1.171875 -2.109375q-0.828125 -0.71875 -2.015625 -0.71875q-1.796875 0 -2.9218597 1.28125q-1.109375 1.28125 -1.109375 4.0625q0 2.828125 1.078125 4.109375q1.078125 1.265625 2.8124847 1.265625q1.40625 0 2.34375 -0.84375q0.9375 -0.859375 1.1875 -2.640625zm3.296875 -1.875q0 -3.890625 2.171875 -5.765625q1.796875 -1.546875 4.40625 -1.546875q2.875 0 4.703125 1.890625q1.84375 1.890625 1.84375 5.21875q0 2.703125 -0.8125 4.265625q-0.8125 1.546875 -2.359375 2.40625q-1.546875 0.84375 -3.375 0.84375q-2.953125 0 -4.765625 -1.875q-1.8125 -1.890625 -1.8125 -5.4375zm2.4375 0q0 2.6875 1.171875 4.03125q1.1875 1.328125 2.96875 1.328125q1.765625 0 2.9375 -1.34375q1.171875 -1.34375 1.171875 -4.09375q0 -2.59375 -1.1875 -3.9375q-1.171875 -1.34375 -2.921875 -1.34375q-1.78125 0 -2.96875 1.34375q-1.171875 1.328125 -1.171875 4.015625zm13.278076 7.0l0 -14.0l2.140625 0l0 1.984375q1.53125 -2.296875 4.453125 -2.296875q1.265625 0 2.328125 0.453125q1.0625 0.453125 1.578125 1.1875q0.53125 0.734375 0.75 1.75q0.125 0.671875 0.125 2.3125l0 8.609375l-2.375 0l0 -8.515625q0 -1.453125 -0.28125 -2.171875q-0.265625 -0.71875 -0.984375 -1.140625q-0.703125 -0.4375 -1.640625 -0.4375q-1.515625 0 -2.625 0.96875q-1.09375 0.953125 -1.09375 3.65625l0 7.640625l-2.375 0z" fill-rule="nonzero"></path><path fill="#000000" d="m76.72749 154.3139l-5.328125 -14.0l2.5 0l3.015625 8.390625q0.484375 1.34375 0.890625 2.8125q0.3125 -1.109375 0.890625 -2.65625l3.109375 -8.546875l2.4375 0l-5.296875 14.0l-2.21875 0zm18.578125 -1.734375q-1.328125 1.125 -2.546875 1.59375q-1.21875 0.453125 -2.609375 0.453125q-2.3125 0 -3.5625 -1.125q-1.234375 -1.125 -1.234375 -2.875q0 -1.03125 0.46875 -1.875q0.46875 -0.859375 1.21875 -1.375q0.765625 -0.515625 1.71875 -0.78125q0.703125 -0.171875 2.109375 -0.34375q2.875 -0.34375 4.234375 -0.828125q0.015625 -0.484375 0.015625 -0.609375q0 -1.453125 -0.671875 -2.046875q-0.90625 -0.8125 -2.703125 -0.8125q-1.671875 0 -2.46875 0.59375q-0.796875 0.578125 -1.1875 2.078125l-2.3125 -0.3125q0.3125 -1.5 1.03125 -2.40625q0.734375 -0.921875 2.09375 -1.40625q1.375 -0.5 3.1875 -0.5q1.796875 0 2.90625 0.421875q1.125 0.421875 1.640625 1.0625q0.53125 0.640625 0.75 1.609375q0.125 0.609375 0.125 2.1875l0 3.171875q0 3.296875 0.140625 4.1875q0.15625 0.875 0.609375 1.671875l-2.484375 0q-0.375 -0.734375 -0.46875 -1.734375zm-0.203125 -5.296875q-1.296875 0.53125 -3.875 0.90625q-1.46875 0.203125 -2.078125 0.46875q-0.59375 0.265625 -0.9375 0.78125q-0.328125 0.5 -0.328125 1.125q0 0.9375 0.71875 1.578125q0.71875 0.625 2.109375 0.625q1.375 0 2.4375 -0.59375q1.0625 -0.609375 1.578125 -1.640625q0.375 -0.8125 0.375 -2.375l0 -0.875zm5.840561 7.03125l0 -19.328125l2.359375 0l0 19.328125l-2.359375 0zm5.078415 -7.0q0 -3.890625 2.171875 -5.765625q1.796875 -1.546875 4.40625 -1.546875q2.875 0 4.703125 1.890625q1.84375 1.890625 1.84375 5.21875q0 2.703125 -0.8125 4.265625q-0.8125 1.546875 -2.359375 2.40625q-1.546875 0.84375 -3.375 0.84375q-2.953125 0 -4.765625 -1.875q-1.8125 -1.890625 -1.8125 -5.4375zm2.4375 0q0 2.6875 1.171875 4.03125q1.1875 1.328125 2.96875 1.328125q1.765625 0 2.9375 -1.34375q1.171875 -1.34375 1.171875 -4.09375q0 -2.59375 -1.1875 -3.9375q-1.171875 -1.34375 -2.921875 -1.34375q-1.78125 0 -2.96875 1.34375q-1.171875 1.328125 -1.171875 4.015625zm13.246811 7.0l0 -14.0l2.140625 0l0 2.125q0.8125 -1.5 1.5 -1.96875q0.703125 -0.46875 1.53125 -0.46875q1.203125 0 2.4375 0.765625l-0.8125 2.203125q-0.875 -0.515625 -1.75 -0.515625q-0.765625 0 -1.390625 0.46875q-0.625 0.46875 -0.890625 1.296875q-0.390625 1.265625 -0.390625 2.765625l0 7.328125l-2.375 0zm18.486115 -4.515625l2.453125 0.3125q-0.578125 2.140625 -2.15625 3.328125q-1.5625 1.1875 -4.0 1.1875q-3.0625 0 -4.875 -1.890625q-1.796875 -1.890625 -1.796875 -5.296875q0 -3.546875 1.8125 -5.484375q1.828125 -1.953125 4.734375 -1.953125q2.8125 0 4.578125 1.90625q1.78125 1.90625 1.78125 5.375q0 0.21875 -0.015625 0.640625l-10.4375 0q0.140625 2.296875 1.3125 3.53125q1.171875 1.21875 2.921875 1.21875q1.3125 0 2.234375 -0.671875q0.921875 -0.6875 1.453125 -2.203125zm-7.78125 -3.828125l7.8125 0q-0.15625 -1.765625 -0.890625 -2.65625q-1.140625 -1.359375 -2.953125 -1.359375q-1.625 0 -2.75 1.09375q-1.109375 1.09375 -1.21875 2.921875zm12.074936 4.171875l2.34375 -0.375q0.203125 1.40625 1.109375 2.15625q0.90625 0.75 2.515625 0.75q1.640625 0 2.421875 -0.65625q0.796875 -0.671875 0.796875 -1.5625q0 -0.8125 -0.6875 -1.265625q-0.5 -0.3125 -2.4375 -0.8125q-2.609375 -0.65625 -3.625 -1.125q-1.0 -0.484375 -1.53125 -1.328125q-0.515625 -0.859375 -0.515625 -1.890625q0 -0.9375 0.421875 -1.734375q0.4375 -0.796875 1.1875 -1.328125q0.546875 -0.40625 1.5 -0.6875q0.953125 -0.28125 2.046875 -0.28125q1.65625 0 2.890625 0.46875q1.25 0.46875 1.84375 1.28125q0.59375 0.8125 0.828125 2.171875l-2.328125 0.3125q-0.15625 -1.078125 -0.921875 -1.671875q-0.75 -0.609375 -2.140625 -0.609375q-1.625 0 -2.328125 0.546875q-0.703125 0.53125 -0.703125 1.25q0 0.46875 0.296875 0.828125q0.28125 0.390625 0.90625 0.640625q0.359375 0.125 2.09375 0.609375q2.515625 0.671875 3.515625 1.09375q1.0 0.421875 1.5625 1.25q0.5625 0.8125 0.5625 2.03125q0 1.1875 -0.6875 2.234375q-0.6875 1.046875 -2.0 1.625q-1.296875 0.5625 -2.953125 0.5625q-2.71875 0 -4.15625 -1.125q-1.4375 -1.140625 -1.828125 -3.359375zm30.827835 2.4375q-1.328125 1.125 -2.546875 1.59375q-1.21875 0.453125 -2.609375 0.453125q-2.3125 0 -3.5625 -1.125q-1.234375 -1.125 -1.234375 -2.875q0 -1.03125 0.46875 -1.875q0.46875 -0.859375 1.21875 -1.375q0.765625 -0.515625 1.71875 -0.78125q0.703125 -0.171875 2.109375 -0.34375q2.875 -0.34375 4.234375 -0.828125q0.015625 -0.484375 0.015625 -0.609375q0 -1.453125 -0.671875 -2.046875q-0.90625 -0.8125 -2.703125 -0.8125q-1.671875 0 -2.46875 0.59375q-0.796875 0.578125 -1.1875 2.078125l-2.3125 -0.3125q0.3125 -1.5 1.03125 -2.40625q0.734375 -0.921875 2.09375 -1.40625q1.375 -0.5 3.1875 -0.5q1.796875 0 2.90625 0.421875q1.125 0.421875 1.640625 1.0625q0.53125 0.640625 0.75 1.609375q0.125 0.609375 0.125 2.1875l0 3.171875q0 3.296875 0.140625 4.1875q0.15625 0.875 0.609375 1.671875l-2.484375 0q-0.375 -0.734375 -0.46875 -1.734375zm-0.203125 -5.296875q-1.296875 0.53125 -3.875 0.90625q-1.46875 0.203125 -2.078125 0.46875q-0.59375 0.265625 -0.9375 0.78125q-0.328125 0.5 -0.328125 1.125q0 0.9375 0.71875 1.578125q0.71875 0.625 2.109375 0.625q1.375 0 2.4375 -0.59375q1.0625 -0.609375 1.578125 -1.640625q0.375 -0.8125 0.375 -2.375l0 -0.875zm5.840561 7.03125l0 -19.328125l2.3593597 0l0 19.328125l-2.3593597 0zm11.15654 -2.125l0.328125 2.09375q-1.0 0.21875 -1.78125 0.21875q-1.296875 0 -2.015625 -0.40625q-0.703125 -0.421875 -1.0 -1.078125q-0.28125 -0.671875 -0.28125 -2.796875l0 -8.0625l-1.75 0l0 -1.84375l1.75 0l0 -3.46875l2.359375 -1.421875l0 4.890625l2.390625 0l0 1.84375l-2.390625 0l0 8.1875q0 1.015625 0.125 1.3125q0.125 0.28125 0.40625 0.453125q0.28125 0.171875 0.8125 0.171875q0.390625 0 1.046875 -0.09375zm1.3278198 -4.875q0 -3.890625 2.171875 -5.765625q1.796875 -1.546875 4.40625 -1.546875q2.875 0 4.703125 1.890625q1.84375 1.890625 1.84375 5.21875q0 2.703125 -0.8125 4.265625q-0.8125 1.546875 -2.359375 2.40625q-1.546875 0.84375 -3.375 0.84375q-2.953125 0 -4.765625 -1.875q-1.8125 -1.890625 -1.8125 -5.4375zm2.4375 0q0 2.6875 1.171875 4.03125q1.1875 1.328125 2.96875 1.328125q1.765625 0 2.9375 -1.34375q1.171875 -1.34375 1.171875 -4.09375q0 -2.59375 -1.1875 -3.9375q-1.171875 -1.34375 -2.921875 -1.34375q-1.78125 0 -2.96875 1.34375q-1.171875 1.328125 -1.171875 4.015625zm12.324951 2.828125l2.34375 -0.375q0.203125 1.40625 1.109375 2.15625q0.90625 0.75 2.515625 0.75q1.640625 0 2.421875 -0.65625q0.796875 -0.671875 0.796875 -1.5625q0 -0.8125 -0.6875 -1.265625q-0.5 -0.3125 -2.4375 -0.8125q-2.609375 -0.65625 -3.625 -1.125q-1.0 -0.484375 -1.53125 -1.328125q-0.515625 -0.859375 -0.515625 -1.890625q0 -0.9375 0.421875 -1.734375q0.4375 -0.796875 1.1875 -1.328125q0.546875 -0.40625 1.5 -0.6875q0.953125 -0.28125 2.046875 -0.28125q1.65625 0 2.890625 0.46875q1.25 0.46875 1.84375 1.28125q0.59375 0.8125 0.828125 2.171875l-2.328125 0.3125q-0.15625 -1.078125 -0.921875 -1.671875q-0.75 -0.609375 -2.140625 -0.609375q-1.625 0 -2.328125 0.546875q-0.703125 0.53125 -0.703125 1.25q0 0.46875 0.296875 0.828125q0.28125 0.390625 0.90625 0.640625q0.359375 0.125 2.09375 0.609375q2.515625 0.671875 3.515625 1.09375q1.0 0.421875 1.5625 1.25q0.5625 0.8125 0.5625 2.03125q0 1.1875 -0.6875 2.234375q-0.6875 1.046875 -2.0 1.625q-1.296875 0.5625 -2.953125 0.5625q-2.71875 0 -4.15625 -1.125q-1.4375 -1.140625 -1.828125 -3.359375z" fill-rule="nonzero"></path><path fill="#000000" d="m128.33455 181.79828l2.453125 0.3125q-0.578125 2.140625 -2.15625 3.328125q-1.5625 1.1875 -4.0 1.1875q-3.0625 0 -4.875 -1.890625q-1.796875 -1.890625 -1.796875 -5.296875q0 -3.546875 1.8125 -5.484375q1.828125 -1.953125 4.734375 -1.953125q2.8125 0 4.578125 1.90625q1.78125 1.90625 1.78125 5.375q0 0.21875 -0.015625 0.640625l-10.4375 0q0.140625 2.296875 1.3125 3.53125q1.171875 1.21875 2.921875 1.21875q1.3125 0 2.234375 -0.671875q0.921875 -0.6875 1.453125 -2.203125zm-7.78125 -3.828125l7.8125 0q-0.15625 -1.765625 -0.890625 -2.65625q-1.140625 -1.359375 -2.953125 -1.359375q-1.625 0 -2.75 1.09375q-1.109375 1.09375 -1.21875 2.921875zm13.028061 8.34375l0 -14.0l2.140625 0l0 1.984375q1.53125 -2.296875 4.453125 -2.296875q1.265625 0 2.328125 0.453125q1.0625 0.453125 1.578125 1.1875q0.53125 0.734375 0.75 1.75q0.125 0.671875 0.125 2.3125l0 8.609375l-2.375 0l0 -8.515625q0 -1.453125 -0.28125 -2.171875q-0.265625 -0.71875 -0.984375 -1.140625q-0.703125 -0.4375 -1.640625 -0.4375q-1.515625 0 -2.625 0.96875q-1.09375 0.953125 -1.09375 3.65625l0 7.640625l-2.375 0zm22.184021 0l0 -19.328125l2.359375 0l0 19.328125l-2.359375 0zm15.109665 -1.734375q-1.328125 1.125 -2.546875 1.59375q-1.21875 0.453125 -2.609375 0.453125q-2.3125 0 -3.5625 -1.125q-1.234375 -1.125 -1.234375 -2.875q0 -1.03125 0.46875 -1.875q0.46875 -0.859375 1.21875 -1.375q0.765625 -0.515625 1.71875 -0.78125q0.703125 -0.171875 2.109375 -0.34375q2.875 -0.34375 4.234375 -0.828125q0.015625 -0.484375 0.015625 -0.609375q0 -1.453125 -0.671875 -2.046875q-0.90625 -0.8125 -2.703125 -0.8125q-1.671875 0 -2.46875 0.59375q-0.796875 0.578125 -1.1875 2.078125l-2.3125 -0.3125q0.3125 -1.5 1.03125 -2.40625q0.734375 -0.921875 2.09375 -1.40625q1.375 -0.5 3.1875 -0.5q1.796875 0 2.90625 0.421875q1.125 0.421875 1.640625 1.0625q0.53125 0.640625 0.75 1.609375q0.125 0.609375 0.125 2.1875l0 3.171875q0 3.296875 0.140625 4.1875q0.15625 0.875 0.609375 1.671875l-2.484375 0q-0.375 -0.734375 -0.46875 -1.734375zm-0.203125 -5.296875q-1.296875 0.53125 -3.875 0.90625q-1.46875 0.203125 -2.078125 0.46875q-0.59375 0.265625 -0.9375 0.78125q-0.328125 0.5 -0.328125 1.125q0 0.9375 0.71875 1.578125q0.71875 0.625 2.109375 0.625q1.375 0 2.4375 -0.59375q1.0625 -0.609375 1.578125 -1.640625q0.375 -0.8125 0.375 -2.375l0 -0.875z" fill-rule="nonzero"></path><path fill="#000000" d="m83.926285 223.67328l0 -19.359375l2.15625 0l0 1.8125q0.765625 -1.0625 1.71875 -1.59375q0.96875 -0.53125 2.34375 -0.53125q1.796875 0 3.15625 0.921875q1.375 0.921875 2.078125 2.609375q0.703125 1.671875 0.703125 3.671875q0 2.15625 -0.78125 3.875q-0.765625 1.71875 -2.234375 2.640625q-1.46875 0.90625 -3.09375 0.90625q-1.1875 0 -2.125 -0.5q-0.9375 -0.5 -1.546875 -1.265625l0 6.8125l-2.375 0zm2.140625 -12.28125q0 2.703125 1.09375 4.0q1.109375 1.28125 2.65625 1.28125q1.578125 0 2.703125 -1.328125q1.140625 -1.34375 1.140625 -4.15625q0 -2.671875 -1.109375 -4.0q-1.09375 -1.328125 -2.625 -1.328125q-1.515625 0 -2.6875 1.421875q-1.171875 1.40625 -1.171875 4.109375zm12.653061 6.921875l0 -14.0l2.140625 0l0 2.125q0.8125 -1.5 1.5 -1.96875q0.703125 -0.46875 1.53125 -0.46875q1.203125 0 2.4375 0.765625l-0.8125 2.203125q-0.875 -0.515625 -1.75 -0.515625q-0.765625 0 -1.390625 0.46875q-0.625 0.46875 -0.890625 1.296875q-0.390625 1.265625 -0.390625 2.765625l0 7.328125l-2.375 0zm18.486115 -4.515625l2.453125 0.3125q-0.578125 2.140625 -2.15625 3.328125q-1.5625 1.1875 -4.0 1.1875q-3.0625 0 -4.875 -1.890625q-1.796875 -1.890625 -1.796875 -5.296875q0 -3.546875 1.8125 -5.484375q1.828125 -1.953125 4.734375 -1.953125q2.8125 0 4.578125 1.90625q1.78125 1.90625 1.78125 5.375q0 0.21875 -0.015625 0.640625l-10.4375 0q0.140625 2.296875 1.3125 3.53125q1.171875 1.21875 2.921875 1.21875q1.3125 0 2.234375 -0.671875q0.921875 -0.6875 1.453125 -2.203125zm-7.78125 -3.828125l7.8125 0q-0.15625 -1.765625 -0.890625 -2.65625q-1.140625 -1.359375 -2.953125 -1.359375q-1.625 0 -2.75 1.09375q-1.109375 1.09375 -1.21875 2.921875zm12.590561 9.5l2.3125 0.34375q0.140625 1.078125 0.796875 1.5625q0.890625 0.65625 2.421875 0.65625q1.640625 0 2.53125 -0.65625q0.90625 -0.65625 1.21875 -1.84375q0.1875 -0.734375 0.171875 -3.046875q-1.5625 1.828125 -3.875 1.828125q-2.890625 0 -4.46875 -2.078125q-1.578125 -2.09375 -1.578125 -5.0q0 -2.0 0.71875 -3.6875q0.734375 -1.703125 2.109375 -2.625q1.375 -0.921875 3.234375 -0.921875q2.46875 0 4.078125 2.0l0 -1.6875l2.1875 0l0 12.09375q0 3.28125 -0.671875 4.640625q-0.65625 1.359375 -2.109375 2.15625q-1.4375 0.796875 -3.546875 0.796875q-2.5 0 -4.046875 -1.140625q-1.53125 -1.125 -1.484375 -3.390625zm1.96875 -8.40625q0 2.75 1.09375 4.015625q1.09375 1.265625 2.734375 1.265625q1.640625 0 2.75 -1.25q1.109375 -1.265625 1.109375 -3.953125q0 -2.578125 -1.140625 -3.875q-1.140625 -1.3125 -2.75 -1.3125q-1.578125 0 -2.6875 1.296875q-1.109375 1.28125 -1.109375 3.8125zm22.46556 7.25l0 -2.0625q-1.625 2.375 -4.4375 2.375q-1.234375 0 -2.3125 -0.46875q-1.078125 -0.484375 -1.609375 -1.1875q-0.515625 -0.71875 -0.71875 -1.765625q-0.140625 -0.703125 -0.140625 -2.21875l0 -8.671875l2.359375 0l0 7.765625q0 1.859375 0.15625 2.5q0.21875 0.9375 0.9375 1.46875q0.734375 0.53125 1.796875 0.53125q1.078125 0 2.0 -0.546875q0.9375 -0.546875 1.328125 -1.484375q0.390625 -0.9375 0.390625 -2.734375l0 -7.5l2.375 0l0 14.0l-2.125 0zm5.653061 0l0 -14.0l2.140625 0l0 1.984375q1.53125 -2.296875 4.453125 -2.296875q1.265625 0 2.328125 0.453125q1.0625 0.453125 1.578125 1.1875q0.53125 0.734375 0.75 1.75q0.125 0.671875 0.125 2.3125l0 8.609375l-2.375 0l0 -8.515625q0 -1.453125 -0.28125 -2.171875q-0.265625 -0.71875 -0.984375 -1.140625q-0.703125 -0.4375 -1.640625 -0.4375q-1.515625 0 -2.625 0.96875q-1.09375 0.953125 -1.09375 3.65625l0 7.640625l-2.375 0zm20.012436 -2.125l0.328125 2.09375q-1.0 0.21875 -1.78125 0.21875q-1.296875 0 -2.015625 -0.40625q-0.703125 -0.421875 -1.0 -1.078125q-0.28125 -0.671875 -0.28125 -2.796875l0 -8.0625l-1.75 0l0 -1.84375l1.75 0l0 -3.46875l2.359375 -1.421875l0 4.890625l2.390625 0l0 1.84375l-2.390625 0l0 8.1875q0 1.015625 0.125 1.3125q0.125 0.28125 0.40625 0.453125q0.28125 0.171875 0.8125 0.171875q0.390625 0 1.046875 -0.09375zm11.35907 0.390625q-1.328125 1.125 -2.5468597 1.59375q-1.21875 0.453125 -2.609375 0.453125q-2.3125 0 -3.5625 -1.125q-1.234375 -1.125 -1.234375 -2.875q0 -1.03125 0.46875 -1.875q0.46875 -0.859375 1.21875 -1.375q0.765625 -0.515625 1.71875 -0.78125q0.703125 -0.171875 2.109375 -0.34375q2.8749847 -0.34375 4.2343597 -0.828125q0.015625 -0.484375 0.015625 -0.609375q0 -1.453125 -0.671875 -2.046875q-0.90625 -0.8125 -2.7031097 -0.8125q-1.671875 0 -2.46875 0.59375q-0.796875 0.578125 -1.1875 2.078125l-2.3125 -0.3125q0.3125 -1.5 1.03125 -2.40625q0.734375 -0.921875 2.09375 -1.40625q1.375 -0.5 3.1875 -0.5q1.7968597 0 2.9062347 0.421875q1.125 0.421875 1.640625 1.0625q0.53125 0.640625 0.75 1.609375q0.125 0.609375 0.125 2.1875l0 3.171875q0 3.296875 0.140625 4.1875q0.15625 0.875 0.609375 1.671875l-2.484375 0q-0.375 -0.734375 -0.46875 -1.734375zm-0.203125 -5.296875q-1.296875 0.53125 -3.8749847 0.90625q-1.46875 0.203125 -2.078125 0.46875q-0.59375 0.265625 -0.9375 0.78125q-0.328125 0.5 -0.328125 1.125q0 0.9375 0.71875 1.578125q0.71875 0.625 2.109375 0.625q1.375 0 2.4374847 -0.59375q1.0625 -0.609375 1.578125 -1.640625q0.375 -0.8125 0.375 -2.375l0 -0.875zm12.793396 -9.765625l0 -2.28125l12.515625 0l0 1.84375q-1.859375 1.96875 -3.671875 5.234375q-1.8125 3.25 -2.796875 6.6875q-0.703125 2.421875 -0.90625 5.3125l-2.4375 0q0.03125 -2.28125 0.890625 -5.5q0.859375 -3.234375 2.453125 -6.234375q1.609375 -3.0 3.421875 -5.0625l-9.46875 0z" fill-rule="nonzero"></path><path fill="#d9d2e9" d="m171.13387 411.13385l0 0c0 -104.30789 84.55824 -188.86613 188.86613 -188.86613l0 0c50.090424 0 98.12927 19.898346 133.54852 55.31761c35.41925 35.41928 55.317627 83.45813 55.317627 133.54852l0 0c0 104.30792 -84.55826 188.86615 -188.86615 188.86615l0 0c-104.30789 0 -188.86613 -84.55823 -188.86613 -188.86615z" fill-rule="evenodd"></path><path stroke="#000000" stroke-width="1.0" stroke-linejoin="round" stroke-linecap="butt" d="m171.13387 411.13385l0 0c0 -104.30789 84.55824 -188.86613 188.86613 -188.86613l0 0c50.090424 0 98.12927 19.898346 133.54852 55.31761c35.41925 35.41928 55.317627 83.45813 55.317627 133.54852l0 0c0 104.30792 -84.55826 188.86615 -188.86615 188.86615l0 0c-104.30789 0 -188.86613 -84.55823 -188.86613 -188.86615z" fill-rule="evenodd"></path><path fill="#000000" d="m260.04453 366.57385l0 -22.1875l4.421875 0l5.25 15.703125q0.734375 2.203125 1.0625 3.296875q0.375 -1.21875 1.1875 -3.5625l5.3125 -15.4375l3.953125 0l0 22.1875l-2.84375 0l0 -18.578125l-6.4375 18.578125l-2.65625 0l-6.421875 -18.890625l0 18.890625l-2.828125 0zm36.286896 -5.171875l2.8125 0.34375q-0.65625 2.46875 -2.46875 3.828125q-1.796875 1.359375 -4.59375 1.359375q-3.53125 0 -5.59375 -2.171875q-2.0625 -2.171875 -2.0625 -6.09375q0 -4.046875 2.078125 -6.28125q2.09375 -2.25 5.421875 -2.25q3.234375 0 5.265625 2.203125q2.046875 2.1875 2.046875 6.171875q0 0.234375 -0.015625 0.71875l-11.984375 0q0.15625 2.65625 1.5 4.0625q1.34375 1.40625 3.359375 1.40625q1.5 0 2.546875 -0.78125q1.0625 -0.796875 1.6875 -2.515625zm-8.9375 -4.40625l8.96875 0q-0.1875 -2.03125 -1.03125 -3.046875q-1.296875 -1.578125 -3.375 -1.578125q-1.875 0 -3.15625 1.265625q-1.28125 1.25 -1.40625 3.359375zm14.98703 9.578125l0 -16.078125l2.453125 0l0 2.28125q1.765625 -2.640625 5.109375 -2.640625q1.453125 0 2.671875 0.53125q1.21875 0.515625 1.828125 1.359375q0.609375 0.84375 0.84375 2.015625q0.15625 0.75 0.15625 2.640625l0 9.890625l-2.734375 0l0 -9.78125q0 -1.65625 -0.3125 -2.484375q-0.3125 -0.828125 -1.125 -1.3125q-0.8125 -0.5 -1.90625 -0.5q-1.734375 0 -3.0 1.109375q-1.265625 1.09375 -1.265625 4.1875l0 8.78125l-2.71875 0zm16.033936 -8.03125q0 -4.46875 2.484375 -6.625q2.0625 -1.78125 5.046875 -1.78125q3.3125 0 5.421875 2.171875q2.109375 2.171875 2.109375 6.0q0 3.109375 -0.9375 4.890625q-0.921875 1.765625 -2.703125 2.75q-1.78125 0.984375 -3.890625 0.984375q-3.375 0 -5.453125 -2.15625q-2.078125 -2.171875 -2.078125 -6.234375zm2.796875 0q0 3.078125 1.34375 4.625q1.359375 1.53125 3.390625 1.53125q2.03125 0 3.375 -1.546875q1.359375 -1.546875 1.359375 -4.703125q0 -2.984375 -1.359375 -4.515625q-1.359375 -1.546875 -3.375 -1.546875q-2.03125 0 -3.390625 1.53125q-1.34375 1.53125 -1.34375 4.625zm15.23703 8.03125l0 -16.078125l2.453125 0l0 2.4375q0.9375 -1.703125 1.734375 -2.25q0.796875 -0.546875 1.75 -0.546875q1.375 0 2.796875 0.875l-0.9375 2.53125q-1.0 -0.59375 -2.0 -0.59375q-0.890625 0 -1.609375 0.546875q-0.703125 0.53125 -1.015625 1.484375q-0.453125 1.453125 -0.453125 3.171875l0 8.421875l-2.71875 0zm21.24002 -5.171875l2.8125 0.34375q-0.65625 2.46875 -2.46875 3.828125q-1.796875 1.359375 -4.59375 1.359375q-3.53125 0 -5.59375 -2.171875q-2.0625 -2.171875 -2.0625 -6.09375q0 -4.046875 2.078125 -6.28125q2.09375 -2.25 5.421875 -2.25q3.234375 0 5.265625 2.203125q2.046875 2.1875 2.046875 6.171875q0 0.234375 -0.015625 0.71875l-11.984375 0q0.15625 2.65625 1.5 4.0625q1.34375 1.40625 3.359375 1.40625q1.5 0 2.546875 -0.78125q1.0625 -0.796875 1.6875 -2.515625zm-8.9375 -4.40625l8.96875 0q-0.1875 -2.03125 -1.03125 -3.046875q-1.296875 -1.578125 -3.375 -1.578125q-1.875 0 -3.15625 1.265625q-1.28125 1.25 -1.40625 3.359375zm13.893311 4.78125l2.6875 -0.421875q0.234375 1.609375 1.265625 2.484375q1.046875 0.859375 2.90625 0.859375q1.875 0 2.78125 -0.765625q0.90625 -0.765625 0.90625 -1.796875q0 -0.921875 -0.796875 -1.453125q-0.5625 -0.359375 -2.78125 -0.921875q-3.0 -0.75 -4.15625 -1.296875q-1.15625 -0.5625 -1.765625 -1.53125q-0.59375 -0.984375 -0.59375 -2.171875q0 -1.0625 0.484375 -1.984375q0.5 -0.921875 1.34375 -1.515625q0.640625 -0.46875 1.734375 -0.796875q1.09375 -0.328125 2.359375 -0.328125q1.890625 0 3.3125 0.546875q1.4375 0.546875 2.109375 1.484375q0.6875 0.921875 0.953125 2.484375l-2.671875 0.359375q-0.171875 -1.25 -1.046875 -1.9375q-0.875 -0.703125 -2.46875 -0.703125q-1.875 0 -2.671875 0.625q-0.796875 0.625 -0.796875 1.453125q0 0.53125 0.328125 0.953125q0.328125 0.4375 1.046875 0.734375q0.40625 0.140625 2.40625 0.6875q2.890625 0.78125 4.03125 1.265625q1.140625 0.484375 1.78125 1.4375q0.65625 0.9375 0.65625 2.328125q0 1.359375 -0.796875 2.5625q-0.78125 1.203125 -2.28125 1.859375q-1.5 0.65625 -3.390625 0.65625q-3.140625 0 -4.78125 -1.296875q-1.640625 -1.296875 -2.09375 -3.859375zm35.361023 4.796875l0 -2.03125q-1.53125 2.390625 -4.484375 2.390625q-1.921875 0 -3.546875 -1.046875q-1.609375 -1.0625 -2.5 -2.96875q-0.875 -1.90625 -0.875 -4.359375q0 -2.40625 0.796875 -4.359375q0.8125 -1.96875 2.40625 -3.015625q1.609375 -1.046875 3.59375 -1.046875q1.453125 0 2.578125 0.609375q1.140625 0.609375 1.859375 1.59375l0 -7.953125l2.703125 0l0 22.1875l-2.53125 0zm-8.609375 -8.015625q0 3.078125 1.296875 4.609375q1.3125 1.53125 3.078125 1.53125q1.78125 0 3.03125 -1.453125q1.25 -1.46875 1.25 -4.46875q0 -3.296875 -1.28125 -4.84375q-1.265625 -1.546875 -3.125 -1.546875q-1.8125 0 -3.03125 1.484375q-1.21875 1.484375 -1.21875 4.6875zm26.23706 2.84375l2.8125 0.34375q-0.65625 2.46875 -2.46875 3.828125q-1.796875 1.359375 -4.59375 1.359375q-3.53125 0 -5.59375 -2.171875q-2.0625 -2.171875 -2.0625 -6.09375q0 -4.046875 2.078125 -6.28125q2.09375 -2.25 5.421875 -2.25q3.234375 0 5.265625 2.203125q2.046875 2.1875 2.046875 6.171875q0 0.234375 -0.015625 0.71875l-11.984375 0q0.15625 2.65625 1.5 4.0625q1.34375 1.40625 3.359375 1.40625q1.5 0 2.546875 -0.78125q1.0625 -0.796875 1.6875 -2.515625zm-8.9375 -4.40625l8.96875 0q-0.1875 -2.03125 -1.03125 -3.046875q-1.296875 -1.578125 -3.375 -1.578125q-1.875 0 -3.15625 1.265625q-1.28125 1.25 -1.40625 3.359375zm22.754333 3.71875l2.734375 -0.359375q0.46875 2.3125 1.59375 3.34375q1.125 1.015625 2.75 1.015625q1.921875 0 3.234375 -1.328125q1.328125 -1.34375 1.328125 -3.3125q0 -1.875 -1.234375 -3.09375q-1.21875 -1.21875 -3.109375 -1.21875q-0.765625 0 -1.921875 0.3125l0.3125 -2.390625q0.265625 0.03125 0.4375 0.03125q1.734375 0 3.125 -0.90625q1.390625 -0.921875 1.390625 -2.8125q0 -1.5 -1.015625 -2.484375q-1.0 -0.984375 -2.609375 -0.984375q-1.59375 0 -2.65625 1.0q-1.046875 1.0 -1.359375 3.0l-2.71875 -0.484375q0.5 -2.734375 2.265625 -4.234375q1.765625 -1.515625 4.40625 -1.515625q1.8125 0 3.34375 0.78125q1.53125 0.78125 2.34375 2.125q0.8125 1.34375 0.8125 2.859375q0 1.4375 -0.78125 2.625q-0.765625 1.171875 -2.28125 1.875q1.96875 0.453125 3.046875 1.890625q1.09375 1.421875 1.09375 3.578125q0 2.90625 -2.125 4.921875q-2.109375 2.015625 -5.34375 2.015625q-2.921875 0 -4.859375 -1.734375q-1.921875 -1.75 -2.203125 -4.515625zm31.17453 -10.890625l-2.703125 0.203125q-0.359375 -1.609375 -1.03125 -2.328125q-1.109375 -1.171875 -2.71875 -1.171875q-1.3125 0 -2.296875 0.734375q-1.28125 0.9375 -2.03125 2.734375q-0.734375 1.796875 -0.765625 5.140625q0.984375 -1.5 2.40625 -2.21875q1.421875 -0.734375 2.984375 -0.734375q2.71875 0 4.625 2.0q1.921875 2.0 1.921875 5.1875q0 2.09375 -0.90625 3.890625q-0.890625 1.78125 -2.46875 2.734375q-1.5625 0.953125 -3.5625 0.953125q-3.40625 0 -5.5625 -2.5q-2.140625 -2.5 -2.140625 -8.265625q0 -6.421875 2.375 -9.34375q2.0625 -2.546875 5.578125 -2.546875q2.625 0 4.296875 1.46875q1.671875 1.46875 2.0 4.0625zm-11.125 9.5625q0 1.40625 0.59375 2.703125q0.609375 1.28125 1.671875 1.953125q1.078125 0.671875 2.265625 0.671875q1.71875 0 2.953125 -1.390625q1.25 -1.390625 1.25 -3.78125q0 -2.3125 -1.234375 -3.625q-1.21875 -1.328125 -3.078125 -1.328125q-1.84375 0 -3.140625 1.328125q-1.28125 1.3125 -1.28125 3.46875z" fill-rule="nonzero"></path><path fill="#000000" d="m256.64972 401.58948q-1.5156097 1.28125 -2.9218597 1.8125q-1.390625 0.53125 -3.0 0.53125q-2.640625 0 -4.0625 -1.28125q-1.421875 -1.296875 -1.421875 -3.3125q0 -1.1875 0.53125 -2.15625q0.53125 -0.984375 1.40625 -1.5625q0.875 -0.59375 1.96875 -0.90625q0.796875 -0.203125 2.421875 -0.40625q3.296875 -0.390625 4.8593597 -0.9375q0.015625 -0.5625 0.015625 -0.703125q0 -1.671875 -0.78123474 -2.359375q-1.046875 -0.921875 -3.09375 -0.921875q-1.921875 0 -2.84375 0.671875q-0.921875 0.671875 -1.359375 2.390625l-2.65625 -0.359375q0.359375 -1.71875 1.1875 -2.765625q0.84375 -1.046875 2.40625 -1.609375q1.578125 -0.578125 3.65625 -0.578125q2.0625 0 3.3437347 0.484375q1.28125 0.484375 1.890625 1.21875q0.609375 0.734375 0.84375 1.859375q0.140625 0.6875 0.140625 2.5l0 3.640625q0 3.796875 0.171875 4.8125q0.171875 1.0 0.6875 1.921875l-2.84375 0q-0.421875 -0.84375 -0.546875 -1.984375zm-0.21875 -6.078125q-1.4843597 0.59375 -4.4531097 1.03125q-1.6875 0.234375 -2.390625 0.546875q-0.6875 0.296875 -1.0625 0.875q-0.375 0.578125 -0.375 1.296875q0 1.09375 0.8125 1.828125q0.828125 0.71875 2.421875 0.71875q1.578125 0 2.796875 -0.6875q1.234375 -0.703125 1.8125 -1.890625q0.43748474 -0.921875 0.43748474 -2.71875l0 -1.0zm6.7839355 8.0625l0 -16.078125l2.453125 0l0 2.28125q1.765625 -2.640625 5.109375 -2.640625q1.453125 0 2.671875 0.53125q1.21875 0.515625 1.828125 1.359375q0.609375 0.84375 0.84375 2.015625q0.15625 0.75 0.15625 2.640625l0 9.890625l-2.734375 0l0 -9.78125q0 -1.65625 -0.3125 -2.484375q-0.3125 -0.828125 -1.125 -1.3125q-0.8125 -0.5 -1.90625 -0.5q-1.734375 0 -3.0 1.109375q-1.265625 1.09375 -1.265625 4.1875l0 8.78125l-2.71875 0zm2.0625 -18.453125q-0.015625 -1.578125 0.859375 -2.515625q0.859375 -0.9375 2.203125 -0.9375q0.953125 0 2.5625 0.828125q0.890625 0.453125 1.421875 0.453125q0.484375 0 0.734375 -0.265625q0.265625 -0.265625 0.375 -1.0625l1.96875 0q-0.046875 1.734375 -0.875 2.59375q-0.828125 0.859375 -2.09375 0.859375q-0.953125 0 -2.515625 -0.84375q-1.015625 -0.546875 -1.484375 -0.546875q-0.515625 0 -0.828125 0.359375q-0.328125 0.375 -0.3125 1.078125l-2.015625 0zm13.971405 10.421875q0 -4.46875 2.484375 -6.625q2.0625 -1.78125 5.046875 -1.78125q3.3125 0 5.421875 2.171875q2.109375 2.171875 2.109375 6.0q0 3.109375 -0.9375 4.890625q-0.921875 1.765625 -2.703125 2.75q-1.78125 0.984375 -3.890625 0.984375q-3.375 0 -5.453125 -2.15625q-2.078125 -2.171875 -2.078125 -6.234375zm2.796875 0q0 3.078125 1.34375 4.625q1.359375 1.53125 3.390625 1.53125q2.03125 0 3.375 -1.546875q1.359375 -1.546875 1.359375 -4.703125q0 -2.984375 -1.359375 -4.515625q-1.359375 -1.546875 -3.375 -1.546875q-2.03125 0 -3.390625 1.53125q-1.34375 1.53125 -1.34375 4.625zm14.174561 3.234375l2.6875 -0.421875q0.234375 1.609375 1.265625 2.484375q1.046875 0.859375 2.90625 0.859375q1.875 0 2.78125 -0.765625q0.90625 -0.765625 0.90625 -1.796875q0 -0.921875 -0.796875 -1.453125q-0.5625 -0.359375 -2.78125 -0.921875q-3.0 -0.75 -4.15625 -1.296875q-1.15625 -0.5625 -1.765625 -1.53125q-0.59375 -0.984375 -0.59375 -2.171875q0 -1.0625 0.484375 -1.984375q0.5 -0.921875 1.34375 -1.515625q0.640625 -0.46875 1.734375 -0.796875q1.09375 -0.328125 2.359375 -0.328125q1.890625 0 3.3125 0.546875q1.4375 0.546875 2.109375 1.484375q0.6875 0.921875 0.953125 2.484375l-2.671875 0.359375q-0.171875 -1.25 -1.046875 -1.9375q-0.875 -0.703125 -2.46875 -0.703125q-1.875 0 -2.671875 0.625q-0.796875 0.625 -0.796875 1.453125q0 0.53125 0.328125 0.953125q0.328125 0.4375 1.046875 0.734375q0.40625 0.140625 2.40625 0.6875q2.890625 0.78125 4.03125 1.265625q1.140625 0.484375 1.78125 1.4375q0.65625 0.9375 0.65625 2.328125q0 1.359375 -0.796875 2.5625q-0.78125 1.203125 -2.28125 1.859375q-1.5 0.65625 -3.390625 0.65625q-3.140625 0 -4.78125 -1.296875q-1.640625 -1.296875 -2.09375 -3.859375zm35.423523 -1.09375l2.6875 0.34375q-0.4375 2.78125 -2.25 4.34375q-1.8125 1.5625 -4.453125 1.5625q-3.296875 0 -5.296875 -2.15625q-2.0 -2.15625 -2.0 -6.1875q0 -2.59375 0.859375 -4.546875q0.859375 -1.953125 2.625 -2.921875q1.765625 -0.984375 3.828125 -0.984375q2.625 0 4.28125 1.328125q1.671875 1.3125 2.140625 3.75l-2.640625 0.421875q-0.390625 -1.625 -1.359375 -2.4375q-0.953125 -0.828125 -2.3125 -0.828125q-2.0625 0 -3.34375 1.484375q-1.28125 1.46875 -1.28125 4.671875q0 3.234375 1.234375 4.703125q1.25 1.46875 3.234375 1.46875q1.609375 0 2.6875 -0.984375q1.078125 -0.984375 1.359375 -3.03125zm3.828125 -2.140625q0 -4.46875 2.484375 -6.625q2.0625 -1.78125 5.046875 -1.78125q3.3125 0 5.421875 2.171875q2.109375 2.171875 2.109375 6.0q0 3.109375 -0.9375 4.890625q-0.921875 1.765625 -2.703125 2.75q-1.78125 0.984375 -3.890625 0.984375q-3.375 0 -5.453125 -2.15625q-2.078125 -2.171875 -2.078125 -6.234375zm2.796875 0q0 3.078125 1.34375 4.625q1.359375 1.53125 3.390625 1.53125q2.03125 0 3.375 -1.546875q1.359375 -1.546875 1.359375 -4.703125q0 -2.984375 -1.359375 -4.515625q-1.359375 -1.546875 -3.375 -1.546875q-2.03125 0 -3.390625 1.53125q-1.34375 1.53125 -1.34375 4.625zm15.268311 8.03125l0 -16.078125l2.453125 0l0 2.28125q1.765625 -2.640625 5.109375 -2.640625q1.453125 0 2.671875 0.53125q1.21875 0.515625 1.828125 1.359375q0.609375 0.84375 0.84375 2.015625q0.15625 0.75 0.15625 2.640625l0 9.890625l-2.734375 0l0 -9.78125q0 -1.65625 -0.3125 -2.484375q-0.3125 -0.828125 -1.125 -1.3125q-0.8125 -0.5 -1.90625 -0.5q-1.734375 0 -3.0 1.109375q-1.265625 1.09375 -1.265625 4.1875l0 8.78125l-2.71875 0zm30.035583 0l-6.125 -16.078125l2.875 0l3.453125 9.625q0.5625 1.5625 1.03125 3.25q0.359375 -1.28125 1.015625 -3.0625l3.578125 -9.8125l2.796875 0l-6.09375 16.078125l-2.53125 0zm21.34375 -1.984375q-1.515625 1.28125 -2.921875 1.8125q-1.390625 0.53125 -3.0 0.53125q-2.640625 0 -4.0625 -1.28125q-1.421875 -1.296875 -1.421875 -3.3125q0 -1.1875 0.53125 -2.15625q0.53125 -0.984375 1.40625 -1.5625q0.875 -0.59375 1.96875 -0.90625q0.796875 -0.203125 2.421875 -0.40625q3.296875 -0.390625 4.859375 -0.9375q0.015625 -0.5625 0.015625 -0.703125q0 -1.671875 -0.78125 -2.359375q-1.046875 -0.921875 -3.09375 -0.921875q-1.921875 0 -2.84375 0.671875q-0.921875 0.671875 -1.359375 2.390625l-2.65625 -0.359375q0.359375 -1.71875 1.1875 -2.765625q0.84375 -1.046875 2.40625 -1.609375q1.578125 -0.578125 3.65625 -0.578125q2.0625 0 3.34375 0.484375q1.28125 0.484375 1.890625 1.21875q0.609375 0.734375 0.84375 1.859375q0.140625 0.6875 0.140625 2.5l0 3.640625q0 3.796875 0.171875 4.8125q0.171875 1.0 0.6875 1.921875l-2.84375 0q-0.421875 -0.84375 -0.546875 -1.984375zm-0.21875 -6.078125q-1.484375 0.59375 -4.453125 1.03125q-1.6875 0.234375 -2.390625 0.546875q-0.6875 0.296875 -1.0625 0.875q-0.375 0.578125 -0.375 1.296875q0 1.09375 0.8125 1.828125q0.828125 0.71875 2.421875 0.71875q1.578125 0 2.796875 -0.6875q1.234375 -0.703125 1.8125 -1.890625q0.4375 -0.921875 0.4375 -2.71875l0 -1.0zm6.721405 8.0625l0 -22.1875l2.71875 0l0 22.1875l-2.71875 0zm5.857727 -8.03125q0 -4.46875 2.484375 -6.625q2.0625 -1.78125 5.046875 -1.78125q3.3125 0 5.421875 2.171875q2.109375 2.171875 2.109375 6.0q0 3.109375 -0.9375 4.890625q-0.921875 1.765625 -2.703125 2.75q-1.78125 0.984375 -3.890625 0.984375q-3.375 0 -5.453125 -2.15625q-2.078125 -2.171875 -2.078125 -6.234375zm2.796875 0q0 3.078125 1.34375 4.625q1.359375 1.53125 3.390625 1.53125q2.03125 0 3.375 -1.546875q1.359375 -1.546875 1.359375 -4.703125q0 -2.984375 -1.359375 -4.515625q-1.359375 -1.546875 -3.375 -1.546875q-2.03125 0 -3.390625 1.53125q-1.34375 1.53125 -1.34375 4.625zm15.23703 8.03125l0 -16.078125l2.453125 0l0 2.4375q0.9375 -1.703125 1.734375 -2.25q0.796875 -0.546875 1.75 -0.546875q1.375 0 2.796875 0.875l-0.9375 2.53125q-1.0 -0.59375 -2.0 -0.59375q-0.890625 0 -1.609375 0.546875q-0.703125 0.53125 -1.015625 1.484375q-0.453125 1.453125 -0.453125 3.171875l0 8.421875l-2.71875 0zm21.24002 -5.171875l2.8125 0.34375q-0.65625 2.46875 -2.46875 3.828125q-1.796875 1.359375 -4.59375 1.359375q-3.53125 0 -5.59375 -2.171875q-2.0625 -2.171875 -2.0625 -6.09375q0 -4.046875 2.078125 -6.28125q2.09375 -2.25 5.421875 -2.25q3.234375 0 5.265625 2.203125q2.046875 2.1875 2.046875 6.171875q0 0.234375 -0.015625 0.71875l-11.984375 0q0.15625 2.65625 1.5 4.0625q1.34375 1.40625 3.359375 1.40625q1.5 0 2.546875 -0.78125q1.0625 -0.796875 1.6875 -2.515625zm-8.9375 -4.40625l8.96875 0q-0.1875 -2.03125 -1.03125 -3.046875q-1.296875 -1.578125 -3.375 -1.578125q-1.875 0 -3.15625 1.265625q-1.28125 1.25 -1.40625 3.359375zm13.893311 4.78125l2.6875 -0.421875q0.234375 1.609375 1.265625 2.484375q1.046875 0.859375 2.90625 0.859375q1.875 0 2.78125 -0.765625q0.90625 -0.765625 0.90625 -1.796875q0 -0.921875 -0.796875 -1.453125q-0.5625 -0.359375 -2.78125 -0.921875q-3.0 -0.75 -4.15625 -1.296875q-1.15625 -0.5625 -1.765625 -1.53125q-0.59375 -0.984375 -0.59375 -2.171875q0 -1.0625 0.484375 -1.984375q0.5 -0.921875 1.34375 -1.515625q0.640625 -0.46875 1.734375 -0.796875q1.09375 -0.328125 2.359375 -0.328125q1.890625 0 3.3125 0.546875q1.4375 0.546875 2.109375 1.484375q0.6875 0.921875 0.953125 2.484375l-2.671875 0.359375q-0.171875 -1.25 -1.046875 -1.9375q-0.875 -0.703125 -2.46875 -0.703125q-1.875 0 -2.671875 0.625q-0.796875 0.625 -0.796875 1.453125q0 0.53125 0.328125 0.953125q0.328125 0.4375 1.046875 0.734375q0.40625 0.140625 2.40625 0.6875q2.890625 0.78125 4.03125 1.265625q1.140625 0.484375 1.78125 1.4375q0.65625 0.9375 0.65625 2.328125q0 1.359375 -0.796875 2.5625q-0.78125 1.203125 -2.28125 1.859375q-1.5 0.65625 -3.390625 0.65625q-3.140625 0 -4.78125 -1.296875q-1.640625 -1.296875 -2.09375 -3.859375z" fill-rule="nonzero"></path><path fill="#000000" d="m302.65656 438.58948q-1.515625 1.28125 -2.921875 1.8125q-1.390625 0.53125 -3.0 0.53125q-2.640625 0 -4.0625 -1.28125q-1.421875 -1.296875 -1.421875 -3.3125q0 -1.1875 0.53125 -2.15625q0.53125 -0.984375 1.40625 -1.5625q0.875 -0.59375 1.96875 -0.90625q0.796875 -0.203125 2.421875 -0.40625q3.296875 -0.390625 4.859375 -0.9375q0.015625 -0.5625 0.015625 -0.703125q0 -1.671875 -0.78125 -2.359375q-1.046875 -0.921875 -3.09375 -0.921875q-1.921875 0 -2.84375 0.671875q-0.921875 0.671875 -1.359375 2.390625l-2.65625 -0.359375q0.359375 -1.71875 1.1875 -2.765625q0.84375 -1.046875 2.40625 -1.609375q1.578125 -0.578125 3.65625 -0.578125q2.0625 0 3.34375 0.484375q1.28125 0.484375 1.890625 1.21875q0.609375 0.734375 0.84375 1.859375q0.140625 0.6875 0.140625 2.5l0 3.640625q0 3.796875 0.171875 4.8125q0.171875 1.0 0.6875 1.921875l-2.84375 0q-0.421875 -0.84375 -0.546875 -1.984375zm-0.21875 -6.078125q-1.484375 0.59375 -4.453125 1.03125q-1.6875 0.234375 -2.390625 0.546875q-0.6875 0.296875 -1.0625 0.875q-0.375 0.578125 -0.375 1.296875q0 1.09375 0.8125 1.828125q0.828125 0.71875 2.421875 0.71875q1.578125 0 2.796875 -0.6875q1.234375 -0.703125 1.8125 -1.890625q0.4375 -0.921875 0.4375 -2.71875l0 -1.0zm6.7214355 8.0625l0 -22.1875l2.71875 0l0 22.1875l-2.71875 0zm12.826447 -2.4375l0.390625 2.40625q-1.15625 0.25 -2.0625 0.25q-1.484375 0 -2.3125 -0.46875q-0.8125 -0.484375 -1.140625 -1.234375q-0.328125 -0.765625 -0.328125 -3.21875l0 -9.25l-2.0 0l0 -2.125l2.0 0l0 -3.984375l2.703125 -1.625l0 5.609375l2.75 0l0 2.125l-2.75 0l0 9.390625q0 1.171875 0.140625 1.515625q0.15625 0.328125 0.46875 0.53125q0.328125 0.1875 0.9375 0.1875q0.453125 0 1.203125 -0.109375zm1.5485535 -5.59375q0 -4.46875 2.484375 -6.625q2.0625 -1.78125 5.046875 -1.78125q3.3125 0 5.421875 2.171875q2.109375 2.171875 2.109375 6.0q0 3.109375 -0.9375 4.890625q-0.921875 1.765625 -2.703125 2.75q-1.78125 0.984375 -3.890625 0.984375q-3.375 0 -5.453125 -2.15625q-2.078125 -2.171875 -2.078125 -6.234375zm2.796875 0q0 3.078125 1.34375 4.625q1.359375 1.53125 3.390625 1.53125q2.03125 0 3.375 -1.546875q1.359375 -1.546875 1.359375 -4.703125q0 -2.984375 -1.359375 -4.515625q-1.359375 -1.546875 -3.375 -1.546875q-2.03125 0 -3.390625 1.53125q-1.34375 1.53125 -1.34375 4.625zm14.17453 3.234375l2.6875 -0.421875q0.234375 1.609375 1.265625 2.484375q1.046875 0.859375 2.90625 0.859375q1.875 0 2.78125 -0.765625q0.90625 -0.765625 0.90625 -1.796875q0 -0.921875 -0.796875 -1.453125q-0.5625 -0.359375 -2.78125 -0.921875q-3.0 -0.75 -4.15625 -1.296875q-1.15625 -0.5625 -1.765625 -1.53125q-0.59375 -0.984375 -0.59375 -2.171875q0 -1.0625 0.484375 -1.984375q0.5 -0.921875 1.34375 -1.515625q0.640625 -0.46875 1.734375 -0.796875q1.09375 -0.328125 2.359375 -0.328125q1.890625 0 3.3125 0.546875q1.4375 0.546875 2.109375 1.484375q0.6875 0.921875 0.953125 2.484375l-2.671875 0.359375q-0.171875 -1.25 -1.046875 -1.9375q-0.875 -0.703125 -2.46875 -0.703125q-1.875 0 -2.671875 0.625q-0.796875 0.625 -0.796875 1.453125q0 0.53125 0.328125 0.953125q0.328125 0.4375 1.046875 0.734375q0.40625 0.140625 2.40625 0.6875q2.890625 0.78125 4.03125 1.265625q1.140625 0.484375 1.78125 1.4375q0.65625 0.9375 0.65625 2.328125q0 1.359375 -0.796875 2.5625q-0.78125 1.203125 -2.28125 1.859375q-1.5 0.65625 -3.390625 0.65625q-3.140625 0 -4.78125 -1.296875q-1.640625 -1.296875 -2.09375 -3.859375zm35.93918 -0.375l2.8125 0.34375q-0.65625 2.46875 -2.46875 3.828125q-1.796875 1.359375 -4.59375 1.359375q-3.53125 0 -5.59375 -2.171875q-2.0625 -2.171875 -2.0625 -6.09375q0 -4.046875 2.078125 -6.28125q2.09375 -2.25 5.421875 -2.25q3.234375 0 5.265625 2.203125q2.046875 2.1875 2.046875 6.171875q0 0.234375 -0.015625 0.71875l-11.984375 0q0.15625 2.65625 1.5 4.0625q1.34375 1.40625 3.359375 1.40625q1.5 0 2.546875 -0.78125q1.0625 -0.796875 1.6875 -2.515625zm-8.9375 -4.40625l8.96875 0q-0.1875 -2.03125 -1.03125 -3.046875q-1.296875 -1.578125 -3.375 -1.578125q-1.875 0 -3.15625 1.265625q-1.28125 1.25 -1.40625 3.359375zm14.98703 9.578125l0 -16.078125l2.453125 0l0 2.28125q1.765625 -2.640625 5.109375 -2.640625q1.453125 0 2.671875 0.53125q1.21875 0.515625 1.828125 1.359375q0.609375 0.84375 0.84375 2.015625q0.15625 0.75 0.15625 2.640625l0 9.890625l-2.734375 0l0 -9.78125q0 -1.65625 -0.3125 -2.484375q-0.3125 -0.828125 -1.125 -1.3125q-0.8125 -0.5 -1.90625 -0.5q-1.734375 0 -3.0 1.109375q-1.265625 1.09375 -1.265625 4.1875l0 8.78125l-2.71875 0zm25.504333 0l0 -22.1875l2.71875 0l0 22.1875l-2.71875 0zm17.357727 -1.984375q-1.515625 1.28125 -2.921875 1.8125q-1.390625 0.53125 -3.0 0.53125q-2.640625 0 -4.0625 -1.28125q-1.421875 -1.296875 -1.421875 -3.3125q0 -1.1875 0.53125 -2.15625q0.53125 -0.984375 1.40625 -1.5625q0.875 -0.59375 1.96875 -0.90625q0.796875 -0.203125 2.421875 -0.40625q3.296875 -0.390625 4.859375 -0.9375q0.015625 -0.5625 0.015625 -0.703125q0 -1.671875 -0.78125 -2.359375q-1.046875 -0.921875 -3.09375 -0.921875q-1.921875 0 -2.84375 0.671875q-0.921875 0.671875 -1.359375 2.390625l-2.65625 -0.359375q0.359375 -1.71875 1.1875 -2.765625q0.84375 -1.046875 2.40625 -1.609375q1.578125 -0.578125 3.65625 -0.578125q2.0625 0 3.34375 0.484375q1.28125 0.484375 1.890625 1.21875q0.609375 0.734375 0.84375 1.859375q0.140625 0.6875 0.140625 2.5l0 3.640625q0 3.796875 0.171875 4.8125q0.171875 1.0 0.6875 1.921875l-2.84375 0q-0.421875 -0.84375 -0.546875 -1.984375zm-0.21875 -6.078125q-1.484375 0.59375 -4.453125 1.03125q-1.6875 0.234375 -2.390625 0.546875q-0.6875 0.296875 -1.0625 0.875q-0.375 0.578125 -0.375 1.296875q0 1.09375 0.8125 1.828125q0.828125 0.71875 2.421875 0.71875q1.578125 0 2.796875 -0.6875q1.234375 -0.703125 1.8125 -1.890625q0.4375 -0.921875 0.4375 -2.71875l0 -1.0z" fill-rule="nonzero"></path><path fill="#000000" d="m280.22702 483.7301l0 -22.234375l2.484375 0l0 2.09375q0.875 -1.234375 1.96875 -1.84375q1.109375 -0.609375 2.6875 -0.609375q2.0625 0 3.625 1.0625q1.578125 1.0625 2.375 3.0q0.8125 1.921875 0.8125 4.21875q0 2.46875 -0.890625 4.453125q-0.875 1.96875 -2.5625 3.015625q-1.6875 1.046875 -3.5625 1.046875q-1.359375 0 -2.4375 -0.5625q-1.078125 -0.578125 -1.78125 -1.46875l0 7.828125l-2.71875 0zm2.46875 -14.109375q0 3.109375 1.25 4.59375q1.265625 1.484375 3.046875 1.484375q1.8125 0 3.109375 -1.53125q1.296875 -1.546875 1.296875 -4.765625q0 -3.078125 -1.265625 -4.59375q-1.265625 -1.53125 -3.015625 -1.53125q-1.75 0 -3.09375 1.625q-1.328125 1.625 -1.328125 4.71875zm14.549561 7.953125l0 -16.078125l2.453125 0l0 2.4375q0.9375 -1.703125 1.734375 -2.25q0.796875 -0.546875 1.75 -0.546875q1.375 0 2.796875 0.875l-0.9375 2.53125q-1.0 -0.59375 -2.0 -0.59375q-0.890625 0 -1.609375 0.546875q-0.703125 0.53125 -1.015625 1.484375q-0.453125 1.453125 -0.453125 3.171875l0 8.421875l-2.71875 0zm21.24002 -5.171875l2.8125 0.34375q-0.65625 2.46875 -2.46875 3.828125q-1.796875 1.359375 -4.59375 1.359375q-3.53125 0 -5.59375 -2.171875q-2.0625 -2.171875 -2.0625 -6.09375q0 -4.046875 2.078125 -6.28125q2.09375 -2.25 5.421875 -2.25q3.234375 0 5.265625 2.203125q2.046875 2.1875 2.046875 6.171875q0 0.234375 -0.015625 0.71875l-11.984375 0q0.15625 2.65625 1.5 4.0625q1.34375 1.40625 3.359375 1.40625q1.5 0 2.546875 -0.78125q1.0625 -0.796875 1.6875 -2.515625zm-8.9375 -4.40625l8.96875 0q-0.1875 -2.03125 -1.03125 -3.046875q-1.296875 -1.578125 -3.375 -1.578125q-1.875 0 -3.15625 1.265625q-1.28125 1.25 -1.40625 3.359375zm14.48703 10.90625l2.640625 0.390625q0.171875 1.234375 0.921875 1.796875q1.015625 0.75 2.78125 0.75q1.890625 0 2.921875 -0.765625q1.03125 -0.75 1.390625 -2.109375q0.203125 -0.828125 0.1875 -3.5q-1.78125 2.109375 -4.4375 2.109375q-3.328125 0 -5.140625 -2.390625q-1.8125 -2.390625 -1.8125 -5.734375q0 -2.296875 0.828125 -4.234375q0.84375 -1.953125 2.421875 -3.015625q1.578125 -1.0625 3.71875 -1.0625q2.84375 0 4.6875 2.296875l0 -1.9375l2.515625 0l0 13.890625q0 3.765625 -0.765625 5.328125q-0.765625 1.5625 -2.421875 2.46875q-1.65625 0.921875 -4.078125 0.921875q-2.875 0 -4.65625 -1.296875q-1.765625 -1.296875 -1.703125 -3.90625zm2.25 -9.65625q0 3.171875 1.25 4.625q1.265625 1.453125 3.15625 1.453125q1.875 0 3.140625 -1.4375q1.28125 -1.453125 1.28125 -4.546875q0 -2.953125 -1.3125 -4.453125q-1.3125 -1.5 -3.15625 -1.5q-1.8125 0 -3.09375 1.484375q-1.265625 1.46875 -1.265625 4.375zm25.83081 8.328125l0 -2.359375q-1.875 2.71875 -5.09375 2.71875q-1.421875 0 -2.65625 -0.546875q-1.234375 -0.546875 -1.84375 -1.359375q-0.59375 -0.828125 -0.828125 -2.03125q-0.171875 -0.796875 -0.171875 -2.53125l0 -9.96875l2.71875 0l0 8.921875q0 2.125 0.171875 2.875q0.25 1.078125 1.078125 1.6875q0.84375 0.609375 2.0625 0.609375q1.234375 0 2.296875 -0.625q1.078125 -0.625 1.53125 -1.703125q0.453125 -1.09375 0.453125 -3.15625l0 -8.609375l2.71875 0l0 16.078125l-2.4375 0zm6.51828 0l0 -16.078125l2.453125 0l0 2.28125q1.765625 -2.640625 5.109375 -2.640625q1.453125 0 2.671875 0.53125q1.21875 0.515625 1.828125 1.359375q0.609375 0.84375 0.84375 2.015625q0.15625 0.75 0.15625 2.640625l0 9.890625l-2.734375 0l0 -9.78125q0 -1.65625 -0.3125 -2.484375q-0.3125 -0.828125 -1.125 -1.3125q-0.8125 -0.5 -1.90625 -0.5q-1.734375 0 -3.0 1.109375q-1.265625 1.09375 -1.265625 4.1875l0 8.78125l-2.71875 0zm23.002686 -2.4375l0.390625 2.40625q-1.15625 0.25 -2.0625 0.25q-1.484375 0 -2.3125 -0.46875q-0.8125 -0.484375 -1.140625 -1.234375q-0.328125 -0.765625 -0.328125 -3.21875l0 -9.25l-2.0 0l0 -2.125l2.0 0l0 -3.984375l2.703125 -1.625l0 5.609375l2.75 0l0 2.125l-2.75 0l0 9.390625q0 1.171875 0.140625 1.515625q0.15625 0.328125 0.46875 0.53125q0.328125 0.1875 0.9375 0.1875q0.453125 0 1.203125 -0.109375zm13.048523 0.453125q-1.515625 1.28125 -2.921875 1.8125q-1.390625 0.53125 -3.0 0.53125q-2.640625 0 -4.0625 -1.28125q-1.421875 -1.296875 -1.421875 -3.3125q0 -1.1875 0.53125 -2.15625q0.53125 -0.984375 1.40625 -1.5625q0.875 -0.59375 1.96875 -0.90625q0.796875 -0.203125 2.421875 -0.40625q3.296875 -0.390625 4.859375 -0.9375q0.015625 -0.5625 0.015625 -0.703125q0 -1.671875 -0.78125 -2.359375q-1.046875 -0.921875 -3.09375 -0.921875q-1.921875 0 -2.84375 0.671875q-0.921875 0.671875 -1.359375 2.390625l-2.65625 -0.359375q0.359375 -1.71875 1.1875 -2.765625q0.84375 -1.046875 2.40625 -1.609375q1.578125 -0.578125 3.65625 -0.578125q2.0625 0 3.34375 0.484375q1.28125 0.484375 1.890625 1.21875q0.609375 0.734375 0.84375 1.859375q0.140625 0.6875 0.140625 2.5l0 3.640625q0 3.796875 0.171875 4.8125q0.171875 1.0 0.6875 1.921875l-2.84375 0q-0.421875 -0.84375 -0.546875 -1.984375zm-0.21875 -6.078125q-1.484375 0.59375 -4.453125 1.03125q-1.6875 0.234375 -2.390625 0.546875q-0.6875 0.296875 -1.0625 0.875q-0.375 0.578125 -0.375 1.296875q0 1.09375 0.8125 1.828125q0.828125 0.71875 2.421875 0.71875q1.578125 0 2.796875 -0.6875q1.234375 -0.703125 1.8125 -1.890625q0.4375 -0.921875 0.4375 -2.71875l0 -1.0zm14.5512085 2.203125l2.734375 -0.359375q0.46875 2.3125 1.59375 3.34375q1.125 1.015625 2.75 1.015625q1.921875 0 3.234375 -1.328125q1.328125 -1.34375 1.328125 -3.3125q0 -1.875 -1.234375 -3.09375q-1.21875 -1.21875 -3.109375 -1.21875q-0.765625 0 -1.921875 0.3125l0.3125 -2.390625q0.265625 0.03125 0.4375 0.03125q1.734375 0 3.125 -0.90625q1.390625 -0.921875 1.390625 -2.8125q0 -1.5 -1.015625 -2.484375q-1.0 -0.984375 -2.609375 -0.984375q-1.59375 0 -2.65625 1.0q-1.046875 1.0 -1.359375 3.0l-2.71875 -0.484375q0.5 -2.734375 2.265625 -4.234375q1.765625 -1.515625 4.40625 -1.515625q1.8125 0 3.34375 0.78125q1.53125 0.78125 2.34375 2.125q0.8125 1.34375 0.8125 2.859375q0 1.4375 -0.78125 2.625q-0.765625 1.171875 -2.28125 1.875q1.96875 0.453125 3.046875 1.890625q1.09375 1.421875 1.09375 3.578125q0 2.90625 -2.125 4.921875q-2.109375 2.015625 -5.34375 2.015625q-2.921875 0 -4.859375 -1.734375q-1.921875 -1.75 -2.203125 -4.515625zm17.033936 -5.078125q0 -3.9375 0.8125 -6.328125q0.8125 -2.40625 2.40625 -3.703125q1.59375 -1.3125 4.015625 -1.3125q1.796875 0 3.140625 0.71875q1.34375 0.71875 2.21875 2.078125q0.890625 1.34375 1.375 3.296875q0.5 1.9375 0.5 5.25q0 3.90625 -0.796875 6.3125q-0.796875 2.390625 -2.40625 3.703125q-1.59375 1.296875 -4.03125 1.296875q-3.203125 0 -5.03125 -2.296875q-2.203125 -2.765625 -2.203125 -9.015625zm2.8125 0q0 5.453125 1.265625 7.265625q1.28125 1.8125 3.15625 1.8125q1.890625 0 3.15625 -1.8125q1.28125 -1.828125 1.28125 -7.265625q0 -5.484375 -1.28125 -7.28125q-1.265625 -1.8125 -3.1875 -1.8125q-1.875 0 -2.984375 1.59375q-1.40625 2.03125 -1.40625 7.5z" fill-rule="nonzero"></path><path fill="#d9ead3" d="m317.06824 135.42783l0 0c0 -35.685425 28.928741 -64.614174 64.61417 -64.614174l0 0c17.13675 0 33.571625 6.807541 45.689117 18.925049c12.117523 12.117508 18.92508 28.552376 18.92508 45.689125l0 0c0 35.685425 -28.928772 64.61417 -64.6142 64.61417l0 0c-35.685425 0 -64.61417 -28.928741 -64.61417 -64.61417z" fill-rule="evenodd"></path><path stroke="#000000" stroke-width="1.0" stroke-linejoin="round" stroke-linecap="butt" d="m317.06824 135.42783l0 0c0 -35.685425 28.928741 -64.614174 64.61417 -64.614174l0 0c17.13675 0 33.571625 6.807541 45.689117 18.925049c12.117523 12.117508 18.92508 28.552376 18.92508 45.689125l0 0c0 35.685425 -28.928772 64.61417 -64.6142 64.61417l0 0c-35.685425 0 -64.61417 -28.928741 -64.61417 -64.61417z" fill-rule="evenodd"></path></g></svg>

