<?xml version="1.0" standalone="yes"?>

<svg version="1.1" viewBox="0.0 0.0 565.8346456692914 622.1417322834645" fill="none" stroke="none" stroke-linecap="square" stroke-miterlimit="10" xmlns="http://www.w3.org/2000/svg" xmlns:xlink="http://www.w3.org/1999/xlink"><clipPath id="p.0"><path d="m0 0l565.83466 0l0 622.1417l-565.83466 0l0 -622.1417z" clip-rule="nonzero"></path></clipPath><g clip-path="url(#p.0)"><path fill="#000000" fill-opacity="0.0" d="m0 0l565.83466 0l0 622.1417l-565.83466 0z" fill-rule="evenodd"></path><path fill="#cfe2f3" d="m289.042 469.00787l0 0c0 -72.362335 58.661285 -131.02362 131.02362 -131.02362l0 0c34.749634 0 68.07599 13.80423 92.647705 38.375916c24.571716 24.571716 38.375916 57.89807 38.375916 92.647705l0 0c0 72.362366 -58.661255 131.02362 -131.02362 131.02362l0 0c-72.362335 0 -131.02362 -58.661255 -131.02362 -131.02362z" fill-rule="evenodd"></path><path stroke="#000000" stroke-width="1.0" stroke-linejoin="round" stroke-linecap="butt" d="m289.042 469.00787l0 0c0 -72.362335 58.661285 -131.02362 131.02362 -131.02362l0 0c34.749634 0 68.07599 13.80423 92.647705 38.375916c24.571716 24.571716 38.375916 57.89807 38.375916 92.647705l0 0c0 72.362366 -58.661255 131.02362 -131.02362 131.02362l0 0c-72.362335 0 -131.02362 -58.661255 -131.02362 -131.02362z" fill-rule="evenodd"></path><path fill="#000000" d="m346.83606 423.26788l0 -16.46875l3.28125 0l3.90625 11.65625q0.53125 1.640625 0.78125 2.4375q0.28125 -0.890625 0.875 -2.640625l3.9375 -11.453125l2.9375 0l0 16.46875l-2.109375 0l0 -13.78125l-4.78125 13.78125l-1.96875 0l-4.75 -14.015625l0 14.015625l-2.109375 0zm26.466583 -1.46875q-1.125 0.953125 -2.171875 1.34375q-1.03125 0.390625 -2.21875 0.390625q-1.96875 0 -3.03125 -0.953125q-1.046875 -0.96875 -1.046875 -2.453125q0 -0.875 0.390625 -1.59375q0.40625 -0.734375 1.046875 -1.171875q0.65625 -0.4375 1.46875 -0.65625q0.59375 -0.171875 1.796875 -0.3125q2.4375 -0.296875 3.59375 -0.6875q0.015625 -0.421875 0.015625 -0.53125q0 -1.234375 -0.578125 -1.75q-0.765625 -0.671875 -2.296875 -0.671875q-1.421875 0 -2.109375 0.5q-0.671875 0.484375 -1.0 1.765625l-1.984375 -0.28125q0.28125 -1.265625 0.890625 -2.046875q0.625 -0.78125 1.78125 -1.203125q1.171875 -0.421875 2.71875 -0.421875q1.53125 0 2.484375 0.359375q0.953125 0.359375 1.390625 0.90625q0.453125 0.546875 0.640625 1.375q0.09375 0.515625 0.09375 1.875l0 2.6875q0 2.828125 0.125 3.578125q0.140625 0.734375 0.515625 1.421875l-2.109375 0q-0.3125 -0.625 -0.40625 -1.46875zm-0.171875 -4.515625q-1.09375 0.453125 -3.296875 0.765625q-1.25 0.171875 -1.765625 0.40625q-0.515625 0.21875 -0.796875 0.65625q-0.28125 0.421875 -0.28125 0.953125q0 0.8125 0.609375 1.359375q0.625 0.53125 1.796875 0.53125q1.171875 0 2.078125 -0.515625q0.90625 -0.515625 1.34375 -1.390625q0.3125 -0.6875 0.3125 -2.03125l0 -0.734375zm4.897217 10.578125l-0.21875 -1.890625q0.65625 0.171875 1.15625 0.171875q0.671875 0 1.078125 -0.234375q0.40625 -0.21875 0.65625 -0.625q0.203125 -0.296875 0.625 -1.5q0.046875 -0.171875 0.171875 -0.5l-4.515625 -11.9375l2.171875 0l2.484375 6.90625q0.484375 1.3125 0.859375 2.765625q0.359375 -1.40625 0.84375 -2.71875l2.546875 -6.953125l2.015625 0l-4.53125 12.125q-0.734375 1.96875 -1.140625 2.703125q-0.53125 1.0 -1.234375 1.46875q-0.703125 0.46875 -1.65625 0.46875q-0.59375 0 -1.3125 -0.25zm10.671875 -10.5625q0 -3.3125 1.84375 -4.90625q1.53125 -1.328125 3.75 -1.328125q2.453125 0 4.015625 1.625q1.5625 1.609375 1.5625 4.453125q0 2.296875 -0.6875 3.625q-0.6875 1.3125 -2.015625 2.046875q-1.3125 0.71875 -2.875 0.71875q-2.5 0 -4.046875 -1.59375q-1.546875 -1.609375 -1.546875 -4.640625zm2.078125 0q0 2.296875 1.0 3.4375q1.0 1.140625 2.515625 1.140625q1.5 0 2.5 -1.140625q1.0 -1.15625 1.0 -3.5q0 -2.21875 -1.015625 -3.34375q-1.0 -1.140625 -2.484375 -1.140625q-1.515625 0 -2.515625 1.140625q-1.0 1.125 -1.0 3.40625zm11.256561 5.96875l0 -11.921875l1.8125 0l0 1.796875q0.703125 -1.265625 1.28125 -1.671875q0.59375 -0.40625 1.296875 -0.40625q1.03125 0 2.078125 0.65625l-0.6875 1.875q-0.75 -0.4375 -1.484375 -0.4375q-0.671875 0 -1.203125 0.40625q-0.515625 0.390625 -0.734375 1.09375q-0.34375 1.078125 -0.34375 2.359375l0 6.25l-2.015625 0zm15.732208 -3.84375l2.078125 0.265625q-0.484375 1.828125 -1.828125 2.84375q-1.328125 1.0 -3.40625 1.0q-2.625 0 -4.15625 -1.609375q-1.53125 -1.609375 -1.53125 -4.515625q0 -3.015625 1.546875 -4.671875q1.546875 -1.671875 4.015625 -1.671875q2.40625 0 3.921875 1.640625q1.515625 1.625 1.515625 4.578125q0 0.171875 -0.015625 0.53125l-8.890625 0q0.109375 1.96875 1.109375 3.015625q1.0 1.046875 2.484375 1.046875q1.109375 0 1.890625 -0.578125q0.796875 -0.59375 1.265625 -1.875zm-6.640625 -3.265625l6.65625 0q-0.140625 -1.5 -0.765625 -2.25q-0.96875 -1.171875 -2.5 -1.171875q-1.390625 0 -2.34375 0.9375q-0.953125 0.921875 -1.046875 2.484375zm10.256592 3.546875l2.0 -0.3125q0.171875 1.203125 0.9375 1.84375q0.765625 0.640625 2.15625 0.640625q1.390625 0 2.0625 -0.5625q0.671875 -0.578125 0.671875 -1.34375q0 -0.671875 -0.59375 -1.078125q-0.40625 -0.265625 -2.0625 -0.671875q-2.21875 -0.5625 -3.078125 -0.96875q-0.859375 -0.421875 -1.3125 -1.140625q-0.4375 -0.734375 -0.4375 -1.609375q0 -0.796875 0.359375 -1.46875q0.375 -0.6875 1.0 -1.125q0.46875 -0.359375 1.28125 -0.59375q0.8125 -0.25 1.75 -0.25q1.40625 0 2.46875 0.40625q1.0625 0.40625 1.5625 1.109375q0.5 0.6875 0.6875 1.84375l-1.96875 0.265625q-0.140625 -0.921875 -0.78125 -1.4375q-0.640625 -0.515625 -1.828125 -0.515625q-1.390625 0 -1.984375 0.46875q-0.59375 0.453125 -0.59375 1.0625q0 0.390625 0.25 0.71875q0.25 0.3125 0.765625 0.53125q0.3125 0.109375 1.796875 0.515625q2.140625 0.578125 2.984375 0.9375q0.84375 0.359375 1.328125 1.0625q0.484375 0.703125 0.484375 1.734375q0 1.0 -0.59375 1.90625q-0.578125 0.890625 -1.703125 1.375q-1.109375 0.484375 -2.5 0.484375q-2.328125 0 -3.546875 -0.953125q-1.21875 -0.96875 -1.5625 -2.875zm26.169617 3.5625l0 -1.5q-1.125 1.765625 -3.328125 1.765625q-1.421875 0 -2.625 -0.78125q-1.203125 -0.78125 -1.859375 -2.1875q-0.65625 -1.421875 -0.65625 -3.25q0 -1.78125 0.59375 -3.234375q0.609375 -1.453125 1.796875 -2.234375q1.1875 -0.78125 2.65625 -0.78125q1.078125 0 1.921875 0.46875q0.84375 0.453125 1.375 1.171875l0 -5.90625l2.0 0l0 16.46875l-1.875 0zm-6.390625 -5.953125q0 2.296875 0.96875 3.4375q0.96875 1.125 2.28125 1.125q1.328125 0 2.25 -1.078125q0.921875 -1.09375 0.921875 -3.3125q0 -2.453125 -0.9375 -3.59375q-0.9375 -1.140625 -2.328125 -1.140625q-1.34375 0 -2.25 1.09375q-0.90625 1.09375 -0.90625 3.46875zm19.428467 2.109375l2.078125 0.265625q-0.484375 1.828125 -1.828125 2.84375q-1.328125 1.0 -3.40625 1.0q-2.625 0 -4.15625 -1.609375q-1.53125 -1.609375 -1.53125 -4.515625q0 -3.015625 1.546875 -4.671875q1.546875 -1.671875 4.015625 -1.671875q2.40625 0 3.921875 1.640625q1.515625 1.625 1.515625 4.578125q0 0.171875 -0.015625 0.53125l-8.890625 0q0.109375 1.96875 1.109375 3.015625q1.0 1.046875 2.484375 1.046875q1.109375 0 1.890625 -0.578125q0.796875 -0.59375 1.265625 -1.875zm-6.640625 -3.265625l6.65625 0q-0.140625 -1.5 -0.765625 -2.25q-0.96875 -1.171875 -2.5 -1.171875q-1.390625 0 -2.34375 0.9375q-0.953125 0.921875 -1.046875 2.484375zm16.801208 2.796875l2.125 -0.1875q0.234375 1.5625 1.09375 2.34375q0.859375 0.78125 2.078125 0.78125q1.453125 0 2.453125 -1.09375q1.015625 -1.109375 1.015625 -2.9375q0 -1.71875 -0.96875 -2.71875q-0.96875 -1.0 -2.546875 -1.0q-0.96875 0 -1.765625 0.4375q-0.78125 0.4375 -1.21875 1.15625l-1.90625 -0.25l1.59375 -8.453125l8.1875 0l0 1.921875l-6.5625 0l-0.890625 4.421875q1.484375 -1.03125 3.109375 -1.03125q2.15625 0 3.640625 1.5q1.484375 1.5 1.484375 3.84375q0 2.234375 -1.3125 3.859375q-1.578125 2.0 -4.3125 2.0q-2.25 0 -3.671875 -1.25q-1.421875 -1.265625 -1.625 -3.34375zm19.084717 4.3125l0 -3.9375l-7.140625 0l0 -1.859375l7.515625 -10.671875l1.640625 0l0 10.671875l2.234375 0l0 1.859375l-2.234375 0l0 3.9375l-2.015625 0zm0 -5.796875l0 -7.421875l-5.15625 7.421875l5.15625 0z" fill-rule="nonzero"></path><path fill="#000000" d="m348.7381 448.79913q-1.125 0.953125 -2.171875 1.34375q-1.03125 0.390625 -2.21875 0.390625q-1.96875 0 -3.03125 -0.953125q-1.046875 -0.96875 -1.046875 -2.453125q0 -0.875 0.390625 -1.59375q0.40625 -0.734375 1.046875 -1.171875q0.65625 -0.4375 1.46875 -0.65625q0.59375 -0.171875 1.796875 -0.3125q2.4375 -0.296875 3.59375 -0.6875q0.015625 -0.421875 0.015625 -0.53125q0 -1.234375 -0.578125 -1.75q-0.765625 -0.671875 -2.296875 -0.671875q-1.421875 0 -2.109375 0.5q-0.671875 0.484375 -1.0 1.765625l-1.984375 -0.28125q0.28125 -1.265625 0.890625 -2.046875q0.625 -0.78125 1.78125 -1.203125q1.171875 -0.421875 2.71875 -0.421875q1.53125 0 2.484375 0.359375q0.953125 0.359375 1.390625 0.90625q0.453125 0.546875 0.640625 1.375q0.09375 0.515625 0.09375 1.875l0 2.6875q0 2.828125 0.125 3.578125q0.140625 0.734375 0.515625 1.421875l-2.109375 0q-0.3125 -0.625 -0.40625 -1.46875zm-0.171875 -4.515625q-1.09375 0.453125 -3.296875 0.765625q-1.25 0.171875 -1.765625 0.40625q-0.515625 0.21875 -0.796875 0.65625q-0.28125 0.421875 -0.28125 0.953125q0 0.8125 0.609375 1.359375q0.625 0.53125 1.796875 0.53125q1.171875 0 2.078125 -0.515625q0.90625 -0.515625 1.34375 -1.390625q0.3125 -0.6875 0.3125 -2.03125l0 -0.734375zm4.990967 5.984375l0 -11.921875l1.8125 0l0 1.6875q1.328125 -1.96875 3.796875 -1.96875q1.078125 0 1.984375 0.390625q0.90625 0.390625 1.359375 1.03125q0.453125 0.625 0.625 1.484375q0.109375 0.5625 0.109375 1.96875l0 7.328125l-2.015625 0l0 -7.25q0 -1.234375 -0.234375 -1.84375q-0.234375 -0.625 -0.84375 -0.984375q-0.59375 -0.359375 -1.40625 -0.359375q-1.296875 0 -2.234375 0.8125q-0.9375 0.8125 -0.9375 3.109375l0 6.515625l-2.015625 0zm1.5625 -13.6875q-0.015625 -1.171875 0.640625 -1.859375q0.640625 -0.703125 1.640625 -0.703125q0.703125 0 1.890625 0.609375q0.671875 0.328125 1.0625 0.328125q0.359375 0 0.546875 -0.1875q0.1875 -0.203125 0.265625 -0.78125l1.46875 0q-0.03125 1.28125 -0.65625 1.921875q-0.609375 0.640625 -1.546875 0.640625q-0.703125 0 -1.859375 -0.640625q-0.75 -0.390625 -1.109375 -0.390625q-0.375 0 -0.609375 0.265625q-0.25 0.265625 -0.234375 0.796875l-1.5 0zm10.287811 7.71875q0 -3.3125 1.84375 -4.90625q1.53125 -1.328125 3.75 -1.328125q2.453125 0 4.015625 1.625q1.5625 1.609375 1.5625 4.453125q0 2.296875 -0.6875 3.625q-0.6875 1.3125 -2.015625 2.046875q-1.3125 0.71875 -2.875 0.71875q-2.5 0 -4.046875 -1.59375q-1.546875 -1.609375 -1.546875 -4.640625zm2.078125 0q0 2.296875 1.0 3.4375q1.0 1.140625 2.515625 1.140625q1.5 0 2.5 -1.140625q1.0 -1.15625 1.0 -3.5q0 -2.21875 -1.015625 -3.34375q-1.0 -1.140625 -2.484375 -1.140625q-1.515625 0 -2.515625 1.140625q-1.0 1.125 -1.0 3.40625zm10.459717 2.40625l2.0 -0.3125q0.171875 1.203125 0.9375 1.84375q0.765625 0.640625 2.15625 0.640625q1.390625 0 2.0625 -0.5625q0.671875 -0.578125 0.671875 -1.34375q0 -0.671875 -0.59375 -1.078125q-0.40625 -0.265625 -2.0625 -0.671875q-2.21875 -0.5625 -3.078125 -0.96875q-0.859375 -0.421875 -1.3125 -1.140625q-0.4375 -0.734375 -0.4375 -1.609375q0 -0.796875 0.359375 -1.46875q0.375 -0.6875 1.0 -1.125q0.46875 -0.359375 1.28125 -0.59375q0.8125 -0.25 1.75 -0.25q1.40625 0 2.46875 0.40625q1.0625 0.40625 1.5625 1.109375q0.5 0.6875 0.6875 1.84375l-1.96875 0.265625q-0.140625 -0.921875 -0.78125 -1.4375q-0.640625 -0.515625 -1.828125 -0.515625q-1.390625 0 -1.984375 0.46875q-0.59375 0.453125 -0.59375 1.0625q0 0.390625 0.25 0.71875q0.25 0.3125 0.765625 0.53125q0.3125 0.109375 1.796875 0.515625q2.140625 0.578125 2.984375 0.9375q0.84375 0.359375 1.328125 1.0625q0.484375 0.703125 0.484375 1.734375q0 1.0 -0.59375 1.90625q-0.578125 0.890625 -1.703125 1.375q-1.109375 0.484375 -2.5 0.484375q-2.328125 0 -3.546875 -0.953125q-1.21875 -0.96875 -1.5625 -2.875zm26.044617 8.140625l0 -5.84375q-0.484375 0.65625 -1.328125 1.09375q-0.84375 0.4375 -1.796875 0.4375q-2.125 0 -3.65625 -1.6875q-1.53125 -1.703125 -1.53125 -4.65625q0 -1.796875 0.625 -3.21875q0.625 -1.421875 1.796875 -2.15625q1.1875 -0.75 2.609375 -0.75q2.203125 0 3.484375 1.875l0 -1.59375l1.8125 0l0 16.5l-2.015625 0zm-6.234375 -10.578125q0 2.3125 0.953125 3.46875q0.96875 1.140625 2.328125 1.140625q1.28125 0 2.21875 -1.09375q0.9375 -1.09375 0.9375 -3.328125q0 -2.390625 -0.984375 -3.59375q-0.984375 -1.203125 -2.3125 -1.203125q-1.3125 0 -2.234375 1.125q-0.90625 1.125 -0.90625 3.484375zm19.037842 6.0l0 -1.75q-1.390625 2.015625 -3.78125 2.015625q-1.046875 0 -1.96875 -0.40625q-0.921875 -0.40625 -1.359375 -1.015625q-0.4375 -0.609375 -0.625 -1.5q-0.125 -0.59375 -0.125 -1.875l0 -7.390625l2.03125 0l0 6.609375q0 1.578125 0.109375 2.140625q0.203125 0.796875 0.8125 1.25q0.625 0.453125 1.53125 0.453125q0.90625 0 1.703125 -0.46875q0.796875 -0.46875 1.125 -1.265625q0.34375 -0.8125 0.34375 -2.328125l0 -6.390625l2.015625 0l0 11.921875l-1.8125 0zm12.959686 -3.84375l2.078125 0.265625q-0.484375 1.828125 -1.828125 2.84375q-1.328125 1.0 -3.40625 1.0q-2.625 0 -4.15625 -1.609375q-1.53125 -1.609375 -1.53125 -4.515625q0 -3.015625 1.546875 -4.671875q1.546875 -1.671875 4.015625 -1.671875q2.40625 0 3.921875 1.640625q1.515625 1.625 1.515625 4.578125q0 0.171875 -0.015625 0.53125l-8.890625 0q0.109375 1.96875 1.109375 3.015625q1.0 1.046875 2.484375 1.046875q1.109375 0 1.890625 -0.578125q0.796875 -0.59375 1.265625 -1.875zm-6.640625 -3.265625l6.65625 0q-0.140625 -1.5 -0.765625 -2.25q-0.96875 -1.171875 -2.5 -1.171875q-1.390625 0 -2.34375 0.9375q-0.953125 0.921875 -1.046875 2.484375zm21.785583 5.296875l0.28125 1.796875q-0.84375 0.171875 -1.53125 0.171875q-1.09375 0 -1.703125 -0.34375q-0.609375 -0.359375 -0.859375 -0.921875q-0.234375 -0.5625 -0.234375 -2.390625l0 -6.859375l-1.484375 0l0 -1.5625l1.484375 0l0 -2.953125l2.0 -1.21875l0 4.171875l2.046875 0l0 1.5625l-2.046875 0l0 6.984375q0 0.859375 0.109375 1.109375q0.109375 0.25 0.34375 0.390625q0.25 0.140625 0.703125 0.140625q0.328125 0 0.890625 -0.078125zm1.8883972 -12.328125l0 -2.328125l2.015625 0l0 2.328125l-2.015625 0zm0 14.140625l0 -11.921875l2.015625 0l0 11.921875l-2.015625 0zm13.189728 -3.84375l2.078125 0.265625q-0.484375 1.828125 -1.828125 2.84375q-1.328125 1.0 -3.40625 1.0q-2.625 0 -4.15625 -1.609375q-1.53125 -1.609375 -1.53125 -4.515625q0 -3.015625 1.546875 -4.671875q1.546875 -1.671875 4.015625 -1.671875q2.40625 0 3.921875 1.640625q1.515625 1.625 1.515625 4.578125q0 0.171875 -0.015625 0.53125l-8.890625 0q0.109375 1.96875 1.109375 3.015625q1.0 1.046875 2.484375 1.046875q1.109375 0 1.890625 -0.578125q0.796875 -0.59375 1.265625 -1.875zm-6.640625 -3.265625l6.65625 0q-0.140625 -1.5 -0.765625 -2.25q-0.96875 -1.171875 -2.5 -1.171875q-1.390625 0 -2.34375 0.9375q-0.953125 0.921875 -1.046875 2.484375zm11.069092 7.109375l0 -11.921875l1.8125 0l0 1.6875q1.328125 -1.96875 3.796875 -1.96875q1.078125 0 1.984375 0.390625q0.90625 0.390625 1.359375 1.03125q0.453125 0.625 0.625 1.484375q0.109375 0.5625 0.109375 1.96875l0 7.328125l-2.015625 0l0 -7.25q0 -1.234375 -0.234375 -1.84375q-0.234375 -0.625 -0.84375 -0.984375q-0.59375 -0.359375 -1.40625 -0.359375q-1.296875 0 -2.234375 0.8125q-0.9375 0.8125 -0.9375 3.109375l0 6.515625l-2.015625 0zm20.772186 -3.84375l2.078125 0.265625q-0.484375 1.828125 -1.828125 2.84375q-1.328125 1.0 -3.40625 1.0q-2.625 0 -4.15625 -1.609375q-1.53125 -1.609375 -1.53125 -4.515625q0 -3.015625 1.546875 -4.671875q1.546875 -1.671875 4.015625 -1.671875q2.40625 0 3.921875 1.640625q1.515625 1.625 1.515625 4.578125q0 0.171875 -0.015625 0.53125l-8.890625 0q0.109375 1.96875 1.109375 3.015625q1.0 1.046875 2.484375 1.046875q1.109375 0 1.890625 -0.578125q0.796875 -0.59375 1.265625 -1.875zm-6.640625 -3.265625l6.65625 0q-0.140625 -1.5 -0.765625 -2.25q-0.96875 -1.171875 -2.5 -1.171875q-1.390625 0 -2.34375 0.9375q-0.953125 0.921875 -1.046875 2.484375zm11.069092 7.109375l0 -11.921875l1.8125 0l0 1.6875q1.328125 -1.96875 3.796875 -1.96875q1.078125 0 1.984375 0.390625q0.90625 0.390625 1.359375 1.03125q0.453125 0.625 0.625 1.484375q0.109375 0.5625 0.109375 1.96875l0 7.328125l-2.015625 0l0 -7.25q0 -1.234375 -0.234375 -1.84375q-0.234375 -0.625 -0.84375 -0.984375q-0.59375 -0.359375 -1.40625 -0.359375q-1.296875 0 -2.234375 0.8125q-0.9375 0.8125 -0.9375 3.109375l0 6.515625l-2.015625 0z" fill-rule="nonzero"></path><path fill="#000000" d="m345.5526 477.26785l-4.53125 -11.921875l2.125 0l2.5625 7.140625q0.421875 1.15625 0.765625 2.40625q0.265625 -0.953125 0.75 -2.28125l2.65625 -7.265625l2.078125 0l-4.515625 11.921875l-1.890625 0zm15.796875 -1.46875q-1.125 0.953125 -2.171875 1.34375q-1.03125 0.390625 -2.21875 0.390625q-1.96875 0 -3.03125 -0.953125q-1.046875 -0.96875 -1.046875 -2.453125q0 -0.875 0.390625 -1.59375q0.40625 -0.734375 1.046875 -1.171875q0.65625 -0.4375 1.46875 -0.65625q0.59375 -0.171875 1.796875 -0.3125q2.4375 -0.296875 3.59375 -0.6875q0.015625 -0.421875 0.015625 -0.53125q0 -1.234375 -0.578125 -1.75q-0.765625 -0.671875 -2.296875 -0.671875q-1.421875 0 -2.109375 0.5q-0.671875 0.484375 -1.0 1.765625l-1.984375 -0.28125q0.28125 -1.265625 0.890625 -2.046875q0.625 -0.78125 1.78125 -1.203125q1.171875 -0.421875 2.71875 -0.421875q1.53125 0 2.484375 0.359375q0.953125 0.359375 1.390625 0.90625q0.453125 0.546875 0.640625 1.375q0.09375 0.515625 0.09375 1.875l0 2.6875q0 2.828125 0.125 3.578125q0.140625 0.734375 0.515625 1.421875l-2.109375 0q-0.3125 -0.625 -0.40625 -1.46875zm-0.171875 -4.515625q-1.09375 0.453125 -3.296875 0.765625q-1.25 0.171875 -1.765625 0.40625q-0.515625 0.21875 -0.796875 0.65625q-0.28125 0.421875 -0.28125 0.953125q0 0.8125 0.609375 1.359375q0.625 0.53125 1.796875 0.53125q1.171875 0 2.078125 -0.515625q0.90625 -0.515625 1.34375 -1.390625q0.3125 -0.6875 0.3125 -2.03125l0 -0.734375zm4.944092 5.984375l0 -16.46875l2.03125 0l0 16.46875l-2.03125 0zm4.330353 -5.96875q0 -3.3125 1.84375 -4.90625q1.53125 -1.328125 3.75 -1.328125q2.453125 0 4.015625 1.625q1.5625 1.609375 1.5625 4.453125q0 2.296875 -0.6875 3.625q-0.6875 1.3125 -2.015625 2.046875q-1.3125 0.71875 -2.875 0.71875q-2.5 0 -4.046875 -1.59375q-1.546875 -1.609375 -1.546875 -4.640625zm2.078125 0q0 2.296875 1.0 3.4375q1.0 1.140625 2.515625 1.140625q1.5 0 2.5 -1.140625q1.0 -1.15625 1.0 -3.5q0 -2.21875 -1.015625 -3.34375q-1.0 -1.140625 -2.484375 -1.140625q-1.515625 0 -2.515625 1.140625q-1.0 1.125 -1.0 3.40625zm11.256592 5.96875l0 -11.921875l1.8125 0l0 1.796875q0.703125 -1.265625 1.28125 -1.671875q0.59375 -0.40625 1.296875 -0.40625q1.03125 0 2.078125 0.65625l-0.6875 1.875q-0.75 -0.4375 -1.484375 -0.4375q-0.671875 0 -1.203125 0.40625q-0.515625 0.390625 -0.734375 1.09375q-0.34375 1.078125 -0.34375 2.359375l0 6.25l-2.015625 0zm15.732208 -3.84375l2.078125 0.265625q-0.484375 1.828125 -1.828125 2.84375q-1.328125 1.0 -3.40625 1.0q-2.625 0 -4.15625 -1.609375q-1.53125 -1.609375 -1.53125 -4.515625q0 -3.015625 1.546875 -4.671875q1.546875 -1.671875 4.015625 -1.671875q2.40625 0 3.921875 1.640625q1.515625 1.625 1.515625 4.578125q0 0.171875 -0.015625 0.53125l-8.890625 0q0.109375 1.96875 1.109375 3.015625q1.0 1.046875 2.484375 1.046875q1.109375 0 1.890625 -0.578125q0.796875 -0.59375 1.265625 -1.875zm-6.640625 -3.265625l6.65625 0q-0.140625 -1.5 -0.765625 -2.25q-0.96875 -1.171875 -2.5 -1.171875q-1.390625 0 -2.34375 0.9375q-0.953125 0.921875 -1.046875 2.484375zm10.256561 3.546875l2.0 -0.3125q0.171875 1.203125 0.9375 1.84375q0.765625 0.640625 2.15625 0.640625q1.390625 0 2.0625 -0.5625q0.671875 -0.578125 0.671875 -1.34375q0 -0.671875 -0.59375 -1.078125q-0.40625 -0.265625 -2.0625 -0.671875q-2.21875 -0.5625 -3.078125 -0.96875q-0.859375 -0.421875 -1.3125 -1.140625q-0.4375 -0.734375 -0.4375 -1.609375q0 -0.796875 0.359375 -1.46875q0.375 -0.6875 1.0 -1.125q0.46875 -0.359375 1.28125 -0.59375q0.8125 -0.25 1.75 -0.25q1.40625 0 2.46875 0.40625q1.0625 0.40625 1.5625 1.109375q0.5 0.6875 0.6875 1.84375l-1.96875 0.265625q-0.140625 -0.921875 -0.78125 -1.4375q-0.640625 -0.515625 -1.828125 -0.515625q-1.390625 0 -1.984375 0.46875q-0.59375 0.453125 -0.59375 1.0625q0 0.390625 0.25 0.71875q0.25 0.3125 0.765625 0.53125q0.3125 0.109375 1.796875 0.515625q2.140625 0.578125 2.984375 0.9375q0.84375 0.359375 1.328125 1.0625q0.484375 0.703125 0.484375 1.734375q0 1.0 -0.59375 1.90625q-0.578125 0.890625 -1.703125 1.375q-1.109375 0.484375 -2.5 0.484375q-2.328125 0 -3.546875 -0.953125q-1.21875 -0.96875 -1.5625 -2.875zm26.216522 2.09375q-1.125 0.953125 -2.171875 1.34375q-1.03125 0.390625 -2.21875 0.390625q-1.96875 0 -3.03125 -0.953125q-1.046875 -0.96875 -1.046875 -2.453125q0 -0.875 0.390625 -1.59375q0.40625 -0.734375 1.046875 -1.171875q0.65625 -0.4375 1.46875 -0.65625q0.59375 -0.171875 1.796875 -0.3125q2.4375 -0.296875 3.59375 -0.6875q0.015625 -0.421875 0.015625 -0.53125q0 -1.234375 -0.578125 -1.75q-0.765625 -0.671875 -2.296875 -0.671875q-1.421875 0 -2.109375 0.5q-0.671875 0.484375 -1.0 1.765625l-1.984375 -0.28125q0.28125 -1.265625 0.890625 -2.046875q0.625 -0.78125 1.78125 -1.203125q1.171875 -0.421875 2.71875 -0.421875q1.53125 0 2.484375 0.359375q0.953125 0.359375 1.390625 0.90625q0.453125 0.546875 0.640625 1.375q0.09375 0.515625 0.09375 1.875l0 2.6875q0 2.828125 0.125 3.578125q0.140625 0.734375 0.515625 1.421875l-2.109375 0q-0.3125 -0.625 -0.40625 -1.46875zm-0.171875 -4.515625q-1.09375 0.453125 -3.296875 0.765625q-1.25 0.171875 -1.765625 0.40625q-0.515625 0.21875 -0.796875 0.65625q-0.28125 0.421875 -0.28125 0.953125q0 0.8125 0.609375 1.359375q0.625 0.53125 1.796875 0.53125q1.171875 0 2.078125 -0.515625q0.90625 -0.515625 1.34375 -1.390625q0.3125 -0.6875 0.3125 -2.03125l0 -0.734375zm4.9440613 5.984375l0 -16.46875l2.03125 0l0 16.46875l-2.03125 0zm9.502258 -1.8125l0.28125 1.796875q-0.84375 0.171875 -1.53125 0.171875q-1.09375 0 -1.703125 -0.34375q-0.609375 -0.359375 -0.859375 -0.921875q-0.234375 -0.5625 -0.234375 -2.390625l0 -6.859375l-1.484375 0l0 -1.5625l1.484375 0l0 -2.953125l2.0 -1.21875l0 4.171875l2.046875 0l0 1.5625l-2.046875 0l0 6.984375q0 0.859375 0.109375 1.109375q0.109375 0.25 0.34375 0.390625q0.25 0.140625 0.703125 0.140625q0.328125 0 0.890625 -0.078125zm1.1227417 -4.15625q0 -3.3125 1.84375 -4.90625q1.53125 -1.328125 3.75 -1.328125q2.453125 0 4.015625 1.625q1.5625 1.609375 1.5625 4.453125q0 2.296875 -0.6875 3.625q-0.6875 1.3125 -2.015625 2.046875q-1.3125 0.71875 -2.875 0.71875q-2.5 0 -4.046875 -1.59375q-1.546875 -1.609375 -1.546875 -4.640625zm2.078125 0q0 2.296875 1.0 3.4375q1.0 1.140625 2.515625 1.140625q1.5 0 2.5 -1.140625q1.0 -1.15625 1.0 -3.5q0 -2.21875 -1.015625 -3.34375q-1.0 -1.140625 -2.484375 -1.140625q-1.515625 0 -2.515625 1.140625q-1.0 1.125 -1.0 3.40625zm10.459717 2.40625l2.0 -0.3125q0.171875 1.203125 0.9375 1.84375q0.765625 0.640625 2.15625 0.640625q1.390625 0 2.0625 -0.5625q0.671875 -0.578125 0.671875 -1.34375q0 -0.671875 -0.59375 -1.078125q-0.40625 -0.265625 -2.0625 -0.671875q-2.21875 -0.5625 -3.078125 -0.96875q-0.859375 -0.421875 -1.3125 -1.140625q-0.4375 -0.734375 -0.4375 -1.609375q0 -0.796875 0.359375 -1.46875q0.375 -0.6875 1.0 -1.125q0.46875 -0.359375 1.28125 -0.59375q0.8125 -0.25 1.75 -0.25q1.40625 0 2.46875 0.40625q1.0625 0.40625 1.5625 1.109375q0.5 0.6875 0.6875 1.84375l-1.96875 0.265625q-0.140625 -0.921875 -0.78125 -1.4375q-0.640625 -0.515625 -1.828125 -0.515625q-1.390625 0 -1.984375 0.46875q-0.59375 0.453125 -0.59375 1.0625q0 0.390625 0.25 0.71875q0.25 0.3125 0.765625 0.53125q0.3125 0.109375 1.796875 0.515625q2.140625 0.578125 2.984375 0.9375q0.84375 0.359375 1.328125 1.0625q0.484375 0.703125 0.484375 1.734375q0 1.0 -0.59375 1.90625q-0.578125 0.890625 -1.703125 1.375q-1.109375 0.484375 -2.5 0.484375q-2.328125 0 -3.546875 -0.953125q-1.21875 -0.96875 -1.5625 -2.875zm26.607117 -0.28125l2.078125 0.265625q-0.484375 1.828125 -1.828125 2.84375q-1.328125 1.0 -3.40625 1.0q-2.625 0 -4.15625 -1.609375q-1.53125 -1.609375 -1.53125 -4.515625q0 -3.015625 1.546875 -4.671875q1.546875 -1.671875 4.015625 -1.671875q2.40625 0 3.921875 1.640625q1.515625 1.625 1.515625 4.578125q0 0.171875 -0.015625 0.53125l-8.890625 0q0.109375 1.96875 1.109375 3.015625q1.0 1.046875 2.484375 1.046875q1.109375 0 1.890625 -0.578125q0.796875 -0.59375 1.265625 -1.875zm-6.640625 -3.265625l6.65625 0q-0.140625 -1.5 -0.765625 -2.25q-0.96875 -1.171875 -2.5 -1.171875q-1.390625 0 -2.34375 0.9375q-0.953125 0.921875 -1.046875 2.484375zm11.069092 7.109375l0 -11.921875l1.8125 0l0 1.6875q1.328125 -1.96875 3.796875 -1.96875q1.078125 0 1.984375 0.390625q0.90625 0.390625 1.359375 1.03125q0.453125 0.625 0.625 1.484375q0.109375 0.5625 0.109375 1.96875l0 7.328125l-2.015625 0l0 -7.25q0 -1.234375 -0.234375 -1.84375q-0.234375 -0.625 -0.84375 -0.984375q-0.59375 -0.359375 -1.40625 -0.359375q-1.296875 0 -2.234375 0.8125q-0.9375 0.8125 -0.9375 3.109375l0 6.515625l-2.015625 0z" fill-rule="nonzero"></path><path fill="#000000" d="m353.52136 504.26785l0 -16.46875l2.03125 0l0 16.46875l-2.03125 0zm12.861633 -1.46875q-1.125 0.953125 -2.171875 1.34375q-1.03125 0.390625 -2.21875 0.390625q-1.96875 0 -3.03125 -0.953125q-1.046875 -0.96875 -1.046875 -2.453125q0 -0.875 0.390625 -1.59375q0.40625 -0.734375 1.046875 -1.171875q0.65625 -0.4375 1.46875 -0.65625q0.59375 -0.171875 1.796875 -0.3125q2.4375 -0.296875 3.59375 -0.6875q0.015625 -0.421875 0.015625 -0.53125q0 -1.234375 -0.578125 -1.75q-0.765625 -0.671875 -2.296875 -0.671875q-1.421875 0 -2.109375 0.5q-0.671875 0.484375 -1.0 1.765625l-1.984375 -0.28125q0.28125 -1.265625 0.890625 -2.046875q0.625 -0.78125 1.78125 -1.203125q1.171875 -0.421875 2.71875 -0.421875q1.53125 0 2.484375 0.359375q0.953125 0.359375 1.390625 0.90625q0.453125 0.546875 0.640625 1.375q0.09375 0.515625 0.09375 1.875l0 2.6875q0 2.828125 0.125 3.578125q0.140625 0.734375 0.515625 1.421875l-2.109375 0q-0.3125 -0.625 -0.40625 -1.46875zm-0.171875 -4.515625q-1.09375 0.453125 -3.296875 0.765625q-1.25 0.171875 -1.765625 0.40625q-0.515625 0.21875 -0.796875 0.65625q-0.28125 0.421875 -0.28125 0.953125q0 0.8125 0.609375 1.359375q0.625 0.53125 1.796875 0.53125q1.171875 0 2.078125 -0.515625q0.90625 -0.515625 1.34375 -1.390625q0.3125 -0.6875 0.3125 -2.03125l0 -0.734375zm4.1784363 2.421875l2.0 -0.3125q0.171875 1.203125 0.9375 1.84375q0.765625 0.640625 2.15625 0.640625q1.390625 0 2.0625 -0.5625q0.671875 -0.578125 0.671875 -1.34375q0 -0.671875 -0.59375 -1.078125q-0.40625 -0.265625 -2.0625 -0.671875q-2.21875 -0.5625 -3.078125 -0.96875q-0.859375 -0.421875 -1.3125 -1.140625q-0.4375 -0.734375 -0.4375 -1.609375q0 -0.796875 0.359375 -1.46875q0.375 -0.6875 1.0 -1.125q0.46875 -0.359375 1.28125 -0.59375q0.8125 -0.25 1.75 -0.25q1.40625 0 2.46875 0.40625q1.0625 0.40625 1.5625 1.109375q0.5 0.6875 0.6875 1.84375l-1.96875 0.265625q-0.140625 -0.921875 -0.78125 -1.4375q-0.640625 -0.515625 -1.828125 -0.515625q-1.390625 0 -1.984375 0.46875q-0.59375 0.453125 -0.59375 1.0625q0 0.390625 0.25 0.71875q0.25 0.3125 0.765625 0.53125q0.3125 0.109375 1.796875 0.515625q2.140625 0.578125 2.984375 0.9375q0.84375 0.359375 1.328125 1.0625q0.484375 0.703125 0.484375 1.734375q0 1.0 -0.59375 1.90625q-0.578125 0.890625 -1.703125 1.375q-1.109375 0.484375 -2.5 0.484375q-2.328125 0 -3.546875 -0.953125q-1.21875 -0.96875 -1.5625 -2.875zm18.435272 8.140625l0 -16.5l1.84375 0l0 1.546875q0.65625 -0.90625 1.46875 -1.359375q0.828125 -0.46875 1.984375 -0.46875q1.53125 0 2.703125 0.796875q1.171875 0.78125 1.765625 2.21875q0.59375 1.421875 0.59375 3.140625q0 1.828125 -0.65625 3.296875q-0.65625 1.453125 -1.921875 2.234375q-1.25 0.78125 -2.625 0.78125q-1.015625 0 -1.828125 -0.421875q-0.796875 -0.421875 -1.3125 -1.078125l0 5.8125l-2.015625 0zm1.828125 -10.46875q0 2.296875 0.9375 3.40625q0.9375 1.09375 2.25 1.09375q1.359375 0 2.3125 -1.140625q0.953125 -1.140625 0.953125 -3.53125q0 -2.28125 -0.9375 -3.40625q-0.9375 -1.140625 -2.234375 -1.140625q-1.296875 0 -2.296875 1.203125q-0.984375 1.203125 -0.984375 3.515625zm10.756561 5.890625l0 -11.921875l1.8125 0l0 1.796875q0.703125 -1.265625 1.28125 -1.671875q0.59375 -0.40625 1.296875 -0.40625q1.03125 0 2.078125 0.65625l-0.6875 1.875q-0.75 -0.4375 -1.484375 -0.4375q-0.671875 0 -1.203125 0.40625q-0.515625 0.390625 -0.734375 1.09375q-0.34375 1.078125 -0.34375 2.359375l0 6.25l-2.015625 0zm15.732208 -3.84375l2.078125 0.265625q-0.484375 1.828125 -1.828125 2.84375q-1.328125 1.0 -3.40625 1.0q-2.625 0 -4.15625 -1.609375q-1.53125 -1.609375 -1.53125 -4.515625q0 -3.015625 1.546875 -4.671875q1.546875 -1.671875 4.015625 -1.671875q2.40625 0 3.921875 1.640625q1.515625 1.625 1.515625 4.578125q0 0.171875 -0.015625 0.53125l-8.890625 0q0.109375 1.96875 1.109375 3.015625q1.0 1.046875 2.484375 1.046875q1.109375 0 1.890625 -0.578125q0.796875 -0.59375 1.265625 -1.875zm-6.640625 -3.265625l6.65625 0q-0.140625 -1.5 -0.765625 -2.25q-0.96875 -1.171875 -2.5 -1.171875q-1.390625 0 -2.34375 0.9375q-0.953125 0.921875 -1.046875 2.484375zm10.694092 8.09375l1.96875 0.296875q0.125 0.90625 0.6875 1.328125q0.75 0.5625 2.046875 0.5625q1.40625 0 2.171875 -0.5625q0.765625 -0.5625 1.03125 -1.578125q0.15625 -0.609375 0.15625 -2.59375q-1.328125 1.5625 -3.3125 1.5625q-2.453125 0 -3.8125 -1.765625q-1.34375 -1.78125 -1.34375 -4.265625q0 -1.703125 0.625 -3.140625q0.625 -1.453125 1.796875 -2.234375q1.171875 -0.796875 2.75 -0.796875q2.109375 0 3.484375 1.71875l0 -1.4375l1.859375 0l0 10.296875q0 2.796875 -0.5625 3.953125q-0.5625 1.171875 -1.796875 1.84375q-1.234375 0.671875 -3.03125 0.671875q-2.125 0 -3.453125 -0.96875q-1.3125 -0.953125 -1.265625 -2.890625zm1.671875 -7.15625q0 2.34375 0.9375 3.421875q0.9375 1.078125 2.34375 1.078125q1.390625 0 2.328125 -1.0625q0.9375 -1.078125 0.9375 -3.375q0 -2.1875 -0.96875 -3.296875q-0.96875 -1.109375 -2.34375 -1.109375q-1.34375 0 -2.296875 1.09375q-0.9375 1.09375 -0.9375 3.25zm19.115936 6.171875l0 -1.75q-1.390625 2.015625 -3.78125 2.015625q-1.046875 0 -1.96875 -0.40625q-0.921875 -0.40625 -1.359375 -1.015625q-0.4375 -0.609375 -0.625 -1.5q-0.125 -0.59375 -0.125 -1.875l0 -7.390625l2.03125 0l0 6.609375q0 1.578125 0.109375 2.140625q0.203125 0.796875 0.8125 1.25q0.625 0.453125 1.53125 0.453125q0.90625 0 1.703125 -0.46875q0.796875 -0.46875 1.125 -1.265625q0.34375 -0.8125 0.34375 -2.328125l0 -6.390625l2.015625 0l0 11.921875l-1.8125 0zm4.787842 0l0 -11.921875l1.8125 0l0 1.6875q1.328125 -1.96875 3.796875 -1.96875q1.078125 0 1.984375 0.390625q0.90625 0.390625 1.359375 1.03125q0.453125 0.625 0.625 1.484375q0.109375 0.5625 0.109375 1.96875l0 7.328125l-2.015625 0l0 -7.25q0 -1.234375 -0.234375 -1.84375q-0.234375 -0.625 -0.84375 -0.984375q-0.59375 -0.359375 -1.40625 -0.359375q-1.296875 0 -2.234375 0.8125q-0.9375 0.8125 -0.9375 3.109375l0 6.515625l-2.015625 0zm17.022186 -1.8125l0.28125 1.796875q-0.84375 0.171875 -1.53125 0.171875q-1.09375 0 -1.703125 -0.34375q-0.609375 -0.359375 -0.859375 -0.921875q-0.234375 -0.5625 -0.234375 -2.390625l0 -6.859375l-1.484375 0l0 -1.5625l1.484375 0l0 -2.953125l2.0 -1.21875l0 4.171875l2.046875 0l0 1.5625l-2.046875 0l0 6.984375q0 0.859375 0.109375 1.109375q0.109375 0.25 0.34375 0.390625q0.25 0.140625 0.703125 0.140625q0.328125 0 0.890625 -0.078125zm9.654022 0.34375q-1.125 0.953125 -2.171875 1.34375q-1.03125 0.390625 -2.21875 0.390625q-1.96875 0 -3.03125 -0.953125q-1.046875 -0.96875 -1.046875 -2.453125q0 -0.875 0.390625 -1.59375q0.40625 -0.734375 1.046875 -1.171875q0.65625 -0.4375 1.46875 -0.65625q0.59375 -0.171875 1.796875 -0.3125q2.4375 -0.296875 3.59375 -0.6875q0.015625 -0.421875 0.015625 -0.53125q0 -1.234375 -0.578125 -1.75q-0.765625 -0.671875 -2.296875 -0.671875q-1.421875 0 -2.109375 0.5q-0.671875 0.484375 -1.0 1.765625l-1.984375 -0.28125q0.28125 -1.265625 0.890625 -2.046875q0.625 -0.78125 1.78125 -1.203125q1.171875 -0.421875 2.71875 -0.421875q1.53125 0 2.484375 0.359375q0.953125 0.359375 1.390625 0.90625q0.453125 0.546875 0.640625 1.375q0.09375 0.515625 0.09375 1.875l0 2.6875q0 2.828125 0.125 3.578125q0.140625 0.734375 0.515625 1.421875l-2.109375 0q-0.3125 -0.625 -0.40625 -1.46875zm-0.171875 -4.515625q-1.09375 0.453125 -3.296875 0.765625q-1.25 0.171875 -1.765625 0.40625q-0.515625 0.21875 -0.796875 0.65625q-0.28125 0.421875 -0.28125 0.953125q0 0.8125 0.609375 1.359375q0.625 0.53125 1.796875 0.53125q1.171875 0 2.078125 -0.515625q0.90625 -0.515625 1.34375 -1.390625q0.3125 -0.6875 0.3125 -2.03125l0 -0.734375zm4.1784363 2.421875l2.0 -0.3125q0.171875 1.203125 0.9375 1.84375q0.765625 0.640625 2.15625 0.640625q1.390625 0 2.0625 -0.5625q0.671875 -0.578125 0.671875 -1.34375q0 -0.671875 -0.59375 -1.078125q-0.40625 -0.265625 -2.0625 -0.671875q-2.21875 -0.5625 -3.078125 -0.96875q-0.859375 -0.421875 -1.3125 -1.140625q-0.4375 -0.734375 -0.4375 -1.609375q0 -0.796875 0.359375 -1.46875q0.375 -0.6875 1.0 -1.125q0.46875 -0.359375 1.28125 -0.59375q0.8125 -0.25 1.75 -0.25q1.40625 0 2.46875 0.40625q1.0625 0.40625 1.5625 1.109375q0.5 0.6875 0.6875 1.84375l-1.96875 0.265625q-0.140625 -0.921875 -0.78125 -1.4375q-0.640625 -0.515625 -1.828125 -0.515625q-1.390625 0 -1.984375 0.46875q-0.59375 0.453125 -0.59375 1.0625q0 0.390625 0.25 0.71875q0.25 0.3125 0.765625 0.53125q0.3125 0.109375 1.796875 0.515625q2.140625 0.578125 2.984375 0.9375q0.84375 0.359375 1.328125 1.0625q0.484375 0.703125 0.484375 1.734375q0 1.0 -0.59375 1.90625q-0.578125 0.890625 -1.703125 1.375q-1.109375 0.484375 -2.5 0.484375q-2.328125 0 -3.546875 -0.953125q-1.21875 -0.96875 -1.5625 -2.875z" fill-rule="nonzero"></path><path fill="#000000" d="m394.4844 529.3304l0 1.9375l-10.875 0q-0.03125 -0.734375 0.234375 -1.40625q0.40625 -1.109375 1.3125 -2.1875q0.921875 -1.078125 2.65625 -2.5q2.6875 -2.1875 3.625 -3.46875q0.953125 -1.296875 0.953125 -2.4375q0 -1.203125 -0.859375 -2.03125q-0.859375 -0.828125 -2.25 -0.828125q-1.453125 0 -2.328125 0.875q-0.875 0.875 -0.890625 2.421875l-2.078125 -0.203125q0.21875 -2.328125 1.609375 -3.546875q1.390625 -1.21875 3.734375 -1.21875q2.375 0 3.75 1.3125q1.390625 1.3125 1.390625 3.265625q0 0.984375 -0.40625 1.9375q-0.40625 0.953125 -1.34375 2.015625q-0.9375 1.046875 -3.125 2.890625q-1.8125 1.53125 -2.328125 2.078125q-0.515625 0.53125 -0.859375 1.09375l8.078125 0zm8.459686 1.9375l0 -3.9375l-7.140625 0l0 -1.859375l7.515625 -10.671875l1.640625 0l0 10.671875l2.234375 0l0 1.859375l-2.234375 0l0 3.9375l-2.015625 0zm0 -5.796875l0 -7.421875l-5.15625 7.421875l5.15625 0zm12.8793335 10.390625l-0.21875 -1.890625q0.65625 0.171875 1.15625 0.171875q0.671875 0 1.078125 -0.234375q0.40625 -0.21875 0.65625 -0.625q0.203125 -0.296875 0.625 -1.5q0.046875 -0.171875 0.171875 -0.5l-4.515625 -11.9375l2.171875 0l2.484375 6.90625q0.484375 1.3125 0.859375 2.765625q0.359375 -1.40625 0.84375 -2.71875l2.546875 -6.953125l2.015625 0l-4.53125 12.125q-0.734375 1.96875 -1.140625 2.703125q-0.53125 1.0 -1.234375 1.46875q-0.703125 0.46875 -1.65625 0.46875q-0.59375 0 -1.3125 -0.25zm27.779022 -6.53125l0 1.9375l-10.875 0q-0.03125 -0.734375 0.234375 -1.40625q0.40625 -1.109375 1.3125 -2.1875q0.921875 -1.078125 2.65625 -2.5q2.6875 -2.1875 3.625 -3.46875q0.953125 -1.296875 0.953125 -2.4375q0 -1.203125 -0.859375 -2.03125q-0.859375 -0.828125 -2.25 -0.828125q-1.453125 0 -2.328125 0.875q-0.875 0.875 -0.890625 2.421875l-2.078125 -0.203125q0.21875 -2.328125 1.609375 -3.546875q1.390625 -1.21875 3.734375 -1.21875q2.375 0 3.75 1.3125q1.390625 1.3125 1.390625 3.265625q0 0.984375 -0.40625 1.9375q-0.40625 0.953125 -1.34375 2.015625q-0.9375 1.046875 -3.125 2.890625q-1.8125 1.53125 -2.328125 2.078125q-0.515625 0.53125 -0.859375 1.09375l8.078125 0zm2.2878113 -1.875l1.9375 -0.171875q0.25 1.375 0.9375 2.0q0.703125 0.609375 1.796875 0.609375q0.921875 0 1.625 -0.421875q0.703125 -0.4375 1.15625 -1.140625q0.453125 -0.71875 0.75 -1.9375q0.296875 -1.21875 0.296875 -2.46875q0 -0.140625 0 -0.40625q-0.609375 0.96875 -1.671875 1.578125q-1.046875 0.59375 -2.265625 0.59375q-2.046875 0 -3.46875 -1.484375q-1.40625 -1.484375 -1.40625 -3.90625q0 -2.515625 1.46875 -4.03125q1.484375 -1.53125 3.703125 -1.53125q1.609375 0 2.9375 0.875q1.34375 0.859375 2.03125 2.46875q0.6875 1.59375 0.6875 4.625q0 3.15625 -0.6875 5.03125q-0.6875 1.859375 -2.046875 2.84375q-1.34375 0.96875 -3.15625 0.96875q-1.9375 0 -3.171875 -1.0625q-1.21875 -1.078125 -1.453125 -3.03125zm8.265625 -7.265625q0 -1.734375 -0.921875 -2.75q-0.921875 -1.03125 -2.234375 -1.03125q-1.34375 0 -2.34375 1.109375q-1.0 1.09375 -1.0 2.84375q0 1.578125 0.953125 2.5625q0.953125 0.96875 2.34375 0.96875q1.40625 0 2.296875 -0.96875q0.90625 -0.984375 0.90625 -2.734375z" fill-rule="nonzero"></path><path fill="#d9d2e9" d="m16.640419 199.57742l0 0c0 -104.307884 84.55825 -188.86613 188.86615 -188.86613l0 0c50.09041 0 98.12927 19.89834 133.54852 55.31761c35.41928 35.419273 55.317627 83.458115 55.317627 133.54852l0 0c0 104.30789 -84.55826 188.86615 -188.86615 188.86615l0 0c-104.30789 0 -188.86615 -84.55826 -188.86615 -188.86615z" fill-rule="evenodd"></path><path stroke="#000000" stroke-width="1.0" stroke-linejoin="round" stroke-linecap="butt" d="m16.640419 199.57742l0 0c0 -104.307884 84.55825 -188.86613 188.86615 -188.86613l0 0c50.09041 0 98.12927 19.89834 133.54852 55.31761c35.41928 35.419273 55.317627 83.458115 55.317627 133.54852l0 0c0 104.30789 -84.55826 188.86615 -188.86615 188.86615l0 0c-104.30789 0 -188.86615 -84.55826 -188.86615 -188.86615z" fill-rule="evenodd"></path><path fill="#000000" d="m88.709946 105.23743l0 -20.765625l7.828125 0q2.078125 0 3.15625 0.203125q1.53125 0.25 2.5625 0.96875q1.046875 0.71875 1.671875 2.015625q0.625 1.28125 0.625 2.828125q0 2.640625 -1.6875 4.484375q-1.671875 1.828125 -6.078125 1.828125l-5.328125 0l0 8.4375l-2.75 0zm2.75 -10.890625l5.359375 0q2.671875 0 3.78125 -0.984375q1.125 -1.0 1.125 -2.796875q0 -1.296875 -0.65625 -2.21875q-0.65625 -0.9375 -1.734375 -1.234375q-0.703125 -0.1875 -2.5625 -0.1875l-5.3125 0l0 7.421875zm26.78038 6.046875l2.640625 0.328125q-0.625 2.3125 -2.3125 3.59375q-1.6875 1.265625 -4.296875 1.265625q-3.3125 0 -5.25 -2.03125q-1.921875 -2.03125 -1.921875 -5.703125q0 -3.796875 1.953125 -5.890625q1.953125 -2.09375 5.0625 -2.09375q3.03125 0 4.9375 2.0625q1.90625 2.046875 1.90625 5.765625q0 0.21875 -0.015625 0.671875l-11.203125 0q0.140625 2.484375 1.390625 3.8125q1.265625 1.3125 3.140625 1.3125q1.40625 0 2.390625 -0.734375q1.0 -0.75 1.578125 -2.359375zm-8.359375 -4.125l8.390625 0q-0.171875 -1.890625 -0.96875 -2.84375q-1.21875 -1.46875 -3.15625 -1.46875q-1.75 0 -2.953125 1.171875q-1.1875 1.171875 -1.3125 3.140625zm14.357788 8.96875l0 -15.03125l2.28125 0l0 2.265625q0.890625 -1.59375 1.625 -2.09375q0.75 -0.515625 1.640625 -0.515625q1.28125 0 2.609375 0.8125l-0.875 2.375q-0.9375 -0.5625 -1.859375 -0.5625q-0.84375 0 -1.515625 0.515625q-0.65625 0.5 -0.9375 1.390625q-0.421875 1.359375 -0.421875 2.96875l0 7.875l-2.546875 0zm8.766495 -4.484375l2.515625 -0.40625q0.21875 1.515625 1.1875 2.328125q0.96875 0.8125 2.71875 0.8125q1.75 0 2.59375 -0.71875q0.859375 -0.71875 0.859375 -1.6875q0 -0.859375 -0.75 -1.359375q-0.53125 -0.328125 -2.609375 -0.859375q-2.796875 -0.703125 -3.890625 -1.21875q-1.078125 -0.515625 -1.640625 -1.421875q-0.5625 -0.921875 -0.5625 -2.03125q0 -1.0 0.453125 -1.859375q0.46875 -0.859375 1.265625 -1.421875q0.59375 -0.4375 1.609375 -0.734375q1.03125 -0.3125 2.21875 -0.3125q1.765625 0 3.09375 0.515625q1.34375 0.5 1.984375 1.375q0.640625 0.875 0.875 2.328125l-2.484375 0.34375q-0.171875 -1.171875 -0.984375 -1.8125q-0.8125 -0.65625 -2.3125 -0.65625q-1.75 0 -2.5 0.578125q-0.75 0.578125 -0.75 1.359375q0 0.5 0.3125 0.890625q0.3125 0.40625 0.96875 0.6875q0.390625 0.140625 2.265625 0.640625q2.703125 0.734375 3.765625 1.1875q1.0625 0.453125 1.671875 1.34375q0.609375 0.875 0.609375 2.171875q0 1.28125 -0.75 2.40625q-0.734375 1.125 -2.140625 1.75q-1.390625 0.609375 -3.15625 0.609375q-2.9375 0 -4.484375 -1.21875q-1.53125 -1.21875 -1.953125 -3.609375zm14.7421875 -3.03125q0 -4.1875 2.3125 -6.1875q1.9375 -1.671875 4.734375 -1.671875q3.09375 0 5.0625 2.03125q1.96875 2.03125 1.96875 5.609375q0 2.90625 -0.875 4.578125q-0.859375 1.65625 -2.53125 2.578125q-1.65625 0.921875 -3.625 0.921875q-3.15625 0 -5.109375 -2.015625q-1.9375 -2.03125 -1.9375 -5.84375zm2.609375 0q0 2.890625 1.265625 4.328125q1.265625 1.4375 3.171875 1.4375q1.890625 0 3.15625 -1.4375q1.265625 -1.453125 1.265625 -4.421875q0 -2.78125 -1.28125 -4.21875q-1.265625 -1.4375 -3.140625 -1.4375q-1.90625 0 -3.171875 1.4375q-1.265625 1.421875 -1.265625 4.3125zm14.639038 7.515625l0 -15.03125l2.296875 0l0 2.125q1.65625 -2.46875 4.78125 -2.46875q1.359375 0 2.5 0.484375q1.140625 0.484375 1.703125 1.28125q0.578125 0.796875 0.796875 1.890625q0.140625 0.703125 0.140625 2.46875l0 9.25l-2.546875 0l0 -9.140625q0 -1.5625 -0.296875 -2.328125q-0.296875 -0.78125 -1.0625 -1.234375q-0.75 -0.46875 -1.765625 -0.46875q-1.625 0 -2.8125 1.03125q-1.1875 1.03125 -1.1875 3.921875l0 8.21875l-2.546875 0zm26.123413 -1.859375q-1.40625 1.203125 -2.71875 1.703125q-1.3125 0.5 -2.8125 0.5q-2.484375 0 -3.8125 -1.203125q-1.328125 -1.21875 -1.328125 -3.109375q0 -1.09375 0.5 -2.0q0.5 -0.921875 1.3125 -1.46875q0.828125 -0.5625 1.84375 -0.84375q0.75 -0.203125 2.265625 -0.390625q3.078125 -0.359375 4.546875 -0.875q0.015625 -0.515625 0.015625 -0.65625q0 -1.5625 -0.734375 -2.203125q-0.96875 -0.859375 -2.890625 -0.859375q-1.796875 0 -2.65625 0.625q-0.859375 0.625 -1.265625 2.234375l-2.5 -0.34375q0.34375 -1.59375 1.125 -2.578125q0.78125 -0.984375 2.25 -1.515625q1.46875 -0.53125 3.40625 -0.53125q1.9375 0 3.140625 0.453125q1.203125 0.453125 1.765625 1.140625q0.5625 0.6875 0.796875 1.734375q0.125 0.640625 0.125 2.34375l0 3.40625q0 3.546875 0.15625 4.5q0.171875 0.9375 0.640625 1.796875l-2.65625 0q-0.390625 -0.796875 -0.515625 -1.859375zm-0.203125 -5.6875q-1.390625 0.5625 -4.171875 0.96875q-1.5625 0.21875 -2.21875 0.5q-0.65625 0.28125 -1.015625 0.828125q-0.34375 0.546875 -0.34375 1.21875q0 1.015625 0.765625 1.703125q0.78125 0.671875 2.265625 0.671875q1.46875 0 2.609375 -0.640625q1.15625 -0.65625 1.703125 -1.765625q0.40625 -0.859375 0.40625 -2.546875l0 -0.9375zm5.685913 3.0625l2.515625 -0.40625q0.21875 1.515625 1.1875153 2.328125q0.96875 0.8125 2.71875 0.8125q1.75 0 2.59375 -0.71875q0.859375 -0.71875 0.859375 -1.6875q0 -0.859375 -0.75 -1.359375q-0.53125 -0.328125 -2.609375 -0.859375q-2.796875 -0.703125 -3.8906403 -1.21875q-1.078125 -0.515625 -1.640625 -1.421875q-0.5625 -0.921875 -0.5625 -2.03125q0 -1.0 0.453125 -1.859375q0.46875 -0.859375 1.265625 -1.421875q0.59375 -0.4375 1.6093903 -0.734375q1.03125 -0.3125 2.21875 -0.3125q1.765625 0 3.09375 0.515625q1.34375 0.5 1.984375 1.375q0.640625 0.875 0.875 2.328125l-2.484375 0.34375q-0.171875 -1.171875 -0.984375 -1.8125q-0.8125 -0.65625 -2.3125 -0.65625q-1.75 0 -2.5 0.578125q-0.75001526 0.578125 -0.75001526 1.359375q0 0.5 0.3125 0.890625q0.31251526 0.40625 0.96876526 0.6875q0.390625 0.140625 2.265625 0.640625q2.703125 0.734375 3.765625 1.1875q1.0625 0.453125 1.671875 1.34375q0.609375 0.875 0.609375 2.171875q0 1.28125 -0.75 2.40625q-0.734375 1.125 -2.140625 1.75q-1.390625 0.609375 -3.15625 0.609375q-2.9375 0 -4.4843903 -1.21875q-1.53125 -1.21875 -1.953125 -3.609375zm33.421738 10.25l0 -7.359375q-0.59375 0.828125 -1.671875 1.390625q-1.0625 0.546875 -2.265625 0.546875q-2.671875 0 -4.609375 -2.140625q-1.9375 -2.140625 -1.9375 -5.859375q0 -2.265625 0.78125 -4.0625q0.796875 -1.796875 2.28125 -2.71875q1.5 -0.9375 3.28125 -0.9375q2.796875 0 4.390625 2.34375l0 -2.0l2.296875 0l0 20.796875l-2.546875 0zm-7.859375 -13.328125q0 2.90625 1.21875 4.359375q1.21875 1.453125 2.921875 1.453125q1.625 0 2.796875 -1.375q1.171875 -1.390625 1.171875 -4.203125q0 -3.015625 -1.234375 -4.53125q-1.234375 -1.515625 -2.90625 -1.515625q-1.65625 0 -2.8125 1.421875q-1.15625 1.40625 -1.15625 4.390625zm24.435913 7.5625l0 -2.203125q-1.75 2.546875 -4.765625 2.546875q-1.328125 0 -2.484375 -0.515625q-1.15625 -0.515625 -1.71875 -1.28125q-0.5625 -0.765625 -0.78125 -1.890625q-0.15625 -0.75 -0.15625 -2.375l0 -9.3125l2.546875 0l0 8.328125q0 2.0 0.15625 2.703125q0.234375 1.0 1.015625 1.578125q0.78125 0.5625 1.921875 0.5625q1.15625 0 2.15625 -0.578125q1.0 -0.59375 1.421875 -1.609375q0.421875 -1.015625 0.421875 -2.9375l0 -8.046875l2.546875 0l0 15.03125l-2.28125 0zm16.748413 -4.84375l2.640625 0.328125q-0.625 2.3125 -2.3125 3.59375q-1.6875 1.265625 -4.296875 1.265625q-3.3125 0 -5.25 -2.03125q-1.921875 -2.03125 -1.921875 -5.703125q0 -3.796875 1.953125 -5.890625q1.953125 -2.09375 5.0625 -2.09375q3.03125 0 4.9375 2.0625q1.90625 2.046875 1.90625 5.765625q0 0.21875 -0.015625 0.671875l-11.203125 0q0.140625 2.484375 1.390625 3.8125q1.265625 1.3125 3.140625 1.3125q1.40625 0 2.390625 -0.734375q1.0 -0.75 1.578125 -2.359375zm-8.359375 -4.125l8.390625 0q-0.171875 -1.890625 -0.96875 -2.84375q-1.21875 -1.46875 -3.15625 -1.46875q-1.75 0 -2.953125 1.171875q-1.1875 1.171875 -1.3125 3.140625zm22.521729 8.96875l0 -20.765625l2.546875 0l0 7.453125q1.796875 -2.0625 4.515625 -2.0625q1.671875 0 2.890625 0.65625q1.234375 0.65625 1.765625 1.828125q0.53125 1.15625 0.53125 3.359375l0 9.53125l-2.546875 0l0 -9.53125q0 -1.90625 -0.828125 -2.78125q-0.828125 -0.875 -2.34375 -0.875q-1.125 0 -2.125 0.59375q-1.0 0.578125 -1.4375 1.59375q-0.421875 1.0 -0.421875 2.765625l0 8.234375l-2.546875 0zm26.123413 -1.859375q-1.40625 1.203125 -2.71875 1.703125q-1.3125 0.5 -2.8125 0.5q-2.484375 0 -3.8125 -1.203125q-1.328125 -1.21875 -1.328125 -3.109375q0 -1.09375 0.5 -2.0q0.5 -0.921875 1.3125 -1.46875q0.828125 -0.5625 1.84375 -0.84375q0.75 -0.203125 2.265625 -0.390625q3.078125 -0.359375 4.546875 -0.875q0.015625 -0.515625 0.015625 -0.65625q0 -1.5625 -0.734375 -2.203125q-0.96875 -0.859375 -2.890625 -0.859375q-1.796875 0 -2.65625 0.625q-0.859375 0.625 -1.265625 2.234375l-2.5 -0.34375q0.34375 -1.59375 1.125 -2.578125q0.78125 -0.984375 2.25 -1.515625q1.46875 -0.53125 3.40625 -0.53125q1.9375 0 3.140625 0.453125q1.203125 0.453125 1.765625 1.140625q0.5625 0.6875 0.796875 1.734375q0.125 0.640625 0.125 2.34375l0 3.40625q0 3.546875 0.15625 4.5q0.171875 0.9375 0.640625 1.796875l-2.65625 0q-0.390625 -0.796875 -0.515625 -1.859375zm-0.203125 -5.6875q-1.390625 0.5625 -4.171875 0.96875q-1.5625 0.21875 -2.21875 0.5q-0.65625 0.28125 -1.015625 0.828125q-0.34375 0.546875 -0.34375 1.21875q0 1.015625 0.765625 1.703125q0.78125 0.671875 2.265625 0.671875q1.46875 0 2.609375 -0.640625q1.15625 -0.65625 1.703125 -1.765625q0.40625 -0.859375 0.40625 -2.546875l0 -0.9375zm6.701538 7.546875l0 -15.03125l2.296875 0l0 2.125q1.65625 -2.46875 4.78125 -2.46875q1.359375 0 2.5 0.484375q1.140625 0.484375 1.703125 1.28125q0.578125 0.796875 0.796875 1.890625q0.140625 0.703125 0.140625 2.46875l0 9.25l-2.546875 0l0 -9.140625q0 -1.5625 -0.296875 -2.328125q-0.296875 -0.78125 -1.0625 -1.234375q-0.75 -0.46875 -1.765625 -0.46875q-1.625 0 -2.8125 1.03125q-1.1875 1.03125 -1.1875 3.921875l0 8.21875l-2.546875 0z" fill-rule="nonzero"></path><path fill="#000000" d="m105.208786 135.39368l2.640625 0.328125q-0.625 2.3125 -2.3125 3.59375q-1.6875 1.265625 -4.296875 1.265625q-3.3125 0 -5.25 -2.03125q-1.921875 -2.03125 -1.921875 -5.703125q0 -3.796875 1.953125 -5.890625q1.953125 -2.09375 5.0625 -2.09375q3.03125 0 4.9375 2.0625q1.90625 2.046875 1.90625 5.765625q0 0.21875 -0.015625 0.671875l-11.203125 0q0.140625 2.484375 1.390625 3.8125q1.265625 1.3125 3.140625 1.3125q1.40625 0 2.390625 -0.734375q1.0 -0.75 1.578125 -2.359375zm-8.359375 -4.125l8.390625 0q-0.171875 -1.890625 -0.96875 -2.84375q-1.21875 -1.46875 -3.15625 -1.46875q-1.75 0 -2.953125 1.171875q-1.1875 1.171875 -1.3125 3.140625zm13.357788 4.484375l2.515625 -0.40625q0.21875 1.515625 1.1875 2.328125q0.96875 0.8125 2.71875 0.8125q1.75 0 2.59375 -0.71875q0.859375 -0.71875 0.859375 -1.6875q0 -0.859375 -0.75 -1.359375q-0.53125 -0.328125 -2.609375 -0.859375q-2.796875 -0.703125 -3.890625 -1.21875q-1.078125 -0.515625 -1.640625 -1.421875q-0.5625 -0.921875 -0.5625 -2.03125q0 -1.0 0.453125 -1.859375q0.46875 -0.859375 1.265625 -1.421875q0.59375 -0.4375 1.609375 -0.734375q1.03125 -0.3125 2.21875 -0.3125q1.765625 0 3.09375 0.515625q1.34375 0.5 1.984375 1.375q0.640625 0.875 0.875 2.328125l-2.484375 0.34375q-0.171875 -1.171875 -0.984375 -1.8125q-0.8125 -0.65625 -2.3125 -0.65625q-1.75 0 -2.5 0.578125q-0.75 0.578125 -0.75 1.359375q0 0.5 0.3125 0.890625q0.3125 0.40625 0.96875 0.6875q0.390625 0.140625 2.265625 0.640625q2.703125 0.734375 3.765625 1.1875q1.0625 0.453125 1.671875 1.34375q0.609375 0.875 0.609375 2.171875q0 1.28125 -0.75 2.40625q-0.734375 1.125 -2.140625 1.75q-1.390625 0.609375 -3.15625 0.609375q-2.9375 0 -4.484375 -1.21875q-1.53125 -1.21875 -1.953125 -3.609375zm21.257812 2.203125l0.359375 2.25q-1.078125 0.234375 -1.921875 0.234375q-1.390625 0 -2.15625 -0.4375q-0.765625 -0.453125 -1.078125 -1.15625q-0.3125 -0.71875 -0.3125 -3.015625l0 -8.65625l-1.859375 0l0 -1.96875l1.859375 0l0 -3.734375l2.53125 -1.53125l0 5.265625l2.578125 0l0 1.96875l-2.578125 0l0 8.796875q0 1.09375 0.140625 1.40625q0.140625 0.3125 0.4375 0.5q0.3125 0.171875 0.875 0.171875q0.421875 0 1.125 -0.09375zm12.382675 0.421875q-1.40625 1.203125 -2.71875 1.703125q-1.3125 0.5 -2.8125 0.5q-2.484375 0 -3.8125 -1.203125q-1.328125 -1.21875 -1.328125 -3.109375q0 -1.09375 0.5 -2.0q0.5 -0.921875 1.3125 -1.46875q0.828125 -0.5625 1.84375 -0.84375q0.75 -0.203125 2.265625 -0.390625q3.078125 -0.359375 4.546875 -0.875q0.015625 -0.515625 0.015625 -0.65625q0 -1.5625 -0.734375 -2.203125q-0.96875 -0.859375 -2.890625 -0.859375q-1.796875 0 -2.65625 0.625q-0.859375 0.625 -1.265625 2.234375l-2.5 -0.34375q0.34375 -1.59375 1.125 -2.578125q0.78125 -0.984375 2.25 -1.515625q1.46875 -0.53125 3.40625 -0.53125q1.9375 0 3.140625 0.453125q1.203125 0.453125 1.765625 1.140625q0.5625 0.6875 0.796875 1.734375q0.125 0.640625 0.125 2.34375l0 3.40625q0 3.546875 0.15625 4.5q0.171875 0.9375 0.640625 1.796875l-2.65625 0q-0.390625 -0.796875 -0.515625 -1.859375zm-0.203125 -5.6875q-1.390625 0.5625 -4.171875 0.96875q-1.5625 0.21875 -2.21875 0.5q-0.65625 0.28125 -1.015625 0.828125q-0.34375 0.546875 -0.34375 1.21875q0 1.015625 0.765625 1.703125q0.78125 0.671875 2.265625 0.671875q1.46875 0 2.609375 -0.640625q1.15625 -0.65625 1.703125 -1.765625q0.40625 -0.859375 0.40625 -2.546875l0 -0.9375zm16.467163 7.546875l0 -1.890625q-1.4375 2.234375 -4.203125 2.234375q-1.796875 0 -3.3125 -0.984375q-1.515625 -1.0 -2.34375 -2.78125q-0.828125 -1.78125 -0.828125 -4.078125q0 -2.25 0.75 -4.078125q0.765625 -1.84375 2.265625 -2.8125q1.5 -0.984375 3.34375 -0.984375q1.359375 0 2.421875 0.578125q1.0625 0.5625 1.734375 1.484375l0 -7.453125l2.53125 0l0 20.765625l-2.359375 0zm-8.0625 -7.5q0 2.890625 1.21875 4.328125q1.21875 1.421875 2.875 1.421875q1.671875 0 2.828125 -1.359375q1.171875 -1.375 1.171875 -4.1875q0 -3.078125 -1.1875 -4.515625q-1.1875 -1.453125 -2.921875 -1.453125q-1.703125 0 -2.84375 1.390625q-1.140625 1.375 -1.140625 4.375zm13.670288 -0.015625q0 -4.1875 2.3125 -6.1875q1.9375 -1.671875 4.734375 -1.671875q3.09375 0 5.0625 2.03125q1.96875 2.03125 1.96875 5.609375q0 2.90625 -0.875 4.578125q-0.859375 1.65625 -2.53125 2.578125q-1.65625 0.921875 -3.625 0.921875q-3.15625 0 -5.109375 -2.015625q-1.9375 -2.03125 -1.9375 -5.84375zm2.609375 0q0 2.890625 1.265625 4.328125q1.265625 1.4375 3.171875 1.4375q1.890625 0 3.15625 -1.4375q1.265625 -1.453125 1.265625 -4.421875q0 -2.78125 -1.28125 -4.21875q-1.265625 -1.4375 -3.140625 -1.4375q-1.90625 0 -3.171875 1.4375q-1.265625 1.421875 -1.265625 4.3125zm22.787338 7.515625l0 -15.03125l2.28125 0l0 2.109375q0.71875 -1.109375 1.890625 -1.78125q1.171875 -0.671875 2.671875 -0.671875q1.671875 0 2.7343903 0.703125q1.078125 0.6875 1.515625 1.921875q1.78125 -2.625 4.640625 -2.625q2.234375 0 3.4375 1.234375q1.203125 1.234375 1.203125 3.8125l0 10.328125l-2.53125 0l0 -9.46875q0 -1.53125 -0.25 -2.203125q-0.234375 -0.671875 -0.890625 -1.078125q-0.65625 -0.421875 -1.53125 -0.421875q-1.59375 0 -2.640625 1.0625q-1.046875 1.046875 -1.046875 3.375l0 8.734375l-2.546875 0l0 -9.765625q0 -1.703125 -0.62501526 -2.546875q-0.625 -0.859375 -2.03125 -0.859375q-1.078125 0 -2.0 0.578125q-0.90625 0.5625 -1.328125 1.65625q-0.40625 1.078125 -0.40625 3.140625l0 7.796875l-2.546875 0zm34.727432 -4.84375l2.640625 0.328125q-0.625 2.3125 -2.3125 3.59375q-1.6875 1.265625 -4.296875 1.265625q-3.3125 0 -5.25 -2.03125q-1.921875 -2.03125 -1.921875 -5.703125q0 -3.796875 1.953125 -5.890625q1.953125 -2.09375 5.0625 -2.09375q3.03125 0 4.9375 2.0625q1.90625 2.046875 1.90625 5.765625q0 0.21875 -0.015625 0.671875l-11.203125 0q0.140625 2.484375 1.390625 3.8125q1.265625 1.3125 3.140625 1.3125q1.40625 0 2.390625 -0.734375q1.0 -0.75 1.578125 -2.359375zm-8.359375 -4.125l8.390625 0q-0.171875 -1.890625 -0.96875 -2.84375q-1.21875 -1.46875 -3.15625 -1.46875q-1.75 0 -2.953125 1.171875q-1.1875 1.171875 -1.3125 3.140625zm14.373413 8.96875l0 -15.03125l2.296875 0l0 2.125q1.65625 -2.46875 4.78125 -2.46875q1.359375 0 2.5 0.484375q1.140625 0.484375 1.703125 1.28125q0.578125 0.796875 0.796875 1.890625q0.140625 0.703125 0.140625 2.46875l0 9.25l-2.546875 0l0 -9.140625q0 -1.5625 -0.296875 -2.328125q-0.296875 -0.78125 -1.0625 -1.234375q-0.75 -0.46875 -1.765625 -0.46875q-1.625 0 -2.8125 1.03125q-1.1875 1.03125 -1.1875 3.921875l0 8.21875l-2.546875 0zm15.373413 -7.515625q0 -4.1875 2.3125 -6.1875q1.9375 -1.671875 4.734375 -1.671875q3.09375 0 5.0625 2.03125q1.96875 2.03125 1.96875 5.609375q0 2.90625 -0.875 4.578125q-0.859375 1.65625 -2.53125 2.578125q-1.65625 0.921875 -3.625 0.921875q-3.15625 0 -5.109375 -2.015625q-1.9375 -2.03125 -1.9375 -5.84375zm2.609375 0q0 2.890625 1.265625 4.328125q1.265625 1.4375 3.171875 1.4375q1.890625 0 3.15625 -1.4375q1.265625 -1.453125 1.265625 -4.421875q0 -2.78125 -1.28125 -4.21875q-1.265625 -1.4375 -3.140625 -1.4375q-1.90625 0 -3.171875 1.4375q-1.265625 1.421875 -1.265625 4.3125zm13.623413 3.03125l2.515625 -0.40625q0.21875 1.515625 1.1875 2.328125q0.96875 0.8125 2.71875 0.8125q1.75 0 2.59375 -0.71875q0.859375 -0.71875 0.859375 -1.6875q0 -0.859375 -0.75 -1.359375q-0.53125 -0.328125 -2.609375 -0.859375q-2.796875 -0.703125 -3.890625 -1.21875q-1.078125 -0.515625 -1.640625 -1.421875q-0.5625 -0.921875 -0.5625 -2.03125q0 -1.0 0.453125 -1.859375q0.46875 -0.859375 1.265625 -1.421875q0.59375 -0.4375 1.609375 -0.734375q1.03125 -0.3125 2.21875 -0.3125q1.765625 0 3.09375 0.515625q1.34375 0.5 1.984375 1.375q0.640625 0.875 0.875 2.328125l-2.484375 0.34375q-0.171875 -1.171875 -0.984375 -1.8125q-0.8125 -0.65625 -2.3125 -0.65625q-1.75 0 -2.5 0.578125q-0.75 0.578125 -0.75 1.359375q0 0.5 0.3125 0.890625q0.3125 0.40625 0.96875 0.6875q0.390625 0.140625 2.265625 0.640625q2.703125 0.734375 3.765625 1.1875q1.0625 0.453125 1.671875 1.34375q0.609375 0.875 0.609375 2.171875q0 1.28125 -0.75 2.40625q-0.734375 1.125 -2.140625 1.75q-1.390625 0.609375 -3.15625 0.609375q-2.9375 0 -4.484375 -1.21875q-1.53125 -1.21875 -1.953125 -3.609375zm33.593628 4.484375l0 -1.890625q-1.4375 2.234375 -4.203125 2.234375q-1.796875 0 -3.3125 -0.984375q-1.515625 -1.0 -2.34375 -2.78125q-0.828125 -1.78125 -0.828125 -4.078125q0 -2.25 0.75 -4.078125q0.765625 -1.84375 2.265625 -2.8125q1.5 -0.984375 3.34375 -0.984375q1.359375 0 2.421875 0.578125q1.0625 0.5625 1.734375 1.484375l0 -7.453125l2.53125 0l0 20.765625l-2.359375 0zm-8.0625 -7.5q0 2.890625 1.21875 4.328125q1.21875 1.421875 2.875 1.421875q1.671875 0 2.828125 -1.359375q1.171875 -1.375 1.171875 -4.1875q0 -3.078125 -1.1875 -4.515625q-1.1875 -1.453125 -2.921875 -1.453125q-1.703125 0 -2.84375 1.390625q-1.140625 1.375 -1.140625 4.375zm24.904663 2.65625l2.640625 0.328125q-0.625 2.3125 -2.3125 3.59375q-1.6875 1.265625 -4.296875 1.265625q-3.3125 0 -5.25 -2.03125q-1.921875 -2.03125 -1.921875 -5.703125q0 -3.796875 1.953125 -5.890625q1.953125 -2.09375 5.0625 -2.09375q3.03125 0 4.9375 2.0625q1.90625 2.046875 1.90625 5.765625q0 0.21875 -0.015625 0.671875l-11.203125 0q0.140625 2.484375 1.390625 3.8125q1.265625 1.3125 3.140625 1.3125q1.40625 0 2.390625 -0.734375q1.0 -0.75 1.578125 -2.359375zm-8.359375 -4.125l8.390625 0q-0.171875 -1.890625 -0.96875 -2.84375q-1.21875 -1.46875 -3.15625 -1.46875q-1.75 0 -2.953125 1.171875q-1.1875 1.171875 -1.3125 3.140625z" fill-rule="nonzero"></path><path fill="#000000" d="m107.433685 157.19055l0 -2.4375l13.4375 0l0 1.984375q-1.984375 2.109375 -3.9375 5.609375q-1.9375 3.484375 -3.0 7.1875q-0.765625 2.609375 -0.984375 5.703125l-2.609375 0q0.03125 -2.453125 0.953125 -5.921875q0.921875 -3.46875 2.640625 -6.6875q1.71875 -3.21875 3.671875 -5.4375l-10.171875 0zm16.139038 12.609375l2.671875 -0.234375q0.296875 1.96875 1.375 2.953125q1.09375 0.984375 2.625 0.984375q1.84375 0 3.109375 -1.390625q1.28125 -1.390625 1.28125 -3.6875q0 -2.171875 -1.234375 -3.4375q-1.21875 -1.265625 -3.203125 -1.265625q-1.234375 0 -2.234375 0.5625q-0.984375 0.5625 -1.546875 1.453125l-2.390625 -0.3125l2.015625 -10.65625l10.3125 0l0 2.421875l-8.28125 0l-1.109375 5.578125q1.859375 -1.296875 3.921875 -1.296875q2.71875 0 4.578125 1.890625q1.875 1.875 1.875 4.84375q0 2.8125 -1.640625 4.859375q-2.0 2.53125 -5.453125 2.53125q-2.828125 0 -4.625 -1.578125q-1.796875 -1.59375 -2.046875 -4.21875zm25.162338 5.4375l0 -15.03125l2.28125 0l0 2.109375q0.71875 -1.109375 1.890625 -1.78125q1.171875 -0.671875 2.671875 -0.671875q1.671875 0 2.734375 0.703125q1.078125 0.6875 1.515625 1.921875q1.78125 -2.625 4.640625 -2.625q2.234375 0 3.4375 1.234375q1.203125 1.234375 1.203125 3.8125l0 10.328125l-2.53125 0l0 -9.46875q0 -1.53125 -0.25 -2.203125q-0.234375 -0.671875 -0.890625 -1.078125q-0.65625 -0.421875 -1.53125 -0.421875q-1.59375 0 -2.640625 1.0625q-1.046875 1.046875 -1.046875 3.375l0 8.734375l-2.546875 0l0 -9.765625q0 -1.703125 -0.625 -2.546875q-0.625 -0.859375 -2.03125 -0.859375q-1.078125 0 -2.0 0.578125q-0.90625 0.5625 -1.328125 1.65625q-0.40625 1.078125 -0.40625 3.140625l0 7.796875l-2.546875 0zm34.727432 -4.84375l2.640625 0.328125q-0.625 2.3125 -2.3125 3.59375q-1.6875 1.265625 -4.296875 1.265625q-3.3125 0 -5.25 -2.03125q-1.921875 -2.03125 -1.921875 -5.703125q0 -3.796875 1.953125 -5.890625q1.953125 -2.09375 5.0625 -2.09375q3.03125 0 4.9375 2.0625q1.90625 2.046875 1.90625 5.765625q0 0.21875 -0.015625 0.671875l-11.203125 0q0.140625 2.484375 1.390625 3.8125q1.265625 1.3125 3.140625 1.3125q1.40625 0 2.390625 -0.734375q1.0 -0.75 1.578125 -2.359375zm-8.359375 -4.125l8.390625 0q-0.171875 -1.890625 -0.96875 -2.84375q-1.21875 -1.46875 -3.15625 -1.46875q-1.75 0 -2.953125 1.171875q-1.1875 1.171875 -1.3125 3.140625zm13.357788 4.484375l2.515625 -0.40625q0.21875 1.515625 1.1875 2.328125q0.96875 0.8125 2.71875 0.8125q1.75 0 2.59375 -0.71875q0.859375 -0.71875 0.859375 -1.6875q0 -0.859375 -0.75 -1.359375q-0.53125 -0.328125 -2.609375 -0.859375q-2.796875 -0.703125 -3.890625 -1.21875q-1.078125 -0.515625 -1.640625 -1.421875q-0.5625 -0.921875 -0.5625 -2.03125q0 -1.0 0.453125 -1.859375q0.46875 -0.859375 1.265625 -1.421875q0.59375 -0.4375 1.609375 -0.734375q1.03125 -0.3125 2.21875 -0.3125q1.765625 0 3.09375 0.515625q1.34375 0.5 1.984375 1.375q0.640625 0.875 0.875 2.328125l-2.484375 0.34375q-0.171875 -1.171875 -0.984375 -1.8125q-0.8125 -0.65625 -2.3125 -0.65625q-1.75 0 -2.5 0.578125q-0.75 0.578125 -0.75 1.359375q0 0.5 0.3125 0.890625q0.3125 0.40625 0.96875 0.6875q0.390625 0.140625 2.265625 0.640625q2.703125 0.734375 3.765625 1.1875q1.0625 0.453125 1.671875 1.34375q0.609375 0.875 0.609375 2.171875q0 1.28125 -0.75 2.40625q-0.734375 1.125 -2.140625 1.75q-1.390625 0.609375 -3.15625 0.609375q-2.9375 0 -4.484375 -1.21875q-1.53125 -1.21875 -1.953125 -3.609375zm25.976562 -0.359375l2.640625 0.328125q-0.625 2.3125 -2.3125 3.59375q-1.6875 1.265625 -4.296875 1.265625q-3.3125 0 -5.25 -2.03125q-1.921875 -2.03125 -1.921875 -5.703125q0 -3.796875 1.953125 -5.890625q1.953125 -2.09375 5.0625 -2.09375q3.03125 0 4.9375 2.0625q1.90625 2.046875 1.90625 5.765625q0 0.21875 -0.015625 0.671875l-11.203125 0q0.140625 2.484375 1.390625 3.8125q1.265625 1.3125 3.140625 1.3125q1.40625 0 2.390625 -0.734375q1.0 -0.75 1.578125 -2.359375zm-8.359375 -4.125l8.390625 0q-0.171875 -1.890625 -0.96875 -2.84375q-1.21875 -1.46875 -3.15625 -1.46875q-1.75 0 -2.953125 1.171875q-1.1875 1.171875 -1.3125 3.140625zm13.357788 4.484375l2.515625 -0.40625q0.21875 1.515625 1.1875 2.328125q0.96875 0.8125 2.71875 0.8125q1.75 0 2.59375 -0.71875q0.859375 -0.71875 0.859375 -1.6875q0 -0.859375 -0.75 -1.359375q-0.53125 -0.328125 -2.609375 -0.859375q-2.796875 -0.703125 -3.890625 -1.21875q-1.078125 -0.515625 -1.640625 -1.421875q-0.5625 -0.921875 -0.5625 -2.03125q0 -1.0 0.453125 -1.859375q0.46875 -0.859375 1.265625 -1.421875q0.59375 -0.4375 1.609375 -0.734375q1.03125 -0.3125 2.21875 -0.3125q1.765625 0 3.09375 0.515625q1.34375 0.5 1.984375 1.375q0.640625 0.875 0.875 2.328125l-2.484375 0.34375q-0.171875 -1.171875 -0.984375 -1.8125q-0.8125 -0.65625 -2.3125 -0.65625q-1.75 0 -2.5 0.578125q-0.75 0.578125 -0.75 1.359375q0 0.5 0.3125 0.890625q0.3125 0.40625 0.96875 0.6875q0.390625 0.140625 2.265625 0.640625q2.703125 0.734375 3.765625 1.1875q1.0625 0.453125 1.671875 1.34375q0.609375 0.875 0.609375 2.171875q0 1.28125 -0.75 2.40625q-0.734375 1.125 -2.140625 1.75q-1.390625 0.609375 -3.15625 0.609375q-2.9375 0 -4.484375 -1.21875q-1.53125 -1.21875 -1.953125 -3.609375zm34.124878 -0.359375l2.640625 0.328125q-0.625 2.3125 -2.3125 3.59375q-1.6875 1.265625 -4.296875 1.265625q-3.3125 0 -5.25 -2.03125q-1.921875 -2.03125 -1.921875 -5.703125q0 -3.796875 1.953125 -5.890625q1.953125 -2.09375 5.0625 -2.09375q3.03125 0 4.9375 2.0625q1.90625 2.046875 1.90625 5.765625q0 0.21875 -0.015625 0.671875l-11.203125 0q0.140625 2.484375 1.390625 3.8125q1.265625 1.3125 3.140625 1.3125q1.40625 0 2.390625 -0.734375q1.0 -0.75 1.578125 -2.359375zm-8.359375 -4.125l8.390625 0q-0.171875 -1.890625 -0.96875 -2.84375q-1.21875 -1.46875 -3.15625 -1.46875q-1.75 0 -2.953125 1.171875q-1.1875 1.171875 -1.3125 3.140625zm14.373413 8.96875l0 -15.03125l2.296875 0l0 2.125q1.65625 -2.46875 4.78125 -2.46875q1.359375 0 2.5 0.484375q1.140625 0.484375 1.703125 1.28125q0.578125 0.796875 0.796875 1.890625q0.140625 0.703125 0.140625 2.46875l0 9.25l-2.546875 0l0 -9.140625q0 -1.5625 -0.296875 -2.328125q-0.296875 -0.78125 -1.0625 -1.234375q-0.75 -0.46875 -1.765625 -0.46875q-1.625 0 -2.8125 1.03125q-1.1875 1.03125 -1.1875 3.921875l0 8.21875l-2.546875 0zm24.412323 0l0 -20.765625l2.546875 0l0 20.765625l-2.546875 0zm16.375153 -1.859375q-1.40625 1.203125 -2.71875 1.703125q-1.3125 0.5 -2.8125 0.5q-2.484375 0 -3.8125 -1.203125q-1.328125 -1.21875 -1.328125 -3.109375q0 -1.09375 0.5 -2.0q0.5 -0.921875 1.3125 -1.46875q0.828125 -0.5625 1.84375 -0.84375q0.75 -0.203125 2.265625 -0.390625q3.078125 -0.359375 4.546875 -0.875q0.015625 -0.515625 0.015625 -0.65625q0 -1.5625 -0.734375 -2.203125q-0.96875 -0.859375 -2.890625 -0.859375q-1.796875 0 -2.65625 0.625q-0.859375 0.625 -1.265625 2.234375l-2.5 -0.34375q0.34375 -1.59375 1.125 -2.578125q0.78125 -0.984375 2.25 -1.515625q1.46875 -0.53125 3.40625 -0.53125q1.9375 0 3.140625 0.453125q1.203125 0.453125 1.765625 1.140625q0.5625 0.6875 0.796875 1.734375q0.125 0.640625 0.125 2.34375l0 3.40625q0 3.546875 0.15625 4.5q0.171875 0.9375 0.640625 1.796875l-2.65625 0q-0.390625 -0.796875 -0.515625 -1.859375zm-0.203125 -5.6875q-1.390625 0.5625 -4.171875 0.96875q-1.5625 0.21875 -2.21875 0.5q-0.65625 0.28125 -1.015625 0.828125q-0.34375 0.546875 -0.34375 1.21875q0 1.015625 0.765625 1.703125q0.78125 0.671875 2.265625 0.671875q1.46875 0 2.609375 -0.640625q1.15625 -0.65625 1.703125 -1.765625q0.40625 -0.859375 0.40625 -2.546875l0 -0.9375z" fill-rule="nonzero"></path><path fill="#000000" d="m111.91785 202.7218q0 -4.1875 2.3125 -6.1875q1.9375 -1.671875 4.734375 -1.671875q3.09375 0 5.0625 2.03125q1.96875 2.03125 1.96875 5.609375q0 2.90625 -0.875 4.578125q-0.859375 1.65625 -2.53125 2.578125q-1.65625 0.921875 -3.625 0.921875q-3.15625 0 -5.109375 -2.015625q-1.9375 -2.03125 -1.9375 -5.84375zm2.609375 0q0 2.890625 1.265625 4.328125q1.265625 1.4375 3.171875 1.4375q1.890625 0 3.15625 -1.4375q1.265625 -1.453125 1.265625 -4.421875q0 -2.78125 -1.28125 -4.21875q-1.265625 -1.4375 -3.140625 -1.4375q-1.90625 0 -3.171875 1.4375q-1.265625 1.421875 -1.265625 4.3125zm14.623413 7.515625l0 -15.03125l2.28125 0l0 2.265625q0.890625 -1.59375 1.625 -2.09375q0.75 -0.515625 1.640625 -0.515625q1.28125 0 2.609375 0.8125l-0.875 2.375q-0.9375 -0.5625 -1.859375 -0.5625q-0.84375 0 -1.515625 0.515625q-0.65625 0.5 -0.9375 1.390625q-0.421875 1.359375 -0.421875 2.96875l0 7.875l-2.546875 0zm9.31337 1.25l2.484375 0.359375q0.15625 1.15625 0.859375 1.671875q0.953125 0.71875 2.59375 0.71875q1.765625 0 2.734375 -0.71875q0.96875 -0.703125 1.296875 -1.984375q0.203125 -0.765625 0.1875 -3.265625q-1.671875 1.96875 -4.15625 1.96875q-3.109375 0 -4.8125 -2.234375q-1.6875 -2.234375 -1.6875 -5.375q0 -2.140625 0.78125 -3.953125q0.78125 -1.828125 2.25 -2.8125q1.484375 -1.0 3.484375 -1.0q2.65625 0 4.390625 2.15625l0 -1.8125l2.34375 0l0 12.984375q0 3.515625 -0.71875 4.984375q-0.703125 1.46875 -2.265625 2.3125q-1.546875 0.859375 -3.8125 0.859375q-2.6875 0 -4.34375 -1.21875q-1.65625 -1.203125 -1.609375 -3.640625zm2.109375 -9.03125q0 2.953125 1.171875 4.3125q1.1875 1.359375 2.953125 1.359375q1.765625 0 2.953125 -1.34375q1.1875 -1.359375 1.1875 -4.25q0 -2.765625 -1.234375 -4.15625q-1.21875 -1.40625 -2.953125 -1.40625q-1.6875 0 -2.890625 1.390625q-1.1875 1.375 -1.1875 4.09375zm24.482788 5.921875q-1.40625 1.203125 -2.71875 1.703125q-1.3125 0.5 -2.8125 0.5q-2.484375 0 -3.8125 -1.203125q-1.328125 -1.21875 -1.328125 -3.109375q0 -1.09375 0.5 -2.0q0.5 -0.921875 1.3125 -1.46875q0.828125 -0.5625 1.84375 -0.84375q0.75 -0.203125 2.265625 -0.390625q3.078125 -0.359375 4.546875 -0.875q0.015625 -0.515625 0.015625 -0.65625q0 -1.5625 -0.734375 -2.203125q-0.96875 -0.859375 -2.890625 -0.859375q-1.796875 0 -2.65625 0.625q-0.859375 0.625 -1.265625 2.234375l-2.5 -0.34375q0.34375 -1.59375 1.125 -2.578125q0.78125 -0.984375 2.25 -1.515625q1.46875 -0.53125 3.40625 -0.53125q1.9375 0 3.140625 0.453125q1.203125 0.453125 1.765625 1.140625q0.5625 0.6875 0.796875 1.734375q0.125 0.640625 0.125 2.34375l0 3.40625q0 3.546875 0.15625 4.5q0.171875 0.9375 0.640625 1.796875l-2.65625 0q-0.390625 -0.796875 -0.515625 -1.859375zm-0.203125 -5.6875q-1.390625 0.5625 -4.171875 0.96875q-1.5625 0.21875 -2.21875 0.5q-0.65625 0.28125 -1.015625 0.828125q-0.34375 0.546875 -0.34375 1.21875q0 1.015625 0.765625 1.703125q0.78125 0.671875 2.265625 0.671875q1.46875 0 2.609375 -0.640625q1.15625 -0.65625 1.703125 -1.765625q0.40625 -0.859375 0.40625 -2.546875l0 -0.9375zm6.701538 7.546875l0 -15.03125l2.296875 0l0 2.125q1.65625 -2.46875 4.78125 -2.46875q1.359375 0 2.5 0.484375q1.140625 0.484375 1.703125 1.28125q0.578125 0.796875 0.796875 1.890625q0.140625 0.703125 0.140625 2.46875l0 9.25l-2.546875 0l0 -9.140625q0 -1.5625 -0.296875 -2.328125q-0.296875 -0.78125 -1.0625 -1.234375q-0.75 -0.46875 -1.765625 -0.46875q-1.625 0 -2.8125 1.03125q-1.1875 1.03125 -1.1875 3.921875l0 8.21875l-2.546875 0zm16.326538 -17.828125l0 -2.9375l2.546875 0l0 2.9375l-2.546875 0zm0 17.828125l0 -15.03125l2.546875 0l0 15.03125l-2.546875 0zm5.1564026 0l0 -2.0625l9.57814 -11.0q-1.625 0.09375 -2.8750153 0.09375l-6.125 0l0 -2.0625l12.281265 0l0 1.671875l-8.14064 9.546875l-1.578125 1.75q1.71875 -0.125 3.21875 -0.125l6.9531403 0l0 2.1875l-13.312515 0zm25.820328 -1.859375q-1.40625 1.203125 -2.71875 1.703125q-1.3125 0.5 -2.8125 0.5q-2.484375 0 -3.8125 -1.203125q-1.328125 -1.21875 -1.328125 -3.109375q0 -1.09375 0.5 -2.0q0.5 -0.921875 1.3125 -1.46875q0.828125 -0.5625 1.84375 -0.84375q0.75 -0.203125 2.265625 -0.390625q3.078125 -0.359375 4.546875 -0.875q0.015625 -0.515625 0.015625 -0.65625q0 -1.5625 -0.734375 -2.203125q-0.96875 -0.859375 -2.890625 -0.859375q-1.796875 0 -2.65625 0.625q-0.859375 0.625 -1.265625 2.234375l-2.5 -0.34375q0.34375 -1.59375 1.125 -2.578125q0.78125 -0.984375 2.25 -1.515625q1.46875 -0.53125 3.40625 -0.53125q1.9375 0 3.140625 0.453125q1.203125 0.453125 1.765625 1.140625q0.5625 0.6875 0.796875 1.734375q0.125 0.640625 0.125 2.34375l0 3.40625q0 3.546875 0.15625 4.5q0.171875 0.9375 0.640625 1.796875l-2.65625 0q-0.390625 -0.796875 -0.515625 -1.859375zm-0.203125 -5.6875q-1.390625 0.5625 -4.171875 0.96875q-1.5625 0.21875 -2.21875 0.5q-0.65625 0.28125 -1.015625 0.828125q-0.34375 0.546875 -0.34375 1.21875q0 1.015625 0.765625 1.703125q0.78125 0.671875 2.265625 0.671875q1.46875 0 2.609375 -0.640625q1.15625 -0.65625 1.703125 -1.765625q0.40625 -0.859375 0.40625 -2.546875l0 -0.9375zm16.514038 2.03125l2.515625 0.328125q-0.40625 2.59375 -2.109375 4.0625q-1.6875 1.46875 -4.15625 1.46875q-3.078125 0 -4.953125 -2.015625q-1.875 -2.03125 -1.875 -5.796875q0 -2.421875 0.796875 -4.25q0.8125 -1.828125 2.453125 -2.734375q1.65625 -0.921875 3.59375 -0.921875q2.453125 0 4.0 1.234375q1.5625 1.234375 2.0 3.515625l-2.46875 0.390625q-0.359375 -1.515625 -1.265625 -2.28125q-0.890625 -0.765625 -2.171875 -0.765625q-1.921875 0 -3.125 1.390625q-1.203125 1.375 -1.203125 4.359375q0 3.03125 1.15625 4.40625q1.171875 1.375 3.03125 1.375q1.5 0 2.5 -0.921875q1.015625 -0.921875 1.28125 -2.84375zm4.8671875 -12.3125l0 -2.9375l2.546875 0l0 2.9375l-2.546875 0zm0 17.828125l0 -15.03125l2.546875 0l0 15.03125l-2.546875 0zm5.5626526 -7.515625q0 -4.1875 2.3125 -6.1875q1.9375 -1.671875 4.734375 -1.671875q3.09375 0 5.0625 2.03125q1.96875 2.03125 1.96875 5.609375q0 2.90625 -0.875 4.578125q-0.859375 1.65625 -2.53125 2.578125q-1.65625 0.921875 -3.625 0.921875q-3.15625 0 -5.109375 -2.015625q-1.9375 -2.03125 -1.9375 -5.84375zm2.609375 0q0 2.890625 1.265625 4.328125q1.265625 1.4375 3.171875 1.4375q1.890625 0 3.15625 -1.4375q1.265625 -1.453125 1.265625 -4.421875q0 -2.78125 -1.28125 -4.21875q-1.265625 -1.4375 -3.140625 -1.4375q-1.90625 0 -3.171875 1.4375q-1.265625 1.421875 -1.265625 4.3125zm2.5625 -9.390625l1.890625 -3.96875l3.34375 0l-3.125 3.96875l-2.109375 0zm12.076538 16.90625l0 -15.03125l2.296875 0l0 2.125q1.65625 -2.46875 4.78125 -2.46875q1.359375 0 2.5 0.484375q1.140625 0.484375 1.703125 1.28125q0.578125 0.796875 0.796875 1.890625q0.140625 0.703125 0.140625 2.46875l0 9.25l-2.546875 0l0 -9.140625q0 -1.5625 -0.296875 -2.328125q-0.296875 -0.78125 -1.0625 -1.234375q-0.75 -0.46875 -1.765625 -0.46875q-1.625 0 -2.8125 1.03125q-1.1875 1.03125 -1.1875 3.921875l0 8.21875l-2.546875 0zm24.349823 5.796875l-0.28125 -2.390625q0.828125 0.21875 1.453125 0.21875q0.859375 0 1.359375 -0.28125q0.515625 -0.28125 0.84375 -0.796875q0.234375 -0.375 0.78125 -1.890625q0.0625 -0.21875 0.21875 -0.625l-5.703125 -15.0625l2.75 0l3.125 8.703125q0.609375 1.65625 1.09375 3.484375q0.4375 -1.765625 1.046875 -3.421875l3.21875 -8.765625l2.546875 0l-5.71875 15.28125q-0.921875 2.484375 -1.4375 3.421875q-0.671875 1.25 -1.5625 1.84375q-0.875 0.59375 -2.09375 0.59375q-0.734375 0 -1.640625 -0.3125z" fill-rule="nonzero"></path><path fill="#000000" d="m121.69135 242.95618l0.359375 2.25q-1.078125 0.234375 -1.921875 0.234375q-1.390625 0 -2.15625 -0.4375q-0.765625 -0.453125 -1.078125 -1.15625q-0.3125 -0.71875 -0.3125 -3.015625l0 -8.65625l-1.859375 0l0 -1.96875l1.859375 0l0 -3.734375l2.53125 -1.53125l0 5.265625l2.578125 0l0 1.96875l-2.578125 0l0 8.796875q0 1.09375 0.140625 1.40625q0.140625 0.3125 0.4375 0.5q0.3125 0.171875 0.875 0.171875q0.421875 0 1.125 -0.09375zm2.5858002 -15.546875l0 -2.9375l2.546875 0l0 2.9375l-2.546875 0zm0 17.828125l0 -15.03125l2.546875 0l0 15.03125l-2.546875 0zm16.797035 -4.84375l2.640625 0.328125q-0.625 2.3125 -2.3125 3.59375q-1.6875 1.265625 -4.296875 1.265625q-3.3125 0 -5.25 -2.03125q-1.921875 -2.03125 -1.921875 -5.703125q0 -3.796875 1.953125 -5.890625q1.953125 -2.09375 5.0625 -2.09375q3.03125 0 4.9375 2.0625q1.90625 2.046875 1.90625 5.765625q0 0.21875 -0.015625 0.671875l-11.203125 0q0.140625 2.484375 1.390625 3.8125q1.265625 1.3125 3.140625 1.3125q1.40625 0 2.390625 -0.734375q1.0 -0.75 1.578125 -2.359375zm-8.359375 -4.125l8.390625 0q-0.171875 -1.890625 -0.96875 -2.84375q-1.21875 -1.46875 -3.15625 -1.46875q-1.75 0 -2.953125 1.171875q-1.1875 1.171875 -1.3125 3.140625zm14.373413 8.96875l0 -15.03125l2.296875 0l0 2.125q1.65625 -2.46875 4.78125 -2.46875q1.359375 0 2.5 0.484375q1.140625 0.484375 1.703125 1.28125q0.578125 0.796875 0.796875 1.890625q0.140625 0.703125 0.140625 2.46875l0 9.25l-2.546875 0l0 -9.140625q0 -1.5625 -0.296875 -2.328125q-0.296875 -0.78125 -1.0625 -1.234375q-0.75 -0.46875 -1.765625 -0.46875q-1.625 0 -2.8125 1.03125q-1.1875 1.03125 -1.1875 3.921875l0 8.21875l-2.546875 0zm26.607788 -4.84375l2.640625 0.328125q-0.625 2.3125 -2.3125 3.59375q-1.6875 1.265625 -4.296875 1.265625q-3.3125 0 -5.25 -2.03125q-1.921875 -2.03125 -1.921875 -5.703125q0 -3.796875 1.953125 -5.890625q1.953125 -2.09375 5.0625 -2.09375q3.03125 0 4.9375 2.0625q1.90625 2.046875 1.90625 5.765625q0 0.21875 -0.015625 0.671875l-11.203125 0q0.140625 2.484375 1.390625 3.8125q1.265625 1.3125 3.140625 1.3125q1.40625 0 2.390625 -0.734375q1.0 -0.75 1.578125 -2.359375zm-8.359375 -4.125l8.390625 0q-0.171875 -1.890625 -0.96875 -2.84375q-1.21875 -1.46875 -3.15625 -1.46875q-1.75 0 -2.953125 1.171875q-1.1875 1.171875 -1.3125 3.140625zm14.373413 8.96875l0 -15.03125l2.296875 0l0 2.125q1.65625 -2.46875 4.78125 -2.46875q1.359375 0 2.5 0.484375q1.140625 0.484375 1.703125 1.28125q0.578125 0.796875 0.796875 1.890625q0.140625 0.703125 0.140625 2.46875l0 9.25l-2.546875 0l0 -9.140625q0 -1.5625 -0.296875 -2.328125q-0.296875 -0.78125 -1.0625 -1.234375q-0.75 -0.46875 -1.765625 -0.46875q-1.625 0 -2.8125 1.03125q-1.1875 1.03125 -1.1875 3.921875l0 8.21875l-2.546875 0zm28.646713 0l-5.71875 -15.03125l2.6875 0l3.21875 9.0q0.53125 1.453125 0.96875 3.03125q0.34375 -1.1875 0.953125 -2.859375l3.34375 -9.171875l2.609375 0l-5.6875 15.03125l-2.375 0zm20.289062 -1.859375q-1.40625 1.203125 -2.71875 1.703125q-1.3125 0.5 -2.8125 0.5q-2.484375 0 -3.8125 -1.203125q-1.328125 -1.21875 -1.328125 -3.109375q0 -1.09375 0.5 -2.0q0.5 -0.921875 1.3125 -1.46875q0.828125 -0.5625 1.84375 -0.84375q0.75 -0.203125 2.265625 -0.390625q3.078125 -0.359375 4.546875 -0.875q0.015625 -0.515625 0.015625 -0.65625q0 -1.5625 -0.734375 -2.203125q-0.96875 -0.859375 -2.890625 -0.859375q-1.796875 0 -2.65625 0.625q-0.859375 0.625 -1.265625 2.234375l-2.5 -0.34375q0.34375 -1.59375 1.125 -2.578125q0.78125 -0.984375 2.25 -1.515625q1.46875 -0.53125 3.40625 -0.53125q1.9375 0 3.140625 0.453125q1.203125 0.453125 1.765625 1.140625q0.5625 0.6875 0.796875 1.734375q0.125 0.640625 0.125 2.34375l0 3.40625q0 3.546875 0.15625 4.5q0.171875 0.9375 0.640625 1.796875l-2.65625 0q-0.390625 -0.796875 -0.515625 -1.859375zm-0.203125 -5.6875q-1.390625 0.5625 -4.171875 0.96875q-1.5625 0.21875 -2.21875 0.5q-0.65625 0.28125 -1.015625 0.828125q-0.34375 0.546875 -0.34375 1.21875q0 1.015625 0.765625 1.703125q0.78125 0.671875 2.265625 0.671875q1.46875 0 2.609375 -0.640625q1.15625 -0.65625 1.703125 -1.765625q0.40625 -0.859375 0.40625 -2.546875l0 -0.9375zm6.654663 7.546875l0 -20.765625l2.546875 0l0 20.765625l-2.546875 0zm5.6251526 -7.515625q0 -4.1875 2.3125 -6.1875q1.9375 -1.671875 4.734375 -1.671875q3.09375 0 5.0625 2.03125q1.96875 2.03125 1.96875 5.609375q0 2.90625 -0.875 4.578125q-0.859375 1.65625 -2.53125 2.578125q-1.65625 0.921875 -3.625 0.921875q-3.15625 0 -5.109375 -2.015625q-1.9375 -2.03125 -1.9375 -5.84375zm2.609375 0q0 2.890625 1.265625 4.328125q1.265625 1.4375 3.171875 1.4375q1.890625 0 3.15625 -1.4375q1.265625 -1.453125 1.265625 -4.421875q0 -2.78125 -1.28125 -4.21875q-1.265625 -1.4375 -3.140625 -1.4375q-1.90625 0 -3.171875 1.4375q-1.265625 1.421875 -1.265625 4.3125zm14.623398 7.515625l0 -15.03125l2.28125 0l0 2.265625q0.890625 -1.59375 1.625 -2.09375q0.75 -0.515625 1.640625 -0.515625q1.28125 0 2.609375 0.8125l-0.875 2.375q-0.9375 -0.5625 -1.859375 -0.5625q-0.84375 0 -1.515625 0.515625q-0.65625 0.5 -0.9375 1.390625q-0.421875 1.359375 -0.421875 2.96875l0 7.875l-2.546875 0zm20.07901 -4.84375l2.640625 0.328125q-0.625 2.3125 -2.3125 3.59375q-1.6875 1.265625 -4.296875 1.265625q-3.3125 0 -5.25 -2.03125q-1.921875 -2.03125 -1.921875 -5.703125q0 -3.796875 1.953125 -5.890625q1.953125 -2.09375 5.0625 -2.09375q3.03125 0 4.9375 2.0625q1.90625 2.046875 1.90625 5.765625q0 0.21875 -0.015625 0.671875l-11.203125 0q0.140625 2.484375 1.390625 3.8125q1.265625 1.3125 3.140625 1.3125q1.40625 0 2.390625 -0.734375q1.0 -0.75 1.578125 -2.359375zm-8.359375 -4.125l8.390625 0q-0.171875 -1.890625 -0.96875 -2.84375q-1.21875 -1.46875 -3.15625 -1.46875q-1.75 0 -2.953125 1.171875q-1.1875 1.171875 -1.3125 3.140625zm13.357788 4.484375l2.515625 -0.40625q0.21875 1.515625 1.1875 2.328125q0.96875 0.8125 2.71875 0.8125q1.75 0 2.59375 -0.71875q0.859375 -0.71875 0.859375 -1.6875q0 -0.859375 -0.75 -1.359375q-0.53125 -0.328125 -2.609375 -0.859375q-2.796875 -0.703125 -3.890625 -1.21875q-1.078125 -0.515625 -1.640625 -1.421875q-0.5625 -0.921875 -0.5625 -2.03125q0 -1.0 0.453125 -1.859375q0.46875 -0.859375 1.265625 -1.421875q0.59375 -0.4375 1.609375 -0.734375q1.03125 -0.3125 2.21875 -0.3125q1.765625 0 3.09375 0.515625q1.34375 0.5 1.984375 1.375q0.640625 0.875 0.875 2.328125l-2.484375 0.34375q-0.171875 -1.171875 -0.984375 -1.8125q-0.8125 -0.65625 -2.3125 -0.65625q-1.75 0 -2.5 0.578125q-0.75 0.578125 -0.75 1.359375q0 0.5 0.3125 0.890625q0.3125 0.40625 0.96875 0.6875q0.390625 0.140625 2.265625 0.640625q2.703125 0.734375 3.765625 1.1875q1.0625 0.453125 1.671875 1.34375q0.609375 0.875 0.609375 2.171875q0 1.28125 -0.75 2.40625q-0.734375 1.125 -2.140625 1.75q-1.390625 0.609375 -3.15625 0.609375q-2.9375 0 -4.484375 -1.21875q-1.53125 -1.21875 -1.953125 -3.609375z" fill-rule="nonzero"></path><path fill="#000000" d="m143.04575 278.37805q-1.40625 1.203125 -2.71875 1.703125q-1.3125 0.5 -2.8125 0.5q-2.484375 0 -3.8125 -1.203125q-1.328125 -1.21875 -1.328125 -3.109375q0 -1.09375 0.5 -2.0q0.5 -0.921875 1.3125 -1.46875q0.828125 -0.5625 1.84375 -0.84375q0.75 -0.203125 2.265625 -0.390625q3.078125 -0.359375 4.546875 -0.875q0.015625 -0.515625 0.015625 -0.65625q0 -1.5625 -0.734375 -2.203125q-0.96875 -0.859375 -2.890625 -0.859375q-1.796875 0 -2.65625 0.625q-0.859375 0.625 -1.265625 2.234375l-2.5 -0.34375q0.34375 -1.59375 1.125 -2.578125q0.78125 -0.984375 2.25 -1.515625q1.46875 -0.53125 3.40625 -0.53125q1.9375 0 3.140625 0.453125q1.203125 0.453125 1.765625 1.140625q0.5625 0.6875 0.796875 1.734375q0.125 0.640625 0.125 2.34375l0 3.40625q0 3.546875 0.15625 4.5q0.171875 0.9375 0.640625 1.796875l-2.65625 0q-0.390625 -0.796875 -0.515625 -1.859375zm-0.203125 -5.6875q-1.390625 0.5625 -4.171875 0.96875q-1.5625 0.21875 -2.21875 0.5q-0.65625 0.28125 -1.015625 0.828125q-0.34375 0.546875 -0.34375 1.21875q0 1.015625 0.765625 1.703125q0.78125 0.671875 2.265625 0.671875q1.46875 0 2.609375 -0.640625q1.15625 -0.65625 1.703125 -1.765625q0.40625 -0.859375 0.40625 -2.546875l0 -0.9375zm6.654663 7.546875l0 -20.765625l2.546875 0l0 20.765625l-2.546875 0zm12.140778 -2.28125l0.359375 2.25q-1.078125 0.234375 -1.921875 0.234375q-1.390625 0 -2.15625 -0.4375q-0.765625 -0.453125 -1.078125 -1.15625q-0.3125 -0.71875 -0.3125 -3.015625l0 -8.65625l-1.859375 0l0 -1.96875l1.859375 0l0 -3.734375l2.53125 -1.53125l0 5.265625l2.578125 0l0 1.96875l-2.578125 0l0 8.796875q0 1.09375 0.140625 1.40625q0.140625 0.3125 0.4375 0.5q0.3125 0.171875 0.875 0.171875q0.421875 0 1.125 -0.09375zm1.6326752 -5.234375q0 -4.1875 2.3125 -6.1875q1.9375 -1.671875 4.734375 -1.671875q3.09375 0 5.0625 2.03125q1.96875 2.03125 1.96875 5.609375q0 2.90625 -0.875 4.578125q-0.859375 1.65625 -2.53125 2.578125q-1.65625 0.921875 -3.625 0.921875q-3.15625 0 -5.109375 -2.015625q-1.9375 -2.03125 -1.9375 -5.84375zm2.609375 0q0 2.890625 1.265625 4.328125q1.265625 1.4375 3.171875 1.4375q1.890625 0 3.15625 -1.4375q1.265625 -1.453125 1.265625 -4.421875q0 -2.78125 -1.28125 -4.21875q-1.265625 -1.4375 -3.140625 -1.4375q-1.90625 0 -3.171875 1.4375q-1.265625 1.421875 -1.265625 4.3125zm13.623413 3.03125l2.515625 -0.40625q0.21875 1.515625 1.1875 2.328125q0.96875 0.8125 2.71875 0.8125q1.75 0 2.59375 -0.71875q0.859375 -0.71875 0.859375 -1.6875q0 -0.859375 -0.75 -1.359375q-0.53125 -0.328125 -2.609375 -0.859375q-2.796875 -0.703125 -3.890625 -1.21875q-1.078125 -0.515625 -1.640625 -1.421875q-0.5625 -0.921875 -0.5625 -2.03125q0 -1.0 0.453125 -1.859375q0.46875 -0.859375 1.265625 -1.421875q0.59375 -0.4375 1.609375 -0.734375q1.03125 -0.3125 2.21875 -0.3125q1.765625 0 3.09375 0.515625q1.34375 0.5 1.984375 1.375q0.640625 0.875 0.875 2.328125l-2.484375 0.34375q-0.171875 -1.171875 -0.984375 -1.8125q-0.8125 -0.65625 -2.3125 -0.65625q-1.75 0 -2.5 0.578125q-0.75 0.578125 -0.75 1.359375q0 0.5 0.3125 0.890625q0.3125 0.40625 0.96875 0.6875q0.390625 0.140625 2.265625 0.640625q2.703125 0.734375 3.765625 1.1875q1.0625 0.453125 1.671875 1.34375q0.609375 0.875 0.609375 2.171875q0 1.28125 -0.75 2.40625q-0.734375 1.125 -2.140625 1.75q-1.390625 0.609375 -3.15625 0.609375q-2.9375 0 -4.484375 -1.21875q-1.53125 -1.21875 -1.953125 -3.609375zm34.124863 -0.359375l2.640625 0.328125q-0.625 2.3125 -2.3125 3.59375q-1.6875 1.265625 -4.296875 1.265625q-3.3125 0 -5.25 -2.03125q-1.921875 -2.03125 -1.921875 -5.703125q0 -3.796875 1.953125 -5.890625q1.953125 -2.09375 5.0625 -2.09375q3.03125 0 4.9375 2.0625q1.90625 2.046875 1.90625 5.765625q0 0.21875 -0.015625 0.671875l-11.203125 0q0.140625 2.484375 1.390625 3.8125q1.265625 1.3125 3.140625 1.3125q1.40625 0 2.390625 -0.734375q1.0 -0.75 1.578125 -2.359375zm-8.359375 -4.125l8.390625 0q-0.171875 -1.890625 -0.96875 -2.84375q-1.21875 -1.46875 -3.15625 -1.46875q-1.75 0 -2.953125 1.171875q-1.1875 1.171875 -1.3125 3.140625zm14.373413 8.96875l0 -15.03125l2.296875 0l0 2.125q1.65625 -2.46875 4.78125 -2.46875q1.359375 0 2.5 0.484375q1.140625 0.484375 1.703125 1.28125q0.578125 0.796875 0.796875 1.890625q0.140625 0.703125 0.140625 2.46875l0 9.25l-2.546875 0l0 -9.140625q0 -1.5625 -0.296875 -2.328125q-0.296875 -0.78125 -1.0625 -1.234375q-0.75 -0.46875 -1.765625 -0.46875q-1.625 0 -2.8125 1.03125q-1.1875 1.03125 -1.1875 3.921875l0 8.21875l-2.546875 0zm24.412338 0l0 -20.765625l2.546875 0l0 20.765625l-2.546875 0zm16.375137 -1.859375q-1.40625 1.203125 -2.71875 1.703125q-1.3125 0.5 -2.8124847 0.5q-2.484375 0 -3.8125 -1.203125q-1.328125 -1.21875 -1.328125 -3.109375q0 -1.09375 0.5 -2.0q0.5 -0.921875 1.3125 -1.46875q0.828125 -0.5625 1.84375 -0.84375q0.75 -0.203125 2.265625 -0.390625q3.0781097 -0.359375 4.5468597 -0.875q0.015625 -0.515625 0.015625 -0.65625q0 -1.5625 -0.734375 -2.203125q-0.96875 -0.859375 -2.890625 -0.859375q-1.7968597 0 -2.6562347 0.625q-0.859375 0.625 -1.265625 2.234375l-2.5 -0.34375q0.34375 -1.59375 1.125 -2.578125q0.78125 -0.984375 2.25 -1.515625q1.46875 -0.53125 3.4062347 -0.53125q1.9375 0 3.140625 0.453125q1.203125 0.453125 1.765625 1.140625q0.5625 0.6875 0.796875 1.734375q0.125 0.640625 0.125 2.34375l0 3.40625q0 3.546875 0.15625 4.5q0.171875 0.9375 0.640625 1.796875l-2.65625 0q-0.390625 -0.796875 -0.515625 -1.859375zm-0.203125 -5.6875q-1.390625 0.5625 -4.171875 0.96875q-1.5624847 0.21875 -2.2187347 0.5q-0.65625 0.28125 -1.015625 0.828125q-0.34375 0.546875 -0.34375 1.21875q0 1.015625 0.765625 1.703125q0.78125 0.671875 2.265625 0.671875q1.4687347 0 2.6093597 -0.640625q1.15625 -0.65625 1.703125 -1.765625q0.40625 -0.859375 0.40625 -2.546875l0 -0.9375zm5.685913 3.0625l2.515625 -0.40625q0.21875 1.515625 1.1875 2.328125q0.96875 0.8125 2.71875 0.8125q1.75 0 2.59375 -0.71875q0.859375 -0.71875 0.859375 -1.6875q0 -0.859375 -0.75 -1.359375q-0.53125 -0.328125 -2.609375 -0.859375q-2.796875 -0.703125 -3.890625 -1.21875q-1.078125 -0.515625 -1.640625 -1.421875q-0.5625 -0.921875 -0.5625 -2.03125q0 -1.0 0.453125 -1.859375q0.46875 -0.859375 1.265625 -1.421875q0.59375 -0.4375 1.609375 -0.734375q1.03125 -0.3125 2.21875 -0.3125q1.765625 0 3.09375 0.515625q1.34375 0.5 1.984375 1.375q0.640625 0.875 0.875 2.328125l-2.484375 0.34375q-0.171875 -1.171875 -0.984375 -1.8125q-0.8125 -0.65625 -2.3125 -0.65625q-1.75 0 -2.5 0.578125q-0.75 0.578125 -0.75 1.359375q0 0.5 0.3125 0.890625q0.3125 0.40625 0.96875 0.6875q0.390625 0.140625 2.265625 0.640625q2.703125 0.734375 3.765625 1.1875q1.0625 0.453125 1.671875 1.34375q0.609375 0.875 0.609375 2.171875q0 1.28125 -0.75 2.40625q-0.734375 1.125 -2.140625 1.75q-1.390625 0.609375 -3.15625 0.609375q-2.9375 0 -4.484375 -1.21875q-1.53125 -1.21875 -1.953125 -3.609375z" fill-rule="nonzero"></path><path fill="#000000" d="m90.014336 321.00305l0 -20.796875l2.328125 0l0 1.953125q0.828125 -1.15625 1.859375 -1.71875q1.03125 -0.578125 2.5 -0.578125q1.921875 0 3.390625 1.0q1.484375 0.984375 2.234375 2.796875q0.75 1.796875 0.75 3.953125q0 2.296875 -0.828125 4.15625q-0.828125 1.84375 -2.40625 2.828125q-1.578125 0.984375 -3.328125 0.984375q-1.265625 0 -2.28125 -0.53125q-1.015625 -0.546875 -1.671875 -1.375l0 7.328125l-2.546875 0zm2.3125 -13.203125q0 2.90625 1.171875 4.296875q1.1875 1.390625 2.84375 1.390625q1.703125 0 2.90625 -1.4375q1.21875 -1.4375 1.21875 -4.453125q0 -2.875 -1.1875 -4.296875q-1.171875 -1.4375 -2.8125 -1.4375q-1.640625 0 -2.890625 1.515625q-1.25 1.515625 -1.25 4.421875zm13.982788 7.4375l0 -15.03125l2.28125 0l0 2.265625q0.890625 -1.59375 1.625 -2.09375q0.75 -0.515625 1.640625 -0.515625q1.28125 0 2.609375 0.8125l-0.875 2.375q-0.9375 -0.5625 -1.859375 -0.5625q-0.84375 0 -1.515625 0.515625q-0.65625 0.5 -0.9375 1.390625q-0.421875 1.359375 -0.421875 2.96875l0 7.875l-2.546875 0zm20.078995 -4.84375l2.6406326 0.328125q-0.625 2.3125 -2.3125076 3.59375q-1.6875 1.265625 -4.296875 1.265625q-3.3125 0 -5.25 -2.03125q-1.921875 -2.03125 -1.921875 -5.703125q0 -3.796875 1.953125 -5.890625q1.953125 -2.09375 5.0625 -2.09375q3.03125 0 4.9375 2.0625q1.9062576 2.046875 1.9062576 5.765625q0 0.21875 -0.015625 0.671875l-11.203133 0q0.140625 2.484375 1.390625 3.8125q1.265625 1.3125 3.140625 1.3125q1.40625 0 2.390625 -0.734375q1.0 -0.75 1.578125 -2.359375zm-8.359375 -4.125l8.390625 0q-0.171875 -1.890625 -0.96875 -2.84375q-1.21875 -1.46875 -3.15625 -1.46875q-1.75 0 -2.953125 1.171875q-1.1875 1.171875 -1.3125 3.140625zm13.904671 10.21875l2.484375 0.359375q0.15625 1.15625 0.859375 1.671875q0.953125 0.71875 2.59375 0.71875q1.765625 0 2.734375 -0.71875q0.96875 -0.703125 1.296875 -1.984375q0.203125 -0.765625 0.1875 -3.265625q-1.671875 1.96875 -4.15625 1.96875q-3.109375 0 -4.8125 -2.234375q-1.6875 -2.234375 -1.6875 -5.375q0 -2.140625 0.78125 -3.953125q0.78125 -1.828125 2.25 -2.8125q1.484375 -1.0 3.484375 -1.0q2.65625 0 4.390625 2.15625l0 -1.8125l2.34375 0l0 12.984375q0 3.515625 -0.71875 4.984375q-0.703125 1.46875 -2.265625 2.3125q-1.546875 0.859375 -3.8125 0.859375q-2.6875 0 -4.34375 -1.21875q-1.65625 -1.203125 -1.609375 -3.640625zm2.109375 -9.03125q0 2.953125 1.171875 4.3125q1.1875 1.359375 2.953125 1.359375q1.765625 0 2.953125 -1.34375q1.1875 -1.359375 1.1875 -4.25q0 -2.765625 -1.234375 -4.15625q-1.21875 -1.40625 -2.953125 -1.40625q-1.6875 0 -2.890625 1.390625q-1.1875 1.375 -1.1875 4.09375zm24.529663 7.78125l0 -2.203125q-1.75 2.546875 -4.765625 2.546875q-1.328125 0 -2.484375 -0.515625q-1.15625 -0.515625 -1.71875 -1.28125q-0.5625 -0.765625 -0.78125 -1.890625q-0.15625 -0.75 -0.15625 -2.375l0 -9.3125l2.546875 0l0 8.328125q0 2.0 0.15625 2.703125q0.234375 1.0 1.015625 1.578125q0.78125 0.5625 1.921875 0.5625q1.15625 0 2.15625 -0.578125q1.0 -0.59375 1.421875 -1.609375q0.421875 -1.015625 0.421875 -2.9375l0 -8.046875l2.546875 0l0 15.03125l-2.28125 0zm6.451538 0l0 -15.03125l2.296875 0l0 2.125q1.65625 -2.46875 4.78125 -2.46875q1.359375 0 2.5 0.484375q1.140625 0.484375 1.703125 1.28125q0.578125 0.796875 0.796875 1.890625q0.140625 0.703125 0.140625 2.46875l0 9.25l-2.546875 0l0 -9.140625q0 -1.5625 -0.296875 -2.328125q-0.296875 -0.78125 -1.0625 -1.234375q-0.75 -0.46875 -1.765625 -0.46875q-1.625 0 -2.8125 1.03125q-1.1875 1.03125 -1.1875 3.921875l0 8.21875l-2.546875 0zm21.889038 -2.28125l0.359375 2.25q-1.078125 0.234375 -1.921875 0.234375q-1.390625 0 -2.15625 -0.4375q-0.765625 -0.453125 -1.078125 -1.15625q-0.3125 -0.71875 -0.3125 -3.015625l0 -8.65625l-1.859375 0l0 -1.96875l1.859375 0l0 -3.734375l2.53125 -1.53125l0 5.265625l2.578125 0l0 1.96875l-2.578125 0l0 8.796875q0 1.09375 0.140625 1.40625q0.140625 0.3125 0.4375 0.5q0.3125 0.171875 0.875 0.171875q0.421875 0 1.125 -0.09375zm12.382675 0.421875q-1.40625 1.203125 -2.71875 1.703125q-1.3125 0.5 -2.8125 0.5q-2.484375 0 -3.8125 -1.203125q-1.328125 -1.21875 -1.328125 -3.109375q0 -1.09375 0.5 -2.0q0.5 -0.921875 1.3125 -1.46875q0.828125 -0.5625 1.84375 -0.84375q0.75 -0.203125 2.265625 -0.390625q3.078125 -0.359375 4.546875 -0.875q0.015625 -0.515625 0.015625 -0.65625q0 -1.5625 -0.734375 -2.203125q-0.96875 -0.859375 -2.890625 -0.859375q-1.796875 0 -2.65625 0.625q-0.859375 0.625 -1.265625 2.234375l-2.5 -0.34375q0.34375 -1.59375 1.125 -2.578125q0.78125 -0.984375 2.25 -1.515625q1.46875 -0.53125 3.40625 -0.53125q1.9375 0 3.140625 0.453125q1.203125 0.453125 1.765625 1.140625q0.5625 0.6875 0.796875 1.734375q0.125 0.640625 0.125 2.34375l0 3.40625q0 3.546875 0.15625 4.5q0.171875 0.9375 0.640625 1.796875l-2.65625 0q-0.390625 -0.796875 -0.515625 -1.859375zm-0.203125 -5.6875q-1.390625 0.5625 -4.171875 0.96875q-1.5625 0.21875 -2.21875 0.5q-0.65625 0.28125 -1.015625 0.828125q-0.34375 0.546875 -0.34375 1.21875q0 1.015625 0.765625 1.703125q0.78125 0.671875 2.265625 0.671875q1.46875 0 2.609375 -0.640625q1.15625 -0.65625 1.703125 -1.765625q0.40625 -0.859375 0.40625 -2.546875l0 -0.9375zm5.685913 3.0625l2.515625 -0.40625q0.21875 1.515625 1.1875 2.328125q0.96875 0.8125 2.71875 0.8125q1.75 0 2.59375 -0.71875q0.859375 -0.71875 0.859375 -1.6875q0 -0.859375 -0.75 -1.359375q-0.53125 -0.328125 -2.609375 -0.859375q-2.796875 -0.703125 -3.890625 -1.21875q-1.078125 -0.515625 -1.640625 -1.421875q-0.5625 -0.921875 -0.5625 -2.03125q0 -1.0 0.453125 -1.859375q0.46875 -0.859375 1.265625 -1.421875q0.59375 -0.4375 1.609375 -0.734375q1.03125 -0.3125 2.21875 -0.3125q1.765625 0 3.09375 0.515625q1.34375 0.5 1.984375 1.375q0.640625 0.875 0.875 2.328125l-2.484375 0.34375q-0.171875 -1.171875 -0.984375 -1.8125q-0.8125 -0.65625 -2.3125 -0.65625q-1.75 0 -2.5 0.578125q-0.75 0.578125 -0.75 1.359375q0 0.5 0.3125 0.890625q0.3125 0.40625 0.96875 0.6875q0.390625 0.140625 2.265625 0.640625q2.703125 0.734375 3.765625 1.1875q1.0625 0.453125 1.671875 1.34375q0.609375 0.875 0.609375 2.171875q0 1.28125 -0.75 2.40625q-0.734375 1.125 -2.140625 1.75q-1.390625 0.609375 -3.15625 0.609375q-2.9375 0 -4.484375 -1.21875q-1.53125 -1.21875 -1.953125 -3.609375zm32.718613 4.484375l-2.546875 0l0 -16.234375q-0.921875 0.875 -2.421875 1.75q-1.484375 0.875 -2.671875 1.3125l0 -2.46875q2.140625 -1.0 3.734375 -2.421875q1.609375 -1.4375 2.265625 -2.78125l1.640625 0l0 20.84375zm6.732788 -5.484375l2.546875 -0.328125q0.4375 2.15625 1.484375 3.125q1.0625 0.953125 2.578125 0.953125q1.796875 0 3.03125 -1.25q1.25 -1.25 1.25 -3.09375q0 -1.75 -1.15625 -2.890625q-1.140625 -1.140625 -2.90625 -1.140625q-0.71875 0 -1.796875 0.28125l0.28125 -2.234375q0.25 0.03125 0.40625 0.03125q1.625 0 2.921875 -0.84375q1.3125 -0.859375 1.3125 -2.625q0 -1.40625 -0.953125 -2.328125q-0.9375 -0.921875 -2.4375 -0.921875q-1.5 0 -2.484375 0.9375q-0.984375 0.9375 -1.28125 2.796875l-2.546875 -0.453125q0.46875 -2.5625 2.125 -3.96875q1.65625 -1.40625 4.125 -1.40625q1.703125 0 3.125 0.734375q1.4375 0.71875 2.1874847 1.984375q0.765625 1.265625 0.765625 2.671875q0 1.34375 -0.734375 2.453125q-0.71873474 1.109375 -2.1249847 1.75q1.828125 0.4375 2.8437347 1.78125q1.03125 1.328125 1.03125 3.34375q0 2.71875 -1.9843597 4.609375q-1.984375 1.890625 -5.015625 1.890625q-2.734375 0 -4.546875 -1.625q-1.796875 -1.640625 -2.046875 -4.234375zm25.037338 11.28125l-0.28125 -2.390625q0.828125 0.21875 1.453125 0.21875q0.859375 0 1.359375 -0.28125q0.515625 -0.28125 0.84375 -0.796875q0.234375 -0.375 0.78125 -1.890625q0.0625 -0.21875 0.21875 -0.625l-5.703125 -15.0625l2.75 0l3.125 8.703125q0.609375 1.65625 1.09375 3.484375q0.4375 -1.765625 1.046875 -3.421875l3.21875 -8.765625l2.546875 0l-5.71875 15.28125q-0.921875 2.484375 -1.4375 3.421875q-0.671875 1.25 -1.5625 1.84375q-0.875 0.59375 -2.09375 0.59375q-0.734375 0 -1.640625 -0.3125zm31.812347 -5.796875l-2.546875 0l0 -16.234375q-0.921875 0.875 -2.421875 1.75q-1.484375 0.875 -2.671875 1.3125l0 -2.46875q2.140625 -1.0 3.734375 -2.421875q1.609375 -1.4375 2.265625 -2.78125l1.640625 0l0 20.84375zm6.717163 -10.234375q0 -3.6875 0.75 -5.921875q0.765625 -2.25 2.25 -3.46875q1.5 -1.21875 3.765625 -1.21875q1.671875 0 2.921875 0.671875q1.265625 0.671875 2.09375 1.9375q0.828125 1.265625 1.28125 3.09375q0.46875 1.8125 0.46875 4.90625q0 3.65625 -0.75 5.90625q-0.75 2.234375 -2.25 3.46875q-1.484375 1.21875 -3.765625 1.21875q-3.0 0 -4.71875 -2.15625q-2.046875 -2.59375 -2.046875 -8.4375zm2.625 0q0 5.109375 1.1875 6.8125q1.203125 1.6875 2.953125 1.6875q1.765625 0 2.953125 -1.703125q1.203125 -1.703125 1.203125 -6.796875q0 -5.125 -1.203125 -6.8125q-1.1875 -1.6875 -2.984375 -1.6875q-1.75 0 -2.796875 1.484375q-1.3125 1.90625 -1.3125 7.015625z" fill-rule="nonzero"></path><path fill="#d9ead3" d="m410.32022 166.04724l0 0c0 -35.685425 28.928741 -64.614174 64.61417 -64.614174l0 0c17.13675 0 33.571594 6.8075485 45.689087 18.925056c12.117554 12.117508 18.92511 28.552383 18.92511 45.689117l0 0c0 35.685425 -28.928772 64.61418 -64.6142 64.61418l0 0c-35.685425 0 -64.61417 -28.928757 -64.61417 -64.61418z" fill-rule="evenodd"></path><path stroke="#000000" stroke-width="1.0" stroke-linejoin="round" stroke-linecap="butt" d="m410.32022 166.04724l0 0c0 -35.685425 28.928741 -64.614174 64.61417 -64.614174l0 0c17.13675 0 33.571594 6.8075485 45.689087 18.925056c12.117554 12.117508 18.92511 28.552383 18.92511 45.689117l0 0c0 35.685425 -28.928772 64.61418 -64.6142 64.61418l0 0c-35.685425 0 -64.61417 -28.928757 -64.61417 -64.61418z" fill-rule="evenodd"></path></g></svg>

